<svg width="26" height="44" viewBox="0 0 26 44" fill="none" xmlns="http://www.w3.org/2000/svg">
<path d="M20.948 16.796L25.9711 28.5644C25.9953 28.6254 26.0023 28.693 25.9913 28.7584C25.9804 28.8239 25.9519 28.8843 25.9096 28.9318L12.6963 42.9829C12.6753 43.0051 12.6488 43.0199 12.6201 43.0253C12.5913 43.0308 12.5618 43.0267 12.5352 43.0135C12.5087 43.0003 12.4863 42.9787 12.471 42.9514C12.4557 42.9241 12.4481 42.8925 12.4493 42.8604V29.9498L20.776 21.1033C20.8047 21.0739 20.8274 21.0381 20.8424 20.9982C20.8574 20.9583 20.8643 20.9154 20.8628 20.8722L20.8872 16.7951C20.8872 16.7682 20.937 16.7682 20.9488 16.7951L20.948 16.796Z" fill="#6000FF"/>
<path fill-rule="evenodd" clip-rule="evenodd" d="M12.4508 29.9508V42.8606C12.45 42.8925 12.4578 42.9239 12.4732 42.9509C12.4885 42.9779 12.5109 42.9993 12.5373 43.0124C12.5637 43.0255 12.593 43.0297 12.6216 43.0245C12.6501 43.0193 12.6767 43.0049 12.6978 42.9831L25.9111 28.932C25.9536 28.8846 25.9823 28.8243 25.9934 28.7588C26.0045 28.6933 25.9975 28.6257 25.9734 28.5646L20.8145 21.0601L12.4492 29.9508H12.4508Z" fill="url(#paint0_linear_2259_119)"/>
<path fill-rule="evenodd" clip-rule="evenodd" d="M20.917 16.7613C20.9131 16.7611 20.9091 16.7618 20.9054 16.7633C20.9018 16.7648 20.8984 16.7672 20.8956 16.7702C20.8928 16.7732 20.8905 16.7768 20.8891 16.7809C20.8876 16.7849 20.8869 16.7892 20.887 16.7935L20.8665 20.8698C20.8679 20.9367 20.8512 21.0027 20.8184 21.0591L25.9977 28.7522C26.008 28.683 25.9995 28.6119 25.9733 28.548L20.9501 16.7796C20.9471 16.7738 20.9427 16.769 20.9375 16.7656C20.9322 16.7623 20.9262 16.7605 20.9201 16.7605L20.917 16.7613Z" fill="url(#paint1_linear_2259_119)"/>
<path fill-rule="evenodd" clip-rule="evenodd" d="M25.992 28.7521C26.0023 28.6829 25.9938 28.6118 25.9676 28.5479L25.7071 27.9399L21.0312 21.3865L25.992 28.7521Z" fill="#BE80F5"/>
<path d="M9.07174 6.91655L6.70893 14.2821C6.68162 14.3674 6.68616 14.4611 6.72156 14.5427L8.92337 19.3121L2.8609 23.0896C2.82473 23.1103 2.78268 23.1148 2.74354 23.1022C2.70441 23.0896 2.67124 23.0608 2.65098 23.0218L1.33936 20.0183C1.31556 19.9691 1.30522 19.9134 1.30956 19.8579C1.3139 19.8024 1.33275 19.7495 1.36383 19.7056L9.00939 6.87747C9.01526 6.8711 9.02289 6.86707 9.03107 6.86601C9.03925 6.86494 9.04751 6.8669 9.05457 6.87158C9.06162 6.87626 9.06706 6.88339 9.07003 6.89185C9.07299 6.9003 9.07332 6.90961 9.07095 6.91829L9.07174 6.91655Z" fill="#6000FF"/>
<path fill-rule="evenodd" clip-rule="evenodd" d="M9.03596 6.86475C9.02702 6.86493 9.01852 6.86899 9.01228 6.87604L1.69345 19.1561L1.68555 19.1726L6.71184 14.2825L6.72762 14.2329L9.07384 6.92121C9.07563 6.91506 9.07605 6.90853 9.07505 6.90217C9.07404 6.89581 9.07165 6.88981 9.06809 6.88469C9.06452 6.87957 9.05987 6.87547 9.05455 6.87275C9.04923 6.87003 9.0434 6.86878 9.03755 6.86909L9.03596 6.86475Z" fill="url(#paint2_linear_2259_119)"/>
<path fill-rule="evenodd" clip-rule="evenodd" d="M1.36354 19.7039C1.33264 19.748 1.3139 19.8009 1.30957 19.8563C1.30523 19.9118 1.31547 19.9674 1.33907 20.0166L2.6507 23.0202C2.67097 23.0594 2.70427 23.0883 2.74359 23.101C2.78291 23.1136 2.82516 23.1089 2.86141 23.0879L8.92389 19.3105L6.72207 14.5411C6.68667 14.4595 6.68214 14.3658 6.70945 14.2805L1.36354 19.7039Z" fill="url(#paint3_linear_2259_119)"/>
<path fill-rule="evenodd" clip-rule="evenodd" d="M12.4496 0.963473V12.4201C12.448 12.4891 12.4264 12.5557 12.388 12.6103L0.57247 30.2356C0.529904 30.2983 0.510097 30.3762 0.516957 30.4541C0.523816 30.532 0.556846 30.6043 0.609559 30.6569L8.89594 39.4626C8.91263 39.4819 8.93355 39.4963 8.9567 39.5042C8.97986 39.5122 9.00447 39.5135 9.02821 39.508C9.05194 39.5025 9.074 39.4904 9.0923 39.4729C9.11059 39.4553 9.12448 39.433 9.13268 39.4078L18.1396 16.2115C18.1644 16.1321 18.1644 16.0459 18.1396 15.9665L12.5601 0.940022C12.5569 0.928065 12.5504 0.917512 12.5415 0.909869C12.5326 0.902225 12.5217 0.897883 12.5104 0.897461C12.4943 0.897461 12.4788 0.904507 12.4674 0.91705C12.456 0.929593 12.4496 0.946604 12.4496 0.964342V0.963473Z" fill="url(#paint4_linear_2259_119)"/>
<path fill-rule="evenodd" clip-rule="evenodd" d="M12.5081 0.897461C12.492 0.897461 12.4765 0.904507 12.4651 0.91705C12.4537 0.929593 12.4473 0.946604 12.4473 0.964342V12.4201C12.4464 12.4526 12.4411 12.4848 12.4315 12.5156L18.0647 15.7798L12.557 0.937416C12.5534 0.925946 12.5468 0.915959 12.5379 0.908812C12.529 0.901664 12.5183 0.897701 12.5073 0.897461H12.5081Z" fill="url(#paint5_linear_2259_119)"/>
<path fill-rule="evenodd" clip-rule="evenodd" d="M18.161 16.0944C18.1611 16.054 18.1552 16.0138 18.1437 15.9754L18.0727 15.7817L12.4355 12.5176L13.5151 13.1968L18.1618 16.0961L18.161 16.0944Z" fill="url(#paint6_linear_2259_119)"/>
<path d="M1.67812 19.176L1.36719 19.6971L6.70756 14.2815L1.67812 19.176Z" fill="#BE80F5"/>
<defs>
<linearGradient id="paint0_linear_2259_119" x1="19.9555" y1="33.8007" x2="12.6855" y2="32.2732" gradientUnits="userSpaceOnUse">
<stop stop-color="#6000FF"/>
<stop offset="0.651" stop-color="#4900C3"/>
<stop offset="1" stop-color="#320086"/>
</linearGradient>
<linearGradient id="paint1_linear_2259_119" x1="21.1294" y1="15.7172" x2="26.8023" y2="19.9769" gradientUnits="userSpaceOnUse">
<stop stop-color="#6A0AFF"/>
<stop offset="0.047" stop-color="#8C2DFF"/>
<stop offset="0.102" stop-color="#6A0AFF"/>
<stop offset="0.902" stop-color="#AF50FF"/>
<stop offset="1" stop-color="#AF50FF"/>
</linearGradient>
<linearGradient id="paint2_linear_2259_119" x1="9.60027" y1="7.61552" x2="-1.06379" y2="14.0973" gradientUnits="userSpaceOnUse">
<stop stop-color="#6A0AFF"/>
<stop offset="0.51" stop-color="#8C2DFF"/>
<stop offset="0.969" stop-color="#AF50FF"/>
<stop offset="1" stop-color="#AF50FF"/>
</linearGradient>
<linearGradient id="paint3_linear_2259_119" x1="4.72025" y1="16.9023" x2="5.63146" y2="21.2956" gradientUnits="userSpaceOnUse">
<stop stop-color="#6000FF"/>
<stop offset="1" stop-color="#3E00A5"/>
</linearGradient>
<linearGradient id="paint4_linear_2259_119" x1="-8.8173" y1="42.1757" x2="20.1562" y2="40.4689" gradientUnits="userSpaceOnUse">
<stop stop-color="#AE60FF"/>
<stop offset="0.322" stop-color="#AF50FF"/>
<stop offset="1" stop-color="#6000FF"/>
</linearGradient>
<linearGradient id="paint5_linear_2259_119" x1="11.8062" y1="4.97521" x2="21.2516" y2="8.43038" gradientUnits="userSpaceOnUse">
<stop stop-color="#6F0FFF"/>
<stop offset="0.702" stop-color="#AF50FF"/>
<stop offset="1" stop-color="#AF50FF"/>
</linearGradient>
<linearGradient id="paint6_linear_2259_119" x1="12.5214" y1="12.5426" x2="15.6853" y2="17.4593" gradientUnits="userSpaceOnUse">
<stop stop-color="#AE60FF"/>
<stop offset="0.031" stop-color="#B670FA"/>
<stop offset="1" stop-color="#BE80F5"/>
</linearGradient>
</defs>
</svg>
