<svg width="643" height="483" viewBox="0 0 643 483" fill="none" xmlns="http://www.w3.org/2000/svg">
<g filter="url(#filter0_d_1_143)">
<g clip-path="url(#clip0_1_143)">
<rect x="160" y="60" width="423" height="423" rx="13.8973" fill="#080B18"/>
<path fill-rule="evenodd" clip-rule="evenodd" d="M348.104 129.145L347.261 127.385H343.448L342.605 129.145H340.721L344.571 121.277H346.176L350.037 129.145H348.104ZM345.354 123.413L344.21 125.787H346.49L345.354 123.413ZM350.997 129.145V121.277H352.734L355.79 125.983L358.819 121.277H360.543V129.145H358.872V124.091L356.459 127.893H355.09L352.667 124.135V129.147H350.997V129.145ZM367.756 129.145H362.66V121.277H367.614C368.239 121.243 368.858 121.436 369.373 121.828C369.591 122.011 369.766 122.249 369.883 122.522C370.001 122.795 370.057 123.095 370.048 123.397C370.054 123.724 369.984 124.048 369.845 124.337C369.705 124.625 369.501 124.87 369.251 125.047C369.503 125.174 369.728 125.356 369.913 125.583C370.2 125.947 370.354 126.415 370.344 126.897C370.356 127.217 370.297 127.537 370.174 127.828C370.05 128.119 369.865 128.373 369.634 128.569C369.081 128.983 368.42 129.185 367.752 129.145L367.756 129.145ZM368.097 123.036C367.883 122.882 367.628 122.81 367.373 122.831H364.385V124.387H367.384C367.634 124.403 367.882 124.324 368.085 124.163C368.16 124.093 368.22 124.004 368.259 123.904C368.298 123.805 368.316 123.697 368.311 123.588C368.318 123.484 368.302 123.38 368.265 123.284C368.228 123.188 368.171 123.103 368.099 123.036H368.097ZM368.306 126.182C368.067 126.011 367.783 125.93 367.498 125.952H364.385V127.592H367.525C367.804 127.616 368.082 127.541 368.32 127.379C368.398 127.308 368.459 127.218 368.499 127.117C368.539 127.015 368.556 126.904 368.549 126.793C368.555 126.678 368.536 126.563 368.494 126.457C368.451 126.351 368.387 126.258 368.306 126.185L368.306 126.182ZM371.963 129.146V121.278H373.719V129.146H371.963ZM375.836 129.146V121.278H380.474C381.175 121.234 381.866 121.471 382.421 121.945C382.661 122.183 382.849 122.476 382.974 122.804C383.098 123.133 383.154 123.487 383.138 123.842C383.15 124.168 383.099 124.493 382.989 124.797C382.88 125.1 382.714 125.375 382.502 125.604C382.143 125.962 381.696 126.197 381.217 126.281L383.635 129.147H381.39L379.12 126.438H377.59V129.147H375.834L375.836 129.146ZM381.124 123.138C380.869 122.947 380.563 122.858 380.255 122.885H377.591V124.831H380.252C380.56 124.857 380.866 124.766 381.12 124.575C381.211 124.487 381.282 124.376 381.328 124.253C381.374 124.13 381.393 123.996 381.385 123.864C381.394 123.729 381.376 123.593 381.331 123.468C381.286 123.342 381.215 123.229 381.124 123.138H381.124ZM384.845 129.146V121.278H391.688V122.885H386.572V124.335H391.084V125.932H386.572V127.54H391.687V129.146H384.845Z" fill="#EBECFF"/>
<path d="M373.948 89.796L378.971 101.564C378.995 101.625 379.002 101.693 378.991 101.758C378.98 101.824 378.952 101.884 378.91 101.932L365.696 115.983C365.675 116.005 365.649 116.02 365.62 116.025C365.591 116.031 365.562 116.027 365.535 116.014C365.509 116 365.486 115.979 365.471 115.951C365.456 115.924 365.448 115.892 365.449 115.86V102.95L373.776 94.1033C373.805 94.0739 373.827 94.0381 373.842 93.9982C373.857 93.9583 373.864 93.9154 373.863 93.8722L373.887 89.7951C373.887 89.7682 373.937 89.7682 373.949 89.7951L373.948 89.796Z" fill="#6000FF"/>
<path fill-rule="evenodd" clip-rule="evenodd" d="M365.451 102.951V115.861C365.45 115.892 365.458 115.924 365.473 115.951C365.489 115.978 365.511 115.999 365.537 116.012C365.564 116.025 365.593 116.03 365.622 116.024C365.65 116.019 365.677 116.005 365.698 115.983L378.911 101.932C378.954 101.885 378.982 101.824 378.993 101.759C379.005 101.693 378.998 101.626 378.973 101.565L373.815 94.0601L365.449 102.951H365.451Z" fill="url(#paint0_linear_1_143)"/>
<path fill-rule="evenodd" clip-rule="evenodd" d="M373.917 89.7613C373.913 89.7611 373.909 89.7618 373.905 89.7633C373.902 89.7648 373.898 89.7672 373.896 89.7702C373.893 89.7732 373.891 89.7768 373.889 89.7809C373.888 89.7849 373.887 89.7892 373.887 89.7935L373.866 93.8698C373.868 93.9367 373.851 94.0027 373.818 94.0591L378.998 101.752C379.008 101.683 378.999 101.612 378.973 101.548L373.95 89.7796C373.947 89.7738 373.943 89.769 373.937 89.7656C373.932 89.7623 373.926 89.7605 373.92 89.7605L373.917 89.7613Z" fill="url(#paint1_linear_1_143)"/>
<path fill-rule="evenodd" clip-rule="evenodd" d="M378.992 101.752C379.002 101.683 378.994 101.612 378.968 101.548L378.707 100.94L374.031 94.3865L378.992 101.752Z" fill="#BE80F5"/>
<path d="M362.072 79.9166L359.709 87.2821C359.682 87.3674 359.686 87.4611 359.722 87.5427L361.923 92.3121L355.861 96.0896C355.825 96.1103 355.783 96.1148 355.744 96.1022C355.704 96.0896 355.671 96.0608 355.651 96.0218L354.339 93.0183C354.316 92.9691 354.305 92.9134 354.31 92.8579C354.314 92.8024 354.333 92.7495 354.364 92.7056L362.009 79.8775C362.015 79.8711 362.023 79.8671 362.031 79.866C362.039 79.8649 362.048 79.8669 362.055 79.8716C362.062 79.8763 362.067 79.8834 362.07 79.8918C362.073 79.9003 362.073 79.9096 362.071 79.9183L362.072 79.9166Z" fill="#6000FF"/>
<path fill-rule="evenodd" clip-rule="evenodd" d="M362.036 79.8647C362.027 79.8649 362.019 79.869 362.012 79.876L354.693 92.1561L354.686 92.1726L359.712 87.2825L359.728 87.2329L362.074 79.9212C362.076 79.9151 362.076 79.9085 362.075 79.9022C362.074 79.8958 362.072 79.8898 362.068 79.8847C362.065 79.8796 362.06 79.8755 362.055 79.8728C362.049 79.87 362.043 79.8688 362.038 79.8691L362.036 79.8647Z" fill="url(#paint2_linear_1_143)"/>
<path fill-rule="evenodd" clip-rule="evenodd" d="M354.364 92.7039C354.333 92.748 354.314 92.8009 354.31 92.8563C354.305 92.9118 354.315 92.9674 354.339 93.0166L355.651 96.0202C355.671 96.0594 355.704 96.0883 355.744 96.101C355.783 96.1136 355.825 96.1089 355.861 96.0879L361.924 92.3105L359.722 87.5411C359.687 87.4595 359.682 87.3658 359.709 87.2805L354.364 92.7039Z" fill="url(#paint3_linear_1_143)"/>
<path fill-rule="evenodd" clip-rule="evenodd" d="M365.45 73.9635V85.4201C365.448 85.4891 365.426 85.5557 365.388 85.6103L353.572 103.236C353.53 103.298 353.51 103.376 353.517 103.454C353.524 103.532 353.557 103.604 353.61 103.657L361.896 112.463C361.913 112.482 361.934 112.496 361.957 112.504C361.98 112.512 362.004 112.513 362.028 112.508C362.052 112.502 362.074 112.49 362.092 112.473C362.111 112.455 362.124 112.433 362.133 112.408L371.14 89.2115C371.164 89.1321 371.164 89.0459 371.14 88.9665L365.56 73.94C365.557 73.9281 365.55 73.9175 365.542 73.9099C365.533 73.9022 365.522 73.8979 365.51 73.8975C365.494 73.8975 365.479 73.9045 365.467 73.917C365.456 73.9296 365.45 73.9466 365.45 73.9643V73.9635Z" fill="url(#paint4_linear_1_143)"/>
<path fill-rule="evenodd" clip-rule="evenodd" d="M365.508 73.8975C365.492 73.8975 365.477 73.9045 365.465 73.917C365.454 73.9296 365.447 73.9466 365.447 73.9643V85.4201C365.446 85.4526 365.441 85.4848 365.431 85.5156L371.065 88.7798L365.557 73.9374C365.553 73.9259 365.547 73.916 365.538 73.9088C365.529 73.9017 365.518 73.8977 365.507 73.8975H365.508Z" fill="url(#paint5_linear_1_143)"/>
<path fill-rule="evenodd" clip-rule="evenodd" d="M371.161 89.0944C371.161 89.054 371.155 89.0138 371.144 88.9754L371.073 88.7817L365.436 85.5176L366.515 86.1968L371.162 89.0961L371.161 89.0944Z" fill="url(#paint6_linear_1_143)"/>
<path d="M354.678 92.176L354.367 92.6971L359.708 87.2815L354.678 92.176Z" fill="#BE80F5"/>
<path d="M350.295 137.386H349.285L347.324 131.771H348.666L349.902 135.542L351.265 131.771H352.395L353.771 135.53L355.008 131.771H356.333L354.365 137.386H353.228L351.817 133.559L350.406 137.386H350.299H350.295ZM362.053 137.386H360.94L360.338 136.13H357.615L357.014 137.386H355.672C356.588 135.514 357.504 133.643 358.42 131.771H359.565C360.483 133.643 361.401 135.515 362.32 137.386H362.053ZM358.976 133.295L358.158 134.992H359.787L358.976 133.295ZM367.326 137.386H363.004V131.771H364.258V136.218H367.485V137.386H367.327H367.326ZM372.756 137.386H368.435V131.771H369.688V136.218H372.915V137.386H372.757H372.756ZM378.59 137.386H373.865V131.771H378.7V132.917H375.098V133.953H378.318V135.092H375.098V136.241H378.749V137.386H378.591H378.59ZM382.558 137.386H381.463V132.939H379.288V131.771H384.903V132.939H382.716V137.386H382.558Z" fill="#EBECFF"/>
<path d="M207.617 175.361V166.514H213.168V167.66H208.953V170.326H212.872V171.466H208.953V174.215H213.21V175.361H207.617ZM214.338 175.361V168.723H215.567V169.816H215.656C215.795 169.447 216.02 169.161 216.333 168.955C216.65 168.745 217.026 168.64 217.461 168.64C217.905 168.64 218.275 168.745 218.572 168.955C218.872 169.161 219.096 169.447 219.243 169.816H219.314C219.472 169.455 219.724 169.17 220.068 168.961C220.412 168.747 220.822 168.64 221.297 168.64C221.899 168.64 222.391 168.83 222.775 169.21C223.159 169.586 223.351 170.154 223.351 170.914V175.361H222.057V171.033C222.057 170.582 221.934 170.257 221.689 170.059C221.443 169.857 221.151 169.756 220.81 169.756C220.391 169.756 220.064 169.887 219.83 170.148C219.601 170.405 219.486 170.732 219.486 171.128V175.361H218.192V170.95C218.192 170.589 218.081 170.301 217.859 170.083C217.637 169.865 217.347 169.756 216.986 169.756C216.741 169.756 216.513 169.822 216.303 169.952C216.098 170.079 215.931 170.257 215.805 170.487C215.682 170.712 215.621 170.973 215.621 171.27V175.361H214.338ZM226.51 175.504C226.091 175.504 225.711 175.427 225.37 175.272C225.03 175.114 224.761 174.884 224.563 174.584C224.365 174.283 224.266 173.917 224.266 173.485C224.266 173.109 224.337 172.802 224.48 172.565C224.626 172.323 224.822 172.131 225.067 171.989C225.313 171.846 225.586 171.739 225.887 171.668C226.188 171.597 226.496 171.541 226.813 171.502C227.213 171.458 227.535 171.421 227.781 171.389C228.026 171.357 228.204 171.308 228.315 171.241C228.43 171.169 228.487 171.057 228.487 170.902V170.873C228.487 170.496 228.381 170.206 228.167 170C227.957 169.794 227.644 169.691 227.229 169.691C226.797 169.691 226.455 169.786 226.201 169.976C225.952 170.162 225.78 170.374 225.685 170.611L224.468 170.332C224.614 169.928 224.826 169.604 225.103 169.358C225.384 169.109 225.705 168.927 226.065 168.812C226.429 168.697 226.809 168.64 227.205 168.64C227.47 168.64 227.751 168.672 228.048 168.735C228.345 168.794 228.624 168.907 228.885 169.073C229.15 169.236 229.366 169.469 229.532 169.774C229.699 170.079 229.782 170.473 229.782 170.956V175.361H228.517V174.453H228.47C228.39 174.615 228.266 174.777 228.096 174.94C227.929 175.102 227.716 175.237 227.454 175.344C227.193 175.45 226.878 175.504 226.51 175.504ZM226.789 174.471C227.149 174.471 227.456 174.401 227.71 174.263C227.963 174.12 228.157 173.934 228.291 173.705C228.426 173.475 228.493 173.232 228.493 172.974V172.113C228.446 172.157 228.357 172.199 228.226 172.238C228.096 172.278 227.947 172.311 227.781 172.339C227.615 172.367 227.452 172.393 227.294 172.416C227.136 172.436 227.003 172.452 226.896 172.464C226.647 172.499 226.419 172.555 226.213 172.63C226.007 172.701 225.841 172.808 225.715 172.951C225.592 173.089 225.53 173.273 225.53 173.503C225.53 173.823 225.649 174.065 225.887 174.227C226.124 174.39 226.425 174.471 226.789 174.471ZM231.023 175.361V168.723H232.305V175.361H231.023ZM231.67 167.702C231.444 167.702 231.252 167.627 231.094 167.476C230.936 167.326 230.856 167.146 230.856 166.936C230.856 166.722 230.936 166.54 231.094 166.39C231.252 166.239 231.444 166.164 231.67 166.164C231.892 166.164 232.082 166.239 232.24 166.39C232.402 166.54 232.483 166.722 232.483 166.936C232.483 167.146 232.402 167.326 232.24 167.476C232.082 167.627 231.892 167.702 231.67 167.702ZM234.823 166.514V175.361H233.54V166.514H234.823ZM240.689 175.504C240.27 175.504 239.89 175.427 239.549 175.272C239.209 175.114 238.94 174.884 238.742 174.584C238.544 174.283 238.445 173.917 238.445 173.485C238.445 173.109 238.516 172.802 238.658 172.565C238.805 172.323 239.001 172.131 239.246 171.989C239.492 171.846 239.765 171.739 240.066 171.668C240.367 171.597 240.675 171.541 240.992 171.502C241.392 171.458 241.714 171.421 241.96 171.389C242.205 171.357 242.383 171.308 242.494 171.241C242.609 171.169 242.666 171.057 242.666 170.902V170.873C242.666 170.496 242.559 170.206 242.346 170C242.136 169.794 241.823 169.691 241.408 169.691C240.976 169.691 240.634 169.786 240.38 169.976C240.131 170.162 239.959 170.374 239.864 170.611L238.647 170.332C238.793 169.928 239.005 169.604 239.282 169.358C239.563 169.109 239.884 168.927 240.244 168.812C240.608 168.697 240.988 168.64 241.384 168.64C241.649 168.64 241.93 168.672 242.227 168.735C242.524 168.794 242.803 168.907 243.064 169.073C243.329 169.236 243.545 169.469 243.711 169.774C243.878 170.079 243.961 170.473 243.961 170.956V175.361H242.696V174.453H242.649C242.569 174.615 242.445 174.777 242.274 174.94C242.108 175.102 241.894 175.237 241.633 175.344C241.372 175.45 241.057 175.504 240.689 175.504ZM240.968 174.471C241.328 174.471 241.635 174.401 241.889 174.263C242.142 174.12 242.336 173.934 242.47 173.705C242.605 173.475 242.672 173.232 242.672 172.974V172.113C242.625 172.157 242.536 172.199 242.405 172.238C242.274 172.278 242.126 172.311 241.96 172.339C241.794 172.367 241.631 172.393 241.473 172.416C241.315 172.436 241.182 172.452 241.075 172.464C240.826 172.499 240.598 172.555 240.392 172.63C240.186 172.701 240.02 172.808 239.893 172.951C239.771 173.089 239.709 173.273 239.709 173.503C239.709 173.823 239.828 174.065 240.066 174.227C240.303 174.39 240.604 174.471 240.968 174.471ZM247.672 175.492C247.133 175.492 246.654 175.355 246.235 175.082C245.815 174.805 245.487 174.411 245.249 173.901C245.012 173.386 244.893 172.773 244.893 172.06C244.893 171.34 245.014 170.724 245.255 170.213C245.497 169.703 245.827 169.313 246.247 169.044C246.666 168.775 247.141 168.64 247.672 168.64C248.087 168.64 248.42 168.709 248.669 168.848C248.923 168.982 249.119 169.141 249.257 169.323C249.4 169.505 249.508 169.665 249.584 169.804H249.661V166.514H250.943V175.361H249.691V174.328H249.584C249.508 174.467 249.398 174.627 249.251 174.809C249.105 174.991 248.905 175.152 248.651 175.29C248.402 175.425 248.075 175.492 247.672 175.492ZM247.951 174.394C248.323 174.394 248.638 174.295 248.895 174.097C249.152 173.899 249.346 173.624 249.477 173.271C249.611 172.919 249.679 172.511 249.679 172.048C249.679 171.585 249.613 171.181 249.483 170.837C249.352 170.489 249.158 170.219 248.901 170.029C248.644 169.835 248.327 169.738 247.951 169.738C247.563 169.738 247.24 169.839 246.983 170.041C246.726 170.243 246.532 170.518 246.401 170.867C246.27 171.215 246.205 171.609 246.205 172.048C246.205 172.491 246.27 172.891 246.401 173.248C246.532 173.6 246.726 173.879 246.983 174.085C247.244 174.291 247.567 174.394 247.951 174.394ZM254.654 175.492C254.116 175.492 253.637 175.355 253.217 175.082C252.798 174.805 252.469 174.411 252.232 173.901C251.994 173.386 251.876 172.773 251.876 172.06C251.876 171.34 251.996 170.724 252.238 170.213C252.479 169.703 252.81 169.313 253.229 169.044C253.649 168.775 254.124 168.64 254.654 168.64C255.07 168.64 255.402 168.709 255.652 168.848C255.905 168.982 256.101 169.141 256.24 169.323C256.382 169.505 256.491 169.665 256.566 169.804H256.643V166.514H257.926V175.361H256.673V174.328H256.566C256.491 174.467 256.38 174.627 256.234 174.809C256.087 174.991 255.887 175.152 255.634 175.29C255.385 175.425 255.058 175.492 254.654 175.492ZM254.933 174.394C255.305 174.394 255.62 174.295 255.877 174.097C256.135 173.899 256.329 173.624 256.459 173.271C256.594 172.919 256.661 172.511 256.661 172.048C256.661 171.585 256.596 171.181 256.465 170.837C256.335 170.489 256.141 170.219 255.883 170.029C255.626 169.835 255.309 169.738 254.933 169.738C254.545 169.738 254.223 169.839 253.966 170.041C253.708 170.243 253.514 170.518 253.384 170.867C253.253 171.215 253.188 171.609 253.188 172.048C253.188 172.491 253.253 172.891 253.384 173.248C253.514 173.6 253.708 173.879 253.966 174.085C254.227 174.291 254.549 174.394 254.933 174.394ZM259.167 175.361V168.723H260.408V169.786H260.479C260.602 169.43 260.816 169.149 261.12 168.943C261.429 168.733 261.777 168.628 262.165 168.628C262.245 168.628 262.338 168.632 262.444 168.64C262.555 168.644 262.644 168.65 262.712 168.658V169.893C262.66 169.877 262.567 169.861 262.433 169.845C262.302 169.829 262.169 169.822 262.035 169.822C261.73 169.822 261.457 169.887 261.215 170.018C260.978 170.144 260.79 170.32 260.651 170.546C260.517 170.768 260.449 171.025 260.449 171.318V175.361H259.167ZM265.954 175.498C265.304 175.498 264.742 175.357 264.267 175.076C263.792 174.795 263.426 174.399 263.169 173.889C262.915 173.374 262.789 172.775 262.789 172.09C262.789 171.409 262.913 170.809 263.163 170.291C263.416 169.772 263.77 169.368 264.226 169.079C264.685 168.786 265.223 168.64 265.841 168.64C266.217 168.64 266.581 168.701 266.933 168.824C267.286 168.947 267.602 169.141 267.883 169.406C268.164 169.671 268.386 170.016 268.548 170.439C268.715 170.863 268.798 171.373 268.798 171.971V172.434H263.519V171.466H268.133L267.533 171.787C267.533 171.379 267.47 171.019 267.343 170.706C267.216 170.394 267.026 170.15 266.773 169.976C266.524 169.798 266.213 169.709 265.841 169.709C265.469 169.709 265.15 169.798 264.885 169.976C264.624 170.154 264.424 170.39 264.285 170.683C264.147 170.975 264.077 171.296 264.077 171.644V172.303C264.077 172.759 264.156 173.145 264.315 173.461C264.473 173.778 264.693 174.019 264.974 174.186C265.259 174.352 265.589 174.435 265.965 174.435C266.211 174.435 266.432 174.399 266.63 174.328C266.832 174.257 267.006 174.15 267.153 174.008C267.299 173.865 267.41 173.689 267.485 173.479L268.709 173.711C268.61 174.067 268.435 174.38 268.186 174.649C267.937 174.918 267.622 175.128 267.242 175.278C266.866 175.425 266.436 175.498 265.954 175.498ZM274.664 170.35L273.494 170.552C273.419 170.33 273.279 170.126 273.073 169.94C272.871 169.754 272.568 169.661 272.164 169.661C271.8 169.661 271.495 169.744 271.25 169.911C271.008 170.073 270.888 170.281 270.888 170.534C270.888 170.756 270.969 170.936 271.131 171.074C271.297 171.213 271.561 171.324 271.921 171.407L272.984 171.644C273.589 171.783 274.043 172.001 274.343 172.298C274.644 172.594 274.795 172.974 274.795 173.438C274.795 173.837 274.68 174.194 274.45 174.506C274.221 174.815 273.902 175.059 273.494 175.237C273.087 175.411 272.616 175.498 272.081 175.498C271.337 175.498 270.731 175.338 270.264 175.017C269.797 174.696 269.51 174.245 269.403 173.663L270.644 173.473C270.723 173.798 270.884 174.043 271.125 174.209C271.371 174.376 271.687 174.459 272.075 174.459C272.495 174.459 272.831 174.37 273.085 174.192C273.342 174.013 273.471 173.798 273.471 173.544C273.471 173.125 273.158 172.842 272.532 172.695L271.41 172.446C270.789 172.303 270.33 172.08 270.033 171.775C269.74 171.466 269.593 171.078 269.593 170.611C269.593 170.219 269.702 169.875 269.92 169.578C270.142 169.281 270.444 169.052 270.828 168.889C271.216 168.723 271.658 168.64 272.152 168.64C272.873 168.64 273.437 168.796 273.845 169.109C274.256 169.422 274.529 169.835 274.664 170.35ZM280.661 170.35L279.491 170.552C279.416 170.33 279.275 170.126 279.07 169.94C278.868 169.754 278.565 169.661 278.161 169.661C277.797 169.661 277.492 169.744 277.247 169.911C277.005 170.073 276.885 170.281 276.885 170.534C276.885 170.756 276.966 170.936 277.128 171.074C277.294 171.213 277.558 171.324 277.918 171.407L278.981 171.644C279.586 171.783 280.039 172.001 280.34 172.298C280.641 172.594 280.792 172.974 280.792 173.438C280.792 173.837 280.677 174.194 280.447 174.506C280.218 174.815 279.899 175.059 279.491 175.237C279.084 175.411 278.612 175.498 278.078 175.498C277.334 175.498 276.728 175.338 276.261 175.017C275.794 174.696 275.507 174.245 275.4 173.663L276.641 173.473C276.72 173.798 276.881 174.043 277.122 174.209C277.368 174.376 277.684 174.459 278.072 174.459C278.492 174.459 278.828 174.37 279.082 174.192C279.339 174.013 279.467 173.798 279.467 173.544C279.467 173.125 279.155 172.842 278.529 172.695L277.407 172.446C276.786 172.303 276.326 172.08 276.03 171.775C275.737 171.466 275.59 171.078 275.59 170.611C275.59 170.219 275.699 169.875 275.917 169.578C276.138 169.281 276.441 169.052 276.825 168.889C277.213 168.723 277.655 168.64 278.149 168.64C278.87 168.64 279.434 168.796 279.842 169.109C280.253 169.422 280.526 169.835 280.661 170.35Z" fill="white"/>
<rect x="207.339" y="192.693" width="328.324" height="42.5606" rx="9.98871" fill="#080B18" stroke="#2F354C" stroke-width="0.868583"/>
<path d="M231.984 212.569V213.757H227.845V212.569H231.984ZM228.951 210.764H230.424V217.93C230.424 218.278 230.496 218.534 230.641 218.697C230.786 218.855 231.018 218.934 231.34 218.934C231.417 218.934 231.498 218.93 231.584 218.921C231.674 218.912 231.765 218.898 231.855 218.88L232.134 220.101C231.984 220.151 231.821 220.19 231.645 220.217C231.469 220.244 231.292 220.258 231.116 220.258C230.46 220.258 229.935 220.074 229.541 219.708C229.148 219.337 228.951 218.844 228.951 218.229V210.764ZM236.144 220.312C235.434 220.312 234.812 220.149 234.278 219.823C233.749 219.498 233.337 219.041 233.043 218.453C232.753 217.864 232.609 217.181 232.609 216.403C232.609 215.616 232.753 214.928 233.043 214.34C233.337 213.748 233.749 213.289 234.278 212.963C234.812 212.637 235.434 212.474 236.144 212.474C236.859 212.474 237.481 212.637 238.01 212.963C238.539 213.289 238.951 213.748 239.245 214.34C239.539 214.928 239.686 215.616 239.686 216.403C239.686 217.181 239.539 217.864 239.245 218.453C238.951 219.041 238.539 219.498 238.01 219.823C237.481 220.149 236.859 220.312 236.144 220.312ZM236.144 219.07C236.61 219.07 236.995 218.948 237.298 218.704C237.601 218.459 237.825 218.136 237.969 217.733C238.119 217.326 238.193 216.883 238.193 216.403C238.193 215.915 238.119 215.467 237.969 215.06C237.825 214.652 237.601 214.327 237.298 214.082C236.995 213.838 236.61 213.716 236.144 213.716C235.683 213.716 235.3 213.838 234.997 214.082C234.699 214.327 234.475 214.652 234.325 215.06C234.176 215.467 234.102 215.915 234.102 216.403C234.102 216.883 234.176 217.326 234.325 217.733C234.475 218.136 234.699 218.459 234.997 218.704C235.3 218.948 235.683 219.07 236.144 219.07ZM242.217 210.045V220.156H240.752V210.045H242.217ZM248.433 217.021V212.569H249.899V220.156H248.46V218.839H248.379C248.198 219.242 247.917 219.579 247.537 219.85C247.157 220.122 246.682 220.255 246.112 220.251C245.624 220.251 245.192 220.144 244.816 219.932C244.445 219.719 244.154 219.4 243.941 218.975C243.733 218.55 243.629 218.023 243.629 217.394V212.569H245.095V217.224C245.095 217.735 245.239 218.145 245.529 218.453C245.818 218.76 246.192 218.912 246.648 218.907C246.924 218.907 247.198 218.839 247.47 218.704C247.746 218.568 247.974 218.36 248.155 218.079C248.34 217.799 248.433 217.446 248.433 217.021ZM252.946 220.156L250.72 212.569H252.24L253.726 218.14H253.807L255.294 212.569H256.82L258.293 218.12H258.368L259.847 212.569H261.367L259.141 220.156H257.641L256.094 214.686H255.993L254.445 220.156H252.946ZM264.393 220.319C263.914 220.319 263.48 220.23 263.09 220.054C262.701 219.873 262.394 219.611 262.168 219.267C261.941 218.923 261.828 218.505 261.828 218.011C261.828 217.582 261.91 217.231 262.073 216.96C262.24 216.684 262.464 216.464 262.744 216.301C263.025 216.139 263.337 216.016 263.681 215.935C264.025 215.854 264.378 215.79 264.739 215.745C265.196 215.695 265.565 215.652 265.846 215.616C266.126 215.58 266.33 215.523 266.456 215.446C266.587 215.365 266.653 215.236 266.653 215.06V215.026C266.653 214.596 266.531 214.263 266.287 214.028C266.047 213.793 265.689 213.675 265.214 213.675C264.721 213.675 264.33 213.784 264.04 214.001C263.755 214.214 263.559 214.456 263.45 214.727L262.059 214.408C262.226 213.947 262.468 213.576 262.785 213.295C263.106 213.01 263.473 212.802 263.884 212.671C264.301 212.54 264.735 212.474 265.187 212.474C265.49 212.474 265.812 212.51 266.151 212.583C266.49 212.651 266.809 212.78 267.108 212.97C267.411 213.155 267.657 213.422 267.847 213.77C268.037 214.119 268.132 214.569 268.132 215.121V220.156H266.687V219.118H266.633C266.542 219.303 266.4 219.488 266.205 219.674C266.015 219.859 265.771 220.013 265.472 220.135C265.174 220.258 264.814 220.319 264.393 220.319ZM264.712 219.138C265.124 219.138 265.475 219.059 265.764 218.9C266.054 218.738 266.275 218.525 266.429 218.263C266.583 218 266.66 217.722 266.66 217.428V216.444C266.606 216.494 266.504 216.541 266.354 216.586C266.205 216.632 266.036 216.67 265.846 216.702C265.656 216.733 265.47 216.763 265.289 216.79C265.108 216.813 264.957 216.831 264.834 216.844C264.549 216.885 264.289 216.948 264.054 217.034C263.819 217.116 263.629 217.238 263.484 217.401C263.344 217.559 263.274 217.769 263.274 218.032C263.274 218.398 263.409 218.674 263.681 218.86C263.952 219.045 264.296 219.138 264.712 219.138ZM271.016 215.657V220.156H269.551V212.569H270.976V213.818H271.077C271.249 213.406 271.518 213.08 271.885 212.841C272.251 212.596 272.722 212.474 273.296 212.474C273.812 212.474 274.262 212.583 274.647 212.8C275.036 213.013 275.337 213.332 275.549 213.757C275.766 214.182 275.875 214.709 275.875 215.338V220.156H274.409V215.514C274.409 214.967 274.264 214.537 273.975 214.225C273.685 213.908 273.292 213.75 272.794 213.75C272.455 213.75 272.15 213.827 271.878 213.981C271.611 214.13 271.401 214.345 271.247 214.625C271.093 214.906 271.016 215.25 271.016 215.657ZM277.286 220.156V212.569H278.752V220.156H277.286ZM278.026 211.402C277.768 211.402 277.549 211.316 277.368 211.144C277.187 210.972 277.096 210.766 277.096 210.527C277.096 210.282 277.187 210.074 277.368 209.902C277.549 209.731 277.768 209.645 278.026 209.645C278.279 209.645 278.497 209.731 278.677 209.902C278.863 210.074 278.956 210.282 278.956 210.527C278.956 210.766 278.863 210.972 278.677 211.144C278.497 211.316 278.279 211.402 278.026 211.402ZM286.203 222.897C285.181 222.897 284.274 222.759 283.482 222.483C282.695 222.207 282.03 221.8 281.487 221.262C280.948 220.724 280.539 220.065 280.259 219.287C279.978 218.509 279.838 217.62 279.838 216.62C279.838 215.648 279.98 214.775 280.265 214.001C280.55 213.223 280.962 212.56 281.5 212.013C282.043 211.461 282.701 211.04 283.475 210.751C284.253 210.461 285.135 210.316 286.122 210.316C287.062 210.316 287.895 210.466 288.619 210.764C289.343 211.058 289.949 211.463 290.437 211.979C290.93 212.495 291.301 213.087 291.55 213.757C291.803 214.426 291.93 215.134 291.93 215.881C291.93 216.396 291.896 216.903 291.828 217.401C291.761 217.898 291.634 218.348 291.448 218.751C291.267 219.154 291.005 219.475 290.661 219.715C290.322 219.95 289.881 220.068 289.338 220.068C289.089 220.068 288.836 220.029 288.578 219.952C288.325 219.875 288.107 219.753 287.927 219.586C287.75 219.418 287.642 219.206 287.601 218.948H287.547C287.47 219.138 287.345 219.314 287.173 219.477C287.001 219.636 286.782 219.764 286.515 219.864C286.253 219.963 285.947 220.013 285.599 220.013C284.993 220.013 284.477 219.864 284.052 219.565C283.627 219.262 283.303 218.851 283.081 218.33C282.864 217.81 282.756 217.218 282.756 216.552C282.756 215.901 282.885 215.327 283.143 214.829C283.405 214.331 283.756 213.944 284.194 213.669C284.638 213.388 285.135 213.248 285.687 213.248C286.14 213.248 286.517 213.327 286.82 213.485C287.128 213.644 287.334 213.804 287.438 213.967H287.513V213.411H288.72V217.991C288.72 218.253 288.788 218.475 288.924 218.656C289.06 218.837 289.257 218.928 289.514 218.928C289.813 218.928 290.046 218.817 290.213 218.595C290.385 218.373 290.505 218.034 290.573 217.577C290.645 217.12 290.682 216.534 290.682 215.82C290.682 215.317 290.614 214.847 290.478 214.408C290.342 213.965 290.145 213.564 289.888 213.207C289.634 212.845 289.32 212.535 288.944 212.277C288.569 212.015 288.141 211.814 287.662 211.674C287.182 211.529 286.655 211.456 286.081 211.456C285.289 211.456 284.588 211.579 283.977 211.823C283.366 212.067 282.851 212.415 282.43 212.868C282.014 213.32 281.697 213.863 281.48 214.496C281.263 215.13 281.154 215.84 281.154 216.627C281.154 217.446 281.263 218.174 281.48 218.812C281.702 219.446 282.027 219.979 282.457 220.414C282.891 220.848 283.425 221.178 284.059 221.404C284.696 221.631 285.432 221.744 286.264 221.744C286.635 221.744 286.997 221.71 287.35 221.642C287.703 221.579 288.017 221.504 288.293 221.418C288.573 221.336 288.782 221.273 288.917 221.228L289.257 222.314C289.057 222.404 288.791 222.495 288.456 222.585C288.121 222.676 287.757 222.75 287.363 222.809C286.97 222.868 286.583 222.897 286.203 222.897ZM285.735 218.799C286.164 218.799 286.511 218.713 286.773 218.541C287.035 218.369 287.223 218.113 287.336 217.774C287.454 217.435 287.513 217.009 287.513 216.498C287.513 215.996 287.449 215.596 287.323 215.297C287.2 214.999 287.01 214.784 286.753 214.652C286.495 214.521 286.164 214.456 285.762 214.456C285.391 214.456 285.074 214.548 284.812 214.734C284.549 214.915 284.348 215.159 284.208 215.467C284.072 215.774 284.004 216.118 284.004 216.498C284.004 216.896 284.059 217.27 284.167 217.618C284.28 217.966 284.464 218.251 284.717 218.473C284.97 218.69 285.309 218.799 285.735 218.799ZM296.192 223.155C295.287 223.155 294.574 222.985 294.054 222.646C293.534 222.307 293.174 221.904 292.975 221.438L294.237 220.916C294.328 221.061 294.448 221.214 294.597 221.377C294.751 221.54 294.957 221.678 295.214 221.791C295.472 221.904 295.805 221.961 296.212 221.961C296.768 221.961 297.23 221.825 297.596 221.554C297.963 221.287 298.146 220.857 298.146 220.264V218.778H298.044C297.963 218.937 297.838 219.115 297.671 219.314C297.504 219.509 297.275 219.678 296.986 219.823C296.696 219.968 296.318 220.04 295.852 220.04C295.255 220.04 294.717 219.9 294.237 219.62C293.762 219.335 293.382 218.918 293.097 218.371C292.817 217.819 292.677 217.141 292.677 216.335C292.677 215.53 292.815 214.84 293.091 214.266C293.371 213.687 293.751 213.243 294.231 212.936C294.71 212.628 295.255 212.474 295.866 212.474C296.336 212.474 296.716 212.553 297.006 212.712C297.3 212.866 297.528 213.046 297.691 213.255C297.854 213.463 297.981 213.646 298.071 213.804H298.18V212.569H299.612V220.325C299.612 220.977 299.46 221.511 299.157 221.927C298.858 222.343 298.451 222.651 297.936 222.85C297.42 223.053 296.839 223.155 296.192 223.155ZM296.178 218.812C296.816 218.812 297.305 218.593 297.644 218.154C297.988 217.711 298.16 217.098 298.16 216.315C298.16 215.804 298.085 215.356 297.936 214.971C297.786 214.582 297.565 214.279 297.271 214.062C296.977 213.84 296.612 213.73 296.178 213.73C295.735 213.73 295.364 213.845 295.065 214.076C294.771 214.302 294.549 214.612 294.4 215.005C294.251 215.394 294.176 215.831 294.176 216.315C294.176 216.808 294.251 217.245 294.4 217.625C294.549 218 294.773 218.292 295.072 218.5C295.375 218.708 295.744 218.812 296.178 218.812ZM301.023 220.156V212.569H302.428V213.818H302.53C302.688 213.397 302.946 213.069 303.303 212.834C303.665 212.594 304.095 212.474 304.592 212.474C305.099 212.474 305.522 212.594 305.861 212.834C306.205 213.069 306.461 213.397 306.628 213.818H306.71C306.891 213.406 307.178 213.08 307.571 212.841C307.965 212.596 308.433 212.474 308.976 212.474C309.664 212.474 310.227 212.691 310.666 213.126C311.105 213.555 311.324 214.205 311.324 215.073V220.156H309.845V215.209C309.845 214.693 309.704 214.322 309.424 214.096C309.143 213.865 308.809 213.75 308.42 213.75C307.94 213.75 307.567 213.899 307.3 214.198C307.038 214.492 306.906 214.865 306.906 215.317V220.156H305.427V215.114C305.427 214.702 305.3 214.372 305.047 214.123C304.794 213.874 304.461 213.75 304.05 213.75C303.769 213.75 303.509 213.825 303.269 213.974C303.034 214.119 302.844 214.322 302.699 214.585C302.559 214.842 302.489 215.141 302.489 215.48V220.156H301.023ZM314.934 220.319C314.455 220.319 314.02 220.23 313.631 220.054C313.242 219.873 312.934 219.611 312.708 219.267C312.482 218.923 312.369 218.505 312.369 218.011C312.369 217.582 312.45 217.231 312.613 216.96C312.781 216.684 313.005 216.464 313.285 216.301C313.566 216.139 313.878 216.016 314.222 215.935C314.565 215.854 314.918 215.79 315.28 215.745C315.737 215.695 316.106 215.652 316.386 215.616C316.667 215.58 316.87 215.523 316.997 215.446C317.128 215.365 317.194 215.236 317.194 215.06V215.026C317.194 214.596 317.072 214.263 316.827 214.028C316.588 213.793 316.23 213.675 315.755 213.675C315.262 213.675 314.871 213.784 314.581 214.001C314.296 214.214 314.099 214.456 313.991 214.727L312.6 214.408C312.767 213.947 313.009 213.576 313.326 213.295C313.647 213.01 314.013 212.802 314.425 212.671C314.841 212.54 315.276 212.474 315.728 212.474C316.031 212.474 316.352 212.51 316.692 212.583C317.031 212.651 317.35 212.78 317.648 212.97C317.951 213.155 318.198 213.422 318.388 213.77C318.578 214.119 318.673 214.569 318.673 215.121V220.156H317.228V219.118H317.173C317.083 219.303 316.94 219.488 316.746 219.674C316.556 219.859 316.312 220.013 316.013 220.135C315.714 220.258 315.355 220.319 314.934 220.319ZM315.253 219.138C315.665 219.138 316.015 219.059 316.305 218.9C316.594 218.738 316.816 218.525 316.97 218.263C317.124 218 317.201 217.722 317.201 217.428V216.444C317.146 216.494 317.044 216.541 316.895 216.586C316.746 216.632 316.576 216.67 316.386 216.702C316.196 216.733 316.011 216.763 315.83 216.79C315.649 216.813 315.497 216.831 315.375 216.844C315.09 216.885 314.83 216.948 314.595 217.034C314.36 217.116 314.17 217.238 314.025 217.401C313.885 217.559 313.814 217.769 313.814 218.032C313.814 218.398 313.95 218.674 314.222 218.86C314.493 219.045 314.837 219.138 315.253 219.138ZM320.091 220.156V212.569H321.557V220.156H320.091ZM320.831 211.402C320.573 211.402 320.354 211.316 320.173 211.144C319.992 210.972 319.901 210.766 319.901 210.527C319.901 210.282 319.992 210.074 320.173 209.902C320.354 209.731 320.573 209.645 320.831 209.645C321.084 209.645 321.301 209.731 321.482 209.902C321.668 210.074 321.761 210.282 321.761 210.527C321.761 210.766 321.668 210.972 321.482 211.144C321.301 211.316 321.084 211.402 320.831 211.402ZM324.434 210.045V220.156H322.968V210.045H324.434ZM326.945 220.251C326.669 220.251 326.434 220.156 326.239 219.966C326.049 219.776 325.954 219.543 325.954 219.267C325.954 218.991 326.049 218.758 326.239 218.568C326.434 218.378 326.669 218.283 326.945 218.283C327.221 218.283 327.454 218.378 327.644 218.568C327.838 218.758 327.936 218.991 327.936 219.267C327.936 219.543 327.838 219.776 327.644 219.966C327.454 220.156 327.221 220.251 326.945 220.251ZM332.638 220.312C331.91 220.312 331.281 220.144 330.752 219.81C330.222 219.475 329.815 219.013 329.53 218.425C329.245 217.837 329.103 217.163 329.103 216.403C329.103 215.63 329.248 214.949 329.537 214.361C329.831 213.768 330.241 213.307 330.765 212.976C331.295 212.642 331.914 212.474 332.625 212.474C333.204 212.474 333.717 212.581 334.165 212.793C334.617 213.001 334.982 213.298 335.258 213.682C335.538 214.067 335.703 214.514 335.753 215.026H334.314C334.265 214.786 334.167 214.567 334.023 214.367C333.882 214.168 333.697 214.01 333.466 213.892C333.235 213.775 332.962 213.716 332.645 213.716C332.233 213.716 331.874 213.825 331.566 214.042C331.263 214.254 331.025 214.56 330.854 214.958C330.682 215.356 330.596 215.826 330.596 216.369C330.596 216.917 330.679 217.394 330.847 217.801C331.014 218.208 331.252 218.523 331.559 218.744C331.871 218.961 332.233 219.07 332.645 219.07C333.07 219.07 333.432 218.952 333.731 218.717C334.034 218.482 334.228 218.161 334.314 217.754H335.753C335.703 218.247 335.545 218.686 335.278 219.07C335.011 219.455 334.654 219.758 334.206 219.979C333.758 220.201 333.235 220.312 332.638 220.312ZM339.98 220.312C339.27 220.312 338.648 220.149 338.114 219.823C337.585 219.498 337.173 219.041 336.879 218.453C336.59 217.864 336.445 217.181 336.445 216.403C336.445 215.616 336.59 214.928 336.879 214.34C337.173 213.748 337.585 213.289 338.114 212.963C338.648 212.637 339.27 212.474 339.98 212.474C340.695 212.474 341.317 212.637 341.847 212.963C342.376 213.289 342.788 213.748 343.082 214.34C343.376 214.928 343.523 215.616 343.523 216.403C343.523 217.181 343.376 217.864 343.082 218.453C342.788 219.041 342.376 219.498 341.847 219.823C341.317 220.149 340.695 220.312 339.98 220.312ZM339.98 219.07C340.446 219.07 340.831 218.948 341.134 218.704C341.437 218.459 341.661 218.136 341.806 217.733C341.955 217.326 342.03 216.883 342.03 216.403C342.03 215.915 341.955 215.467 341.806 215.06C341.661 214.652 341.437 214.327 341.134 214.082C340.831 213.838 340.446 213.716 339.98 213.716C339.519 213.716 339.137 213.838 338.834 214.082C338.535 214.327 338.311 214.652 338.162 215.06C338.013 215.467 337.938 215.915 337.938 216.403C337.938 216.883 338.013 217.326 338.162 217.733C338.311 218.136 338.535 218.459 338.834 218.704C339.137 218.948 339.519 219.07 339.98 219.07ZM344.588 220.156V212.569H345.993V213.818H346.094C346.253 213.397 346.511 213.069 346.868 212.834C347.23 212.594 347.66 212.474 348.157 212.474C348.664 212.474 349.087 212.594 349.426 212.834C349.77 213.069 350.026 213.397 350.193 213.818H350.275C350.455 213.406 350.743 213.08 351.136 212.841C351.53 212.596 351.998 212.474 352.541 212.474C353.229 212.474 353.792 212.691 354.231 213.126C354.669 213.555 354.889 214.205 354.889 215.073V220.156H353.41V215.209C353.41 214.693 353.269 214.322 352.989 214.096C352.708 213.865 352.374 213.75 351.985 213.75C351.505 213.75 351.132 213.899 350.865 214.198C350.602 214.492 350.471 214.865 350.471 215.317V220.156H348.992V215.114C348.992 214.702 348.865 214.372 348.612 214.123C348.359 213.874 348.026 213.75 347.614 213.75C347.334 213.75 347.074 213.825 346.834 213.974C346.599 214.119 346.409 214.322 346.264 214.585C346.124 214.842 346.054 215.141 346.054 215.48V220.156H344.588Z" fill="#4F5362"/>
<path d="M207.617 268.534V259.687H210.776C211.46 259.687 212.028 259.813 212.48 260.067C212.931 260.316 213.269 260.658 213.495 261.094C213.721 261.525 213.833 262.012 213.833 262.555C213.833 263.097 213.721 263.586 213.495 264.021C213.269 264.453 212.929 264.795 212.474 265.048C212.022 265.298 211.452 265.422 210.764 265.422H208.602V264.294H210.639C211.078 264.294 211.433 264.219 211.702 264.069C211.975 263.918 212.173 263.712 212.296 263.451C212.422 263.186 212.486 262.887 212.486 262.555C212.486 262.218 212.422 261.921 212.296 261.664C212.173 261.403 211.975 261.199 211.702 261.052C211.429 260.906 211.072 260.833 210.633 260.833H208.953V268.534H207.617ZM216.642 268.676C216.222 268.676 215.842 268.599 215.502 268.445C215.161 268.286 214.892 268.057 214.694 267.756C214.496 267.455 214.398 267.089 214.398 266.657C214.398 266.281 214.469 265.975 214.611 265.737C214.758 265.496 214.954 265.304 215.199 265.161C215.445 265.019 215.718 264.912 216.018 264.841C216.319 264.769 216.628 264.714 216.945 264.674C217.345 264.631 217.667 264.593 217.913 264.561C218.158 264.53 218.336 264.48 218.447 264.413C218.562 264.342 218.619 264.229 218.619 264.075V264.045C218.619 263.669 218.512 263.378 218.299 263.172C218.089 262.966 217.776 262.863 217.36 262.863C216.929 262.863 216.587 262.958 216.333 263.148C216.084 263.334 215.912 263.546 215.817 263.784L214.599 263.505C214.746 263.101 214.958 262.776 215.235 262.531C215.516 262.281 215.836 262.099 216.197 261.985C216.561 261.87 216.941 261.812 217.337 261.812C217.602 261.812 217.883 261.844 218.18 261.907C218.477 261.967 218.756 262.08 219.017 262.246C219.282 262.408 219.498 262.642 219.664 262.946C219.83 263.251 219.914 263.645 219.914 264.128V268.534H218.649V267.625H218.601C218.522 267.788 218.397 267.95 218.227 268.112C218.061 268.274 217.847 268.409 217.586 268.516C217.325 268.623 217.01 268.676 216.642 268.676ZM216.921 267.643C217.281 267.643 217.588 267.574 217.841 267.435C218.095 267.293 218.289 267.107 218.423 266.877C218.558 266.648 218.625 266.404 218.625 266.147V265.286C218.578 265.329 218.489 265.371 218.358 265.411C218.227 265.45 218.079 265.484 217.913 265.511C217.746 265.539 217.584 265.565 217.426 265.589C217.267 265.608 217.135 265.624 217.028 265.636C216.778 265.672 216.551 265.727 216.345 265.802C216.139 265.874 215.973 265.981 215.846 266.123C215.724 266.262 215.662 266.446 215.662 266.675C215.662 266.996 215.781 267.237 216.018 267.4C216.256 267.562 216.557 267.643 216.921 267.643ZM226.118 263.522L224.949 263.724C224.873 263.503 224.733 263.299 224.527 263.113C224.325 262.927 224.022 262.834 223.619 262.834C223.254 262.834 222.95 262.917 222.704 263.083C222.463 263.245 222.342 263.453 222.342 263.706C222.342 263.928 222.423 264.108 222.585 264.247C222.752 264.385 223.015 264.496 223.375 264.579L224.438 264.817C225.044 264.955 225.497 265.173 225.798 265.47C226.099 265.767 226.249 266.147 226.249 266.61C226.249 267.01 226.134 267.366 225.905 267.679C225.675 267.987 225.356 268.231 224.949 268.409C224.541 268.583 224.07 268.67 223.535 268.67C222.791 268.67 222.186 268.51 221.719 268.189C221.251 267.869 220.964 267.417 220.858 266.836L222.099 266.646C222.178 266.97 222.338 267.216 222.58 267.382C222.825 267.548 223.142 267.631 223.53 267.631C223.949 267.631 224.286 267.542 224.539 267.364C224.796 267.186 224.925 266.97 224.925 266.717C224.925 266.297 224.612 266.014 223.987 265.868L222.865 265.618C222.243 265.476 221.784 265.252 221.487 264.947C221.194 264.639 221.048 264.251 221.048 263.784C221.048 263.392 221.156 263.047 221.374 262.75C221.596 262.454 221.899 262.224 222.283 262.062C222.671 261.895 223.112 261.812 223.607 261.812C224.327 261.812 224.891 261.969 225.299 262.281C225.711 262.594 225.984 263.008 226.118 263.522ZM232.115 263.522L230.946 263.724C230.87 263.503 230.73 263.299 230.524 263.113C230.322 262.927 230.019 262.834 229.616 262.834C229.251 262.834 228.947 262.917 228.701 263.083C228.46 263.245 228.339 263.453 228.339 263.706C228.339 263.928 228.42 264.108 228.582 264.247C228.749 264.385 229.012 264.496 229.372 264.579L230.435 264.817C231.041 264.955 231.494 265.173 231.795 265.47C232.095 265.767 232.246 266.147 232.246 266.61C232.246 267.01 232.131 267.366 231.902 267.679C231.672 267.987 231.353 268.231 230.946 268.409C230.538 268.583 230.067 268.67 229.532 268.67C228.788 268.67 228.183 268.51 227.716 268.189C227.248 267.869 226.961 267.417 226.855 266.836L228.096 266.646C228.175 266.97 228.335 267.216 228.576 267.382C228.822 267.548 229.139 267.631 229.526 267.631C229.946 267.631 230.283 267.542 230.536 267.364C230.793 267.186 230.922 266.97 230.922 266.717C230.922 266.297 230.609 266.014 229.984 265.868L228.861 265.618C228.24 265.476 227.781 265.252 227.484 264.947C227.191 264.639 227.045 264.251 227.045 263.784C227.045 263.392 227.153 263.047 227.371 262.75C227.593 262.454 227.896 262.224 228.28 262.062C228.668 261.895 229.109 261.812 229.604 261.812C230.324 261.812 230.888 261.969 231.296 262.281C231.708 262.594 231.981 263.008 232.115 263.522ZM234.579 268.534L232.632 261.895H233.962L235.262 266.77H235.333L236.634 261.895H237.97L239.258 266.752H239.323L240.618 261.895H241.948L240 268.534H238.688L237.334 263.748H237.245L235.892 268.534H234.579ZM245.255 268.67C244.634 268.67 244.089 268.528 243.622 268.243C243.159 267.958 242.799 267.558 242.542 267.043C242.288 266.529 242.162 265.931 242.162 265.25C242.162 264.561 242.288 263.96 242.542 263.445C242.799 262.927 243.159 262.525 243.622 262.24C244.089 261.955 244.634 261.812 245.255 261.812C245.881 261.812 246.425 261.955 246.888 262.24C247.351 262.525 247.711 262.927 247.969 263.445C248.226 263.96 248.355 264.561 248.355 265.25C248.355 265.931 248.226 266.529 247.969 267.043C247.711 267.558 247.351 267.958 246.888 268.243C246.425 268.528 245.881 268.67 245.255 268.67ZM245.255 267.584C245.663 267.584 245.999 267.477 246.265 267.263C246.53 267.049 246.726 266.766 246.852 266.414C246.983 266.058 247.048 265.67 247.048 265.25C247.048 264.823 246.983 264.431 246.852 264.075C246.726 263.718 246.53 263.433 246.265 263.22C245.999 263.006 245.663 262.899 245.255 262.899C244.851 262.899 244.517 263.006 244.252 263.22C243.99 263.433 243.794 263.718 243.664 264.075C243.533 264.431 243.468 264.823 243.468 265.25C243.468 265.67 243.533 266.058 243.664 266.414C243.794 266.766 243.99 267.049 244.252 267.263C244.517 267.477 244.851 267.584 245.255 267.584ZM249.287 268.534V261.895H250.528V262.958H250.599C250.722 262.602 250.935 262.321 251.24 262.115C251.549 261.905 251.897 261.8 252.285 261.8C252.364 261.8 252.457 261.804 252.564 261.812C252.675 261.816 252.764 261.822 252.831 261.83V263.065C252.78 263.049 252.687 263.034 252.552 263.018C252.422 263.002 252.289 262.994 252.155 262.994C251.85 262.994 251.577 263.059 251.335 263.19C251.098 263.317 250.91 263.493 250.771 263.718C250.637 263.94 250.569 264.197 250.569 264.49V268.534H249.287ZM255.687 268.664C255.149 268.664 254.67 268.528 254.251 268.255C253.831 267.978 253.502 267.584 253.265 267.073C253.027 266.558 252.909 265.945 252.909 265.232C252.909 264.512 253.029 263.896 253.271 263.386C253.512 262.875 253.843 262.485 254.262 262.216C254.682 261.947 255.157 261.812 255.687 261.812C256.103 261.812 256.436 261.882 256.685 262.02C256.938 262.155 257.134 262.313 257.273 262.495C257.415 262.677 257.524 262.838 257.599 262.976H257.677V259.687H258.959V268.534H257.706V267.501H257.599C257.524 267.639 257.413 267.799 257.267 267.981C257.12 268.164 256.92 268.324 256.667 268.462C256.418 268.597 256.091 268.664 255.687 268.664ZM255.967 267.566C256.339 267.566 256.653 267.467 256.911 267.269C257.168 267.071 257.362 266.796 257.492 266.444C257.627 266.091 257.694 265.684 257.694 265.221C257.694 264.757 257.629 264.354 257.498 264.009C257.368 263.661 257.174 263.392 256.917 263.202C256.659 263.008 256.343 262.911 255.967 262.911C255.579 262.911 255.256 263.012 254.999 263.214C254.741 263.415 254.547 263.691 254.417 264.039C254.286 264.387 254.221 264.781 254.221 265.221C254.221 265.664 254.286 266.064 254.417 266.42C254.547 266.772 254.741 267.051 254.999 267.257C255.26 267.463 255.583 267.566 255.967 267.566Z" fill="white"/>
<rect x="207.339" y="285.865" width="328.324" height="42.5606" rx="9.98871" fill="#080B18" stroke="#2F354C" stroke-width="0.868583"/>
<path d="M233.165 311.527C232.337 311.527 231.631 311.242 231.048 310.672C230.478 310.102 230.193 309.403 230.193 308.575C230.193 307.747 230.478 307.049 231.048 306.479C231.631 305.909 232.337 305.624 233.165 305.624C233.993 305.624 234.692 305.909 235.262 306.479C235.845 307.049 236.137 307.747 236.137 308.575C236.137 309.403 235.845 310.102 235.262 310.672C234.692 311.242 233.993 311.527 233.165 311.527ZM243.995 311.527C243.167 311.527 242.462 311.242 241.878 310.672C241.308 310.102 241.023 309.403 241.023 308.575C241.023 307.747 241.308 307.049 241.878 306.479C242.462 305.909 243.167 305.624 243.995 305.624C244.823 305.624 245.522 305.909 246.092 306.479C246.676 307.049 246.967 307.747 246.967 308.575C246.967 309.403 246.676 310.102 246.092 310.672C245.522 311.242 244.823 311.527 243.995 311.527ZM254.825 311.527C253.997 311.527 253.292 311.242 252.708 310.672C252.138 310.102 251.853 309.403 251.853 308.575C251.853 307.747 252.138 307.049 252.708 306.479C253.292 305.909 253.997 305.624 254.825 305.624C255.653 305.624 256.352 305.909 256.922 306.479C257.506 307.049 257.798 307.747 257.798 308.575C257.798 309.403 257.506 310.102 256.922 310.672C256.352 311.242 255.653 311.527 254.825 311.527ZM265.656 311.527C264.828 311.527 264.122 311.242 263.538 310.672C262.968 310.102 262.683 309.403 262.683 308.575C262.683 307.747 262.968 307.049 263.538 306.479C264.122 305.909 264.828 305.624 265.656 305.624C266.483 305.624 267.182 305.909 267.752 306.479C268.336 307.049 268.628 307.747 268.628 308.575C268.628 309.403 268.336 310.102 267.752 310.672C267.182 311.242 266.483 311.527 265.656 311.527ZM276.486 311.527C275.658 311.527 274.952 311.242 274.368 310.672C273.798 310.102 273.513 309.403 273.513 308.575C273.513 307.747 273.798 307.049 274.368 306.479C274.952 305.909 275.658 305.624 276.486 305.624C277.314 305.624 278.012 305.909 278.582 306.479C279.166 307.049 279.458 307.747 279.458 308.575C279.458 309.403 279.166 310.102 278.582 310.672C278.012 311.242 277.314 311.527 276.486 311.527ZM287.316 311.527C286.488 311.527 285.782 311.242 285.199 310.672C284.629 310.102 284.344 309.403 284.344 308.575C284.344 307.747 284.629 307.049 285.199 306.479C285.782 305.909 286.488 305.624 287.316 305.624C288.144 305.624 288.843 305.909 289.413 306.479C289.996 307.049 290.288 307.747 290.288 308.575C290.288 309.403 289.996 310.102 289.413 310.672C288.843 311.242 288.144 311.527 287.316 311.527ZM298.146 311.527C297.318 311.527 296.612 311.242 296.029 310.672C295.459 310.102 295.174 309.403 295.174 308.575C295.174 307.747 295.459 307.049 296.029 306.479C296.612 305.909 297.318 305.624 298.146 305.624C298.974 305.624 299.673 305.909 300.243 306.479C300.826 307.049 301.118 307.747 301.118 308.575C301.118 309.403 300.826 310.102 300.243 310.672C299.673 311.242 298.974 311.527 298.146 311.527ZM308.976 311.527C308.148 311.527 307.443 311.242 306.859 310.672C306.289 310.102 306.004 309.403 306.004 308.575C306.004 307.747 306.289 307.049 306.859 306.479C307.443 305.909 308.148 305.624 308.976 305.624C309.804 305.624 310.503 305.909 311.073 306.479C311.656 307.049 311.948 307.747 311.948 308.575C311.948 309.403 311.656 310.102 311.073 310.672C310.503 311.242 309.804 311.527 308.976 311.527ZM319.806 311.527C318.978 311.527 318.273 311.242 317.689 310.672C317.119 310.102 316.834 309.403 316.834 308.575C316.834 307.747 317.119 307.049 317.689 306.479C318.273 305.909 318.978 305.624 319.806 305.624C320.634 305.624 321.333 305.909 321.903 306.479C322.487 307.049 322.778 307.747 322.778 308.575C322.778 309.403 322.487 310.102 321.903 310.672C321.333 311.242 320.634 311.527 319.806 311.527ZM330.636 311.527C329.809 311.527 329.103 311.242 328.519 310.672C327.949 310.102 327.664 309.403 327.664 308.575C327.664 307.747 327.949 307.049 328.519 306.479C329.103 305.909 329.809 305.624 330.636 305.624C331.464 305.624 332.163 305.909 332.733 306.479C333.317 307.049 333.609 307.747 333.609 308.575C333.609 309.403 333.317 310.102 332.733 310.672C332.163 311.242 331.464 311.527 330.636 311.527ZM341.467 311.527C340.639 311.527 339.933 311.242 339.349 310.672C338.779 310.102 338.494 309.403 338.494 308.575C338.494 307.747 338.779 307.049 339.349 306.479C339.933 305.909 340.639 305.624 341.467 305.624C342.294 305.624 342.993 305.909 343.563 306.479C344.147 307.049 344.439 307.747 344.439 308.575C344.439 309.403 344.147 310.102 343.563 310.672C342.993 311.242 342.294 311.527 341.467 311.527ZM352.297 311.527C351.469 311.527 350.763 311.242 350.18 310.672C349.61 310.102 349.325 309.403 349.325 308.575C349.325 307.747 349.61 307.049 350.18 306.479C350.763 305.909 351.469 305.624 352.297 305.624C353.125 305.624 353.823 305.909 354.394 306.479C354.977 307.049 355.269 307.747 355.269 308.575C355.269 309.403 354.977 310.102 354.394 310.672C353.823 311.242 353.125 311.527 352.297 311.527ZM363.127 311.527C362.299 311.527 361.593 311.242 361.01 310.672C360.44 310.102 360.155 309.403 360.155 308.575C360.155 307.747 360.44 307.049 361.01 306.479C361.593 305.909 362.299 305.624 363.127 305.624C363.955 305.624 364.654 305.909 365.224 306.479C365.807 307.049 366.099 307.747 366.099 308.575C366.099 309.403 365.807 310.102 365.224 310.672C364.654 311.242 363.955 311.527 363.127 311.527ZM373.957 311.527C373.129 311.527 372.423 311.242 371.84 310.672C371.27 310.102 370.985 309.403 370.985 308.575C370.985 307.747 371.27 307.049 371.84 306.479C372.423 305.909 373.129 305.624 373.957 305.624C374.785 305.624 375.484 305.909 376.054 306.479C376.637 307.049 376.929 307.747 376.929 308.575C376.929 309.403 376.637 310.102 376.054 310.672C375.484 311.242 374.785 311.527 373.957 311.527ZM384.787 311.527C383.959 311.527 383.254 311.242 382.67 310.672C382.1 310.102 381.815 309.403 381.815 308.575C381.815 307.747 382.1 307.049 382.67 306.479C383.254 305.909 383.959 305.624 384.787 305.624C385.615 305.624 386.314 305.909 386.884 306.479C387.468 307.049 387.759 307.747 387.759 308.575C387.759 309.403 387.468 310.102 386.884 310.672C386.314 311.242 385.615 311.527 384.787 311.527ZM395.617 311.527C394.789 311.527 394.084 311.242 393.5 310.672C392.93 310.102 392.645 309.403 392.645 308.575C392.645 307.747 392.93 307.049 393.5 306.479C394.084 305.909 394.789 305.624 395.617 305.624C396.445 305.624 397.144 305.909 397.714 306.479C398.298 307.049 398.589 307.747 398.589 308.575C398.589 309.403 398.298 310.102 397.714 310.672C397.144 311.242 396.445 311.527 395.617 311.527ZM406.447 311.527C405.62 311.527 404.914 311.242 404.33 310.672C403.76 310.102 403.475 309.403 403.475 308.575C403.475 307.747 403.76 307.049 404.33 306.479C404.914 305.909 405.62 305.624 406.447 305.624C407.275 305.624 407.974 305.909 408.544 306.479C409.128 307.049 409.42 307.747 409.42 308.575C409.42 309.403 409.128 310.102 408.544 310.672C407.974 311.242 407.275 311.527 406.447 311.527ZM417.278 311.527C416.45 311.527 415.744 311.242 415.16 310.672C414.59 310.102 414.305 309.403 414.305 308.575C414.305 307.747 414.59 307.049 415.16 306.479C415.744 305.909 416.45 305.624 417.278 305.624C418.105 305.624 418.804 305.909 419.374 306.479C419.958 307.049 420.25 307.747 420.25 308.575C420.25 309.403 419.958 310.102 419.374 310.672C418.804 311.242 418.105 311.527 417.278 311.527ZM428.108 311.527C427.28 311.527 426.574 311.242 425.991 310.672C425.421 310.102 425.136 309.403 425.136 308.575C425.136 307.747 425.421 307.049 425.991 306.479C426.574 305.909 427.28 305.624 428.108 305.624C428.936 305.624 429.635 305.909 430.205 306.479C430.788 307.049 431.08 307.747 431.08 308.575C431.08 309.403 430.788 310.102 430.205 310.672C429.635 311.242 428.936 311.527 428.108 311.527ZM438.938 311.527C438.11 311.527 437.404 311.242 436.821 310.672C436.251 310.102 435.966 309.403 435.966 308.575C435.966 307.747 436.251 307.049 436.821 306.479C437.404 305.909 438.11 305.624 438.938 305.624C439.766 305.624 440.465 305.909 441.035 306.479C441.618 307.049 441.91 307.747 441.91 308.575C441.91 309.403 441.618 310.102 441.035 310.672C440.465 311.242 439.766 311.527 438.938 311.527Z" fill="#4F5362"/>
<path d="M208.371 358.232H206.952L210.134 349.385H211.678L214.855 358.232H213.442L210.936 350.994H210.865L208.371 358.232ZM208.608 354.77H213.198V355.887H208.608V354.77ZM216.796 349.385V358.232H215.514V349.385H216.796ZM218.031 358.232V351.594H219.272V352.657H219.344C219.466 352.3 219.68 352.019 219.985 351.813C220.294 351.604 220.642 351.499 221.03 351.499C221.109 351.499 221.202 351.503 221.309 351.511C221.42 351.515 221.509 351.52 221.576 351.528V352.763C221.525 352.748 221.432 352.732 221.297 352.716C221.166 352.7 221.034 352.692 220.899 352.692C220.594 352.692 220.321 352.757 220.08 352.888C219.842 353.015 219.654 353.191 219.516 353.417C219.381 353.638 219.314 353.896 219.314 354.188V358.232H218.031ZM224.818 358.368C224.169 358.368 223.607 358.228 223.132 357.947C222.657 357.666 222.291 357.27 222.033 356.759C221.78 356.245 221.653 355.645 221.653 354.96C221.653 354.279 221.778 353.68 222.027 353.161C222.281 352.643 222.635 352.239 223.09 351.95C223.549 351.657 224.088 351.511 224.705 351.511C225.081 351.511 225.445 351.572 225.798 351.695C226.15 351.817 226.467 352.011 226.748 352.277C227.029 352.542 227.25 352.886 227.413 353.31C227.579 353.733 227.662 354.244 227.662 354.842V355.305H222.384V354.337H226.997L226.397 354.658C226.397 354.25 226.334 353.89 226.207 353.577C226.081 353.264 225.891 353.021 225.637 352.847C225.388 352.668 225.077 352.579 224.705 352.579C224.333 352.579 224.014 352.668 223.749 352.847C223.488 353.025 223.288 353.26 223.15 353.553C223.011 353.846 222.942 354.167 222.942 354.515V355.174C222.942 355.629 223.021 356.015 223.179 356.332C223.338 356.649 223.557 356.89 223.838 357.056C224.123 357.223 224.454 357.306 224.83 357.306C225.075 357.306 225.297 357.27 225.495 357.199C225.697 357.128 225.871 357.021 226.017 356.878C226.164 356.736 226.275 356.56 226.35 356.35L227.573 356.581C227.474 356.938 227.3 357.25 227.051 357.519C226.801 357.789 226.486 357.998 226.106 358.149C225.73 358.295 225.301 358.368 224.818 358.368ZM230.488 358.374C230.069 358.374 229.689 358.297 229.348 358.143C229.008 357.985 228.739 357.755 228.541 357.454C228.343 357.153 228.244 356.787 228.244 356.356C228.244 355.98 228.315 355.673 228.458 355.435C228.604 355.194 228.8 355.002 229.046 354.859C229.291 354.717 229.564 354.61 229.865 354.539C230.166 354.468 230.475 354.412 230.791 354.373C231.191 354.329 231.514 354.291 231.759 354.26C232.004 354.228 232.183 354.179 232.293 354.111C232.408 354.04 232.466 353.927 232.466 353.773V353.743C232.466 353.367 232.359 353.076 232.145 352.87C231.935 352.664 231.622 352.562 231.207 352.562C230.775 352.562 230.433 352.657 230.18 352.847C229.93 353.033 229.758 353.244 229.663 353.482L228.446 353.203C228.592 352.799 228.804 352.474 229.081 352.229C229.362 351.98 229.683 351.798 230.043 351.683C230.407 351.568 230.787 351.511 231.183 351.511C231.448 351.511 231.729 351.542 232.026 351.606C232.323 351.665 232.602 351.778 232.863 351.944C233.129 352.106 233.344 352.34 233.511 352.645C233.677 352.949 233.76 353.343 233.76 353.826V358.232H232.495V357.323H232.448C232.369 357.486 232.244 357.648 232.074 357.81C231.907 357.973 231.694 358.107 231.432 358.214C231.171 358.321 230.856 358.374 230.488 358.374ZM230.767 357.341C231.128 357.341 231.434 357.272 231.688 357.133C231.941 356.991 232.135 356.805 232.27 356.575C232.404 356.346 232.472 356.102 232.472 355.845V354.984C232.424 355.028 232.335 355.069 232.204 355.109C232.074 355.148 231.925 355.182 231.759 355.21C231.593 355.237 231.43 355.263 231.272 355.287C231.114 355.307 230.981 355.323 230.874 355.334C230.625 355.37 230.397 355.425 230.191 355.501C229.986 355.572 229.819 355.679 229.693 355.821C229.57 355.96 229.509 356.144 229.509 356.373C229.509 356.694 229.627 356.936 229.865 357.098C230.102 357.26 230.403 357.341 230.767 357.341ZM237.471 358.363C236.933 358.363 236.454 358.226 236.034 357.953C235.614 357.676 235.286 357.282 235.048 356.771C234.811 356.257 234.692 355.643 234.692 354.931C234.692 354.21 234.813 353.595 235.054 353.084C235.296 352.573 235.626 352.184 236.046 351.914C236.466 351.645 236.941 351.511 237.471 351.511C237.887 351.511 238.219 351.58 238.468 351.718C238.722 351.853 238.918 352.011 239.056 352.193C239.199 352.376 239.308 352.536 239.383 352.674H239.46V349.385H240.743V358.232H239.49V357.199H239.383C239.308 357.337 239.197 357.498 239.05 357.68C238.904 357.862 238.704 358.022 238.451 358.161C238.201 358.295 237.875 358.363 237.471 358.363ZM237.75 357.264C238.122 357.264 238.437 357.165 238.694 356.967C238.951 356.769 239.145 356.494 239.276 356.142C239.411 355.79 239.478 355.382 239.478 354.919C239.478 354.456 239.413 354.052 239.282 353.707C239.151 353.359 238.957 353.09 238.7 352.9C238.443 352.706 238.126 352.609 237.75 352.609C237.362 352.609 237.039 352.71 236.782 352.912C236.525 353.114 236.331 353.389 236.2 353.737C236.07 354.086 236.004 354.479 236.004 354.919C236.004 355.362 236.07 355.762 236.2 356.118C236.331 356.47 236.525 356.75 236.782 356.955C237.043 357.161 237.366 357.264 237.75 357.264ZM242.791 360.714C242.597 360.718 242.421 360.704 242.263 360.672C242.108 360.645 241.989 360.611 241.906 360.571L242.221 359.52L242.31 359.544C242.639 359.627 242.916 359.621 243.141 359.526C243.371 359.435 243.563 359.18 243.717 358.76L243.878 358.321L241.455 351.594H242.839L244.513 356.748H244.584L246.265 351.594H247.648L244.917 359.111C244.79 359.459 244.63 359.752 244.436 359.989C244.242 360.231 244.008 360.411 243.735 360.53C243.466 360.652 243.151 360.714 242.791 360.714ZM252.351 354.295V358.232H251.068V349.385H252.333V352.686H252.422C252.576 352.326 252.812 352.041 253.128 351.831C253.449 351.617 253.867 351.511 254.381 351.511C254.836 351.511 255.234 351.604 255.575 351.79C255.915 351.976 256.18 352.255 256.37 352.627C256.564 352.999 256.661 353.462 256.661 354.016V358.232H255.367V354.171C255.367 353.68 255.24 353.3 254.987 353.031C254.737 352.761 254.389 352.627 253.942 352.627C253.633 352.627 253.36 352.694 253.122 352.829C252.885 352.959 252.697 353.147 252.558 353.393C252.42 353.638 252.351 353.939 252.351 354.295ZM259.82 358.374C259.4 358.374 259.02 358.297 258.68 358.143C258.34 357.985 258.07 357.755 257.872 357.454C257.675 357.153 257.576 356.787 257.576 356.356C257.576 355.98 257.647 355.673 257.789 355.435C257.936 355.194 258.132 355.002 258.377 354.859C258.623 354.717 258.896 354.61 259.197 354.539C259.497 354.468 259.806 354.412 260.123 354.373C260.523 354.329 260.845 354.291 261.091 354.26C261.336 354.228 261.514 354.179 261.625 354.111C261.74 354.04 261.797 353.927 261.797 353.773V353.743C261.797 353.367 261.69 353.076 261.477 352.87C261.267 352.664 260.954 352.562 260.538 352.562C260.107 352.562 259.765 352.657 259.511 352.847C259.262 353.033 259.09 353.244 258.995 353.482L257.777 353.203C257.924 352.799 258.136 352.474 258.413 352.229C258.694 351.98 259.014 351.798 259.375 351.683C259.739 351.568 260.119 351.511 260.515 351.511C260.78 351.511 261.061 351.542 261.358 351.606C261.655 351.665 261.934 351.778 262.195 351.944C262.46 352.106 262.676 352.34 262.842 352.645C263.008 352.949 263.092 353.343 263.092 353.826V358.232H261.827V357.323H261.779C261.7 357.486 261.576 357.648 261.405 357.81C261.239 357.973 261.025 358.107 260.764 358.214C260.503 358.321 260.188 358.374 259.82 358.374ZM260.099 357.341C260.459 357.341 260.766 357.272 261.019 357.133C261.273 356.991 261.467 356.805 261.601 356.575C261.736 356.346 261.803 356.102 261.803 355.845V354.984C261.756 355.028 261.667 355.069 261.536 355.109C261.405 355.148 261.257 355.182 261.091 355.21C260.924 355.237 260.762 355.263 260.604 355.287C260.445 355.307 260.313 355.323 260.206 355.334C259.957 355.37 259.729 355.425 259.523 355.501C259.317 355.572 259.151 355.679 259.024 355.821C258.902 355.96 258.84 356.144 258.84 356.373C258.84 356.694 258.959 356.936 259.197 357.098C259.434 357.26 259.735 357.341 260.099 357.341ZM269.76 351.594L267.361 358.232H265.971L263.567 351.594H264.95L266.636 356.712H266.708L268.382 351.594H269.76ZM273.102 358.368C272.453 358.368 271.891 358.228 271.416 357.947C270.941 357.666 270.575 357.27 270.318 356.759C270.064 356.245 269.938 355.645 269.938 354.96C269.938 354.279 270.062 353.68 270.312 353.161C270.565 352.643 270.919 352.239 271.375 351.95C271.834 351.657 272.372 351.511 272.99 351.511C273.366 351.511 273.73 351.572 274.082 351.695C274.434 351.817 274.751 352.011 275.032 352.277C275.313 352.542 275.535 352.886 275.697 353.31C275.863 353.733 275.946 354.244 275.946 354.842V355.305H270.668V354.337H275.281L274.682 354.658C274.682 354.25 274.618 353.89 274.492 353.577C274.365 353.264 274.175 353.021 273.922 352.847C273.672 352.668 273.362 352.579 272.99 352.579C272.617 352.579 272.299 352.668 272.034 352.847C271.772 353.025 271.572 353.26 271.434 353.553C271.295 353.846 271.226 354.167 271.226 354.515V355.174C271.226 355.629 271.305 356.015 271.464 356.332C271.622 356.649 271.842 356.89 272.123 357.056C272.408 357.223 272.738 357.306 273.114 357.306C273.36 357.306 273.581 357.27 273.779 357.199C273.981 357.128 274.155 357.021 274.302 356.878C274.448 356.736 274.559 356.56 274.634 356.35L275.857 356.581C275.758 356.938 275.584 357.25 275.335 357.519C275.086 357.789 274.771 357.998 274.391 358.149C274.015 358.295 273.585 358.368 273.102 358.368ZM281.48 358.374C281.061 358.374 280.681 358.297 280.34 358.143C280 357.985 279.731 357.755 279.533 357.454C279.335 357.153 279.236 356.787 279.236 356.356C279.236 355.98 279.307 355.673 279.45 355.435C279.596 355.194 279.792 355.002 280.037 354.859C280.283 354.717 280.556 354.61 280.857 354.539C281.158 354.468 281.466 354.412 281.783 354.373C282.183 354.329 282.506 354.291 282.751 354.26C282.996 354.228 283.174 354.179 283.285 354.111C283.4 354.04 283.458 353.927 283.458 353.773V353.743C283.458 353.367 283.351 353.076 283.137 352.87C282.927 352.664 282.614 352.562 282.199 352.562C281.767 352.562 281.425 352.657 281.172 352.847C280.922 353.033 280.75 353.244 280.655 353.482L279.438 353.203C279.584 352.799 279.796 352.474 280.073 352.229C280.354 351.98 280.675 351.798 281.035 351.683C281.399 351.568 281.779 351.511 282.175 351.511C282.44 351.511 282.721 351.542 283.018 351.606C283.315 351.665 283.594 351.778 283.855 351.944C284.121 352.106 284.336 352.34 284.503 352.645C284.669 352.949 284.752 353.343 284.752 353.826V358.232H283.487V357.323H283.44C283.361 357.486 283.236 357.648 283.066 357.81C282.899 357.973 282.686 358.107 282.424 358.214C282.163 358.321 281.848 358.374 281.48 358.374ZM281.759 357.341C282.12 357.341 282.426 357.272 282.68 357.133C282.933 356.991 283.127 356.805 283.262 356.575C283.396 356.346 283.463 356.102 283.463 355.845V354.984C283.416 355.028 283.327 355.069 283.196 355.109C283.066 355.148 282.917 355.182 282.751 355.21C282.585 355.237 282.422 355.263 282.264 355.287C282.106 355.307 281.973 355.323 281.866 355.334C281.617 355.37 281.389 355.425 281.183 355.501C280.978 355.572 280.811 355.679 280.685 355.821C280.562 355.96 280.501 356.144 280.501 356.373C280.501 356.694 280.619 356.936 280.857 357.098C281.094 357.26 281.395 357.341 281.759 357.341ZM287.275 354.295V358.232H285.993V351.594H287.24V352.686H287.329C287.479 352.326 287.715 352.041 288.035 351.831C288.356 351.617 288.768 351.511 289.27 351.511C289.722 351.511 290.116 351.606 290.452 351.796C290.792 351.982 291.056 352.261 291.242 352.633C291.432 353.005 291.527 353.466 291.527 354.016V358.232H290.244V354.171C290.244 353.692 290.118 353.316 289.864 353.042C289.611 352.765 289.266 352.627 288.831 352.627C288.534 352.627 288.267 352.694 288.029 352.829C287.796 352.959 287.612 353.147 287.477 353.393C287.343 353.638 287.275 353.939 287.275 354.295ZM297.393 358.374C296.973 358.374 296.593 358.297 296.253 358.143C295.913 357.985 295.643 357.755 295.445 357.454C295.248 357.153 295.149 356.787 295.149 356.356C295.149 355.98 295.22 355.673 295.362 355.435C295.509 355.194 295.705 355.002 295.95 354.859C296.196 354.717 296.469 354.61 296.77 354.539C297.07 354.468 297.379 354.412 297.696 354.373C298.096 354.329 298.418 354.291 298.664 354.26C298.909 354.228 299.087 354.179 299.198 354.111C299.313 354.04 299.37 353.927 299.37 353.773V353.743C299.37 353.367 299.263 353.076 299.05 352.87C298.84 352.664 298.527 352.562 298.111 352.562C297.68 352.562 297.338 352.657 297.084 352.847C296.835 353.033 296.663 353.244 296.568 353.482L295.35 353.203C295.497 352.799 295.709 352.474 295.986 352.229C296.267 351.98 296.587 351.798 296.948 351.683C297.312 351.568 297.692 351.511 298.088 351.511C298.353 351.511 298.634 351.542 298.931 351.606C299.228 351.665 299.507 351.778 299.768 351.944C300.033 352.106 300.249 352.34 300.415 352.645C300.582 352.949 300.665 353.343 300.665 353.826V358.232H299.4V357.323H299.352C299.273 357.486 299.149 357.648 298.978 357.81C298.812 357.973 298.598 358.107 298.337 358.214C298.076 358.321 297.761 358.374 297.393 358.374ZM297.672 357.341C298.032 357.341 298.339 357.272 298.592 357.133C298.846 356.991 299.04 356.805 299.174 356.575C299.309 356.346 299.376 356.102 299.376 355.845V354.984C299.329 355.028 299.24 355.069 299.109 355.109C298.978 355.148 298.83 355.182 298.664 355.21C298.497 355.237 298.335 355.263 298.177 355.287C298.018 355.307 297.886 355.323 297.779 355.334C297.53 355.37 297.302 355.425 297.096 355.501C296.89 355.572 296.724 355.679 296.597 355.821C296.475 355.96 296.413 356.144 296.413 356.373C296.413 356.694 296.532 356.936 296.77 357.098C297.007 357.26 297.308 357.341 297.672 357.341ZM304.69 358.368C304.053 358.368 303.503 358.222 303.04 357.929C302.577 357.636 302.22 357.232 301.971 356.718C301.722 356.203 301.597 355.613 301.597 354.948C301.597 354.272 301.724 353.676 301.977 353.161C302.234 352.643 302.592 352.239 303.052 351.95C303.515 351.657 304.057 351.511 304.678 351.511C305.185 351.511 305.634 351.604 306.026 351.79C306.422 351.972 306.741 352.231 306.982 352.567C307.228 352.904 307.372 353.296 307.416 353.743H306.157C306.113 353.533 306.028 353.341 305.902 353.167C305.779 352.993 305.617 352.854 305.415 352.752C305.213 352.649 304.973 352.597 304.696 352.597C304.336 352.597 304.021 352.692 303.752 352.882C303.487 353.068 303.279 353.335 303.129 353.684C302.978 354.032 302.903 354.444 302.903 354.919C302.903 355.398 302.976 355.815 303.123 356.172C303.269 356.528 303.477 356.803 303.746 356.997C304.019 357.187 304.336 357.282 304.696 357.282C305.068 357.282 305.385 357.179 305.646 356.973C305.911 356.767 306.082 356.486 306.157 356.13H307.416C307.372 356.561 307.234 356.945 307 357.282C306.766 357.618 306.454 357.884 306.062 358.078C305.67 358.272 305.213 358.368 304.69 358.368ZM311.115 358.368C310.477 358.368 309.927 358.222 309.464 357.929C309.001 357.636 308.645 357.232 308.395 356.718C308.146 356.203 308.021 355.613 308.021 354.948C308.021 354.272 308.148 353.676 308.401 353.161C308.659 352.643 309.017 352.239 309.476 351.95C309.939 351.657 310.481 351.511 311.103 351.511C311.61 351.511 312.059 351.604 312.451 351.79C312.847 351.972 313.165 352.231 313.407 352.567C313.652 352.904 313.797 353.296 313.84 353.743H312.581C312.538 353.533 312.453 353.341 312.326 353.167C312.203 352.993 312.041 352.854 311.839 352.752C311.637 352.649 311.398 352.597 311.121 352.597C310.76 352.597 310.446 352.692 310.177 352.882C309.911 353.068 309.704 353.335 309.553 353.684C309.403 354.032 309.328 354.444 309.328 354.919C309.328 355.398 309.401 355.815 309.547 356.172C309.694 356.528 309.902 356.803 310.171 356.997C310.444 357.187 310.76 357.282 311.121 357.282C311.493 357.282 311.809 357.179 312.071 356.973C312.336 356.767 312.506 356.486 312.581 356.13H313.84C313.797 356.561 313.658 356.945 313.424 357.282C313.191 357.618 312.878 357.884 312.486 358.078C312.094 358.272 311.637 358.368 311.115 358.368ZM317.539 358.368C316.918 358.368 316.373 358.226 315.906 357.941C315.443 357.656 315.083 357.256 314.826 356.742C314.572 356.227 314.446 355.629 314.446 354.948C314.446 354.26 314.572 353.658 314.826 353.143C315.083 352.625 315.443 352.223 315.906 351.938C316.373 351.653 316.918 351.511 317.539 351.511C318.165 351.511 318.709 351.653 319.172 351.938C319.635 352.223 319.995 352.625 320.253 353.143C320.51 353.658 320.639 354.26 320.639 354.948C320.639 355.629 320.51 356.227 320.253 356.742C319.995 357.256 319.635 357.656 319.172 357.941C318.709 358.226 318.165 358.368 317.539 358.368ZM317.539 357.282C317.947 357.282 318.283 357.175 318.549 356.961C318.814 356.748 319.01 356.465 319.136 356.112C319.267 355.756 319.332 355.368 319.332 354.948C319.332 354.521 319.267 354.129 319.136 353.773C319.01 353.417 318.814 353.132 318.549 352.918C318.283 352.704 317.947 352.597 317.539 352.597C317.135 352.597 316.801 352.704 316.536 352.918C316.275 353.132 316.079 353.417 315.948 353.773C315.817 354.129 315.752 354.521 315.752 354.948C315.752 355.368 315.817 355.756 315.948 356.112C316.079 356.465 316.275 356.748 316.536 356.961C316.801 357.175 317.135 357.282 317.539 357.282ZM325.775 355.489V351.594H327.057V358.232H325.798V357.08H325.727C325.569 357.432 325.323 357.727 324.991 357.965C324.658 358.202 324.243 358.319 323.744 358.315C323.317 358.315 322.938 358.222 322.61 358.036C322.285 357.85 322.03 357.571 321.844 357.199C321.662 356.827 321.571 356.366 321.571 355.815V351.594H322.853V355.667C322.853 356.114 322.98 356.472 323.233 356.742C323.487 357.011 323.813 357.143 324.213 357.139C324.455 357.139 324.694 357.08 324.932 356.961C325.173 356.843 325.373 356.66 325.531 356.415C325.694 356.17 325.775 355.861 325.775 355.489ZM329.575 354.295V358.232H328.292V351.594H329.539V352.686H329.628C329.779 352.326 330.014 352.041 330.335 351.831C330.655 351.617 331.067 351.511 331.57 351.511C332.021 351.511 332.415 351.606 332.751 351.796C333.092 351.982 333.355 352.261 333.541 352.633C333.731 353.005 333.826 353.466 333.826 354.016V358.232H332.543V354.171C332.543 353.692 332.417 353.316 332.163 353.042C331.91 352.765 331.566 352.627 331.13 352.627C330.833 352.627 330.566 352.694 330.329 352.829C330.095 352.959 329.911 353.147 329.777 353.393C329.642 353.638 329.575 353.939 329.575 354.295ZM338.149 351.594V352.633H334.527V351.594H338.149ZM335.494 350.014H336.783V356.284C336.783 356.589 336.846 356.813 336.973 356.955C337.1 357.094 337.303 357.163 337.585 357.163C337.652 357.163 337.723 357.159 337.798 357.151C337.877 357.143 337.957 357.132 338.036 357.116L338.279 358.184C338.149 358.228 338.006 358.262 337.852 358.285C337.697 358.309 337.543 358.321 337.389 358.321C336.815 358.321 336.355 358.161 336.011 357.84C335.667 357.515 335.494 357.084 335.494 356.546V350.014ZM343.196 355.548V355.465C343.196 354.927 343.245 354.513 343.344 354.224C343.447 353.931 343.593 353.7 343.783 353.529C343.977 353.355 344.207 353.185 344.472 353.019C344.733 352.864 344.951 352.672 345.125 352.443C345.299 352.209 345.386 351.93 345.386 351.606C345.386 351.352 345.327 351.133 345.208 350.947C345.09 350.76 344.929 350.616 344.727 350.513C344.526 350.41 344.302 350.359 344.056 350.359C343.839 350.359 343.629 350.404 343.427 350.495C343.225 350.586 343.057 350.729 342.922 350.923C342.788 351.113 342.713 351.36 342.697 351.665H341.39C341.406 351.15 341.535 350.715 341.776 350.359C342.018 349.998 342.337 349.727 342.732 349.545C343.132 349.359 343.574 349.266 344.056 349.266C344.591 349.266 345.056 349.365 345.452 349.563C345.848 349.761 346.154 350.036 346.372 350.388C346.594 350.741 346.705 351.15 346.705 351.617C346.705 352.104 346.594 352.518 346.372 352.858C346.15 353.195 345.848 353.482 345.464 353.719C345.218 353.866 345.018 354.01 344.864 354.153C344.71 354.295 344.597 354.468 344.526 354.669C344.458 354.867 344.425 355.133 344.425 355.465V355.548H343.196ZM343.819 358.315C343.57 358.315 343.36 358.234 343.19 358.072C343.023 357.905 342.94 357.702 342.94 357.46C342.94 357.215 343.023 357.011 343.19 356.848C343.36 356.682 343.57 356.599 343.819 356.599C344.068 356.599 344.276 356.682 344.442 356.848C344.613 357.011 344.698 357.215 344.698 357.46C344.698 357.702 344.613 357.905 344.442 358.072C344.276 358.234 344.068 358.315 343.819 358.315Z" fill="white" fill-opacity="0.5"/>
<path d="M353.598 358.357C352.886 358.357 352.264 358.248 351.734 358.03C351.207 357.812 350.796 357.488 350.499 357.056C350.206 356.625 350.051 356.09 350.036 355.453H351.841C351.864 355.746 351.951 355.993 352.102 356.195C352.252 356.393 352.454 356.542 352.708 356.641C352.961 356.74 353.252 356.789 353.58 356.789C353.897 356.789 354.172 356.744 354.406 356.653C354.643 356.561 354.825 356.435 354.952 356.273C355.083 356.106 355.148 355.914 355.148 355.697C355.148 355.499 355.088 355.332 354.97 355.198C354.855 355.063 354.685 354.948 354.459 354.853C354.237 354.758 353.966 354.673 353.646 354.598L352.678 354.361C351.934 354.183 351.346 353.899 350.914 353.512C350.483 353.12 350.267 352.597 350.267 351.944C350.267 351.41 350.412 350.943 350.701 350.543C350.994 350.139 351.391 349.826 351.894 349.605C352.401 349.379 352.977 349.266 353.622 349.266C354.279 349.266 354.851 349.379 355.338 349.605C355.829 349.83 356.211 350.143 356.484 350.543C356.761 350.943 356.903 351.404 356.911 351.926H355.112C355.081 351.582 354.932 351.313 354.667 351.119C354.406 350.925 354.051 350.828 353.604 350.828C353.303 350.828 353.046 350.871 352.832 350.958C352.622 351.042 352.462 351.158 352.351 351.309C352.24 351.459 352.185 351.631 352.185 351.825C352.185 352.031 352.248 352.205 352.375 352.348C352.502 352.486 352.67 352.601 352.88 352.692C353.093 352.779 353.327 352.852 353.58 352.912L354.37 353.108C354.754 353.195 355.108 353.312 355.433 353.458C355.757 353.601 356.039 353.777 356.276 353.987C356.517 354.196 356.704 354.444 356.834 354.729C356.965 355.01 357.03 355.334 357.03 355.703C357.03 356.245 356.894 356.716 356.62 357.116C356.351 357.512 355.961 357.818 355.451 358.036C354.94 358.25 354.323 358.357 353.598 358.357ZM357.855 358.232V351.594H359.69V358.232H357.855ZM358.77 350.745C358.497 350.745 358.263 350.654 358.069 350.472C357.875 350.289 357.778 350.07 357.778 349.812C357.778 349.555 357.875 349.337 358.069 349.159C358.263 348.977 358.497 348.886 358.77 348.886C359.047 348.886 359.282 348.977 359.476 349.159C359.67 349.337 359.767 349.555 359.767 349.812C359.767 350.07 359.67 350.289 359.476 350.472C359.282 350.654 359.047 350.745 358.77 350.745ZM363.745 360.856C362.851 360.856 362.15 360.678 361.644 360.322C361.137 359.97 360.828 359.53 360.717 359.004L362.415 358.778C362.467 358.913 362.548 359.037 362.659 359.152C362.77 359.267 362.918 359.358 363.104 359.425C363.29 359.497 363.518 359.532 363.787 359.532C364.187 359.532 364.517 359.435 364.779 359.241C365.04 359.051 365.171 358.729 365.171 358.273V357.056H365.093C365.014 357.238 364.893 357.413 364.731 357.579C364.569 357.745 364.361 357.88 364.108 357.983C363.854 358.085 363.552 358.137 363.199 358.137C362.7 358.137 362.247 358.022 361.84 357.793C361.436 357.559 361.111 357.203 360.866 356.724C360.624 356.245 360.504 355.639 360.504 354.907C360.504 354.151 360.626 353.521 360.872 353.019C361.121 352.516 361.45 352.14 361.857 351.891C362.265 351.637 362.712 351.511 363.199 351.511C363.571 351.511 363.882 351.574 364.131 351.701C364.385 351.823 364.591 351.978 364.749 352.164C364.907 352.35 365.026 352.534 365.105 352.716H365.176V351.594H366.987V358.303C366.987 358.865 366.849 359.336 366.572 359.716C366.295 360.096 365.913 360.381 365.426 360.571C364.939 360.761 364.379 360.856 363.745 360.856ZM363.781 356.753C364.224 356.753 364.567 356.589 364.808 356.261C365.054 355.932 365.176 355.477 365.176 354.895C365.176 354.507 365.121 354.171 365.01 353.886C364.903 353.597 364.747 353.373 364.541 353.215C364.335 353.052 364.082 352.971 363.781 352.971C363.48 352.971 363.225 353.054 363.015 353.221C362.809 353.383 362.653 353.609 362.546 353.897C362.439 354.186 362.386 354.519 362.386 354.895C362.386 355.275 362.439 355.606 362.546 355.887C362.653 356.164 362.809 356.377 363.015 356.528C363.225 356.678 363.48 356.753 363.781 356.753ZM369.903 354.396V358.232H368.068V351.594H369.873V352.775H369.938C370.089 352.383 370.328 352.075 370.657 351.849C370.985 351.623 371.397 351.511 371.892 351.511C372.351 351.511 372.751 351.612 373.091 351.813C373.436 352.015 373.703 352.302 373.893 352.674C374.083 353.046 374.178 353.492 374.178 354.01V358.232H372.343V354.337C372.343 353.933 372.238 353.616 372.028 353.387C371.819 353.153 371.53 353.037 371.162 353.037C370.916 353.037 370.698 353.092 370.508 353.203C370.318 353.31 370.17 353.464 370.063 353.666C369.956 353.868 369.903 354.111 369.903 354.396ZM379.581 349.385V358.232H377.717V349.385H379.581ZM382.526 354.396V358.232H380.691V351.594H382.496V352.775H382.562C382.712 352.383 382.952 352.075 383.28 351.849C383.609 351.623 384.02 351.511 384.515 351.511C384.974 351.511 385.374 351.612 385.715 351.813C386.059 352.015 386.326 352.302 386.516 352.674C386.706 353.046 386.801 353.492 386.801 354.01V358.232H384.966V354.337C384.966 353.933 384.861 353.616 384.652 353.387C384.442 353.153 384.153 353.037 383.785 353.037C383.539 353.037 383.322 353.092 383.132 353.203C382.942 353.31 382.793 353.464 382.686 353.666C382.579 353.868 382.526 354.111 382.526 354.396Z" fill="white"/>
<path d="M349.751 360.649H387.341V361.48H349.751V360.649Z" fill="white"/>
<rect x="206.904" y="403.959" width="329.193" height="43.4292" rx="8" fill="url(#paint7_linear_1_143)"/>
<path d="M333.765 430.31C333.076 430.31 332.479 430.203 331.972 429.99C331.465 429.776 331.07 429.465 330.785 429.057C330.5 428.646 330.345 428.147 330.321 427.561H331.901C331.925 427.87 332.02 428.127 332.186 428.333C332.352 428.535 332.57 428.687 332.839 428.79C333.112 428.893 333.415 428.945 333.747 428.945C334.096 428.945 334.403 428.891 334.668 428.784C334.933 428.677 335.141 428.529 335.291 428.339C335.442 428.149 335.517 427.927 335.517 427.674C335.517 427.444 335.45 427.256 335.315 427.11C335.18 426.959 334.994 426.833 334.757 426.73C334.519 426.627 334.24 426.536 333.92 426.457L332.916 426.195C332.188 426.009 331.614 425.726 331.194 425.346C330.775 424.962 330.565 424.452 330.565 423.814C330.565 423.292 330.705 422.837 330.986 422.449C331.267 422.057 331.651 421.752 332.138 421.534C332.629 421.317 333.183 421.208 333.801 421.208C334.43 421.208 334.982 421.317 335.457 421.534C335.932 421.752 336.305 422.053 336.574 422.437C336.843 422.821 336.983 423.262 336.995 423.761H335.446C335.406 423.381 335.238 423.088 334.941 422.882C334.648 422.672 334.262 422.568 333.783 422.568C333.451 422.568 333.164 422.617 332.922 422.716C332.685 422.815 332.503 422.952 332.376 423.126C332.249 423.3 332.186 423.498 332.186 423.719C332.186 423.965 332.259 424.167 332.406 424.325C332.556 424.479 332.746 424.604 332.976 424.699C333.209 424.794 333.447 424.873 333.688 424.937L334.513 425.144C334.846 425.224 335.167 425.33 335.475 425.465C335.784 425.596 336.061 425.762 336.307 425.964C336.556 426.162 336.752 426.403 336.894 426.688C337.041 426.973 337.114 427.308 337.114 427.692C337.114 428.206 336.981 428.661 336.716 429.057C336.451 429.449 336.069 429.756 335.57 429.978C335.072 430.199 334.47 430.31 333.765 430.31ZM338.011 430.174V423.535H339.572V430.174H338.011ZM338.794 422.603C338.545 422.603 338.331 422.52 338.153 422.354C337.975 422.188 337.886 421.988 337.886 421.754C337.886 421.517 337.975 421.315 338.153 421.148C338.331 420.982 338.545 420.899 338.794 420.899C339.04 420.899 339.252 420.982 339.43 421.148C339.608 421.315 339.697 421.515 339.697 421.748C339.697 421.986 339.608 422.188 339.43 422.354C339.252 422.52 339.04 422.603 338.794 422.603ZM343.604 432.798C342.761 432.798 342.098 432.634 341.615 432.305C341.132 431.981 340.821 431.587 340.683 431.124L342.084 430.779C342.147 430.91 342.24 431.038 342.363 431.165C342.486 431.296 342.65 431.403 342.856 431.486C343.062 431.573 343.321 431.616 343.633 431.616C344.077 431.616 344.443 431.508 344.732 431.29C345.025 431.076 345.171 430.726 345.171 430.239V428.986H345.082C345.007 429.144 344.892 429.309 344.738 429.479C344.584 429.645 344.38 429.788 344.126 429.906C343.877 430.021 343.56 430.079 343.176 430.079C342.67 430.079 342.208 429.958 341.793 429.716C341.381 429.475 341.053 429.115 340.807 428.636C340.566 428.157 340.445 427.557 340.445 426.837C340.445 426.108 340.566 425.493 340.807 424.99C341.053 424.487 341.383 424.105 341.799 423.844C342.214 423.583 342.678 423.452 343.188 423.452C343.576 423.452 343.897 423.518 344.15 423.648C344.403 423.779 344.605 423.937 344.756 424.123C344.906 424.305 345.023 424.475 345.106 424.634H345.189V423.535H346.715V430.28C346.715 430.847 346.581 431.316 346.311 431.688C346.042 432.06 345.672 432.337 345.201 432.519C344.734 432.705 344.202 432.798 343.604 432.798ZM343.616 428.85C344.114 428.85 344.498 428.671 344.768 428.315C345.041 427.955 345.177 427.458 345.177 426.825C345.177 426.405 345.118 426.039 344.999 425.726C344.88 425.414 344.704 425.17 344.471 424.996C344.237 424.822 343.952 424.735 343.616 424.735C343.267 424.735 342.976 424.826 342.743 425.008C342.509 425.19 342.333 425.439 342.214 425.756C342.1 426.069 342.042 426.425 342.042 426.825C342.042 427.229 342.102 427.583 342.22 427.888C342.339 428.192 342.515 428.43 342.749 428.6C342.986 428.766 343.275 428.85 343.616 428.85ZM349.429 426.29V430.174H347.867V423.535H349.399V424.669H349.476C349.626 424.297 349.862 424.002 350.183 423.785C350.507 423.563 350.919 423.452 351.418 423.452C351.877 423.452 352.277 423.549 352.617 423.743C352.957 423.937 353.221 424.222 353.407 424.598C353.597 424.97 353.692 425.422 353.692 425.952V430.174H352.13V426.195C352.13 425.752 352.015 425.406 351.786 425.156C351.556 424.903 351.24 424.776 350.836 424.776C350.563 424.776 350.319 424.836 350.105 424.954C349.896 425.073 349.729 425.245 349.607 425.471C349.488 425.693 349.429 425.966 349.429 426.29ZM361.642 427.389V423.535H363.204V430.174H361.69V428.992H361.618C361.468 429.364 361.223 429.669 360.882 429.906C360.542 430.144 360.122 430.261 359.623 430.257C359.188 430.257 358.804 430.162 358.472 429.972C358.143 429.778 357.884 429.495 357.694 429.123C357.508 428.747 357.415 428.293 357.415 427.763V423.535H358.976V427.525C358.976 427.941 359.091 428.274 359.321 428.523C359.554 428.772 359.859 428.895 360.235 428.891C360.465 428.891 360.686 428.836 360.9 428.725C361.118 428.614 361.296 428.448 361.434 428.226C361.573 428.004 361.642 427.725 361.642 427.389ZM364.362 432.655V423.535H365.893V424.634H365.988C366.068 424.475 366.18 424.305 366.327 424.123C366.473 423.937 366.671 423.779 366.921 423.648C367.174 423.518 367.497 423.452 367.889 423.452C368.399 423.452 368.86 423.583 369.272 423.844C369.684 424.105 370.01 424.489 370.252 424.996C370.497 425.503 370.62 426.126 370.62 426.866C370.62 427.595 370.501 428.214 370.264 428.725C370.026 429.235 369.699 429.625 369.284 429.895C368.872 430.16 368.405 430.292 367.883 430.292C367.507 430.292 367.192 430.229 366.938 430.102C366.689 429.972 366.487 429.817 366.333 429.639C366.182 429.457 366.068 429.285 365.988 429.123H365.923V432.655H364.362ZM367.455 429.01C367.799 429.01 368.086 428.917 368.316 428.731C368.55 428.545 368.726 428.289 368.844 427.965C368.963 427.64 369.023 427.272 369.023 426.86C369.023 426.449 368.963 426.083 368.844 425.762C368.726 425.441 368.552 425.19 368.322 425.008C368.092 424.826 367.803 424.735 367.455 424.735C367.119 424.735 366.834 424.822 366.6 424.996C366.37 425.17 366.194 425.418 366.072 425.738C365.953 426.055 365.893 426.429 365.893 426.86C365.893 427.288 365.953 427.664 366.072 427.989C366.194 428.309 366.372 428.561 366.606 428.743C366.84 428.921 367.123 429.01 367.455 429.01ZM377.424 423.535V424.747H373.511V423.535H377.424ZM374.485 430.174V422.912C374.485 422.465 374.578 422.093 374.764 421.796C374.95 421.499 375.2 421.277 375.512 421.131C375.829 420.984 376.177 420.911 376.557 420.911C376.831 420.911 377.072 420.933 377.282 420.976C377.496 421.02 377.652 421.059 377.751 421.095L377.43 422.306C377.367 422.283 377.286 422.261 377.187 422.241C377.088 422.217 376.975 422.205 376.848 422.205C376.559 422.205 376.352 422.277 376.225 422.419C376.102 422.562 376.041 422.763 376.041 423.025V430.174H374.485ZM380.85 430.304C380.201 430.304 379.639 430.162 379.164 429.877C378.689 429.592 378.321 429.192 378.06 428.677C377.802 428.163 377.674 427.565 377.674 426.884C377.674 426.199 377.802 425.6 378.06 425.085C378.321 424.567 378.689 424.165 379.164 423.88C379.639 423.595 380.201 423.452 380.85 423.452C381.499 423.452 382.062 423.595 382.537 423.88C383.012 424.165 383.38 424.567 383.641 425.085C383.902 425.6 384.033 426.199 384.033 426.884C384.033 427.565 383.902 428.163 383.641 428.677C383.38 429.192 383.012 429.592 382.537 429.877C382.062 430.162 381.499 430.304 380.85 430.304ZM380.85 429.045C381.21 429.045 381.507 428.95 381.741 428.76C381.974 428.566 382.149 428.305 382.263 427.977C382.382 427.648 382.442 427.284 382.442 426.884C382.442 426.476 382.382 426.108 382.263 425.78C382.149 425.451 381.974 425.192 381.741 425.002C381.507 424.808 381.21 424.711 380.85 424.711C380.498 424.711 380.203 424.808 379.966 425.002C379.728 425.192 379.55 425.451 379.431 425.78C379.316 426.108 379.259 426.476 379.259 426.884C379.259 427.284 379.316 427.648 379.431 427.977C379.55 428.305 379.728 428.566 379.966 428.76C380.203 428.95 380.498 429.045 380.85 429.045ZM384.894 430.174V423.535H386.408V424.652H386.479C386.598 424.264 386.806 423.967 387.103 423.761C387.399 423.551 387.738 423.446 388.118 423.446C388.201 423.446 388.296 423.45 388.403 423.458C388.514 423.466 388.605 423.476 388.676 423.488V424.925C388.609 424.901 388.504 424.881 388.361 424.865C388.219 424.85 388.082 424.842 387.952 424.842C387.663 424.842 387.405 424.903 387.18 425.026C386.954 425.148 386.776 425.317 386.645 425.53C386.519 425.744 386.455 425.994 386.455 426.279V430.174H384.894ZM395.201 423.535V424.747H391.289V423.535H395.201ZM392.262 430.174V422.912C392.262 422.465 392.355 422.093 392.541 421.796C392.727 421.499 392.977 421.277 393.289 421.131C393.606 420.984 393.954 420.911 394.334 420.911C394.608 420.911 394.849 420.933 395.059 420.976C395.273 421.02 395.429 421.059 395.528 421.095L395.207 422.306C395.144 422.283 395.063 422.261 394.964 422.241C394.865 422.217 394.752 422.205 394.625 422.205C394.336 422.205 394.129 422.277 394.002 422.419C393.879 422.562 393.818 422.763 393.818 423.025V430.174H392.262ZM395.985 430.174V423.535H397.499V424.652H397.57C397.689 424.264 397.897 423.967 398.194 423.761C398.491 423.551 398.829 423.446 399.209 423.446C399.292 423.446 399.387 423.45 399.494 423.458C399.605 423.466 399.696 423.476 399.767 423.488V424.925C399.7 424.901 399.595 424.881 399.453 424.865C399.31 424.85 399.174 424.842 399.043 424.842C398.754 424.842 398.497 424.903 398.271 425.026C398.045 425.148 397.867 425.317 397.737 425.53C397.61 425.744 397.547 425.994 397.547 426.279V430.174H395.985ZM403.021 430.304C402.356 430.304 401.782 430.166 401.299 429.889C400.816 429.608 400.444 429.212 400.183 428.701C399.926 428.19 399.797 427.589 399.797 426.896C399.797 426.211 399.926 425.612 400.183 425.097C400.44 424.578 400.802 424.175 401.27 423.886C401.737 423.597 402.287 423.452 402.92 423.452C403.328 423.452 403.714 423.518 404.078 423.648C404.446 423.779 404.771 423.981 405.052 424.254C405.337 424.527 405.56 424.875 405.723 425.299C405.885 425.718 405.966 426.219 405.966 426.801V427.288H400.527V426.237H405.188L404.458 426.546C404.458 426.17 404.401 425.843 404.286 425.566C404.171 425.285 404.001 425.065 403.775 424.907C403.55 424.749 403.269 424.669 402.932 424.669C402.596 424.669 402.309 424.749 402.071 424.907C401.834 425.065 401.654 425.279 401.531 425.548C401.408 425.813 401.347 426.11 401.347 426.439V427.169C401.347 427.573 401.416 427.919 401.555 428.208C401.697 428.493 401.895 428.711 402.148 428.861C402.406 429.012 402.705 429.087 403.045 429.087C403.267 429.087 403.468 429.055 403.651 428.992C403.837 428.929 403.995 428.834 404.126 428.707C404.26 428.576 404.363 428.416 404.434 428.226L405.895 428.398C405.8 428.782 405.624 429.119 405.367 429.408C405.113 429.693 404.787 429.914 404.387 430.073C403.991 430.227 403.536 430.304 403.021 430.304ZM409.754 430.304C409.089 430.304 408.515 430.166 408.032 429.889C407.55 429.608 407.177 429.212 406.916 428.701C406.659 428.19 406.53 427.589 406.53 426.896C406.53 426.211 406.659 425.612 406.916 425.097C407.174 424.578 407.536 424.175 408.003 423.886C408.47 423.597 409.02 423.452 409.653 423.452C410.061 423.452 410.447 423.518 410.811 423.648C411.179 423.779 411.504 423.981 411.785 424.254C412.07 424.527 412.294 424.875 412.456 425.299C412.618 425.718 412.699 426.219 412.699 426.801V427.288H407.261V426.237H411.922L411.191 426.546C411.191 426.17 411.134 425.843 411.019 425.566C410.904 425.285 410.734 425.065 410.508 424.907C410.283 424.749 410.002 424.669 409.665 424.669C409.329 424.669 409.042 424.749 408.804 424.907C408.567 425.065 408.387 425.279 408.264 425.548C408.141 425.813 408.08 426.11 408.08 426.439V427.169C408.08 427.573 408.149 427.919 408.288 428.208C408.43 428.493 408.628 428.711 408.882 428.861C409.139 429.012 409.438 429.087 409.778 429.087C410 429.087 410.202 429.055 410.384 428.992C410.57 428.929 410.728 428.834 410.859 428.707C410.993 428.576 411.096 428.416 411.168 428.226L412.628 428.398C412.533 428.782 412.357 429.119 412.1 429.408C411.846 429.693 411.52 429.914 411.12 430.073C410.724 430.227 410.269 430.304 409.754 430.304Z" fill="white"/>
</g>
</g>
<defs>
<filter id="filter0_d_1_143" x="0" y="0" width="743" height="743" filterUnits="userSpaceOnUse" color-interpolation-filters="sRGB">
<feFlood flood-opacity="0" result="BackgroundImageFix"/>
<feColorMatrix in="SourceAlpha" type="matrix" values="0 0 0 0 0 0 0 0 0 0 0 0 0 0 0 0 0 0 127 0" result="hardAlpha"/>
<feMorphology radius="80" operator="erode" in="SourceAlpha" result="effect1_dropShadow_1_143"/>
<feOffset dy="100"/>
<feGaussianBlur stdDeviation="120"/>
<feComposite in2="hardAlpha" operator="out"/>
<feColorMatrix type="matrix" values="0 0 0 0 0.682353 0 0 0 0 0.376471 0 0 0 0 1 0 0 0 0.34 0"/>
<feBlend mode="normal" in2="BackgroundImageFix" result="effect1_dropShadow_1_143"/>
<feBlend mode="normal" in="SourceGraphic" in2="effect1_dropShadow_1_143" result="shape"/>
</filter>
<linearGradient id="paint0_linear_1_143" x1="372.956" y1="106.801" x2="365.685" y2="105.273" gradientUnits="userSpaceOnUse">
<stop stop-color="#6000FF"/>
<stop offset="0.651" stop-color="#4900C3"/>
<stop offset="1" stop-color="#320086"/>
</linearGradient>
<linearGradient id="paint1_linear_1_143" x1="374.129" y1="88.7172" x2="379.802" y2="92.9769" gradientUnits="userSpaceOnUse">
<stop stop-color="#6A0AFF"/>
<stop offset="0.047" stop-color="#8C2DFF"/>
<stop offset="0.102" stop-color="#6A0AFF"/>
<stop offset="0.902" stop-color="#AF50FF"/>
<stop offset="1" stop-color="#AF50FF"/>
</linearGradient>
<linearGradient id="paint2_linear_1_143" x1="362.6" y1="80.6155" x2="351.936" y2="87.0973" gradientUnits="userSpaceOnUse">
<stop stop-color="#6A0AFF"/>
<stop offset="0.51" stop-color="#8C2DFF"/>
<stop offset="0.969" stop-color="#AF50FF"/>
<stop offset="1" stop-color="#AF50FF"/>
</linearGradient>
<linearGradient id="paint3_linear_1_143" x1="357.72" y1="89.9023" x2="358.631" y2="94.2956" gradientUnits="userSpaceOnUse">
<stop stop-color="#6000FF"/>
<stop offset="1" stop-color="#3E00A5"/>
</linearGradient>
<linearGradient id="paint4_linear_1_143" x1="344.183" y1="115.176" x2="373.156" y2="113.469" gradientUnits="userSpaceOnUse">
<stop stop-color="#AE60FF"/>
<stop offset="0.322" stop-color="#AF50FF"/>
<stop offset="1" stop-color="#6000FF"/>
</linearGradient>
<linearGradient id="paint5_linear_1_143" x1="364.806" y1="77.9752" x2="374.252" y2="81.4304" gradientUnits="userSpaceOnUse">
<stop stop-color="#6F0FFF"/>
<stop offset="0.702" stop-color="#AF50FF"/>
<stop offset="1" stop-color="#AF50FF"/>
</linearGradient>
<linearGradient id="paint6_linear_1_143" x1="365.521" y1="85.5426" x2="368.685" y2="90.4593" gradientUnits="userSpaceOnUse">
<stop stop-color="#AE60FF"/>
<stop offset="0.031" stop-color="#B670FA"/>
<stop offset="1" stop-color="#BE80F5"/>
</linearGradient>
<linearGradient id="paint7_linear_1_143" x1="206.904" y1="425.674" x2="536.097" y2="425.674" gradientUnits="userSpaceOnUse">
<stop stop-color="#FFBE69"/>
<stop offset="0.58" stop-color="#D07494"/>
<stop offset="1" stop-color="#AE60FF"/>
</linearGradient>
<clipPath id="clip0_1_143">
<rect x="160" y="60" width="423" height="423" rx="13.8973" fill="white"/>
</clipPath>
</defs>
</svg>
