<svg width="122" height="57" viewBox="0 0 122 57" fill="none" xmlns="http://www.w3.org/2000/svg">
<g clip-path="url(#clip0_1_34)">
<path fill-rule="evenodd" clip-rule="evenodd" d="M58.4631 37.4565H56.1043L54.8304 35.0387H49.0669L47.7941 37.4565H44.9453L50.7648 26.6514H53.1906C55.1364 30.2511 57.0812 33.8528 59.025 37.4565H58.4631ZM51.9477 29.5862L50.2188 32.8469H53.6665L51.9477 29.5862ZM62.6657 37.4565H60.4769V26.6514H63.0977L67.7173 33.1129L72.2958 26.6514H74.9006V37.4565H72.3768V30.5131L68.7322 35.7346H66.6633L63.0017 30.5731V37.4565H62.6657ZM85.8036 37.4565H78.1043V26.6514H85.5906C86.5366 26.6047 87.4717 26.8707 88.2514 27.4084C88.5805 27.6608 88.8446 27.988 89.0218 28.363C89.199 28.7379 89.2842 29.1497 89.2703 29.5642C89.2803 30.013 89.1753 30.4569 88.9653 30.8537C88.7553 31.2505 88.4472 31.5869 88.0704 31.831C88.4509 32.0048 88.7913 32.2553 89.0703 32.5669C89.5028 33.0656 89.7351 33.7068 89.7223 34.3668C89.741 34.8075 89.6538 35.2464 89.468 35.6465C89.2822 36.0466 89.0032 36.3964 88.6544 36.6665C87.8168 37.2361 86.8149 37.5137 85.8036 37.4565ZM86.3196 29.0662C85.9952 28.8553 85.6106 28.7566 85.2247 28.7853H80.7111V30.9231H85.2387C85.6173 30.9448 85.9918 30.8357 86.2996 30.6141C86.4129 30.5171 86.5025 30.3956 86.5616 30.2586C86.6207 30.1217 86.6477 29.9731 86.6406 29.8242C86.6505 29.6815 86.6267 29.5384 86.5709 29.4067C86.5151 29.275 86.429 29.1584 86.3196 29.0662ZM86.6355 33.3868C86.2729 33.1518 85.8438 33.0406 85.4127 33.0699H80.7131V35.3227H85.4597C85.8807 35.3551 86.3011 35.2521 86.6595 35.0287C86.7767 34.9326 86.8691 34.8098 86.9289 34.6706C86.9888 34.5314 87.0144 34.3799 87.0035 34.2288C87.0135 34.0689 86.9849 33.909 86.9202 33.7625C86.8554 33.6159 86.7565 33.4871 86.6315 33.3868H86.6355ZM94.4798 37.4565H92.161V26.6514H94.8168V37.4565H94.4798ZM100.333 37.4565H98.0155V26.6514H105.025C106.084 26.592 107.128 26.9173 107.966 27.5674C108.328 27.8939 108.614 28.297 108.802 28.7475C108.99 29.198 109.075 29.6846 109.052 30.1721C109.069 30.6201 108.992 31.0666 108.826 31.4831C108.66 31.8997 108.41 32.277 108.09 32.5909C107.547 33.0829 106.872 33.4057 106.148 33.5198L109.803 37.4565H106.412L102.981 33.7358H100.669V37.4565H100.333ZM106.003 29.2062C105.618 28.9448 105.155 28.8221 104.691 28.8583H100.67V31.531H104.691C105.154 31.5651 105.615 31.4406 105.998 31.178C106.135 31.0568 106.243 30.9054 106.312 30.7358C106.381 30.5662 106.411 30.3829 106.398 30.2001C106.412 30.0153 106.384 29.8297 106.315 29.6574C106.247 29.4852 106.14 29.3308 106.003 29.2062ZM121.633 37.4565H111.629V26.6514H121.868V28.8583H114.24V30.8501H121.057V33.0409H114.24V35.2507H121.969V37.4565H121.633Z" fill="white"/>
<path d="M30.2256 21.372L37.6559 37.189C37.6915 37.2709 37.7019 37.3615 37.6857 37.4493C37.6695 37.5372 37.6274 37.6181 37.565 37.682L18.0186 56.5699C17.9873 56.5995 17.948 56.6191 17.9055 56.6263C17.8631 56.6334 17.8195 56.6278 17.7803 56.6101C17.741 56.5924 17.708 56.5635 17.6852 56.5269C17.6625 56.4904 17.6511 56.4479 17.6526 56.4049V39.053L29.9696 27.162C30.0122 27.1225 30.0457 27.0743 30.0678 27.0206C30.0899 26.9669 30.1001 26.909 30.0976 26.851L30.1336 21.372C30.1336 21.335 30.2116 21.335 30.2256 21.372Z" fill="#6000FF"/>
<path fill-rule="evenodd" clip-rule="evenodd" d="M17.6485 39.0512V56.4042C17.6473 56.4472 17.6587 56.4894 17.6815 56.5258C17.7043 56.5622 17.7375 56.5913 17.7767 56.6088C17.8159 56.6264 17.8594 56.6316 17.9017 56.6245C17.944 56.6173 17.9833 56.5978 18.0145 56.5683L37.56 37.6816C37.6228 37.6182 37.6652 37.5374 37.6816 37.4497C37.698 37.362 37.6874 37.2712 37.6518 37.1894L30.0203 27.1016L17.6485 39.0512Z" fill="url(#paint0_linear_1_34)"/>
<path fill-rule="evenodd" clip-rule="evenodd" d="M30.1774 21.3208C30.1717 21.3206 30.1662 21.3217 30.1608 21.3238C30.1554 21.3258 30.1503 21.329 30.1462 21.333C30.142 21.3371 30.1391 21.3419 30.1369 21.3472C30.1347 21.3526 30.1333 21.358 30.1335 21.3638L30.1027 26.8428C30.1046 26.9329 30.0796 27.022 30.0314 27.0982L37.6929 37.439C37.708 37.3457 37.695 37.2501 37.6558 37.1641L30.2258 21.3472C30.2212 21.3396 30.2144 21.333 30.2067 21.3287C30.199 21.3243 30.1907 21.3219 30.1818 21.3218L30.1774 21.3208Z" fill="url(#paint1_linear_1_34)"/>
<path fill-rule="evenodd" clip-rule="evenodd" d="M37.6844 37.4316C37.6996 37.3387 37.6871 37.2433 37.6478 37.1577L37.2635 36.3354L30.3455 27.5283L37.6844 37.4316Z" fill="url(#paint2_linear_1_34)"/>
<path d="M12.6552 8.09168L9.15547 17.9917C9.11598 18.1053 9.12244 18.2298 9.17346 18.3387L12.4322 24.7497L3.46393 29.8276C3.41037 29.8555 3.3481 29.8616 3.29015 29.8447C3.23219 29.8277 3.18303 29.789 3.15296 29.7366L1.21312 25.6996C1.17806 25.6334 1.1629 25.5584 1.16946 25.4837C1.17603 25.409 1.20403 25.3378 1.25011 25.2787L12.5602 8.03568C12.5687 8.02569 12.5805 8.01903 12.5935 8.01687C12.6065 8.01471 12.6198 8.01719 12.6311 8.02387C12.6425 8.03055 12.6511 8.04101 12.6555 8.05341C12.6599 8.06581 12.6598 8.07936 12.6552 8.09168Z" fill="#6000FF"/>
<path fill-rule="evenodd" clip-rule="evenodd" d="M12.6065 8.02258C12.6 8.02237 12.5935 8.02359 12.5875 8.026C12.5815 8.02841 12.5762 8.03212 12.5716 8.03674L1.74438 24.5426L1.73242 24.5645L9.16785 17.9918L9.19079 17.9254V17.9195L12.6615 8.09241C12.6641 8.08404 12.6647 8.07515 12.6632 8.06653C12.6616 8.05791 12.6578 8.04998 12.6524 8.04309C12.647 8.0362 12.6402 8.03055 12.6322 8.02698C12.6242 8.0234 12.6153 8.02202 12.6065 8.02258Z" fill="url(#paint3_linear_1_34)"/>
<path fill-rule="evenodd" clip-rule="evenodd" d="M1.25312 25.2822C1.20737 25.3412 1.17968 25.412 1.17329 25.4863C1.16691 25.5607 1.18221 25.6353 1.21723 25.7012L3.15604 29.7392C3.18647 29.7915 3.23586 29.8299 3.29397 29.8467C3.35208 29.8634 3.41444 29.8571 3.46803 29.8291L12.4353 24.7519L9.17752 18.3408C9.1518 18.2868 9.13691 18.2287 9.13382 18.1689C9.13073 18.1092 9.13944 18.0495 9.15945 17.9932L1.25312 25.2822Z" fill="url(#paint4_linear_1_34)"/>
<path fill-rule="evenodd" clip-rule="evenodd" d="M17.6526 0.0927794V15.4927C17.6503 15.5855 17.6184 15.6755 17.5616 15.749L0.0840068 39.4399C0.0210507 39.5239 -0.00819282 39.6283 0.00198233 39.7328C0.0121575 39.8374 0.0611921 39.9345 0.139178 40.0048L12.4001 51.8417C12.4248 51.8673 12.4555 51.886 12.4895 51.8964C12.5234 51.9068 12.5594 51.9086 12.5942 51.9013C12.629 51.894 12.6613 51.8781 12.6882 51.8549C12.7151 51.8317 12.7357 51.8018 12.748 51.7685L26.0709 20.5888C26.108 20.4823 26.108 20.3663 26.0709 20.2597L17.8177 0.0595764C17.8126 0.0439209 17.8026 0.0307011 17.7893 0.0210022C17.7761 0.0113033 17.7601 0.00591109 17.7437 0.00586553C17.7202 0.00559103 17.6975 0.0145057 17.6805 0.0307678C17.6635 0.0470299 17.6534 0.0692598 17.6526 0.0927794Z" fill="url(#paint5_linear_1_34)"/>
<path fill-rule="evenodd" clip-rule="evenodd" d="M17.7358 0.00195313C17.7119 0.00195168 17.6889 0.0114702 17.6719 0.0283203C17.6548 0.0451704 17.6453 0.0678358 17.645 0.0917967L17.6509 15.4917C17.6496 15.5349 17.6419 15.5777 17.6279 15.6186L25.9603 20.0068L17.8098 0.0576171C17.8048 0.0417485 17.7952 0.0281031 17.782 0.0180664C17.7687 0.00802965 17.7525 0.00243666 17.7358 0.00195313Z" fill="url(#paint6_linear_1_34)"/>
<path fill-rule="evenodd" clip-rule="evenodd" d="M26.0979 20.4238C26.098 20.3694 26.0893 20.3152 26.072 20.2637L25.9658 20.0039L17.627 15.6157L19.2268 16.5288L26.0979 20.4238Z" fill="url(#paint7_linear_1_34)"/>
<path d="M1.72172 24.5697L1.26172 25.2697L9.16172 17.9907L1.72172 24.5697Z" fill="#B46CF3"/>
</g>
<defs>
<linearGradient id="paint0_linear_1_34" x1="28.751" y1="44.2266" x2="18.0929" y2="41.7624" gradientUnits="userSpaceOnUse">
<stop stop-color="#6000FF"/>
<stop offset="0.651" stop-color="#4900C3"/>
<stop offset="1" stop-color="#320086"/>
</linearGradient>
<linearGradient id="paint1_linear_1_34" x1="30.4915" y1="19.9185" x2="38.2893" y2="26.3623" gradientUnits="userSpaceOnUse">
<stop stop-color="#6A0AFF"/>
<stop offset="0.047" stop-color="#892AFF"/>
<stop offset="0.102" stop-color="#6A0AFF"/>
<stop offset="0.902" stop-color="#A94AFF"/>
<stop offset="1" stop-color="#A94AFF"/>
</linearGradient>
<linearGradient id="paint2_linear_1_34" x1="30.6099" y1="27.558" x2="39.6652" y2="34.4085" gradientUnits="userSpaceOnUse">
<stop stop-color="#9335FE"/>
<stop offset="0.031" stop-color="#A954FE"/>
<stop offset="1" stop-color="#BF73FF"/>
</linearGradient>
<linearGradient id="paint3_linear_1_34" x1="13.4402" y1="9.04807" x2="-1.47778" y2="19.0175" gradientUnits="userSpaceOnUse">
<stop stop-color="#6A0AFF"/>
<stop offset="0.51" stop-color="#8C2DFF"/>
<stop offset="0.969" stop-color="#AF50FF"/>
<stop offset="1" stop-color="#AF50FF"/>
</linearGradient>
<linearGradient id="paint4_linear_1_34" x1="6.21789" y1="21.5164" x2="7.33854" y2="27.4632" gradientUnits="userSpaceOnUse">
<stop stop-color="#6000FF"/>
<stop offset="1" stop-color="#3E00A5"/>
</linearGradient>
<linearGradient id="paint5_linear_1_34" x1="-13.8062" y1="55.4868" x2="29.023" y2="52.7099" gradientUnits="userSpaceOnUse">
<stop stop-color="#9838FF"/>
<stop offset="0.322" stop-color="#AF50FF"/>
<stop offset="1" stop-color="#6000FF"/>
</linearGradient>
<linearGradient id="paint6_linear_1_34" x1="16.702" y1="5.48328" x2="30.335" y2="10.9717" gradientUnits="userSpaceOnUse">
<stop stop-color="#6F0FFF"/>
<stop offset="0.702" stop-color="#A94AFF"/>
<stop offset="1" stop-color="#A94AFF"/>
</linearGradient>
<linearGradient id="paint7_linear_1_34" x1="17.754" y1="15.6494" x2="21.8258" y2="22.6087" gradientUnits="userSpaceOnUse">
<stop stop-color="#AE60FF"/>
<stop offset="0.031" stop-color="#B669FF"/>
<stop offset="1" stop-color="#BF73FF"/>
</linearGradient>
<clipPath id="clip0_1_34">
<rect width="121.97" height="56.63" fill="white"/>
</clipPath>
</defs>
</svg>
