<svg width="216" height="64" viewBox="0 0 216 64" fill="none" xmlns="http://www.w3.org/2000/svg">
<g clip-path="url(#clip0_1_89)">
<path d="M19.6211 42.3046C19.6211 42.4443 19.4603 42.5554 19.2582 42.5554C19.0276 42.5766 18.8677 42.4636 18.8677 42.3046C18.8677 42.1649 19.0285 42.0537 19.2306 42.0537C19.4374 42.0326 19.6211 42.1438 19.6211 42.3046ZM17.4508 41.9903C17.4021 42.13 17.5427 42.2908 17.7513 42.3322C17.8275 42.3696 17.9152 42.3759 17.9959 42.3498C18.0767 42.3238 18.1441 42.2674 18.1841 42.1925C18.2263 42.0528 18.0922 41.892 17.8836 41.8296C17.804 41.8011 17.7169 41.8018 17.6377 41.8314C17.5585 41.861 17.4923 41.9167 17.4508 41.9903ZM20.54 41.8681C20.3378 41.9168 20.1982 42.0519 20.2193 42.21C20.2404 42.3496 20.4215 42.4406 20.6309 42.3937C20.8404 42.3469 20.9728 42.21 20.9516 42.073C20.9305 41.9361 20.7385 41.8516 20.54 41.8681ZM25.1342 15.1298C22.8819 15.0815 20.643 15.4884 18.5517 16.3262C16.4605 17.1641 14.5599 18.4155 12.964 20.0056C11.3681 21.5957 10.1097 23.4916 9.26423 25.5798C8.41875 27.668 8.00363 29.9053 8.04373 32.1578C8.01434 35.8297 9.14094 39.4178 11.264 42.4138C13.387 45.4099 16.3988 47.662 19.8729 48.8513C20.766 49.0121 21.0803 48.4608 21.0803 48.0069C21.0803 47.5742 21.0591 45.1879 21.0591 43.7224C21.0591 43.7224 16.1736 44.7689 15.1482 41.643C15.1482 41.643 14.3525 39.6124 13.2085 39.0886C13.2085 39.0886 11.6107 37.9934 13.3206 38.0136C13.8773 38.0885 14.4094 38.2898 14.8763 38.6019C15.3433 38.914 15.7326 39.3288 16.0147 39.8145C16.2477 40.2495 16.5656 40.6334 16.9496 40.9433C17.3336 41.2533 17.7759 41.4831 18.2503 41.619C18.7247 41.755 19.2215 41.7944 19.7114 41.7349C20.2013 41.6754 20.6743 41.5183 21.1023 41.2727C21.1923 40.3834 21.5866 39.5525 22.2187 38.9205C18.3164 38.4877 14.3837 37.9226 14.3837 31.2096C14.3448 30.4461 14.4718 29.6832 14.7561 28.9735C15.0403 28.2638 15.475 27.6242 16.0303 27.0987C15.5018 25.551 15.5673 23.8622 16.2141 22.3602C17.6723 21.9063 21.0297 24.2447 21.0297 24.2447C23.8981 23.4537 26.9271 23.4537 29.7955 24.2447C29.7955 24.2447 33.152 21.8999 34.6111 22.3602C35.2582 23.8622 35.3237 25.5511 34.7949 27.0987C35.3712 27.6156 35.8301 28.2499 36.1408 28.959C36.4514 29.6681 36.6066 30.4355 36.5958 31.2096C36.5958 37.9438 32.4849 38.4813 28.5844 38.9214C29.004 39.3437 29.3272 39.8517 29.5319 40.4106C29.7367 40.9695 29.8181 41.5661 29.7707 42.1594C29.7707 44.5117 29.7495 47.4216 29.7495 47.9941C29.7495 48.448 30.0702 48.9993 30.9569 48.8385C34.4186 47.6495 37.4151 45.3953 39.5171 42.3989C41.6191 39.4024 42.7187 35.8175 42.6584 32.1578C42.6584 22.4806 34.8069 15.1298 25.1278 15.1298H25.1342ZM14.8266 39.2035C14.7347 39.2733 14.7568 39.4341 14.8753 39.5664C14.9874 39.6785 15.151 39.7272 15.2383 39.6363C15.3301 39.5664 15.3081 39.4056 15.1896 39.2733C15.0784 39.1576 14.9176 39.1116 14.8266 39.2035ZM14.0732 38.6384C14.0245 38.7303 14.0943 38.8406 14.234 38.9141C14.2565 38.9316 14.2824 38.9443 14.3101 38.9514C14.3378 38.9585 14.3666 38.9598 14.3948 38.9552C14.423 38.9507 14.45 38.9403 14.474 38.9249C14.498 38.9094 14.5186 38.8891 14.5344 38.8654C14.5831 38.7735 14.5133 38.6632 14.3736 38.5897C14.234 38.5438 14.1219 38.5603 14.0732 38.6338V38.6384ZM16.3344 41.1193C16.2223 41.2112 16.2646 41.4197 16.4263 41.5521C16.5871 41.7129 16.7893 41.7358 16.8802 41.6219C16.9721 41.53 16.9289 41.3214 16.7884 41.1891C16.6349 41.0283 16.4254 41.0081 16.3344 41.1193ZM15.5387 40.0939C15.4266 40.1637 15.4266 40.3447 15.5387 40.5055C15.6508 40.6663 15.8392 40.7361 15.9292 40.6663C15.9839 40.6075 16.0142 40.5302 16.0142 40.4499C16.0142 40.3696 15.9839 40.2923 15.9292 40.2335C15.8318 40.0718 15.6508 40.002 15.5387 40.0929V40.0939Z" fill="white"/>
<path d="M58.0468 42.5546C56.5307 42.5546 55.1371 42.2024 53.866 41.4979C52.6103 40.7935 51.6072 39.8134 50.8568 38.5576C50.1217 37.2866 49.7542 35.8624 49.7542 34.285C49.7542 32.7077 50.1217 31.2911 50.8568 30.0354C51.6072 28.7796 52.6103 27.7995 53.866 27.0951C55.1371 26.3906 56.5307 26.0384 58.0468 26.0384C59.5628 26.0384 60.9488 26.3906 62.2045 27.0951C63.4756 27.7995 64.471 28.7796 65.1908 30.0354C65.9258 31.2911 66.2934 32.7077 66.2934 34.285C66.2934 35.8624 65.9258 37.2866 65.1908 38.5576C64.4557 39.8134 63.4603 40.7935 62.2045 41.4979C60.9488 42.2024 59.5628 42.5546 58.0468 42.5546ZM58.0468 38.9711C59.3331 38.9711 60.3592 38.5423 61.1249 37.6847C61.9059 36.8271 62.2964 35.6939 62.2964 34.285C62.2964 32.8608 61.9059 31.7276 61.1249 30.8853C60.3592 30.0277 59.3331 29.5989 58.0468 29.5989C56.7451 29.5989 55.7037 30.0201 54.9227 30.8623C54.157 31.7046 53.7741 32.8455 53.7741 34.285C53.7741 35.7092 54.157 36.8501 54.9227 37.7077C55.7037 38.55 56.7451 38.9711 58.0468 38.9711ZM72.4067 31.3907C72.7896 30.7934 73.3179 30.311 73.9917 29.9435C74.6655 29.5759 75.4542 29.3922 76.3577 29.3922C77.4144 29.3922 78.3715 29.6602 79.2291 30.1962C80.0867 30.7322 80.7605 31.4979 81.2506 32.4933C81.7559 33.4887 82.0086 34.6449 82.0086 35.9619C82.0086 37.2789 81.7559 38.4428 81.2506 39.4535C80.7605 40.4489 80.0867 41.2223 79.2291 41.7736C78.3715 42.3096 77.4144 42.5776 76.3577 42.5776C75.4695 42.5776 74.6809 42.3938 73.9917 42.0263C73.3179 41.6587 72.7896 41.184 72.4067 40.6021V48.5041H68.4787V29.5759H72.4067V31.3907ZM78.0117 35.9619C78.0117 34.9818 77.736 34.2161 77.1847 33.6648C76.6487 33.0982 75.9825 32.8149 75.1862 32.8149C74.4052 32.8149 73.739 33.0982 73.1877 33.6648C72.6517 34.2314 72.3837 35.0048 72.3837 35.9849C72.3837 36.965 72.6517 37.7383 73.1877 38.305C73.739 38.8716 74.4052 39.1549 75.1862 39.1549C75.9672 39.1549 76.6334 38.8716 77.1847 38.305C77.736 37.723 78.0117 36.942 78.0117 35.9619ZM96.1522 35.7781C96.1522 36.1457 96.1292 36.5285 96.0832 36.9267H87.1934C87.2547 37.723 87.5074 38.3356 87.9515 38.7644C88.4109 39.1779 88.9699 39.3846 89.6284 39.3846C90.6085 39.3846 91.2899 38.9711 91.6728 38.1442H95.8535C95.6391 38.9864 95.2486 39.7445 94.682 40.4183C94.1307 41.0921 93.4339 41.6204 92.5916 42.0033C91.7494 42.3861 90.8076 42.5776 89.7662 42.5776C88.5104 42.5776 87.3925 42.3096 86.4124 41.7736C85.4323 41.2376 84.6666 40.4719 84.1153 39.4765C83.564 38.4811 83.2884 37.3172 83.2884 35.9849C83.2884 34.6526 83.5564 33.4887 84.0923 32.4933C84.6437 31.4979 85.4094 30.7322 86.3895 30.1962C87.3695 29.6602 88.4951 29.3922 89.7662 29.3922C91.0066 29.3922 92.1092 29.6525 93.074 30.1732C94.0388 30.6939 94.7892 31.4366 95.3252 32.4014C95.8765 33.3662 96.1522 34.4918 96.1522 35.7781ZM92.1322 34.7444C92.1322 34.0706 91.9025 33.5346 91.4431 33.1365C90.9837 32.7383 90.4094 32.5392 89.7203 32.5392C89.0618 32.5392 88.5028 32.7306 88.0434 33.1135C87.5993 33.4963 87.3236 34.04 87.2164 34.7444H92.1322ZM106.035 29.4381C107.535 29.4381 108.73 29.9282 109.618 30.9083C110.522 31.8731 110.973 33.2054 110.973 34.9052V42.3938H107.068V35.4336C107.068 34.576 106.846 33.9098 106.402 33.4351C105.958 32.9603 105.361 32.723 104.61 32.723C103.86 32.723 103.263 32.9603 102.819 33.4351C102.374 33.9098 102.152 34.576 102.152 35.4336V42.3938H98.2244V29.5759H102.152V31.2758C102.551 30.7092 103.087 30.2651 103.76 29.9435C104.434 29.6066 105.192 29.4381 106.035 29.4381ZM123.58 32.7V35.9619H113.473V32.7H123.58ZM132.242 42.5776C131.124 42.5776 130.129 42.3861 129.256 42.0033C128.383 41.6204 127.694 41.0998 127.189 40.4413C126.683 39.7674 126.4 39.0171 126.339 38.1901H130.221C130.267 38.6342 130.474 38.9941 130.841 39.2697C131.209 39.5454 131.66 39.6832 132.196 39.6832C132.686 39.6832 133.062 39.5913 133.322 39.4076C133.598 39.2085 133.735 38.9558 133.735 38.6495C133.735 38.282 133.544 38.014 133.161 37.8455C132.778 37.6618 132.158 37.4627 131.301 37.2483C130.382 37.0339 129.616 36.8118 129.003 36.5821C128.391 36.3371 127.863 35.9619 127.418 35.4565C126.974 34.9359 126.752 34.2391 126.752 33.3662C126.752 32.6311 126.951 31.9649 127.35 31.3677C127.763 30.7551 128.36 30.2727 129.141 29.9205C129.938 29.5683 130.879 29.3922 131.967 29.3922C133.575 29.3922 134.838 29.7903 135.757 30.5867C136.691 31.383 137.227 32.4397 137.365 33.7567H133.735C133.674 33.3126 133.475 32.9603 133.138 32.7C132.817 32.4397 132.388 32.3095 131.852 32.3095C131.392 32.3095 131.04 32.4014 130.795 32.5852C130.55 32.7536 130.428 32.991 130.428 33.2973C130.428 33.6648 130.619 33.9404 131.002 34.1242C131.4 34.308 132.013 34.4918 132.84 34.6755C133.789 34.9205 134.562 35.1656 135.16 35.4106C135.757 35.6403 136.278 36.0232 136.722 36.5591C137.181 37.0798 137.419 37.7843 137.434 38.6725C137.434 39.4229 137.219 40.0967 136.791 40.6939C136.377 41.2759 135.772 41.7353 134.976 42.0722C134.195 42.4091 133.284 42.5776 132.242 42.5776ZM145.672 42.5776C144.416 42.5776 143.283 42.3096 142.272 41.7736C141.277 41.2376 140.488 40.4719 139.906 39.4765C139.339 38.4811 139.056 37.3172 139.056 35.9849C139.056 34.6679 139.347 33.5117 139.929 32.5162C140.511 31.5055 141.307 30.7322 142.318 30.1962C143.329 29.6602 144.462 29.3922 145.718 29.3922C146.973 29.3922 148.107 29.6602 149.117 30.1962C150.128 30.7322 150.924 31.5055 151.506 32.5162C152.088 33.5117 152.379 34.6679 152.379 35.9849C152.379 37.3019 152.081 38.4657 151.483 39.4765C150.901 40.4719 150.097 41.2376 149.071 41.7736C148.061 42.3096 146.927 42.5776 145.672 42.5776ZM145.672 39.1779C146.422 39.1779 147.058 38.9022 147.578 38.3509C148.114 37.7996 148.382 37.0109 148.382 35.9849C148.382 34.9588 148.122 34.1702 147.601 33.6189C147.096 33.0675 146.468 32.7919 145.718 32.7919C144.952 32.7919 144.316 33.0675 143.811 33.6189C143.306 34.1548 143.053 34.9435 143.053 35.9849C143.053 37.0109 143.298 37.7996 143.788 38.3509C144.293 38.9022 144.921 39.1779 145.672 39.1779ZM167.12 29.5759V42.3938H163.192V40.648C162.794 41.2146 162.25 41.674 161.561 42.0263C160.887 42.3632 160.137 42.5316 159.31 42.5316C158.33 42.5316 157.465 42.3172 156.714 41.8884C155.964 41.4443 155.382 40.8088 154.968 39.9818C154.555 39.1549 154.348 38.1824 154.348 37.0645V29.5759H158.253V36.5362C158.253 37.3938 158.475 38.0599 158.919 38.5347C159.364 39.0094 159.961 39.2468 160.711 39.2468C161.477 39.2468 162.082 39.0094 162.526 38.5347C162.97 38.0599 163.192 37.3938 163.192 36.5362V29.5759H167.12ZM173.87 31.7123C174.329 31.0078 174.903 30.4565 175.593 30.0583C176.282 29.6449 177.047 29.4381 177.89 29.4381V33.5959H176.81C175.83 33.5959 175.095 33.8103 174.605 34.2391C174.115 34.6526 173.87 35.3876 173.87 36.4443V42.3938H169.942V29.5759H173.87V31.7123ZM178.986 35.9849C178.986 34.6526 179.254 33.4887 179.79 32.4933C180.341 31.4979 181.099 30.7322 182.064 30.1962C183.044 29.6602 184.162 29.3922 185.418 29.3922C187.026 29.3922 188.366 29.8133 189.438 30.6556C190.525 31.4979 191.237 32.6847 191.574 34.2161H187.394C187.041 33.236 186.36 32.746 185.349 32.746C184.629 32.746 184.055 33.0293 183.626 33.5959C183.198 34.1472 182.983 34.9435 182.983 35.9849C182.983 37.0262 183.198 37.8302 183.626 38.3968C184.055 38.9481 184.629 39.2238 185.349 39.2238C186.36 39.2238 187.041 38.7337 187.394 37.7536H191.574C191.237 39.2544 190.525 40.4336 189.438 41.2912C188.351 42.1488 187.011 42.5776 185.418 42.5776C184.162 42.5776 183.044 42.3096 182.064 41.7736C181.099 41.2376 180.341 40.4719 179.79 39.4765C179.254 38.4811 178.986 37.3172 178.986 35.9849ZM205.758 35.7781C205.758 36.1457 205.735 36.5285 205.689 36.9267H196.799C196.861 37.723 197.113 38.3356 197.558 38.7644C198.017 39.1779 198.576 39.3846 199.234 39.3846C200.215 39.3846 200.896 38.9711 201.279 38.1442H205.46C205.245 38.9864 204.855 39.7445 204.288 40.4183C203.737 41.0921 203.04 41.6204 202.198 42.0033C201.355 42.3861 200.414 42.5776 199.372 42.5776C198.116 42.5776 196.999 42.3096 196.018 41.7736C195.038 41.2376 194.273 40.4719 193.721 39.4765C193.17 38.4811 192.894 37.3172 192.894 35.9849C192.894 34.6526 193.162 33.4887 193.698 32.4933C194.25 31.4979 195.015 30.7322 195.996 30.1962C196.976 29.6602 198.101 29.3922 199.372 29.3922C200.613 29.3922 201.715 29.6525 202.68 30.1732C203.645 30.6939 204.395 31.4366 204.931 32.4014C205.483 33.3662 205.758 34.4918 205.758 35.7781ZM201.738 34.7444C201.738 34.0706 201.509 33.5346 201.049 33.1365C200.59 32.7383 200.015 32.5392 199.326 32.5392C198.668 32.5392 198.109 32.7306 197.649 33.1135C197.205 33.4963 196.93 34.04 196.822 34.7444H201.738Z" fill="white"/>
</g>
<defs>
<clipPath id="clip0_1_89">
<rect width="200" height="33.75" fill="white" transform="translate(8 15.1299)"/>
</clipPath>
</defs>
</svg>
