<svg width="152" height="64" viewBox="0 0 152 64" fill="none" xmlns="http://www.w3.org/2000/svg">
<g clip-path="url(#clip0_1_116)">
<path d="M16.146 46.9359C11.99 47.001 7.97372 45.4366 4.95734 42.5778C1.94097 39.7189 0.164354 35.7929 0.00801511 31.6406C-0.15342 27.3826 1.3555 23.23 4.21302 20.0682C5.61895 18.509 7.32685 17.2513 9.23329 16.3713C11.1397 15.4914 13.205 15.0074 15.304 14.9488H16.694C17.8139 14.903 18.9352 14.9967 20.032 15.2277L16.694 21.6257C16.528 21.6197 16.351 21.6117 16.181 21.6117C14.4044 21.5958 12.6614 22.0968 11.1646 23.0537C9.66778 24.0106 8.48174 25.3822 7.75101 27.0012C7.02027 28.6202 6.77641 30.4167 7.04914 32.1719C7.32188 33.927 8.09942 35.5649 9.28701 36.886C10.0798 37.7936 11.0448 38.5348 12.1263 39.0668C13.2077 39.5988 14.384 39.9109 15.587 39.985H16.692C18.9289 39.9665 21.0915 39.1806 22.818 37.7587L26.439 43.8718C23.5807 45.8665 20.1779 46.9341 16.692 46.9299C16.51 46.9359 16.325 46.9359 16.146 46.9359ZM28.111 42.2053L24.211 35.5294H16.149L20.318 28.5726H28.118L32.278 35.5294L28.121 42.2053H28.111ZM28.929 26.3473L21.429 26.0644C21.4038 24.9857 21.6951 23.9233 22.267 23.0083C22.953 22.1179 23.8012 21.3653 24.767 20.79L25.319 20.4991C26.419 19.9642 26.707 19.6773 26.707 19.1205C26.707 18.5637 25.892 18.0039 25.319 18.0039C24.7834 18.0016 24.2592 18.1592 23.8138 18.4567C23.3684 18.7541 23.022 19.1778 22.819 19.6733L21.429 18.2808C21.7977 17.6707 22.2546 17.1186 22.785 16.6423L22.818 16.6153C23.5745 16.1784 24.4481 15.9873 25.318 16.0685C26.2242 16.0393 27.1109 16.335 27.818 16.9022C28.4435 17.4824 28.8348 18.2716 28.918 19.1205C28.907 19.8355 28.6556 20.526 28.2043 21.0807C27.753 21.6354 27.128 22.0222 26.43 22.1786L25.597 22.7424C25.531 22.7914 25.46 22.8304 25.397 22.8753L25.31 22.9243C24.617 23.3692 24.162 23.6621 23.925 24.4039H28.916V26.3463L28.929 26.3473Z" fill="#FF492C"/>
<path d="M58.1365 21.4357L51.9635 20.536L49.1995 14.9478L46.4425 20.539L40.2695 21.4387L44.7365 25.7914L43.6825 31.9335L49.2035 29.0344L54.7245 31.9335L53.6695 25.7884L58.1365 21.4357ZM77.0555 21.4357L70.8825 20.536L68.1185 14.9478L65.3615 20.539L59.1885 21.4387L63.6555 25.7914L62.6015 31.9335L68.1225 29.0344L73.6435 31.9335L72.5885 25.7884L77.0555 21.4357ZM95.9745 21.4357L89.8015 20.536L87.0375 14.9478L84.2805 20.539L78.1075 21.4387L82.5745 25.7914L81.5205 31.9335L87.0415 29.0344L92.5625 31.9335L91.5075 25.7884L95.9745 21.4357ZM114.893 21.4357L108.72 20.536L105.956 14.9478L103.199 20.539L97.0255 21.4387L101.493 25.7914L100.439 31.9335L105.96 29.0344L111.481 31.9335L110.426 25.7884L114.893 21.4357Z" fill="#FF492C"/>
<path d="M133.812 21.4357L127.639 20.536L124.875 14.9478L122.118 20.539L115.945 21.4387L120.412 25.7914L119.358 31.9335L124.879 29.0344L130.4 31.9335L129.345 25.7884L133.812 21.4357ZM124.875 27.6528L124.859 27.6618L124.875 17.7059L126.825 21.6547L131.184 22.2875L128.033 25.3615L128.778 29.7012L124.878 27.6518L124.875 27.6528Z" fill="#FF492C"/>
<path d="M44.8816 46.7869H45.8816L43.4966 43.2969C44.1376 43.2008 44.717 42.8616 45.1144 42.3497C45.5118 41.8377 45.6966 41.1924 45.6306 40.5478C45.6306 38.9083 44.6466 37.9626 42.8596 37.9626H40.6426V46.7869H41.5016V43.3449H42.5726L44.8816 46.7869ZM41.5016 38.6894H42.8596C43.1172 38.655 43.3793 38.6804 43.6255 38.7637C43.8717 38.847 44.0954 38.9859 44.2792 39.1696C44.463 39.3533 44.6019 39.577 44.6852 39.8231C44.7685 40.0692 44.794 40.3312 44.7596 40.5888C44.801 40.8545 44.781 41.1262 44.7012 41.383C44.6214 41.6398 44.4839 41.875 44.2991 42.0704C44.1144 42.2659 43.8874 42.4166 43.6354 42.5108C43.3835 42.605 43.1133 42.6404 42.8456 42.6142H41.5016V38.6894ZM50.8676 44.7575C50.8697 44.9636 50.827 45.1676 50.7426 45.3557C50.6582 45.5437 50.534 45.7112 50.3786 45.8466C50.2232 45.982 50.0402 46.0821 49.8424 46.14C49.6446 46.1979 49.4365 46.2123 49.2326 46.182C49.0176 46.2028 48.8007 46.1742 48.5985 46.0985C48.3962 46.0227 48.214 45.9018 48.0656 45.7449C47.9173 45.588 47.8067 45.3993 47.7424 45.1931C47.6781 44.987 47.6617 44.7689 47.6946 44.5556V43.8368H51.6726V42.3742C51.6958 42.0528 51.6484 41.7302 51.5337 41.4291C51.419 41.1279 51.2398 40.8555 51.0087 40.6309C50.7775 40.4063 50.5 40.2349 50.1956 40.1289C49.8912 40.0228 49.5673 39.9846 49.2466 40.017C48.9286 39.9881 48.6081 40.0291 48.3076 40.137C48.0071 40.2449 47.7338 40.4172 47.5068 40.6417C47.2798 40.8662 47.1047 41.1376 46.9936 41.4368C46.8825 41.7361 46.8381 42.056 46.8636 42.3742V44.5556C46.8344 44.871 46.8747 45.189 46.9818 45.4871C47.0888 45.7853 47.26 46.0563 47.4832 46.2812C47.7064 46.506 47.9762 46.6792 48.2736 46.7885C48.5711 46.8978 48.8888 46.9406 49.2046 46.9138C49.5123 46.9524 49.8248 46.9256 50.1215 46.8353C50.4182 46.7449 50.6925 46.5931 50.9265 46.3896C51.1605 46.1861 51.349 45.9356 51.4796 45.6543C51.6103 45.3731 51.6801 45.0675 51.6846 44.7575H50.8676ZM49.2596 40.7477C49.4779 40.7221 49.6993 40.7469 49.9066 40.8201C50.1139 40.8933 50.3016 41.013 50.4554 41.1701C50.6093 41.3271 50.725 41.5173 50.7939 41.7261C50.8627 41.9348 50.8828 42.1565 50.8526 42.3742V43.143H47.6946V42.3742C47.6636 42.1588 47.6822 41.9392 47.7489 41.732C47.8156 41.5249 47.9288 41.3357 48.0797 41.1788C48.2306 41.022 48.4153 40.9016 48.6198 40.8269C48.8242 40.7522 49.0431 40.7251 49.2596 40.7477ZM55.4106 40.016C55.1348 39.981 54.8547 40.0026 54.5876 40.0794C54.3204 40.1562 54.0716 40.2866 53.8565 40.4626C53.6414 40.6387 53.4644 40.8567 53.3363 41.1033C53.2082 41.35 53.1318 41.6202 53.1116 41.8974H53.9286C53.9443 41.7243 53.9949 41.5561 54.0774 41.4031C54.1598 41.2501 54.2724 41.1153 54.4084 41.007C54.5443 40.8986 54.7008 40.8189 54.8684 40.7726C55.036 40.7264 55.2113 40.7145 55.3836 40.7377C55.5823 40.7159 55.7833 40.7398 55.9713 40.8076C56.1594 40.8754 56.3294 40.9852 56.4684 41.1288C56.6075 41.2723 56.7119 41.4457 56.7736 41.6358C56.8353 41.8258 56.8528 42.0275 56.8246 42.2253V42.9311H55.3836C53.7906 42.9311 52.8896 43.6368 52.8896 44.9104C52.8893 45.2006 52.9508 45.4875 53.07 45.752C53.1892 46.0166 53.3634 46.2528 53.581 46.4448C53.7985 46.6369 54.0545 46.7804 54.3319 46.866C54.6092 46.9515 54.9016 46.977 55.1896 46.9408C55.5109 46.9524 55.8304 46.8876 56.1218 46.7517C56.4131 46.6158 56.6681 46.4127 56.8656 46.1591L56.9346 46.7899H57.6416V42.2103C57.6637 41.9135 57.6209 41.6154 57.5162 41.3368C57.4114 41.0582 57.2472 40.8058 57.035 40.597C56.8228 40.3883 56.5676 40.2283 56.2872 40.1281C56.0069 40.0279 55.7081 39.99 55.4116 40.017L55.4106 40.016ZM55.3106 46.207C54.3726 46.207 53.7216 45.7962 53.7216 44.9214C53.7216 44.0767 54.2896 43.6218 55.3566 43.6218H56.8256V44.7965C56.8352 44.993 56.8019 45.1892 56.7279 45.3715C56.654 45.5538 56.5412 45.7178 56.3973 45.8521C56.2535 45.9863 56.0821 46.0877 55.8951 46.149C55.7081 46.2103 55.51 46.2301 55.3146 46.207H55.3106ZM63.2396 37.6587V40.7577C63.0319 40.5148 62.7721 40.3217 62.4795 40.1929C62.1869 40.0642 61.8691 40.003 61.5496 40.014C60.1496 40.014 59.2916 40.8587 59.2916 42.4982V44.3976C59.2916 46.0741 60.2336 46.9318 61.5496 46.9318C61.8755 46.9426 62.1997 46.879 62.4974 46.7458C62.7951 46.6126 63.0585 46.4133 63.2676 46.1631L63.3786 46.7809H64.0436V37.6587H63.2396ZM61.7296 46.245C60.7186 46.245 60.1226 45.7032 60.1226 44.4046V42.4972C60.1226 41.2366 60.6626 40.7067 61.7296 40.7067C62.6436 40.7067 63.2396 41.4385 63.2396 42.4972V44.4266C63.2396 45.6652 62.5616 46.245 61.7296 46.245ZM71.2896 46.9388C71.6136 46.9699 71.9405 46.9294 72.2471 46.8201C72.5537 46.7109 72.8326 46.5357 73.064 46.3068C73.2953 46.0778 73.4735 45.8009 73.586 45.4955C73.6984 45.1901 73.7423 44.8638 73.7146 44.5396V42.4122C73.7423 42.088 73.6984 41.7616 73.586 41.4562C73.4735 41.1509 73.2953 40.8739 73.064 40.645C72.8326 40.4161 72.5537 40.2408 72.2471 40.1316C71.9405 40.0224 71.6136 39.9819 71.2896 40.013C70.9656 39.9819 70.6387 40.0224 70.332 40.1316C70.0254 40.2408 69.7465 40.4161 69.5152 40.645C69.2838 40.8739 69.1056 41.1509 68.9932 41.4562C68.8808 41.7616 68.8369 42.088 68.8646 42.4122V44.5426C68.8373 44.8665 68.8816 45.1924 68.9942 45.4973C69.1067 45.8022 69.2849 46.0787 69.5161 46.3073C69.7473 46.5358 70.0259 46.7108 70.3321 46.82C70.6384 46.9291 70.9659 46.9697 71.2896 46.9388ZM71.2896 46.207C71.0683 46.2304 70.8445 46.2028 70.6356 46.1263C70.4266 46.0498 70.2379 45.9265 70.084 45.7658C69.9301 45.6051 69.8151 45.4113 69.7478 45.1993C69.6804 44.9872 69.6626 44.7626 69.6956 44.5426V42.4122C69.6626 42.1923 69.6804 41.9677 69.7477 41.7558C69.815 41.5438 69.9299 41.3501 70.0837 41.1894C70.2375 41.0287 70.426 40.9054 70.6349 40.8288C70.8437 40.7523 71.0673 40.7245 71.2886 40.7477C71.5098 40.7245 71.7334 40.7523 71.9423 40.8288C72.1511 40.9054 72.3397 41.0287 72.4934 41.1894C72.6472 41.3501 72.7622 41.5438 72.8294 41.7558C72.8967 41.9677 72.9146 42.1923 72.8816 42.4122V44.5426C72.9146 44.7625 72.8967 44.987 72.8294 45.199C72.7622 45.4109 72.6472 45.6047 72.4934 45.7654C72.3397 45.9261 72.1511 46.0494 71.9423 46.126C71.7334 46.2025 71.5108 46.2302 71.2896 46.207ZM79.1166 40.1679V44.1777C79.1166 45.4633 78.4516 46.233 77.4406 46.233C76.4846 46.233 76.0966 45.6282 76.0966 44.2916V40.1679H75.2796V44.4046C75.2796 46.22 76.0556 46.9388 77.2326 46.9388C77.6045 46.9586 77.975 46.8791 78.3061 46.7085C78.6371 46.5379 78.9169 46.2824 79.1166 45.9681L79.2556 46.7879H79.9346V40.1679H79.1166ZM84.4786 40.029C84.103 40.0095 83.7291 40.0904 83.3952 40.2633C83.0613 40.4362 82.7794 40.6948 82.5786 41.0126V40.9977L82.4396 40.1659H81.7626V46.7869H82.5796V42.7781C82.5796 41.5175 83.2586 40.7607 84.2976 40.7607C84.6081 40.7555 84.9173 40.8018 85.2126 40.8977V40.0909C84.9707 40.0428 84.7241 40.022 84.4776 40.029H84.4786ZM92.2366 40.029C91.861 40.0095 91.4871 40.0904 91.1532 40.2633C90.8193 40.4362 90.5374 40.6948 90.3366 41.0126V40.9977L90.1976 40.1659H89.5186V46.7869H90.3356V42.7781C90.3356 41.5175 91.0146 40.7607 92.0536 40.7607C92.3654 40.755 92.676 40.8013 92.9726 40.8977V40.0909C92.7303 40.0427 92.4835 40.022 92.2366 40.029ZM97.8196 44.7575C97.8217 44.9636 97.779 45.1676 97.6946 45.3557C97.6102 45.5437 97.486 45.7112 97.3306 45.8466C97.1752 45.982 96.9922 46.0821 96.7944 46.14C96.5966 46.1979 96.3885 46.2123 96.1846 46.182C95.9697 46.2027 95.7529 46.174 95.5508 46.0981C95.3487 46.0223 95.1666 45.9013 95.0183 45.7444C94.8701 45.5875 94.7596 45.3989 94.6954 45.1929C94.6311 44.9868 94.6148 44.7689 94.6476 44.5556V43.8368H98.6236V42.3742C98.6469 42.0528 98.5997 41.7302 98.4851 41.429C98.3705 41.1278 98.1914 40.8553 97.9604 40.6306C97.7293 40.4059 97.4519 40.2345 97.1475 40.1283C96.8432 40.0221 96.5193 39.9838 96.1986 40.016C95.8805 39.9871 95.5599 40.0281 95.2593 40.1361C94.9587 40.244 94.6854 40.4164 94.4584 40.641C94.2314 40.8656 94.0563 41.1371 93.9452 41.4365C93.8342 41.7359 93.7899 42.056 93.8156 42.3742V44.5556C93.7864 44.871 93.8267 45.189 93.9338 45.4871C94.0408 45.7853 94.212 46.0563 94.4352 46.2812C94.6584 46.506 94.9282 46.6792 95.2256 46.7885C95.5231 46.8978 95.8408 46.9406 96.1566 46.9138C96.4643 46.9524 96.7768 46.9256 97.0735 46.8353C97.3702 46.7449 97.6445 46.5931 97.8785 46.3896C98.1125 46.1861 98.301 45.9356 98.4316 45.6543C98.5623 45.3731 98.6321 45.0675 98.6366 44.7575H97.8196ZM96.2126 40.7477C96.4309 40.7221 96.6523 40.7469 96.8596 40.8201C97.0669 40.8933 97.2546 41.013 97.4085 41.1701C97.5623 41.3271 97.678 41.5173 97.7469 41.7261C97.8157 41.9348 97.8358 42.1565 97.8056 42.3742V43.143H94.6476V42.3742C94.6166 42.1588 94.6352 41.9392 94.7019 41.732C94.7686 41.5249 94.8818 41.3357 95.0327 41.1788C95.1836 41.022 95.3683 40.9016 95.5728 40.8269C95.7772 40.7522 95.9961 40.7251 96.2126 40.7477ZM101.464 46.7869H102.351L104.415 40.1679H103.556L102.406 44.0387C102.254 44.5805 102.032 45.4513 101.935 45.8162H101.88C101.78 45.4503 101.561 44.5805 101.409 44.0387L100.259 40.1679H99.3996L101.464 46.7869ZM105.842 38.9443C105.926 38.9535 106.012 38.9447 106.092 38.9184C106.173 38.892 106.248 38.8489 106.31 38.7917C106.373 38.7345 106.423 38.6646 106.457 38.5867C106.491 38.5087 106.508 38.4244 106.507 38.3395C106.508 38.2545 106.491 38.1703 106.457 38.0923C106.423 38.0143 106.373 37.9445 106.31 37.8873C106.248 37.8301 106.173 37.7869 106.092 37.7606C106.012 37.7343 105.926 37.7255 105.842 37.7347C105.757 37.7255 105.672 37.7343 105.591 37.7606C105.51 37.7869 105.436 37.8301 105.373 37.8873C105.31 37.9445 105.26 38.0143 105.226 38.0923C105.192 38.1703 105.175 38.2545 105.177 38.3395C105.175 38.4244 105.192 38.5087 105.226 38.5867C105.26 38.6646 105.31 38.7345 105.373 38.7917C105.436 38.8489 105.51 38.892 105.591 38.9184C105.672 38.9447 105.757 38.9535 105.842 38.9443ZM105.442 46.7869H106.259V40.1679H105.442V46.7869ZM111.912 44.7565C111.914 44.963 111.871 45.1676 111.787 45.3561C111.702 45.5446 111.578 45.7124 111.422 45.848C111.266 45.9836 111.082 46.0837 110.884 46.1413C110.685 46.199 110.477 46.2129 110.273 46.182C110.058 46.2023 109.841 46.1734 109.639 46.0974C109.438 46.0214 109.256 45.9004 109.108 45.7436C108.96 45.5867 108.849 45.3982 108.785 45.1923C108.721 44.9865 108.705 44.7687 108.738 44.5556V43.8368H112.714V42.3742C112.737 42.0528 112.69 41.7302 112.575 41.429C112.461 41.1278 112.281 40.8553 112.05 40.6306C111.819 40.4059 111.542 40.2345 111.238 40.1283C110.933 40.0221 110.609 39.9838 110.289 40.016C109.97 39.9871 109.65 40.0281 109.349 40.1361C109.049 40.244 108.775 40.4164 108.548 40.641C108.321 40.8656 108.146 41.1371 108.035 41.4365C107.924 41.7359 107.88 42.056 107.906 42.3742V44.5556C107.876 44.871 107.917 45.189 108.024 45.4871C108.131 45.7853 108.302 46.0563 108.525 46.2812C108.748 46.506 109.018 46.6792 109.316 46.7885C109.613 46.8978 109.931 46.9406 110.247 46.9138C110.554 46.9524 110.867 46.9256 111.163 46.8353C111.46 46.7449 111.734 46.5931 111.969 46.3896C112.203 46.1861 112.391 45.9356 112.522 45.6543C112.652 45.3731 112.722 45.0675 112.727 44.7575L111.912 44.7565ZM110.303 40.7477C110.521 40.7221 110.742 40.7469 110.95 40.8201C111.157 40.8933 111.345 41.013 111.498 41.1701C111.652 41.3271 111.768 41.5173 111.837 41.7261C111.906 41.9348 111.926 42.1565 111.896 42.3742V43.143H108.738V42.3742C108.707 42.1588 108.725 41.9392 108.792 41.732C108.859 41.5249 108.972 41.3357 109.123 41.1788C109.274 41.022 109.458 40.9016 109.663 40.8269C109.867 40.7522 110.086 40.7251 110.303 40.7477ZM120.832 40.1679L119.932 43.7738C119.752 44.4546 119.544 45.4883 119.461 45.8541H119.433C119.276 45.0726 119.101 44.295 118.907 43.5219L118.034 40.2979H117.147L116.273 43.5219C116.078 44.2949 115.903 45.0725 115.747 45.8541H115.719C115.636 45.4883 115.428 44.4546 115.248 43.7738L114.348 40.1679H113.489L115.289 46.7879H116.189L117.073 43.4969C117.278 42.7578 117.444 42.0087 117.573 41.2526H117.601C117.729 42.0087 117.896 42.7578 118.101 43.4969L118.988 46.7879H119.888L121.688 40.1679H120.832ZM124.642 46.9388C126 46.9388 126.9 46.207 126.9 45.1104C126.9 42.7781 123.159 43.3699 123.159 41.8194C123.159 41.1386 123.659 40.7347 124.517 40.7347C124.701 40.7083 124.889 40.7229 125.067 40.7776C125.245 40.8322 125.409 40.9256 125.546 41.0509C125.684 41.1763 125.792 41.3305 125.863 41.5026C125.935 41.6747 125.967 41.8604 125.958 42.0463H126.773C126.775 41.7594 126.716 41.4754 126.6 41.2129C126.484 40.9504 126.314 40.7155 126.1 40.5237C125.887 40.3318 125.635 40.1873 125.362 40.0998C125.089 40.0123 124.8 39.9837 124.515 40.016C123.199 40.016 122.326 40.7217 122.326 41.7934C122.326 44.0627 126.067 43.4699 126.067 45.0844C126.067 45.7902 125.541 46.207 124.64 46.207C123.64 46.207 123.047 45.6902 123.047 44.8205H122.23C122.232 45.1234 122.299 45.4223 122.425 45.6977C122.551 45.9731 122.734 46.2188 122.962 46.4187C123.189 46.6186 123.457 46.7683 123.746 46.8579C124.036 46.9475 124.341 46.9751 124.642 46.9388ZM133.703 46.9388C134.027 46.9701 134.354 46.9297 134.66 46.8205C134.967 46.7114 135.246 46.5361 135.477 46.3072C135.709 46.0782 135.887 45.8012 135.999 45.4957C136.112 45.1903 136.155 44.8638 136.128 44.5396V42.4122C136.155 42.088 136.111 41.7616 135.999 41.4562C135.887 41.1509 135.708 40.8739 135.477 40.645C135.246 40.4161 134.967 40.2408 134.66 40.1316C134.354 40.0224 134.027 39.9819 133.703 40.013C133.379 39.9819 133.052 40.0224 132.745 40.1316C132.438 40.2408 132.16 40.4161 131.928 40.645C131.697 40.8739 131.519 41.1509 131.406 41.4562C131.294 41.7616 131.25 42.088 131.278 42.4122V44.5426C131.25 44.8665 131.295 45.1926 131.407 45.4976C131.52 45.8026 131.698 46.0791 131.929 46.3077C132.161 46.5363 132.439 46.7113 132.746 46.8203C133.052 46.9294 133.379 46.9698 133.703 46.9388ZM133.703 46.207C133.481 46.2302 133.258 46.2025 133.049 46.126C132.84 46.0494 132.652 45.9261 132.498 45.7654C132.344 45.6047 132.229 45.4109 132.162 45.199C132.094 44.987 132.077 44.7625 132.11 44.5426V42.4122C132.077 42.1923 132.094 41.9677 132.162 41.7558C132.229 41.5438 132.344 41.3501 132.498 41.1894C132.652 41.0287 132.84 40.9054 133.049 40.8288C133.258 40.7523 133.481 40.7245 133.703 40.7477C133.924 40.7245 134.147 40.7523 134.356 40.8288C134.565 40.9054 134.754 41.0287 134.907 41.1894C135.061 41.3501 135.176 41.5438 135.243 41.7558C135.311 41.9677 135.329 42.1923 135.296 42.4122V44.5426C135.329 44.7625 135.311 44.987 135.243 45.199C135.176 45.4109 135.061 45.6047 134.907 45.7654C134.754 45.9261 134.565 46.0494 134.356 46.126C134.147 46.2025 133.924 46.2302 133.703 46.207ZM140.478 40.016C140.106 39.9962 139.735 40.0757 139.404 40.2463C139.073 40.4168 138.793 40.6724 138.594 40.9867L138.455 40.1669H137.773V46.7869H138.59V42.7781C138.59 41.4925 139.255 40.7227 140.266 40.7227C141.222 40.7227 141.61 41.3276 141.61 42.6641V46.7869H142.427V42.5512C142.432 40.7347 141.656 40.016 140.478 40.016Z" fill="white"/>
</g>
<defs>
<clipPath id="clip0_1_116">
<rect width="152" height="34.13" fill="white" transform="translate(0 14.9399)"/>
</clipPath>
</defs>
</svg>
