<svg width="307" height="1263" viewBox="0 0 307 1263" fill="none" xmlns="http://www.w3.org/2000/svg">
<path d="M310.822 0.5C187.322 28.3333 349.093 234.5 82.3223 624.5C-170.087 993.504 281.989 1230 310.822 1262.5" stroke="url(#paint0_linear_1_8)" stroke-opacity="0.5"/>
<path d="M305.822 0C182.322 27.8333 344.093 234 77.3223 624C-175.087 993.004 276.989 1229.5 305.822 1262" stroke="url(#paint1_linear_1_8)"/>
<path d="M328.822 0.5C205.322 28.3333 367.093 234.5 100.322 624.5C-152.087 993.504 299.989 1230 328.822 1262.5" stroke="url(#paint2_linear_1_8)"/>
<path d="M318.822 0.5C195.322 28.3333 357.093 234.5 90.3223 624.5C-162.087 993.504 289.989 1230 318.822 1262.5" stroke="url(#paint3_linear_1_8)"/>
<path d="M314.822 0.5C191.322 28.3333 353.093 234.5 86.3223 624.5C-166.087 993.504 285.989 1230 314.822 1262.5" stroke="white" stroke-opacity="0.15"/>
<path d="M323.822 0.5C200.322 28.3333 362.093 234.5 95.3223 624.5C-157.087 993.504 294.989 1230 323.822 1262.5" stroke="url(#paint4_linear_1_8)"/>
<mask id="mask0_1_8" style="mask-type:alpha" maskUnits="userSpaceOnUse" x="24" y="0" width="333" height="1263">
<path d="M101.322 624.5C368.093 234.5 206.322 28.3333 329.822 0.5H356.322V1262.5H329.822C300.989 1230 -151.087 993.504 101.322 624.5Z" fill="#D9D9D9" stroke="url(#paint5_linear_1_8)"/>
</mask>
<g mask="url(#mask0_1_8)">
<g filter="url(#filter0_f_1_8)">
<ellipse cx="262.122" cy="241.5" rx="262.122" ry="241.5" transform="matrix(-1 0 0 1 702.822 557)" fill="#B084FB"/>
</g>
<g opacity="0.4">
<g filter="url(#filter1_f_1_8)">
<ellipse cx="172.556" cy="158.98" rx="172.556" ry="158.98" transform="matrix(-1 0 0 1 591.547 348.04)" fill="url(#paint6_linear_1_8)"/>
</g>
<g filter="url(#filter2_f_1_8)">
<ellipse cx="172.556" cy="158.98" rx="172.556" ry="158.98" transform="matrix(-1 0 0 1 572.256 223)" fill="#762BF1"/>
</g>
</g>
<g filter="url(#filter3_f_1_8)">
<ellipse cx="172.556" cy="158.98" rx="172.556" ry="158.98" transform="matrix(-1 0 0 1 632.547 682.04)" fill="url(#paint7_linear_1_8)"/>
</g>
</g>
<defs>
<filter id="filter0_f_1_8" x="-80.1727" y="298.25" width="1041.74" height="1000.5" filterUnits="userSpaceOnUse" color-interpolation-filters="sRGB">
<feFlood flood-opacity="0" result="BackgroundImageFix"/>
<feBlend mode="normal" in="SourceGraphic" in2="BackgroundImageFix" result="shape"/>
<feGaussianBlur stdDeviation="129.375" result="effect1_foregroundBlur_1_8"/>
</filter>
<filter id="filter1_f_1_8" x="76.1" y="177.705" width="685.782" height="658.631" filterUnits="userSpaceOnUse" color-interpolation-filters="sRGB">
<feFlood flood-opacity="0" result="BackgroundImageFix"/>
<feBlend mode="normal" in="SourceGraphic" in2="BackgroundImageFix" result="shape"/>
<feGaussianBlur stdDeviation="85.1678" result="effect1_foregroundBlur_1_8"/>
</filter>
<filter id="filter2_f_1_8" x="56.809" y="52.6644" width="685.782" height="658.631" filterUnits="userSpaceOnUse" color-interpolation-filters="sRGB">
<feFlood flood-opacity="0" result="BackgroundImageFix"/>
<feBlend mode="normal" in="SourceGraphic" in2="BackgroundImageFix" result="shape"/>
<feGaussianBlur stdDeviation="85.1678" result="effect1_foregroundBlur_1_8"/>
</filter>
<filter id="filter3_f_1_8" x="117.1" y="511.705" width="685.782" height="658.631" filterUnits="userSpaceOnUse" color-interpolation-filters="sRGB">
<feFlood flood-opacity="0" result="BackgroundImageFix"/>
<feBlend mode="normal" in="SourceGraphic" in2="BackgroundImageFix" result="shape"/>
<feGaussianBlur stdDeviation="85.1678" result="effect1_foregroundBlur_1_8"/>
</filter>
<linearGradient id="paint0_linear_1_8" x1="158.411" y1="0.5" x2="158.411" y2="1262.5" gradientUnits="userSpaceOnUse">
<stop stop-color="white" stop-opacity="0.16"/>
<stop offset="0.223975" stop-color="white" stop-opacity="0.48"/>
<stop offset="0.398136" stop-color="#6209F4"/>
<stop offset="0.825" stop-color="#8B6AC1"/>
<stop offset="1" stop-color="#613D9D"/>
</linearGradient>
<linearGradient id="paint1_linear_1_8" x1="153.411" y1="0" x2="153.411" y2="1262" gradientUnits="userSpaceOnUse">
<stop stop-color="#090B19"/>
<stop offset="0.28" stop-color="#DFBDFB"/>
<stop offset="0.54" stop-color="#2B0072"/>
<stop offset="0.795" stop-color="white"/>
<stop offset="1" stop-color="#F6F3FC" stop-opacity="0.04"/>
</linearGradient>
<linearGradient id="paint2_linear_1_8" x1="345.822" y1="13" x2="83.8223" y2="1194.5" gradientUnits="userSpaceOnUse">
<stop stop-color="white" stop-opacity="0.02"/>
<stop offset="0.2" stop-color="#7E5DB4"/>
<stop offset="0.409914" stop-color="#CFB8F4"/>
<stop offset="0.715" stop-color="#080B18"/>
<stop offset="1" stop-color="#230850"/>
</linearGradient>
<linearGradient id="paint3_linear_1_8" x1="166.411" y1="0.5" x2="166.411" y2="1262.5" gradientUnits="userSpaceOnUse">
<stop stop-color="#E9ECF2" stop-opacity="0.2"/>
<stop offset="0.15" stop-color="#5921D0"/>
<stop offset="0.5" stop-color="#D9ACFF"/>
<stop offset="0.75" stop-color="#0C162C"/>
<stop offset="1" stop-color="#AF50FF"/>
</linearGradient>
<linearGradient id="paint4_linear_1_8" x1="122.822" y1="1206.5" x2="304.822" y2="54.5" gradientUnits="userSpaceOnUse">
<stop stop-color="white" stop-opacity="0.02"/>
<stop offset="0.2" stop-color="#B080FF"/>
<stop offset="0.409914" stop-color="#CFB8F4"/>
<stop offset="0.715" stop-color="#7540DA"/>
<stop offset="1" stop-color="#230850"/>
</linearGradient>
<linearGradient id="paint5_linear_1_8" x1="346.822" y1="13" x2="84.8223" y2="1194.5" gradientUnits="userSpaceOnUse">
<stop stop-color="white" stop-opacity="0.02"/>
<stop offset="0.2" stop-color="#7E5DB4"/>
<stop offset="0.409914" stop-color="#CFB8F4"/>
<stop offset="0.715" stop-color="#080B18"/>
<stop offset="1" stop-color="#230850"/>
</linearGradient>
<linearGradient id="paint6_linear_1_8" x1="0" y1="158.98" x2="345.111" y2="158.98" gradientUnits="userSpaceOnUse">
<stop stop-color="#A27CC3"/>
<stop offset="0.465" stop-color="#D5AEF6"/>
<stop offset="1" stop-color="#A265D5"/>
</linearGradient>
<linearGradient id="paint7_linear_1_8" x1="0" y1="158.98" x2="345.111" y2="158.98" gradientUnits="userSpaceOnUse">
<stop stop-color="#A27CC3"/>
<stop offset="0.465" stop-color="#D5AEF6"/>
<stop offset="1" stop-color="#A265D5"/>
</linearGradient>
</defs>
</svg>
