<svg width="41" height="46" viewBox="0 0 41 46" fill="none" xmlns="http://www.w3.org/2000/svg">
<path d="M25.6345 21.1399L28.8995 15.5989L37.6995 29.3069V31.9379L37.6705 13.8379C37.66 13.6196 37.5973 13.407 37.4874 13.218C37.3776 13.029 37.224 12.8691 37.0395 12.7519L21.1945 3.63693C21.0051 3.54721 20.7979 3.50118 20.5883 3.50221C20.3787 3.50325 20.172 3.55134 19.9835 3.64293C19.9346 3.66742 19.8872 3.6948 19.8415 3.72493L19.7865 3.75993L4.40551 12.6729L4.34551 12.6999C4.26587 12.7367 4.18987 12.7809 4.11851 12.8319C3.83005 13.0378 3.63341 13.3482 3.57051 13.6969C3.56076 13.7498 3.55408 13.8033 3.55051 13.8569L3.57451 28.6089L11.7745 15.9029C12.8065 14.2179 15.0555 13.6749 17.1425 13.7029L19.5925 13.7679L5.16251 36.9189L6.86251 37.8989L21.4725 13.7909L27.9295 13.7679L13.3585 38.4839L19.4305 41.9769L20.1555 42.3939C20.4685 42.5182 20.8159 42.5249 21.1335 42.4129L37.2015 33.1009L34.1295 34.8809L25.6345 21.1399ZM26.8805 39.0829L20.7475 29.4569L24.4915 23.1039L32.5465 35.8039L26.8805 39.0829Z" fill="#2D374B"/>
<path d="M20.7465 29.4569L26.8795 39.0829L32.5445 35.7999L24.4895 23.0999L20.7465 29.4569Z" fill="#28A0F0"/>
<path d="M37.7055 31.9389V29.3079L28.9055 15.5999L25.6405 21.1409L34.1405 34.8819L37.2125 33.1019C37.3608 32.9811 37.482 32.8305 37.5681 32.6597C37.6543 32.489 37.7035 32.302 37.7125 32.1109L37.7055 31.9389Z" fill="#28A0F0"/>
<path d="M0.823503 34.4189L5.1615 36.9189L19.5975 13.7679L17.1475 13.7029C15.0595 13.6729 12.8115 14.2159 11.7795 15.9029L3.5795 28.6089L0.821503 32.8459V34.4209L0.823503 34.4189Z" fill="white"/>
<path d="M27.9295 13.7679L21.4725 13.7909L6.86349 37.8989L11.9695 40.8389L13.3585 38.4839L27.9295 13.7679Z" fill="white"/>
<path d="M40.4255 13.7349C40.3959 13.0687 40.2048 12.4196 39.8686 11.8437C39.5324 11.2678 39.0611 10.7822 38.4955 10.4289L22.4425 1.19693C21.8695 0.915376 21.2395 0.768974 20.601 0.768974C19.9625 0.768974 19.3326 0.915376 18.7595 1.19693C18.6255 1.26493 3.14851 10.2409 3.14851 10.2409C2.48394 10.5599 1.91748 11.0519 1.50857 11.6653C1.09966 12.2787 0.863373 12.9908 0.824509 13.7269V32.8449L3.58251 28.6069L3.55851 13.8549C3.5713 13.6528 3.6288 13.456 3.72684 13.2787C3.82489 13.1015 3.96106 12.9482 4.12551 12.8299C4.19851 12.7779 19.9395 3.66593 19.9895 3.64093C20.178 3.54934 20.3847 3.50125 20.5943 3.50021C20.8039 3.49918 21.0111 3.54521 21.2005 3.63493L37.0455 12.7499C37.2301 12.8671 37.3837 13.0269 37.4936 13.2159C37.6034 13.4049 37.6661 13.6176 37.6765 13.8359V32.1099C37.6725 32.2993 37.6282 32.4857 37.5464 32.6566C37.4647 32.8275 37.3474 32.979 37.2025 33.1009L34.1305 34.8809L32.5455 35.7999L26.8795 39.0829L21.1345 42.4129C20.8169 42.525 20.4695 42.5183 20.1565 42.3939L13.3565 38.4839L11.9675 40.8389L18.0765 44.3559L18.6065 44.6559C18.8355 44.7839 18.9915 44.8699 19.0465 44.8969C19.5577 45.1211 20.1104 45.2349 20.6685 45.2309C21.1817 45.2323 21.6906 45.137 22.1685 44.9499L38.8565 35.2849C39.3273 34.9186 39.7121 34.4535 39.9837 33.9224C40.2553 33.3913 40.4071 32.8071 40.4285 32.2109L40.4255 13.7349Z" fill="#96BEDC"/>
</svg>
