<svg width="24" height="25" viewBox="0 0 24 25" fill="none" xmlns="http://www.w3.org/2000/svg">
<path d="M10.53 9.21424C10.6037 9.14557 10.6628 9.06277 10.7038 8.97077C10.7448 8.87877 10.7668 8.77946 10.7686 8.67876C10.7704 8.57806 10.7519 8.47803 10.7141 8.38464C10.6764 8.29125 10.6203 8.20642 10.549 8.1352C10.4778 8.06398 10.393 8.00783 10.2996 7.97011C10.2062 7.93239 10.1062 7.91387 10.0055 7.91564C9.90479 7.91742 9.80547 7.93946 9.71347 7.98045C9.62147 8.02145 9.53867 8.08055 9.47001 8.15424L5.47001 12.1542C5.32956 12.2949 5.25067 12.4855 5.25067 12.6842C5.25067 12.883 5.32956 13.0736 5.47001 13.2142L9.47001 17.2142C9.53867 17.2879 9.62147 17.347 9.71347 17.388C9.80547 17.429 9.90479 17.451 10.0055 17.4528C10.1062 17.4546 10.2062 17.4361 10.2996 17.3984C10.393 17.3606 10.4778 17.3045 10.549 17.2333C10.6203 17.1621 10.6764 17.0772 10.7141 16.9838C10.7519 16.8904 10.7704 16.7904 10.7686 16.6897C10.7668 16.589 10.7448 16.4897 10.7038 16.3977C10.6628 16.3057 10.6037 16.2229 10.53 16.1542L7.81001 13.4342L17.5 13.4342C17.6989 13.4342 17.8897 13.3552 18.0303 13.2146C18.171 13.0739 18.25 12.8831 18.25 12.6842C18.25 12.4853 18.171 12.2946 18.0303 12.1539C17.8897 12.0133 17.6989 11.9342 17.5 11.9342L7.81001 11.9342L10.53 9.21424Z" fill="white"/>
</svg>
