<svg width="24" height="25" viewBox="0 0 24 25" fill="none" xmlns="http://www.w3.org/2000/svg">
<path d="M13.47 9.21424C13.3963 9.14557 13.3372 9.06277 13.2962 8.97077C13.2552 8.87877 13.2332 8.77946 13.2314 8.67876C13.2296 8.57806 13.2481 8.47803 13.2859 8.38464C13.3236 8.29125 13.3797 8.20642 13.451 8.1352C13.5222 8.06398 13.607 8.00783 13.7004 7.97011C13.7938 7.93239 13.8938 7.91387 13.9945 7.91564C14.0952 7.91742 14.1945 7.93946 14.2865 7.98045C14.3785 8.02145 14.4613 8.08055 14.53 8.15424L18.53 12.1542C18.6704 12.2949 18.7493 12.4855 18.7493 12.6842C18.7493 12.883 18.6704 13.0736 18.53 13.2142L14.53 17.2142C14.4613 17.2879 14.3785 17.347 14.2865 17.388C14.1945 17.429 14.0952 17.451 13.9945 17.4528C13.8938 17.4546 13.7938 17.4361 13.7004 17.3984C13.607 17.3606 13.5222 17.3045 13.451 17.2333C13.3797 17.1621 13.3236 17.0772 13.2859 16.9838C13.2481 16.8904 13.2296 16.7904 13.2314 16.6897C13.2332 16.589 13.2552 16.4897 13.2962 16.3977C13.3372 16.3057 13.3963 16.2229 13.47 16.1542L16.19 13.4342L6.49999 13.4342C6.30108 13.4342 6.11031 13.3552 5.96966 13.2146C5.82901 13.0739 5.74999 12.8831 5.74999 12.6842C5.74999 12.4853 5.82901 12.2946 5.96966 12.1539C6.11031 12.0133 6.30108 11.9342 6.49999 11.9342L16.19 11.9342L13.47 9.21424Z" fill="white"/>
</svg>
