<svg width="1512" height="162" viewBox="0 0 1512 162" fill="none" xmlns="http://www.w3.org/2000/svg">
<path d="M1512 147.522C1371.05 46.2423 1215.13 1.3154 1013.55 1.31538C811.962 1.31536 744.242 1.31535 494.625 1.31533C245.009 1.31531 97.2468 73.5096 -1.62721e-05 147.521" stroke="white" stroke-width="0.789084"/>
<path d="M1512 147.522C1371.05 46.2423 1215.13 1.3154 1013.55 1.31538C811.962 1.31536 744.242 1.31535 494.625 1.31533C245.009 1.31531 97.2468 73.5096 -1.62721e-05 147.521" stroke="url(#paint0_linear_1_532)" stroke-width="0.789084"/>
<path d="M1512 154.645C1371.05 53.3653 1215.13 8.43844 1013.55 8.43842C811.962 8.43841 744.242 8.4384 494.625 8.43838C245.009 8.43836 97.2468 80.6326 -1.62721e-05 154.645" stroke="white" stroke-width="0.789084"/>
<path d="M1512 154.645C1371.05 53.3653 1215.13 8.43844 1013.55 8.43842C811.962 8.43841 744.242 8.4384 494.625 8.43838C245.009 8.43836 97.2468 80.6326 -1.62721e-05 154.645" stroke="url(#paint1_linear_1_532)" stroke-width="0.789084"/>
<path d="M1512 161.947C1371.05 60.6671 1215.13 15.7402 1013.55 15.7402C811.962 15.7402 744.242 15.7402 494.625 15.7401C245.009 15.7401 97.2468 87.9344 -1.62721e-05 161.946" stroke="url(#paint2_linear_1_532)" stroke-opacity="0.5" stroke-width="0.789084"/>
<defs>
<linearGradient id="paint0_linear_1_532" x1="1468.65" y1="146.074" x2="1467.84" y2="2.46702" gradientUnits="userSpaceOnUse">
<stop stop-color="white" stop-opacity="0.02"/>
<stop offset="0.2" stop-color="#7E5DB4"/>
<stop offset="0.409914" stop-color="#CFB8F4"/>
<stop offset="0.715" stop-color="#080B18"/>
<stop offset="1" stop-color="#230850"/>
</linearGradient>
<linearGradient id="paint1_linear_1_532" x1="756" y1="154.645" x2="756" y2="8.4384" gradientUnits="userSpaceOnUse">
<stop stop-color="#E9ECF2" stop-opacity="0.2"/>
<stop offset="0.15" stop-color="#5921D0"/>
<stop offset="0.5" stop-color="#D9ACFF"/>
<stop offset="0.75" stop-color="#0C162C"/>
<stop offset="1" stop-color="#AF50FF"/>
</linearGradient>
<linearGradient id="paint2_linear_1_532" x1="756" y1="161.946" x2="756" y2="15.7402" gradientUnits="userSpaceOnUse">
<stop stop-color="white" stop-opacity="0.16"/>
<stop offset="0.223975" stop-color="white" stop-opacity="0.48"/>
<stop offset="0.398136" stop-color="#6209F4"/>
<stop offset="0.825" stop-color="#8B6AC1"/>
<stop offset="1" stop-color="#613D9D"/>
</linearGradient>
</defs>
</svg>
