<svg width="185" height="36" viewBox="0 0 185 36" fill="none" xmlns="http://www.w3.org/2000/svg">
<g clip-path="url(#clip0_1_74)">
<path d="M44.7207 19.3846C44.7207 23.8495 47.4994 26.8074 51.7518 26.8074C55.4098 26.8074 58.1315 24.561 58.5561 21.2902H55.0691C54.8982 22.0221 54.468 22.6673 53.8581 23.1064C53.2483 23.5455 52.5 23.7488 51.7518 23.6786C49.5407 23.6786 48.1798 22.0287 48.1798 19.3816C48.1798 16.7344 49.6546 15.0586 51.8657 15.0586C52.6026 15.002 53.3348 15.2163 53.9248 15.6614C54.5148 16.1065 54.922 16.7517 55.0701 17.4759H58.5292C58.1605 14.0913 55.5526 11.9587 51.7248 11.9587C47.5843 11.9627 44.7207 15.0336 44.7207 19.3846Z" fill="white"/>
<path d="M60.3097 19.3846C60.2914 20.8691 60.7149 22.3256 61.5264 23.5688C62.3378 24.8121 63.5005 25.786 64.8667 26.3667C66.2329 26.9475 67.7409 27.1089 69.199 26.8304C70.6571 26.5519 71.9995 25.8461 73.0556 24.8027C74.1117 23.7593 74.8337 22.4254 75.13 20.9706C75.4262 19.5158 75.2833 18.0058 74.7194 16.6324C74.1555 15.259 73.196 14.0843 71.9629 13.2576C70.7298 12.431 69.2789 11.9896 67.7944 11.9897C66.8064 11.9414 65.8192 12.099 64.8954 12.4523C63.9715 12.8056 63.1311 13.3471 62.4274 14.0423C61.7237 14.7375 61.1721 15.5714 60.8076 16.491C60.443 17.4106 60.2735 18.396 60.3097 19.3846ZM63.7688 19.3846C63.8198 18.5993 64.0993 17.846 64.5729 17.2176C65.0465 16.5892 65.6935 16.1129 66.4343 15.8476C67.175 15.5822 67.9772 15.5392 68.7421 15.724C69.5069 15.9087 70.2011 16.3131 70.7391 16.8874C71.2771 17.4616 71.6354 18.1807 71.77 18.956C71.9046 19.7314 71.8096 20.5292 71.4967 21.2512C71.1838 21.9733 70.6665 22.588 70.0087 23.0198C69.3509 23.4516 68.5812 23.6817 67.7944 23.6816C67.2394 23.6924 66.6884 23.5864 66.177 23.3706C65.6655 23.1548 65.2051 22.834 64.8256 22.4289C64.4461 22.0238 64.1559 21.5435 63.9738 21.019C63.7918 20.4946 63.7219 19.9377 63.7688 19.3846Z" fill="white"/>
<path d="M83.7776 26.8073C84.7351 26.8632 85.6894 26.6538 86.5355 26.2023C87.3817 25.7508 88.0869 25.0746 88.5736 24.2481L88.8004 26.4376H91.9758V5.2793H88.5446V14.1811C88.0303 13.4586 87.3428 12.8768 86.5451 12.4892C85.7475 12.1016 84.8653 11.9205 83.9795 11.9626C79.755 11.9626 77.2031 15.0905 77.2031 19.4704C77.2001 23.8214 79.723 26.8073 83.7776 26.8073ZM84.543 23.6225C82.133 23.6225 80.6582 21.8597 80.6582 19.3565C80.6582 16.8532 82.133 15.0595 84.543 15.0595C86.953 15.0595 88.5127 16.8223 88.5127 19.3565C88.5127 21.8907 86.953 23.6225 84.543 23.6225Z" fill="white"/>
<path d="M101.841 26.8073C105.499 26.8073 108.05 24.9586 108.645 21.8877H105.441C105.041 23.2238 103.796 23.9633 101.897 23.9633C99.5989 23.9633 98.3 22.7122 98.0412 20.2379L108.588 20.2099V19.1576C108.588 14.7777 105.924 11.9626 101.727 11.9626C97.6156 11.9626 94.752 15.0055 94.752 19.4135C94.753 23.7644 97.6735 26.8073 101.841 26.8073ZM101.756 14.8057C102.197 14.764 102.642 14.8169 103.061 14.9611C103.48 15.1052 103.863 15.3371 104.185 15.6414C104.508 15.9456 104.761 16.3152 104.929 16.7253C105.096 17.1354 105.175 17.5766 105.158 18.0194H98.1271C98.1513 17.569 98.2647 17.1279 98.4607 16.7216C98.6568 16.3154 98.9317 15.9523 99.2694 15.6532C99.607 15.3542 100.001 15.1253 100.428 14.9798C100.855 14.8343 101.306 14.7751 101.756 14.8057Z" fill="white"/>
<path d="M126.838 22.4842V19.2994H124.316V5.64893H119.75L110.365 19.2994V22.4842H120.884V26.4374H124.316V22.4842H126.838ZM114.222 19.2994L120.884 9.57319V19.2994H114.222Z" fill="white"/>
<path d="M138.477 12.3324C137.978 12.2015 137.463 12.1343 136.947 12.1326C136.151 12.0881 135.362 12.2876 134.683 12.7045C134.005 13.1213 133.47 13.7356 133.15 14.4649L132.95 12.4174H129.69V26.4376H133.149V19.6124C133.149 16.8823 134.708 15.5452 137.203 15.5452H138.479L138.477 12.3324Z" fill="white"/>
<path d="M146.614 26.8073C150.272 26.8073 152.823 24.9586 153.419 21.8877H150.214C149.815 23.2238 148.57 23.9633 146.67 23.9633C144.372 23.9633 143.073 22.7122 142.815 20.2379L153.362 20.2099V19.1576C153.362 14.7777 150.697 11.9626 146.501 11.9626C142.389 11.9626 139.525 15.0055 139.525 19.4135C139.526 23.7644 142.45 26.8073 146.614 26.8073ZM146.53 14.8057C146.971 14.764 147.416 14.8169 147.834 14.9611C148.253 15.1052 148.637 15.3371 148.959 15.6414C149.281 15.9456 149.534 16.3152 149.702 16.7253C149.87 17.1354 149.948 17.5766 149.932 18.0194H142.901C142.925 17.569 143.038 17.1279 143.234 16.7216C143.43 16.3154 143.705 15.9523 144.043 15.6532C144.38 15.3542 144.774 15.1253 145.201 14.9798C145.628 14.8343 146.08 14.7751 146.53 14.8057Z" fill="white"/>
<path d="M159.588 26.4375V18.8728C159.588 16.5974 160.892 15.1184 163.019 15.1184C164.805 15.1184 165.968 16.2556 165.968 18.616V26.4365H169.427V17.7926C169.427 14.1521 167.613 11.9626 164.097 11.9626C163.221 11.9255 162.35 12.1123 161.566 12.5054C160.782 12.8984 160.111 13.4848 159.617 14.2091L159.328 12.3843H156.131V26.4375H159.588Z" fill="white"/>
<path d="M176.993 26.8073C179.176 26.8073 181.077 25.808 181.671 24.362L181.927 26.4376H184.96V17.9055C184.96 14.0082 182.635 11.9617 178.866 11.9617C175.069 11.9617 172.571 13.9523 172.571 16.9952H175.519C175.519 15.5162 176.654 14.6628 178.695 14.6628C180.452 14.6628 181.592 15.4303 181.592 17.3359V17.6487L177.396 17.9615C174.078 18.2173 172.207 19.8382 172.207 22.4264C172.202 25.0755 174.018 26.8073 176.993 26.8073ZM178.128 24.1911C176.567 24.1911 175.718 23.5656 175.718 22.2855C175.718 21.1483 176.54 20.4368 178.694 20.2379L181.614 20.0101V20.7495C181.65 21.2146 181.584 21.6819 181.421 22.1189C181.258 22.5559 181.002 22.952 180.67 23.2797C180.338 23.6073 179.939 23.8586 179.5 24.0161C179.061 24.1735 178.593 24.2332 178.128 24.1911Z" fill="white"/>
<path d="M36.5496 21.434L34.4813 11.6728C34.463 11.5861 34.4369 11.5011 34.4034 11.419C34.2334 10.7259 33.7958 10.1283 33.1864 9.75716C32.6958 9.38941 32.487 9.24951 32.487 9.24951C32.0059 10.4127 31.435 11.5367 30.7794 12.6112C27.1904 15.4712 21.1774 19.9271 19.7077 20.7315L19.6807 20.7455C19.1951 21.0368 18.6471 21.2081 18.082 21.2452V35.9349C19.3359 35.9027 20.561 35.5519 21.6421 34.9156C23.2657 34.0223 27.5831 30.5866 32.6439 26.5145L34.6282 24.9156C35.9471 23.8633 36.5796 22.8171 36.5656 21.7178C36.5692 21.6229 36.5638 21.5279 36.5496 21.434Z" fill="#4D22C7"/>
<path d="M16.7866 20.9274L5.35518 12.5193C5.25983 12.4404 5.17489 12.3497 5.10239 12.2494C5.09226 11.9734 5.0088 11.7051 4.86058 11.472C4.71237 11.2389 4.50476 11.0496 4.2591 10.9234L4.33504 9.24854C4.33504 9.24854 4.09624 9.40543 3.55169 9.7342C3.1125 9.95307 2.73804 10.2828 2.46537 10.6908C2.19269 11.0989 2.03124 11.571 1.99699 12.0606L1.73221 13.3827L0.0696023 21.6919C0.0465273 21.809 0.0364745 21.9283 0.0396274 22.0476C0.100103 22.5984 0.276058 23.1303 0.556004 23.6085C0.83595 24.0866 1.21359 24.5004 1.66427 24.8227L14.7014 34.8397C15.6764 35.5689 16.8651 35.9554 18.0825 35.9389V21.3201C17.6175 21.3487 17.1576 21.2093 16.7866 20.9274Z" fill="#2C0E83"/>
<path d="M33.6795 9.87213C33.6569 9.85599 33.6352 9.83864 33.6145 9.82016C33.2049 9.4764 25.1216 3.96324 20.3426 0.707513C19.7091 0.272833 18.9558 0.0463794 18.1876 0.0596322C17.4194 0.0728851 16.6744 0.325186 16.0562 0.781462L15.4707 1.22016C14.4566 1.97763 12.5731 3.37965 10.3 4.98653C7.6952 6.83125 5.29821 8.43613 3.16599 9.70824C2.25975 10.2479 1.42345 11.7069 3.70954 13.4866C3.95034 13.6665 15.9773 22.5283 15.9773 22.5283C16.6585 23.001 17.4685 23.2531 18.2977 23.2504C19.1269 23.2478 19.9352 22.9905 20.6134 22.5133C22.1911 21.6479 27.7784 17.4928 31.3045 14.7188L32.2037 14.0112C32.2866 13.9443 32.3636 13.8803 32.4355 13.8114C33.9343 12.5812 35.1972 10.9134 33.6795 9.87213Z" fill="#7549FF"/>
</g>
<defs>
<clipPath id="clip0_1_74">
<rect width="185" height="35.88" fill="white" transform="translate(0 0.0600586)"/>
</clipPath>
</defs>
</svg>
