<svg width="438" height="206" viewBox="0 0 438 206" fill="none" xmlns="http://www.w3.org/2000/svg">
<rect width="438" height="206" rx="24" fill="#10131F"/>
<path d="M36.4883 45.0117V43.4492H47.4062V45.0117H42.8359V58H41.0781V45.0117H36.4883ZM50.6289 51.4375V58H48.9688V43.4492H50.6289V48.8008H50.7852C51.0391 48.2344 51.4199 47.7852 51.9277 47.4531C52.4421 47.1146 53.1289 46.9453 53.9883 46.9453C54.7305 46.9453 55.3815 47.0951 55.9414 47.3945C56.5013 47.6875 56.9375 48.14 57.25 48.752C57.5625 49.3574 57.7188 50.1289 57.7188 51.0664V58H56.0391V51.1836C56.0391 50.3112 55.8145 49.6374 55.3652 49.1621C54.916 48.6868 54.2943 48.4492 53.5 48.4492C52.9466 48.4492 52.4551 48.5664 52.0254 48.8008C51.5957 49.0352 51.2539 49.3737 51 49.8164C50.7526 50.2591 50.6289 50.7995 50.6289 51.4375ZM59.8672 58V47.082H61.5273V58H59.8672ZM60.707 45.2656C60.3815 45.2656 60.1016 45.1549 59.8672 44.9336C59.6328 44.7122 59.5156 44.4453 59.5156 44.1328C59.5156 43.8203 59.6328 43.5534 59.8672 43.332C60.1016 43.1107 60.3815 43 60.707 43C61.0326 43 61.3125 43.1107 61.5469 43.332C61.7812 43.5534 61.8984 43.8203 61.8984 44.1328C61.8984 44.4453 61.7812 44.7122 61.5469 44.9336C61.3125 45.1549 61.0326 45.2656 60.707 45.2656ZM71.3906 49.543L69.8867 49.9531C69.7435 49.582 69.4961 49.2305 69.1445 48.8984C68.7995 48.5599 68.2591 48.3906 67.5234 48.3906C66.8594 48.3906 66.306 48.5469 65.8633 48.8594C65.4206 49.1654 65.1992 49.5495 65.1992 50.0117C65.1992 50.4284 65.349 50.7604 65.6484 51.0078C65.9544 51.2552 66.4297 51.457 67.0742 51.6133L68.6953 52.0039C69.6654 52.2383 70.388 52.5996 70.8633 53.0879C71.3451 53.5762 71.5859 54.1979 71.5859 54.9531C71.5859 55.5781 71.4069 56.138 71.0488 56.6328C70.6908 57.1276 70.1927 57.5182 69.5547 57.8047C68.9167 58.0911 68.1745 58.2344 67.3281 58.2344C66.2148 58.2344 65.2936 57.9902 64.5645 57.502C63.8418 57.0137 63.3828 56.3073 63.1875 55.3828L64.7695 54.9922C64.9193 55.5781 65.2057 56.0176 65.6289 56.3105C66.0586 56.6035 66.6185 56.75 67.3086 56.75C68.0833 56.75 68.7018 56.584 69.1641 56.252C69.6328 55.9134 69.8672 55.513 69.8672 55.0508C69.8672 54.2826 69.3268 53.7682 68.2461 53.5078L66.4297 53.0781C65.4271 52.8372 64.6914 52.4694 64.2227 51.9746C63.7539 51.4798 63.5195 50.8581 63.5195 50.1094C63.5195 49.4909 63.6921 48.944 64.0371 48.4688C64.3887 47.9935 64.8672 47.6224 65.4727 47.3555C66.0781 47.082 66.7617 46.9453 67.5234 46.9453C68.6107 46.9453 69.4603 47.1862 70.0723 47.668C70.6908 48.1432 71.1302 48.7682 71.3906 49.543ZM80.3359 58L77.0156 47.082H78.7734L81.1367 55.4414H81.2539L83.5781 47.082H85.375L87.6602 55.4219H87.7773L90.1406 47.082H91.8984L88.5781 58H86.9375L84.5352 49.6211H84.3789L81.9766 58H80.3359ZM97.3867 58.2344C96.3385 58.2344 95.4303 58 94.6621 57.5312C93.9004 57.0625 93.3145 56.4082 92.9043 55.5684C92.4941 54.722 92.2891 53.7422 92.2891 52.6289C92.2891 51.5091 92.4909 50.5228 92.8945 49.6699C93.2982 48.8171 93.8646 48.1497 94.5938 47.668C95.3294 47.1862 96.1888 46.9453 97.1719 46.9453C97.7383 46.9453 98.3014 47.0397 98.8613 47.2285C99.4212 47.4173 99.929 47.7233 100.385 48.1465C100.847 48.5697 101.215 49.1296 101.488 49.8262C101.762 50.5228 101.898 51.3789 101.898 52.3945V53.1172H93.4805V51.6719H100.99L100.219 52.2188C100.219 51.4896 100.105 50.8418 99.877 50.2754C99.6491 49.709 99.3073 49.263 98.8516 48.9375C98.4023 48.612 97.8424 48.4492 97.1719 48.4492C96.5013 48.4492 95.9251 48.6152 95.4434 48.9473C94.9681 49.2728 94.6035 49.6992 94.3496 50.2266C94.0957 50.7539 93.9688 51.3203 93.9688 51.9258V52.8828C93.9688 53.7096 94.112 54.4095 94.3984 54.9824C94.6849 55.5553 95.0853 55.9915 95.5996 56.291C96.1139 56.584 96.7096 56.7305 97.3867 56.7305C97.8229 56.7305 98.2201 56.6686 98.5781 56.5449C98.9362 56.4147 99.2454 56.2227 99.5059 55.9688C99.7663 55.7083 99.9648 55.3893 100.102 55.0117L101.723 55.4805C101.553 56.0273 101.267 56.5091 100.863 56.9258C100.466 57.3359 99.9714 57.6582 99.3789 57.8926C98.7865 58.1204 98.1224 58.2344 97.3867 58.2344ZM108.461 58.2344C107.764 58.2344 107.204 58.1172 106.781 57.8828C106.358 57.6419 106.033 57.3717 105.805 57.0723C105.577 56.7663 105.401 56.5156 105.277 56.3203H105.082V58H103.48V43.4492H105.141V48.8203H105.277C105.401 48.6315 105.574 48.3906 105.795 48.0977C106.016 47.7982 106.335 47.5312 106.752 47.2969C107.169 47.0625 107.732 46.9453 108.441 46.9453C109.359 46.9453 110.167 47.1764 110.863 47.6387C111.56 48.0944 112.104 48.7454 112.494 49.5918C112.891 50.4316 113.09 51.4245 113.09 52.5703C113.09 53.7227 112.895 54.7253 112.504 55.5781C112.113 56.4245 111.57 57.0788 110.873 57.541C110.176 58.0033 109.372 58.2344 108.461 58.2344ZM108.246 56.7305C108.943 56.7305 109.525 56.5449 109.994 56.1738C110.463 55.7962 110.814 55.2917 111.049 54.6602C111.29 54.0286 111.41 53.3255 111.41 52.5508C111.41 51.7826 111.293 51.0892 111.059 50.4707C110.824 49.8522 110.473 49.3607 110.004 48.9961C109.542 48.6315 108.956 48.4492 108.246 48.4492C107.562 48.4492 106.99 48.6217 106.527 48.9668C106.065 49.3053 105.714 49.7839 105.473 50.4023C105.238 51.0143 105.121 51.7305 105.121 52.5508C105.121 53.3711 105.242 54.097 105.482 54.7285C105.723 55.3535 106.075 55.8451 106.537 56.2031C107.006 56.5547 107.576 56.7305 108.246 56.7305ZM122.426 49.543L120.922 49.9531C120.779 49.582 120.531 49.2305 120.18 48.8984C119.835 48.5599 119.294 48.3906 118.559 48.3906C117.895 48.3906 117.341 48.5469 116.898 48.8594C116.456 49.1654 116.234 49.5495 116.234 50.0117C116.234 50.4284 116.384 50.7604 116.684 51.0078C116.99 51.2552 117.465 51.457 118.109 51.6133L119.73 52.0039C120.701 52.2383 121.423 52.5996 121.898 53.0879C122.38 53.5762 122.621 54.1979 122.621 54.9531C122.621 55.5781 122.442 56.138 122.084 56.6328C121.726 57.1276 121.228 57.5182 120.59 57.8047C119.952 58.0911 119.21 58.2344 118.363 58.2344C117.25 58.2344 116.329 57.9902 115.6 57.502C114.877 57.0137 114.418 56.3073 114.223 55.3828L115.805 54.9922C115.954 55.5781 116.241 56.0176 116.664 56.3105C117.094 56.6035 117.654 56.75 118.344 56.75C119.118 56.75 119.737 56.584 120.199 56.252C120.668 55.9134 120.902 55.513 120.902 55.0508C120.902 54.2826 120.362 53.7682 119.281 53.5078L117.465 53.0781C116.462 52.8372 115.727 52.4694 115.258 51.9746C114.789 51.4798 114.555 50.8581 114.555 50.1094C114.555 49.4909 114.727 48.944 115.072 48.4688C115.424 47.9935 115.902 47.6224 116.508 47.3555C117.113 47.082 117.797 46.9453 118.559 46.9453C119.646 46.9453 120.495 47.1862 121.107 47.668C121.726 48.1432 122.165 48.7682 122.426 49.543ZM124.223 58V47.082H125.883V58H124.223ZM125.062 45.2656C124.737 45.2656 124.457 45.1549 124.223 44.9336C123.988 44.7122 123.871 44.4453 123.871 44.1328C123.871 43.8203 123.988 43.5534 124.223 43.332C124.457 43.1107 124.737 43 125.062 43C125.388 43 125.668 43.1107 125.902 43.332C126.137 43.5534 126.254 43.8203 126.254 44.1328C126.254 44.4453 126.137 44.7122 125.902 44.9336C125.668 45.1549 125.388 45.2656 125.062 45.2656ZM132.758 47.082V48.5078H127.113V47.082H132.758ZM128.754 44.4844H130.414V54.875C130.414 55.4414 130.531 55.8581 130.766 56.125C131 56.3854 131.371 56.5156 131.879 56.5156C131.99 56.5156 132.104 56.5091 132.221 56.4961C132.344 56.4831 132.478 56.4635 132.621 56.4375L132.973 57.9414C132.816 58 132.624 58.0456 132.396 58.0781C132.175 58.1172 131.951 58.1367 131.723 58.1367C130.844 58.1367 130.128 57.8763 129.574 57.3555C129.027 56.8346 128.754 56.1576 128.754 55.3242V44.4844ZM138.812 58.2344C137.764 58.2344 136.856 58 136.088 57.5312C135.326 57.0625 134.74 56.4082 134.33 55.5684C133.92 54.722 133.715 53.7422 133.715 52.6289C133.715 51.5091 133.917 50.5228 134.32 49.6699C134.724 48.8171 135.29 48.1497 136.02 47.668C136.755 47.1862 137.615 46.9453 138.598 46.9453C139.164 46.9453 139.727 47.0397 140.287 47.2285C140.847 47.4173 141.355 47.7233 141.811 48.1465C142.273 48.5697 142.641 49.1296 142.914 49.8262C143.188 50.5228 143.324 51.3789 143.324 52.3945V53.1172H134.906V51.6719H142.416L141.645 52.2188C141.645 51.4896 141.531 50.8418 141.303 50.2754C141.075 49.709 140.733 49.263 140.277 48.9375C139.828 48.612 139.268 48.4492 138.598 48.4492C137.927 48.4492 137.351 48.6152 136.869 48.9473C136.394 49.2728 136.029 49.6992 135.775 50.2266C135.521 50.7539 135.395 51.3203 135.395 51.9258V52.8828C135.395 53.7096 135.538 54.4095 135.824 54.9824C136.111 55.5553 136.511 55.9915 137.025 56.291C137.54 56.584 138.135 56.7305 138.812 56.7305C139.249 56.7305 139.646 56.6686 140.004 56.5449C140.362 56.4147 140.671 56.2227 140.932 55.9688C141.192 55.7083 141.391 55.3893 141.527 55.0117L143.148 55.4805C142.979 56.0273 142.693 56.5091 142.289 56.9258C141.892 57.3359 141.397 57.6582 140.805 57.8926C140.212 58.1204 139.548 58.2344 138.812 58.2344ZM156.469 53.5469V47.082H158.129V58H156.469V56.1445H156.352C156.091 56.6979 155.691 57.1699 155.15 57.5605C154.617 57.9512 153.936 58.1432 153.109 58.1367C152.426 58.1367 151.82 57.9902 151.293 57.6973C150.766 57.3978 150.349 56.9421 150.043 56.3301C149.743 55.7181 149.594 54.9466 149.594 54.0156V47.082H151.254V53.918C151.254 54.7057 151.479 55.3372 151.928 55.8125C152.383 56.2878 152.96 56.5221 153.656 56.5156C154.073 56.5156 154.496 56.4115 154.926 56.2031C155.362 55.9883 155.727 55.6628 156.02 55.2266C156.319 54.7839 156.469 54.224 156.469 53.5469ZM167.992 49.543L166.488 49.9531C166.345 49.582 166.098 49.2305 165.746 48.8984C165.401 48.5599 164.861 48.3906 164.125 48.3906C163.461 48.3906 162.908 48.5469 162.465 48.8594C162.022 49.1654 161.801 49.5495 161.801 50.0117C161.801 50.4284 161.951 50.7604 162.25 51.0078C162.556 51.2552 163.031 51.457 163.676 51.6133L165.297 52.0039C166.267 52.2383 166.99 52.5996 167.465 53.0879C167.947 53.5762 168.188 54.1979 168.188 54.9531C168.188 55.5781 168.008 56.138 167.65 56.6328C167.292 57.1276 166.794 57.5182 166.156 57.8047C165.518 58.0911 164.776 58.2344 163.93 58.2344C162.816 58.2344 161.895 57.9902 161.166 57.502C160.443 57.0137 159.984 56.3073 159.789 55.3828L161.371 54.9922C161.521 55.5781 161.807 56.0176 162.23 56.3105C162.66 56.6035 163.22 56.75 163.91 56.75C164.685 56.75 165.303 56.584 165.766 56.252C166.234 55.9134 166.469 55.513 166.469 55.0508C166.469 54.2826 165.928 53.7682 164.848 53.5078L163.031 53.0781C162.029 52.8372 161.293 52.4694 160.824 51.9746C160.355 51.4798 160.121 50.8581 160.121 50.1094C160.121 49.4909 160.294 48.944 160.639 48.4688C160.99 47.9935 161.469 47.6224 162.074 47.3555C162.68 47.082 163.363 46.9453 164.125 46.9453C165.212 46.9453 166.062 47.1862 166.674 47.668C167.292 48.1432 167.732 48.7682 167.992 49.543ZM174.359 58.2344C173.311 58.2344 172.403 58 171.635 57.5312C170.873 57.0625 170.287 56.4082 169.877 55.5684C169.467 54.722 169.262 53.7422 169.262 52.6289C169.262 51.5091 169.464 50.5228 169.867 49.6699C170.271 48.8171 170.837 48.1497 171.566 47.668C172.302 47.1862 173.161 46.9453 174.145 46.9453C174.711 46.9453 175.274 47.0397 175.834 47.2285C176.394 47.4173 176.902 47.7233 177.357 48.1465C177.82 48.5697 178.188 49.1296 178.461 49.8262C178.734 50.5228 178.871 51.3789 178.871 52.3945V53.1172H170.453V51.6719H177.963L177.191 52.2188C177.191 51.4896 177.077 50.8418 176.85 50.2754C176.622 49.709 176.28 49.263 175.824 48.9375C175.375 48.612 174.815 48.4492 174.145 48.4492C173.474 48.4492 172.898 48.6152 172.416 48.9473C171.941 49.2728 171.576 49.6992 171.322 50.2266C171.068 50.7539 170.941 51.3203 170.941 51.9258V52.8828C170.941 53.7096 171.085 54.4095 171.371 54.9824C171.658 55.5553 172.058 55.9915 172.572 56.291C173.087 56.584 173.682 56.7305 174.359 56.7305C174.796 56.7305 175.193 56.6686 175.551 56.5449C175.909 56.4147 176.218 56.2227 176.479 55.9688C176.739 55.7083 176.938 55.3893 177.074 55.0117L178.695 55.4805C178.526 56.0273 178.24 56.5091 177.836 56.9258C177.439 57.3359 176.944 57.6582 176.352 57.8926C175.759 58.1204 175.095 58.2344 174.359 58.2344ZM188.168 49.543L186.664 49.9531C186.521 49.582 186.273 49.2305 185.922 48.8984C185.577 48.5599 185.036 48.3906 184.301 48.3906C183.637 48.3906 183.083 48.5469 182.641 48.8594C182.198 49.1654 181.977 49.5495 181.977 50.0117C181.977 50.4284 182.126 50.7604 182.426 51.0078C182.732 51.2552 183.207 51.457 183.852 51.6133L185.473 52.0039C186.443 52.2383 187.165 52.5996 187.641 53.0879C188.122 53.5762 188.363 54.1979 188.363 54.9531C188.363 55.5781 188.184 56.138 187.826 56.6328C187.468 57.1276 186.97 57.5182 186.332 57.8047C185.694 58.0911 184.952 58.2344 184.105 58.2344C182.992 58.2344 182.071 57.9902 181.342 57.502C180.619 57.0137 180.16 56.3073 179.965 55.3828L181.547 54.9922C181.697 55.5781 181.983 56.0176 182.406 56.3105C182.836 56.6035 183.396 56.75 184.086 56.75C184.861 56.75 185.479 56.584 185.941 56.252C186.41 55.9134 186.645 55.513 186.645 55.0508C186.645 54.2826 186.104 53.7682 185.023 53.5078L183.207 53.0781C182.204 52.8372 181.469 52.4694 181 51.9746C180.531 51.4798 180.297 50.8581 180.297 50.1094C180.297 49.4909 180.469 48.944 180.814 48.4688C181.166 47.9935 181.645 47.6224 182.25 47.3555C182.855 47.082 183.539 46.9453 184.301 46.9453C185.388 46.9453 186.238 47.1862 186.85 47.668C187.468 48.1432 187.908 48.7682 188.168 49.543ZM199.066 58.2344C198.051 58.2344 197.172 57.9935 196.43 57.5117C195.694 57.0234 195.124 56.3561 194.721 55.5098C194.324 54.6634 194.125 53.6966 194.125 52.6094C194.125 51.4961 194.33 50.5163 194.74 49.6699C195.15 48.8171 195.723 48.1497 196.459 47.668C197.201 47.1862 198.064 46.9453 199.047 46.9453C199.815 46.9453 200.505 47.0885 201.117 47.375C201.736 47.6549 202.24 48.0521 202.631 48.5664C203.028 49.0807 203.272 49.6797 203.363 50.3633H201.684C201.599 50.0312 201.446 49.7188 201.225 49.4258C201.003 49.1328 200.71 48.8984 200.346 48.7227C199.988 48.5404 199.561 48.4492 199.066 48.4492C198.415 48.4492 197.846 48.6185 197.357 48.957C196.869 49.2956 196.488 49.7741 196.215 50.3926C195.941 51.0046 195.805 51.724 195.805 52.5508C195.805 53.3906 195.938 54.1263 196.205 54.7578C196.472 55.3828 196.85 55.8678 197.338 56.2129C197.833 56.5579 198.409 56.7305 199.066 56.7305C199.724 56.7305 200.287 56.5612 200.756 56.2227C201.225 55.8776 201.534 55.4089 201.684 54.8164H203.363C203.272 55.4609 203.038 56.0404 202.66 56.5547C202.289 57.069 201.798 57.4792 201.186 57.7852C200.58 58.0846 199.874 58.2344 199.066 58.2344ZM209.359 58.2344C208.376 58.2344 207.514 58 206.771 57.5312C206.029 57.0625 205.45 56.4049 205.033 55.5586C204.623 54.7122 204.418 53.7292 204.418 52.6094C204.418 51.4701 204.623 50.4772 205.033 49.6309C205.45 48.778 206.029 48.1172 206.771 47.6484C207.514 47.1797 208.376 46.9453 209.359 46.9453C210.349 46.9453 211.215 47.1797 211.957 47.6484C212.699 48.1172 213.279 48.778 213.695 49.6309C214.112 50.4772 214.32 51.4701 214.32 52.6094C214.32 53.7292 214.112 54.7122 213.695 55.5586C213.279 56.4049 212.699 57.0625 211.957 57.5312C211.215 58 210.349 58.2344 209.359 58.2344ZM209.359 56.7305C210.115 56.7305 210.733 56.5384 211.215 56.1543C211.697 55.7702 212.055 55.2656 212.289 54.6406C212.523 54.0091 212.641 53.332 212.641 52.6094C212.641 51.8737 212.523 51.1901 212.289 50.5586C212.055 49.9271 211.697 49.4193 211.215 49.0352C210.733 48.6445 210.115 48.4492 209.359 48.4492C208.617 48.4492 208.005 48.6445 207.523 49.0352C207.042 49.4193 206.684 49.9271 206.449 50.5586C206.215 51.1901 206.098 51.8737 206.098 52.6094C206.098 53.332 206.215 54.0091 206.449 54.6406C206.684 55.2656 207.042 55.7702 207.523 56.1543C208.005 56.5384 208.617 56.7305 209.359 56.7305ZM220.355 58.2344C219.372 58.2344 218.51 58 217.768 57.5312C217.025 57.0625 216.446 56.4049 216.029 55.5586C215.619 54.7122 215.414 53.7292 215.414 52.6094C215.414 51.4701 215.619 50.4772 216.029 49.6309C216.446 48.778 217.025 48.1172 217.768 47.6484C218.51 47.1797 219.372 46.9453 220.355 46.9453C221.345 46.9453 222.211 47.1797 222.953 47.6484C223.695 48.1172 224.275 48.778 224.691 49.6309C225.108 50.4772 225.316 51.4701 225.316 52.6094C225.316 53.7292 225.108 54.7122 224.691 55.5586C224.275 56.4049 223.695 57.0625 222.953 57.5312C222.211 58 221.345 58.2344 220.355 58.2344ZM220.355 56.7305C221.111 56.7305 221.729 56.5384 222.211 56.1543C222.693 55.7702 223.051 55.2656 223.285 54.6406C223.52 54.0091 223.637 53.332 223.637 52.6094C223.637 51.8737 223.52 51.1901 223.285 50.5586C223.051 49.9271 222.693 49.4193 222.211 49.0352C221.729 48.6445 221.111 48.4492 220.355 48.4492C219.613 48.4492 219.001 48.6445 218.52 49.0352C218.038 49.4193 217.68 49.9271 217.445 50.5586C217.211 51.1901 217.094 51.8737 217.094 52.6094C217.094 53.332 217.211 54.0091 217.445 54.6406C217.68 55.2656 218.038 55.7702 218.52 56.1543C219.001 56.5384 219.613 56.7305 220.355 56.7305ZM228.5 54.0156L228.461 51.9453H228.812L233.578 47.082H235.648L230.57 52.2383H230.414L228.5 54.0156ZM226.938 58V43.4492H228.598V58H226.938ZM233.852 58L229.594 52.6094L230.785 51.4375L236 58H233.852ZM236.879 58V47.082H238.539V58H236.879ZM237.719 45.2656C237.393 45.2656 237.113 45.1549 236.879 44.9336C236.645 44.7122 236.527 44.4453 236.527 44.1328C236.527 43.8203 236.645 43.5534 236.879 43.332C237.113 43.1107 237.393 43 237.719 43C238.044 43 238.324 43.1107 238.559 43.332C238.793 43.5534 238.91 43.8203 238.91 44.1328C238.91 44.4453 238.793 44.7122 238.559 44.9336C238.324 45.1549 238.044 45.2656 237.719 45.2656ZM245.258 58.2344C244.21 58.2344 243.301 58 242.533 57.5312C241.771 57.0625 241.186 56.4082 240.775 55.5684C240.365 54.722 240.16 53.7422 240.16 52.6289C240.16 51.5091 240.362 50.5228 240.766 49.6699C241.169 48.8171 241.736 48.1497 242.465 47.668C243.201 47.1862 244.06 46.9453 245.043 46.9453C245.609 46.9453 246.173 47.0397 246.732 47.2285C247.292 47.4173 247.8 47.7233 248.256 48.1465C248.718 48.5697 249.086 49.1296 249.359 49.8262C249.633 50.5228 249.77 51.3789 249.77 52.3945V53.1172H241.352V51.6719H248.861L248.09 52.2188C248.09 51.4896 247.976 50.8418 247.748 50.2754C247.52 49.709 247.178 49.263 246.723 48.9375C246.273 48.612 245.714 48.4492 245.043 48.4492C244.372 48.4492 243.796 48.6152 243.314 48.9473C242.839 49.2728 242.475 49.6992 242.221 50.2266C241.967 50.7539 241.84 51.3203 241.84 51.9258V52.8828C241.84 53.7096 241.983 54.4095 242.27 54.9824C242.556 55.5553 242.956 55.9915 243.471 56.291C243.985 56.584 244.581 56.7305 245.258 56.7305C245.694 56.7305 246.091 56.6686 246.449 56.5449C246.807 56.4147 247.117 56.2227 247.377 55.9688C247.637 55.7083 247.836 55.3893 247.973 55.0117L249.594 55.4805C249.424 56.0273 249.138 56.5091 248.734 56.9258C248.337 57.3359 247.842 57.6582 247.25 57.8926C246.658 58.1204 245.993 58.2344 245.258 58.2344ZM259.066 49.543L257.562 49.9531C257.419 49.582 257.172 49.2305 256.82 48.8984C256.475 48.5599 255.935 48.3906 255.199 48.3906C254.535 48.3906 253.982 48.5469 253.539 48.8594C253.096 49.1654 252.875 49.5495 252.875 50.0117C252.875 50.4284 253.025 50.7604 253.324 51.0078C253.63 51.2552 254.105 51.457 254.75 51.6133L256.371 52.0039C257.341 52.2383 258.064 52.5996 258.539 53.0879C259.021 53.5762 259.262 54.1979 259.262 54.9531C259.262 55.5781 259.083 56.138 258.725 56.6328C258.367 57.1276 257.868 57.5182 257.23 57.8047C256.592 58.0911 255.85 58.2344 255.004 58.2344C253.891 58.2344 252.969 57.9902 252.24 57.502C251.518 57.0137 251.059 56.3073 250.863 55.3828L252.445 54.9922C252.595 55.5781 252.882 56.0176 253.305 56.3105C253.734 56.6035 254.294 56.75 254.984 56.75C255.759 56.75 256.378 56.584 256.84 56.252C257.309 55.9134 257.543 55.513 257.543 55.0508C257.543 54.2826 257.003 53.7682 255.922 53.5078L254.105 53.0781C253.103 52.8372 252.367 52.4694 251.898 51.9746C251.43 51.4798 251.195 50.8581 251.195 50.1094C251.195 49.4909 251.368 48.944 251.713 48.4688C252.064 47.9935 252.543 47.6224 253.148 47.3555C253.754 47.082 254.438 46.9453 255.199 46.9453C256.286 46.9453 257.136 47.1862 257.748 47.668C258.367 48.1432 258.806 48.7682 259.066 49.543ZM270.277 47.082V48.5078H264.633V47.082H270.277ZM266.273 44.4844H267.934V54.875C267.934 55.4414 268.051 55.8581 268.285 56.125C268.52 56.3854 268.891 56.5156 269.398 56.5156C269.509 56.5156 269.623 56.5091 269.74 56.4961C269.864 56.4831 269.997 56.4635 270.141 56.4375L270.492 57.9414C270.336 58 270.144 58.0456 269.916 58.0781C269.695 58.1172 269.47 58.1367 269.242 58.1367C268.363 58.1367 267.647 57.8763 267.094 57.3555C266.547 56.8346 266.273 56.1576 266.273 55.3242V44.4844ZM276.176 58.2344C275.193 58.2344 274.33 58 273.588 57.5312C272.846 57.0625 272.266 56.4049 271.85 55.5586C271.439 54.7122 271.234 53.7292 271.234 52.6094C271.234 51.4701 271.439 50.4772 271.85 49.6309C272.266 48.778 272.846 48.1172 273.588 47.6484C274.33 47.1797 275.193 46.9453 276.176 46.9453C277.165 46.9453 278.031 47.1797 278.773 47.6484C279.516 48.1172 280.095 48.778 280.512 49.6309C280.928 50.4772 281.137 51.4701 281.137 52.6094C281.137 53.7292 280.928 54.7122 280.512 55.5586C280.095 56.4049 279.516 57.0625 278.773 57.5312C278.031 58 277.165 58.2344 276.176 58.2344ZM276.176 56.7305C276.931 56.7305 277.549 56.5384 278.031 56.1543C278.513 55.7702 278.871 55.2656 279.105 54.6406C279.34 54.0091 279.457 53.332 279.457 52.6094C279.457 51.8737 279.34 51.1901 279.105 50.5586C278.871 49.9271 278.513 49.4193 278.031 49.0352C277.549 48.6445 276.931 48.4492 276.176 48.4492C275.434 48.4492 274.822 48.6445 274.34 49.0352C273.858 49.4193 273.5 49.9271 273.266 50.5586C273.031 51.1901 272.914 51.8737 272.914 52.6094C272.914 53.332 273.031 54.0091 273.266 54.6406C273.5 55.2656 273.858 55.7702 274.34 56.1543C274.822 56.5384 275.434 56.7305 276.176 56.7305ZM292.016 58.2344C290.967 58.2344 290.059 58 289.291 57.5312C288.529 57.0625 287.943 56.4082 287.533 55.5684C287.123 54.722 286.918 53.7422 286.918 52.6289C286.918 51.5091 287.12 50.5228 287.523 49.6699C287.927 48.8171 288.493 48.1497 289.223 47.668C289.958 47.1862 290.818 46.9453 291.801 46.9453C292.367 46.9453 292.93 47.0397 293.49 47.2285C294.05 47.4173 294.558 47.7233 295.014 48.1465C295.476 48.5697 295.844 49.1296 296.117 49.8262C296.391 50.5228 296.527 51.3789 296.527 52.3945V53.1172H288.109V51.6719H295.619L294.848 52.2188C294.848 51.4896 294.734 50.8418 294.506 50.2754C294.278 49.709 293.936 49.263 293.48 48.9375C293.031 48.612 292.471 48.4492 291.801 48.4492C291.13 48.4492 290.554 48.6152 290.072 48.9473C289.597 49.2728 289.232 49.6992 288.979 50.2266C288.725 50.7539 288.598 51.3203 288.598 51.9258V52.8828C288.598 53.7096 288.741 54.4095 289.027 54.9824C289.314 55.5553 289.714 55.9915 290.229 56.291C290.743 56.584 291.339 56.7305 292.016 56.7305C292.452 56.7305 292.849 56.6686 293.207 56.5449C293.565 56.4147 293.874 56.2227 294.135 55.9688C294.395 55.7083 294.594 55.3893 294.73 55.0117L296.352 55.4805C296.182 56.0273 295.896 56.5091 295.492 56.9258C295.095 57.3359 294.6 57.6582 294.008 57.8926C293.415 58.1204 292.751 58.2344 292.016 58.2344ZM299.77 51.4375V58H298.109V47.082H299.711V48.8008H299.867C300.121 48.2409 300.508 47.7917 301.029 47.4531C301.55 47.1146 302.224 46.9453 303.051 46.9453C303.786 46.9453 304.431 47.0951 304.984 47.3945C305.538 47.694 305.967 48.1497 306.273 48.7617C306.586 49.3672 306.742 50.1354 306.742 51.0664V58H305.082V51.1836C305.082 50.3307 304.857 49.6634 304.408 49.1816C303.959 48.6934 303.347 48.4492 302.572 48.4492C302.038 48.4492 301.56 48.5664 301.137 48.8008C300.714 49.0352 300.378 49.3737 300.131 49.8164C299.89 50.2591 299.77 50.7995 299.77 51.4375ZM316.605 49.543L315.102 49.9531C314.958 49.582 314.711 49.2305 314.359 48.8984C314.014 48.5599 313.474 48.3906 312.738 48.3906C312.074 48.3906 311.521 48.5469 311.078 48.8594C310.635 49.1654 310.414 49.5495 310.414 50.0117C310.414 50.4284 310.564 50.7604 310.863 51.0078C311.169 51.2552 311.645 51.457 312.289 51.6133L313.91 52.0039C314.88 52.2383 315.603 52.5996 316.078 53.0879C316.56 53.5762 316.801 54.1979 316.801 54.9531C316.801 55.5781 316.622 56.138 316.264 56.6328C315.906 57.1276 315.408 57.5182 314.77 57.8047C314.132 58.0911 313.389 58.2344 312.543 58.2344C311.43 58.2344 310.508 57.9902 309.779 57.502C309.057 57.0137 308.598 56.3073 308.402 55.3828L309.984 54.9922C310.134 55.5781 310.421 56.0176 310.844 56.3105C311.273 56.6035 311.833 56.75 312.523 56.75C313.298 56.75 313.917 56.584 314.379 56.252C314.848 55.9134 315.082 55.513 315.082 55.0508C315.082 54.2826 314.542 53.7682 313.461 53.5078L311.645 53.0781C310.642 52.8372 309.906 52.4694 309.438 51.9746C308.969 51.4798 308.734 50.8581 308.734 50.1094C308.734 49.4909 308.907 48.944 309.252 48.4688C309.604 47.9935 310.082 47.6224 310.688 47.3555C311.293 47.082 311.977 46.9453 312.738 46.9453C313.826 46.9453 314.675 47.1862 315.287 47.668C315.906 48.1432 316.345 48.7682 316.605 49.543ZM325.277 53.5469V47.082H326.938V58H325.277V56.1445H325.16C324.9 56.6979 324.499 57.1699 323.959 57.5605C323.425 57.9512 322.745 58.1432 321.918 58.1367C321.234 58.1367 320.629 57.9902 320.102 57.6973C319.574 57.3978 319.158 56.9421 318.852 56.3301C318.552 55.7181 318.402 54.9466 318.402 54.0156V47.082H320.062V53.918C320.062 54.7057 320.287 55.3372 320.736 55.8125C321.192 56.2878 321.768 56.5221 322.465 56.5156C322.882 56.5156 323.305 56.4115 323.734 56.2031C324.171 55.9883 324.535 55.6628 324.828 55.2266C325.128 54.7839 325.277 54.224 325.277 53.5469ZM329.086 58V47.082H330.688V48.7422H330.805C331.007 48.2018 331.368 47.7656 331.889 47.4336C332.416 47.0951 333.005 46.9258 333.656 46.9258C333.78 46.9258 333.933 46.929 334.115 46.9355C334.298 46.9355 334.438 46.9388 334.535 46.9453V48.6445C334.477 48.6315 334.346 48.612 334.145 48.5859C333.943 48.5599 333.728 48.5469 333.5 48.5469C332.973 48.5469 332.501 48.6576 332.084 48.8789C331.667 49.1003 331.339 49.403 331.098 49.7871C330.863 50.1712 330.746 50.6107 330.746 51.1055V58H329.086ZM339.828 58.2344C338.78 58.2344 337.872 58 337.104 57.5312C336.342 57.0625 335.756 56.4082 335.346 55.5684C334.936 54.722 334.73 53.7422 334.73 52.6289C334.73 51.5091 334.932 50.5228 335.336 49.6699C335.74 48.8171 336.306 48.1497 337.035 47.668C337.771 47.1862 338.63 46.9453 339.613 46.9453C340.18 46.9453 340.743 47.0397 341.303 47.2285C341.863 47.4173 342.37 47.7233 342.826 48.1465C343.288 48.5697 343.656 49.1296 343.93 49.8262C344.203 50.5228 344.34 51.3789 344.34 52.3945V53.1172H335.922V51.6719H343.432L342.66 52.2188C342.66 51.4896 342.546 50.8418 342.318 50.2754C342.09 49.709 341.749 49.263 341.293 48.9375C340.844 48.612 340.284 48.4492 339.613 48.4492C338.943 48.4492 338.367 48.6152 337.885 48.9473C337.41 49.2728 337.045 49.6992 336.791 50.2266C336.537 50.7539 336.41 51.3203 336.41 51.9258V52.8828C336.41 53.7096 336.553 54.4095 336.84 54.9824C337.126 55.5553 337.527 55.9915 338.041 56.291C338.555 56.584 339.151 56.7305 339.828 56.7305C340.264 56.7305 340.661 56.6686 341.02 56.5449C341.378 56.4147 341.687 56.2227 341.947 55.9688C342.208 55.7083 342.406 55.3893 342.543 55.0117L344.164 55.4805C343.995 56.0273 343.708 56.5091 343.305 56.9258C342.908 57.3359 342.413 57.6582 341.82 57.8926C341.228 58.1204 340.564 58.2344 339.828 58.2344ZM351.684 62.082C351.397 62.0885 351.143 62.069 350.922 62.0234C350.701 61.9779 350.544 61.9323 350.453 61.8867L350.883 60.4219L351.049 60.4609C351.609 60.5911 352.077 60.5618 352.455 60.373C352.839 60.1908 353.174 59.7057 353.461 58.918L353.773 58.0586L349.75 47.082H351.566L354.574 55.793H354.691L357.699 47.082H359.516L354.887 59.582C354.678 60.1484 354.421 60.6172 354.115 60.9883C353.809 61.3594 353.454 61.6328 353.051 61.8086C352.647 61.9909 352.191 62.082 351.684 62.082ZM364.828 58.2344C363.845 58.2344 362.982 58 362.24 57.5312C361.498 57.0625 360.919 56.4049 360.502 55.5586C360.092 54.7122 359.887 53.7292 359.887 52.6094C359.887 51.4701 360.092 50.4772 360.502 49.6309C360.919 48.778 361.498 48.1172 362.24 47.6484C362.982 47.1797 363.845 46.9453 364.828 46.9453C365.818 46.9453 366.684 47.1797 367.426 47.6484C368.168 48.1172 368.747 48.778 369.164 49.6309C369.581 50.4772 369.789 51.4701 369.789 52.6094C369.789 53.7292 369.581 54.7122 369.164 55.5586C368.747 56.4049 368.168 57.0625 367.426 57.5312C366.684 58 365.818 58.2344 364.828 58.2344ZM364.828 56.7305C365.583 56.7305 366.202 56.5384 366.684 56.1543C367.165 55.7702 367.523 55.2656 367.758 54.6406C367.992 54.0091 368.109 53.332 368.109 52.6094C368.109 51.8737 367.992 51.1901 367.758 50.5586C367.523 49.9271 367.165 49.4193 366.684 49.0352C366.202 48.6445 365.583 48.4492 364.828 48.4492C364.086 48.4492 363.474 48.6445 362.992 49.0352C362.51 49.4193 362.152 49.9271 361.918 50.5586C361.684 51.1901 361.566 51.8737 361.566 52.6094C361.566 53.332 361.684 54.0091 361.918 54.6406C362.152 55.2656 362.51 55.7702 362.992 56.1543C363.474 56.5384 364.086 56.7305 364.828 56.7305ZM378.285 53.5469V47.082H379.945V58H378.285V56.1445H378.168C377.908 56.6979 377.507 57.1699 376.967 57.5605C376.433 57.9512 375.753 58.1432 374.926 58.1367C374.242 58.1367 373.637 57.9902 373.109 57.6973C372.582 57.3978 372.165 56.9421 371.859 56.3301C371.56 55.7181 371.41 54.9466 371.41 54.0156V47.082H373.07V53.918C373.07 54.7057 373.295 55.3372 373.744 55.8125C374.2 56.2878 374.776 56.5221 375.473 56.5156C375.889 56.5156 376.312 56.4115 376.742 56.2031C377.178 55.9883 377.543 55.6628 377.836 55.2266C378.135 54.7839 378.285 54.224 378.285 53.5469ZM41.4688 92.3164C40.2513 92.3164 39.2878 92.0951 38.5781 91.6523C37.875 91.2096 37.3542 90.7018 37.0156 90.1289L38.3438 89.1914C38.4935 89.3932 38.6855 89.6211 38.9199 89.875C39.1543 90.1354 39.4733 90.36 39.877 90.5488C40.2806 90.7376 40.8112 90.832 41.4688 90.832C42.3477 90.832 43.0736 90.6204 43.6465 90.1973C44.2259 89.7741 44.5156 89.1068 44.5156 88.1953V85.9883H44.3594C44.2422 86.1836 44.0697 86.4277 43.8418 86.7207C43.6204 87.0072 43.2982 87.2643 42.875 87.4922C42.4583 87.7135 41.8919 87.8242 41.1758 87.8242C40.2969 87.8242 39.5091 87.6159 38.8125 87.1992C38.1159 86.7826 37.5625 86.1771 37.1523 85.3828C36.7487 84.5885 36.5469 83.625 36.5469 82.4922C36.5469 81.3724 36.7422 80.3991 37.1328 79.5723C37.5299 78.7389 38.0801 78.0944 38.7832 77.6387C39.4863 77.1764 40.2969 76.9453 41.2148 76.9453C41.9245 76.9453 42.4876 77.0625 42.9043 77.2969C43.3275 77.5312 43.6497 77.7982 43.8711 78.0977C44.099 78.3906 44.2747 78.6315 44.3984 78.8203H44.5742V77.082H46.1758V88.3125C46.1758 89.25 45.9642 90.0117 45.541 90.5977C45.1243 91.1901 44.5579 91.623 43.8418 91.8965C43.1322 92.1764 42.3411 92.3164 41.4688 92.3164ZM41.4102 86.3203C42.4193 86.3203 43.1908 85.9785 43.7246 85.2949C44.265 84.6113 44.5352 83.6641 44.5352 82.4531C44.5352 81.6654 44.418 80.972 44.1836 80.373C43.9492 79.7741 43.5977 79.3053 43.1289 78.9668C42.6667 78.6217 42.0938 78.4492 41.4102 78.4492C40.7005 78.4492 40.1081 78.6315 39.6328 78.9961C39.1641 79.3542 38.8125 79.8359 38.5781 80.4414C38.3438 81.0469 38.2266 81.7174 38.2266 82.4531C38.2266 83.2083 38.3438 83.8789 38.5781 84.4648C38.819 85.0443 39.1771 85.5 39.6523 85.832C40.1276 86.1576 40.7135 86.3203 41.4102 86.3203ZM52.8945 88.2344C51.8464 88.2344 50.9382 88 50.1699 87.5312C49.4082 87.0625 48.8223 86.4082 48.4121 85.5684C48.002 84.722 47.7969 83.7422 47.7969 82.6289C47.7969 81.5091 47.9987 80.5228 48.4023 79.6699C48.806 78.8171 49.3724 78.1497 50.1016 77.668C50.8372 77.1862 51.6966 76.9453 52.6797 76.9453C53.2461 76.9453 53.8092 77.0397 54.3691 77.2285C54.929 77.4173 55.4368 77.7233 55.8926 78.1465C56.3548 78.5697 56.7227 79.1296 56.9961 79.8262C57.2695 80.5228 57.4062 81.3789 57.4062 82.3945V83.1172H48.9883V81.6719H56.498L55.7266 82.2188C55.7266 81.4896 55.6126 80.8418 55.3848 80.2754C55.1569 79.709 54.8151 79.263 54.3594 78.9375C53.9102 78.612 53.3503 78.4492 52.6797 78.4492C52.0091 78.4492 51.4329 78.6152 50.9512 78.9473C50.4759 79.2728 50.1113 79.6992 49.8574 80.2266C49.6035 80.7539 49.4766 81.3203 49.4766 81.9258V82.8828C49.4766 83.7096 49.6198 84.4095 49.9062 84.9824C50.1927 85.5553 50.5931 85.9915 51.1074 86.291C51.6217 86.584 52.2174 86.7305 52.8945 86.7305C53.3307 86.7305 53.7279 86.6686 54.0859 86.5449C54.444 86.4147 54.7533 86.2227 55.0137 85.9688C55.2741 85.7083 55.4727 85.3893 55.6094 85.0117L57.2305 85.4805C57.0612 86.0273 56.7747 86.5091 56.3711 86.9258C55.974 87.3359 55.4792 87.6582 54.8867 87.8926C54.2943 88.1204 53.6302 88.2344 52.8945 88.2344ZM63.7148 77.082V78.5078H58.0703V77.082H63.7148ZM59.7109 74.4844H61.3711V84.875C61.3711 85.4414 61.4883 85.8581 61.7227 86.125C61.957 86.3854 62.3281 86.5156 62.8359 86.5156C62.9466 86.5156 63.0605 86.5091 63.1777 86.4961C63.3014 86.4831 63.4349 86.4635 63.5781 86.4375L63.9297 87.9414C63.7734 88 63.5814 88.0456 63.3535 88.0781C63.1322 88.1172 62.9076 88.1367 62.6797 88.1367C61.8008 88.1367 61.0846 87.8763 60.5312 87.3555C59.9844 86.8346 59.7109 86.1576 59.7109 85.3242V74.4844ZM74.7305 77.082V78.5078H69.0859V77.082H74.7305ZM70.7266 74.4844H72.3867V84.875C72.3867 85.4414 72.5039 85.8581 72.7383 86.125C72.9727 86.3854 73.3438 86.5156 73.8516 86.5156C73.9622 86.5156 74.0762 86.5091 74.1934 86.4961C74.3171 86.4831 74.4505 86.4635 74.5938 86.4375L74.9453 87.9414C74.7891 88 74.597 88.0456 74.3691 88.0781C74.1478 88.1172 73.9232 88.1367 73.6953 88.1367C72.8164 88.1367 72.1003 87.8763 71.5469 87.3555C71 86.8346 70.7266 86.1576 70.7266 85.3242V74.4844ZM78.2266 81.4375V88H76.5664V73.4492H78.2266V78.8008H78.3828C78.6367 78.2344 79.0176 77.7852 79.5254 77.4531C80.0397 77.1146 80.7266 76.9453 81.5859 76.9453C82.3281 76.9453 82.9792 77.0951 83.5391 77.3945C84.099 77.6875 84.5352 78.14 84.8477 78.752C85.1602 79.3574 85.3164 80.1289 85.3164 81.0664V88H83.6367V81.1836C83.6367 80.3112 83.4121 79.6374 82.9629 79.1621C82.5137 78.6868 81.8919 78.4492 81.0977 78.4492C80.5443 78.4492 80.0527 78.5664 79.623 78.8008C79.1934 79.0352 78.8516 79.3737 78.5977 79.8164C78.3503 80.2591 78.2266 80.7995 78.2266 81.4375ZM92.0352 88.2344C90.987 88.2344 90.0788 88 89.3105 87.5312C88.5488 87.0625 87.9629 86.4082 87.5527 85.5684C87.1426 84.722 86.9375 83.7422 86.9375 82.6289C86.9375 81.5091 87.1393 80.5228 87.543 79.6699C87.9466 78.8171 88.513 78.1497 89.2422 77.668C89.9779 77.1862 90.8372 76.9453 91.8203 76.9453C92.3867 76.9453 92.9499 77.0397 93.5098 77.2285C94.0697 77.4173 94.5775 77.7233 95.0332 78.1465C95.4954 78.5697 95.8633 79.1296 96.1367 79.8262C96.4102 80.5228 96.5469 81.3789 96.5469 82.3945V83.1172H88.1289V81.6719H95.6387L94.8672 82.2188C94.8672 81.4896 94.7533 80.8418 94.5254 80.2754C94.2975 79.709 93.9557 79.263 93.5 78.9375C93.0508 78.612 92.4909 78.4492 91.8203 78.4492C91.1497 78.4492 90.5736 78.6152 90.0918 78.9473C89.6165 79.2728 89.252 79.6992 88.998 80.2266C88.7441 80.7539 88.6172 81.3203 88.6172 81.9258V82.8828C88.6172 83.7096 88.7604 84.4095 89.0469 84.9824C89.3333 85.5553 89.7337 85.9915 90.248 86.291C90.7624 86.584 91.3581 86.7305 92.0352 86.7305C92.4714 86.7305 92.8685 86.6686 93.2266 86.5449C93.5846 86.4147 93.8939 86.2227 94.1543 85.9688C94.4147 85.7083 94.6133 85.3893 94.75 85.0117L96.3711 85.4805C96.2018 86.0273 95.9154 86.5091 95.5117 86.9258C95.1146 87.3359 94.6198 87.6582 94.0273 87.8926C93.4349 88.1204 92.7708 88.2344 92.0352 88.2344ZM107.797 88.2344C107.1 88.2344 106.54 88.1172 106.117 87.8828C105.694 87.6419 105.368 87.3717 105.141 87.0723C104.913 86.7663 104.737 86.5156 104.613 86.3203H104.418V88H102.816V73.4492H104.477V78.8203H104.613C104.737 78.6315 104.91 78.3906 105.131 78.0977C105.352 77.7982 105.671 77.5312 106.088 77.2969C106.505 77.0625 107.068 76.9453 107.777 76.9453C108.695 76.9453 109.503 77.1764 110.199 77.6387C110.896 78.0944 111.439 78.7454 111.83 79.5918C112.227 80.4316 112.426 81.4245 112.426 82.5703C112.426 83.7227 112.23 84.7253 111.84 85.5781C111.449 86.4245 110.906 87.0788 110.209 87.541C109.512 88.0033 108.708 88.2344 107.797 88.2344ZM107.582 86.7305C108.279 86.7305 108.861 86.5449 109.33 86.1738C109.799 85.7962 110.15 85.2917 110.385 84.6602C110.626 84.0286 110.746 83.3255 110.746 82.5508C110.746 81.7826 110.629 81.0892 110.395 80.4707C110.16 79.8522 109.809 79.3607 109.34 78.9961C108.878 78.6315 108.292 78.4492 107.582 78.4492C106.898 78.4492 106.326 78.6217 105.863 78.9668C105.401 79.3053 105.049 79.7839 104.809 80.4023C104.574 81.0143 104.457 81.7305 104.457 82.5508C104.457 83.3711 104.577 84.097 104.818 84.7285C105.059 85.3535 105.411 85.8451 105.873 86.2031C106.342 86.5547 106.911 86.7305 107.582 86.7305ZM118.617 88.2344C117.569 88.2344 116.661 88 115.893 87.5312C115.131 87.0625 114.545 86.4082 114.135 85.5684C113.725 84.722 113.52 83.7422 113.52 82.6289C113.52 81.5091 113.721 80.5228 114.125 79.6699C114.529 78.8171 115.095 78.1497 115.824 77.668C116.56 77.1862 117.419 76.9453 118.402 76.9453C118.969 76.9453 119.532 77.0397 120.092 77.2285C120.652 77.4173 121.16 77.7233 121.615 78.1465C122.077 78.5697 122.445 79.1296 122.719 79.8262C122.992 80.5228 123.129 81.3789 123.129 82.3945V83.1172H114.711V81.6719H122.221L121.449 82.2188C121.449 81.4896 121.335 80.8418 121.107 80.2754C120.88 79.709 120.538 79.263 120.082 78.9375C119.633 78.612 119.073 78.4492 118.402 78.4492C117.732 78.4492 117.156 78.6152 116.674 78.9473C116.199 79.2728 115.834 79.6992 115.58 80.2266C115.326 80.7539 115.199 81.3203 115.199 81.9258V82.8828C115.199 83.7096 115.342 84.4095 115.629 84.9824C115.915 85.5553 116.316 85.9915 116.83 86.291C117.344 86.584 117.94 86.7305 118.617 86.7305C119.053 86.7305 119.451 86.6686 119.809 86.5449C120.167 86.4147 120.476 86.2227 120.736 85.9688C120.997 85.7083 121.195 85.3893 121.332 85.0117L122.953 85.4805C122.784 86.0273 122.497 86.5091 122.094 86.9258C121.697 87.3359 121.202 87.6582 120.609 87.8926C120.017 88.1204 119.353 88.2344 118.617 88.2344ZM132.426 79.543L130.922 79.9531C130.779 79.582 130.531 79.2305 130.18 78.8984C129.835 78.5599 129.294 78.3906 128.559 78.3906C127.895 78.3906 127.341 78.5469 126.898 78.8594C126.456 79.1654 126.234 79.5495 126.234 80.0117C126.234 80.4284 126.384 80.7604 126.684 81.0078C126.99 81.2552 127.465 81.457 128.109 81.6133L129.73 82.0039C130.701 82.2383 131.423 82.5996 131.898 83.0879C132.38 83.5762 132.621 84.1979 132.621 84.9531C132.621 85.5781 132.442 86.138 132.084 86.6328C131.726 87.1276 131.228 87.5182 130.59 87.8047C129.952 88.0911 129.21 88.2344 128.363 88.2344C127.25 88.2344 126.329 87.9902 125.6 87.502C124.877 87.0137 124.418 86.3073 124.223 85.3828L125.805 84.9922C125.954 85.5781 126.241 86.0176 126.664 86.3105C127.094 86.6035 127.654 86.75 128.344 86.75C129.118 86.75 129.737 86.584 130.199 86.252C130.668 85.9134 130.902 85.513 130.902 85.0508C130.902 84.2826 130.362 83.7682 129.281 83.5078L127.465 83.0781C126.462 82.8372 125.727 82.4694 125.258 81.9746C124.789 81.4798 124.555 80.8581 124.555 80.1094C124.555 79.4909 124.727 78.944 125.072 78.4688C125.424 77.9935 125.902 77.6224 126.508 77.3555C127.113 77.082 127.797 76.9453 128.559 76.9453C129.646 76.9453 130.495 77.1862 131.107 77.668C131.726 78.1432 132.165 78.7682 132.426 79.543ZM138.949 77.082V78.5078H133.305V77.082H138.949ZM134.945 74.4844H136.605V84.875C136.605 85.4414 136.723 85.8581 136.957 86.125C137.191 86.3854 137.562 86.5156 138.07 86.5156C138.181 86.5156 138.295 86.5091 138.412 86.4961C138.536 86.4831 138.669 86.4635 138.812 86.4375L139.164 87.9414C139.008 88 138.816 88.0456 138.588 88.0781C138.367 88.1172 138.142 88.1367 137.914 88.1367C137.035 88.1367 136.319 87.8763 135.766 87.3555C135.219 86.8346 134.945 86.1576 134.945 85.3242V74.4844ZM149.809 88.2344C148.76 88.2344 147.852 88 147.084 87.5312C146.322 87.0625 145.736 86.4082 145.326 85.5684C144.916 84.722 144.711 83.7422 144.711 82.6289C144.711 81.5091 144.913 80.5228 145.316 79.6699C145.72 78.8171 146.286 78.1497 147.016 77.668C147.751 77.1862 148.611 76.9453 149.594 76.9453C150.16 76.9453 150.723 77.0397 151.283 77.2285C151.843 77.4173 152.351 77.7233 152.807 78.1465C153.269 78.5697 153.637 79.1296 153.91 79.8262C154.184 80.5228 154.32 81.3789 154.32 82.3945V83.1172H145.902V81.6719H153.412L152.641 82.2188C152.641 81.4896 152.527 80.8418 152.299 80.2754C152.071 79.709 151.729 79.263 151.273 78.9375C150.824 78.612 150.264 78.4492 149.594 78.4492C148.923 78.4492 148.347 78.6152 147.865 78.9473C147.39 79.2728 147.025 79.6992 146.771 80.2266C146.518 80.7539 146.391 81.3203 146.391 81.9258V82.8828C146.391 83.7096 146.534 84.4095 146.82 84.9824C147.107 85.5553 147.507 85.9915 148.021 86.291C148.536 86.584 149.132 86.7305 149.809 86.7305C150.245 86.7305 150.642 86.6686 151 86.5449C151.358 86.4147 151.667 86.2227 151.928 85.9688C152.188 85.7083 152.387 85.3893 152.523 85.0117L154.145 85.4805C153.975 86.0273 153.689 86.5091 153.285 86.9258C152.888 87.3359 152.393 87.6582 151.801 87.8926C151.208 88.1204 150.544 88.2344 149.809 88.2344ZM156.703 77.082L159.301 81.5547L161.918 77.082H163.852L160.336 82.5508L163.852 88H161.918L159.301 83.7617L156.703 88H154.77L158.227 82.5508L154.77 77.082H156.703ZM165.316 92.082V77.082H166.918V78.8203H167.113C167.237 78.6315 167.41 78.3906 167.631 78.0977C167.852 77.7982 168.171 77.5312 168.588 77.2969C169.005 77.0625 169.568 76.9453 170.277 76.9453C171.195 76.9453 172.003 77.1764 172.699 77.6387C173.396 78.0944 173.939 78.7454 174.33 79.5918C174.727 80.4316 174.926 81.4245 174.926 82.5703C174.926 83.7227 174.73 84.7253 174.34 85.5781C173.949 86.4245 173.406 87.0788 172.709 87.541C172.012 88.0033 171.208 88.2344 170.297 88.2344C169.6 88.2344 169.04 88.1172 168.617 87.8828C168.194 87.6419 167.868 87.3717 167.641 87.0723C167.413 86.7663 167.237 86.5156 167.113 86.3203H166.977V92.082H165.316ZM170.082 86.7305C170.779 86.7305 171.361 86.5449 171.83 86.1738C172.299 85.7962 172.65 85.2917 172.885 84.6602C173.126 84.0286 173.246 83.3255 173.246 82.5508C173.246 81.7826 173.129 81.0892 172.895 80.4707C172.66 79.8522 172.309 79.3607 171.84 78.9961C171.378 78.6315 170.792 78.4492 170.082 78.4492C169.398 78.4492 168.826 78.6217 168.363 78.9668C167.901 79.3053 167.549 79.7839 167.309 80.4023C167.074 81.0143 166.957 81.7305 166.957 82.5508C166.957 83.3711 167.077 84.097 167.318 84.7285C167.559 85.3535 167.911 85.8451 168.373 86.2031C168.842 86.5547 169.411 86.7305 170.082 86.7305ZM181.117 88.2344C180.069 88.2344 179.161 88 178.393 87.5312C177.631 87.0625 177.045 86.4082 176.635 85.5684C176.225 84.722 176.02 83.7422 176.02 82.6289C176.02 81.5091 176.221 80.5228 176.625 79.6699C177.029 78.8171 177.595 78.1497 178.324 77.668C179.06 77.1862 179.919 76.9453 180.902 76.9453C181.469 76.9453 182.032 77.0397 182.592 77.2285C183.152 77.4173 183.66 77.7233 184.115 78.1465C184.577 78.5697 184.945 79.1296 185.219 79.8262C185.492 80.5228 185.629 81.3789 185.629 82.3945V83.1172H177.211V81.6719H184.721L183.949 82.2188C183.949 81.4896 183.835 80.8418 183.607 80.2754C183.38 79.709 183.038 79.263 182.582 78.9375C182.133 78.612 181.573 78.4492 180.902 78.4492C180.232 78.4492 179.656 78.6152 179.174 78.9473C178.699 79.2728 178.334 79.6992 178.08 80.2266C177.826 80.7539 177.699 81.3203 177.699 81.9258V82.8828C177.699 83.7096 177.842 84.4095 178.129 84.9824C178.415 85.5553 178.816 85.9915 179.33 86.291C179.844 86.584 180.44 86.7305 181.117 86.7305C181.553 86.7305 181.951 86.6686 182.309 86.5449C182.667 86.4147 182.976 86.2227 183.236 85.9688C183.497 85.7083 183.695 85.3893 183.832 85.0117L185.453 85.4805C185.284 86.0273 184.997 86.5091 184.594 86.9258C184.197 87.3359 183.702 87.6582 183.109 87.8926C182.517 88.1204 181.853 88.2344 181.117 88.2344ZM187.211 88V77.082H188.812V78.7422H188.93C189.132 78.2018 189.493 77.7656 190.014 77.4336C190.541 77.0951 191.13 76.9258 191.781 76.9258C191.905 76.9258 192.058 76.929 192.24 76.9355C192.423 76.9355 192.562 76.9388 192.66 76.9453V78.6445C192.602 78.6315 192.471 78.612 192.27 78.5859C192.068 78.5599 191.853 78.5469 191.625 78.5469C191.098 78.5469 190.626 78.6576 190.209 78.8789C189.792 79.1003 189.464 79.403 189.223 79.7871C188.988 80.1712 188.871 80.6107 188.871 81.1055V88H187.211ZM193.715 88V77.082H195.375V88H193.715ZM194.555 75.2656C194.229 75.2656 193.949 75.1549 193.715 74.9336C193.48 74.7122 193.363 74.4453 193.363 74.1328C193.363 73.8203 193.48 73.5534 193.715 73.332C193.949 73.1107 194.229 73 194.555 73C194.88 73 195.16 73.1107 195.395 73.332C195.629 73.5534 195.746 73.8203 195.746 74.1328C195.746 74.4453 195.629 74.7122 195.395 74.9336C195.16 75.1549 194.88 75.2656 194.555 75.2656ZM202.094 88.2344C201.046 88.2344 200.137 88 199.369 87.5312C198.607 87.0625 198.021 86.4082 197.611 85.5684C197.201 84.722 196.996 83.7422 196.996 82.6289C196.996 81.5091 197.198 80.5228 197.602 79.6699C198.005 78.8171 198.572 78.1497 199.301 77.668C200.036 77.1862 200.896 76.9453 201.879 76.9453C202.445 76.9453 203.008 77.0397 203.568 77.2285C204.128 77.4173 204.636 77.7233 205.092 78.1465C205.554 78.5697 205.922 79.1296 206.195 79.8262C206.469 80.5228 206.605 81.3789 206.605 82.3945V83.1172H198.188V81.6719H205.697L204.926 82.2188C204.926 81.4896 204.812 80.8418 204.584 80.2754C204.356 79.709 204.014 79.263 203.559 78.9375C203.109 78.612 202.549 78.4492 201.879 78.4492C201.208 78.4492 200.632 78.6152 200.15 78.9473C199.675 79.2728 199.311 79.6992 199.057 80.2266C198.803 80.7539 198.676 81.3203 198.676 81.9258V82.8828C198.676 83.7096 198.819 84.4095 199.105 84.9824C199.392 85.5553 199.792 85.9915 200.307 86.291C200.821 86.584 201.417 86.7305 202.094 86.7305C202.53 86.7305 202.927 86.6686 203.285 86.5449C203.643 86.4147 203.952 86.2227 204.213 85.9688C204.473 85.7083 204.672 85.3893 204.809 85.0117L206.43 85.4805C206.26 86.0273 205.974 86.5091 205.57 86.9258C205.173 87.3359 204.678 87.6582 204.086 87.8926C203.493 88.1204 202.829 88.2344 202.094 88.2344ZM209.848 81.4375V88H208.188V77.082H209.789V78.8008H209.945C210.199 78.2409 210.587 77.7917 211.107 77.4531C211.628 77.1146 212.302 76.9453 213.129 76.9453C213.865 76.9453 214.509 77.0951 215.062 77.3945C215.616 77.694 216.046 78.1497 216.352 78.7617C216.664 79.3672 216.82 80.1354 216.82 81.0664V88H215.16V81.1836C215.16 80.3307 214.936 79.6634 214.486 79.1816C214.037 78.6934 213.425 78.4492 212.65 78.4492C212.117 78.4492 211.638 78.5664 211.215 78.8008C210.792 79.0352 210.456 79.3737 210.209 79.8164C209.968 80.2591 209.848 80.7995 209.848 81.4375ZM223.383 88.2344C222.367 88.2344 221.488 87.9935 220.746 87.5117C220.01 87.0234 219.441 86.3561 219.037 85.5098C218.64 84.6634 218.441 83.6966 218.441 82.6094C218.441 81.4961 218.646 80.5163 219.057 79.6699C219.467 78.8171 220.04 78.1497 220.775 77.668C221.518 77.1862 222.38 76.9453 223.363 76.9453C224.132 76.9453 224.822 77.0885 225.434 77.375C226.052 77.6549 226.557 78.0521 226.947 78.5664C227.344 79.0807 227.589 79.6797 227.68 80.3633H226C225.915 80.0312 225.762 79.7188 225.541 79.4258C225.32 79.1328 225.027 78.8984 224.662 78.7227C224.304 78.5404 223.878 78.4492 223.383 78.4492C222.732 78.4492 222.162 78.6185 221.674 78.957C221.186 79.2956 220.805 79.7741 220.531 80.3926C220.258 81.0046 220.121 81.724 220.121 82.5508C220.121 83.3906 220.255 84.1263 220.521 84.7578C220.788 85.3828 221.166 85.8678 221.654 86.2129C222.149 86.5579 222.725 86.7305 223.383 86.7305C224.04 86.7305 224.604 86.5612 225.072 86.2227C225.541 85.8776 225.85 85.4089 226 84.8164H227.68C227.589 85.4609 227.354 86.0404 226.977 86.5547C226.605 87.069 226.114 87.4792 225.502 87.7852C224.896 88.0846 224.19 88.2344 223.383 88.2344ZM233.832 88.2344C232.784 88.2344 231.876 88 231.107 87.5312C230.346 87.0625 229.76 86.4082 229.35 85.5684C228.939 84.722 228.734 83.7422 228.734 82.6289C228.734 81.5091 228.936 80.5228 229.34 79.6699C229.743 78.8171 230.31 78.1497 231.039 77.668C231.775 77.1862 232.634 76.9453 233.617 76.9453C234.184 76.9453 234.747 77.0397 235.307 77.2285C235.867 77.4173 236.374 77.7233 236.83 78.1465C237.292 78.5697 237.66 79.1296 237.934 79.8262C238.207 80.5228 238.344 81.3789 238.344 82.3945V83.1172H229.926V81.6719H237.436L236.664 82.2188C236.664 81.4896 236.55 80.8418 236.322 80.2754C236.094 79.709 235.753 79.263 235.297 78.9375C234.848 78.612 234.288 78.4492 233.617 78.4492C232.947 78.4492 232.37 78.6152 231.889 78.9473C231.413 79.2728 231.049 79.6992 230.795 80.2266C230.541 80.7539 230.414 81.3203 230.414 81.9258V82.8828C230.414 83.7096 230.557 84.4095 230.844 84.9824C231.13 85.5553 231.531 85.9915 232.045 86.291C232.559 86.584 233.155 86.7305 233.832 86.7305C234.268 86.7305 234.665 86.6686 235.023 86.5449C235.382 86.4147 235.691 86.2227 235.951 85.9688C236.212 85.7083 236.41 85.3893 236.547 85.0117L238.168 85.4805C237.999 86.0273 237.712 86.5091 237.309 86.9258C236.911 87.3359 236.417 87.6582 235.824 87.8926C235.232 88.1204 234.568 88.2344 233.832 88.2344ZM241.225 88.1172C240.873 88.1172 240.57 87.9935 240.316 87.7461C240.069 87.4922 239.945 87.1895 239.945 86.8379C239.945 86.4863 240.069 86.1868 240.316 85.9395C240.57 85.6855 240.873 85.5586 241.225 85.5586C241.576 85.5586 241.876 85.6855 242.123 85.9395C242.377 86.1868 242.504 86.4863 242.504 86.8379C242.504 87.1895 242.377 87.4922 242.123 87.7461C241.876 87.9935 241.576 88.1172 241.225 88.1172Z" fill="white"/>
<path d="M255.434 88.1953C254.197 88.1953 253.093 87.8926 252.123 87.2871C251.153 86.6816 250.391 85.8223 249.838 84.709C249.285 83.5892 249.008 82.2643 249.008 80.7344C249.008 79.1979 249.285 77.8698 249.838 76.75C250.391 75.6302 251.153 74.7676 252.123 74.1621C253.093 73.5566 254.197 73.2539 255.434 73.2539C256.163 73.2539 256.85 73.3613 257.494 73.5762C258.145 73.791 258.731 74.1035 259.252 74.5137C259.773 74.9173 260.206 75.4154 260.551 76.0078C260.902 76.5938 261.143 77.2578 261.273 78H259.516C259.411 77.4922 259.229 77.0462 258.969 76.6621C258.715 76.278 258.402 75.9557 258.031 75.6953C257.667 75.4284 257.263 75.2298 256.82 75.0996C256.378 74.9629 255.915 74.8945 255.434 74.8945C254.555 74.8945 253.757 75.1191 253.041 75.5684C252.325 76.0111 251.755 76.6686 251.332 77.541C250.915 78.4069 250.707 79.4714 250.707 80.7344C250.707 81.9909 250.915 83.0521 251.332 83.918C251.755 84.7839 252.325 85.4414 253.041 85.8906C253.757 86.3333 254.555 86.5547 255.434 86.5547C255.915 86.5547 256.378 86.4896 256.82 86.3594C257.263 86.2227 257.667 86.0241 258.031 85.7637C258.402 85.4967 258.715 85.1712 258.969 84.7871C259.229 84.403 259.411 83.957 259.516 83.4492H261.273C261.143 84.1979 260.902 84.8652 260.551 85.4512C260.206 86.0371 259.773 86.5352 259.252 86.9453C258.731 87.349 258.145 87.6582 257.494 87.873C256.85 88.0879 256.163 88.1953 255.434 88.1953ZM267.387 88.2344C266.404 88.2344 265.541 88 264.799 87.5312C264.057 87.0625 263.477 86.4049 263.061 85.5586C262.65 84.7122 262.445 83.7292 262.445 82.6094C262.445 81.4701 262.65 80.4772 263.061 79.6309C263.477 78.778 264.057 78.1172 264.799 77.6484C265.541 77.1797 266.404 76.9453 267.387 76.9453C268.376 76.9453 269.242 77.1797 269.984 77.6484C270.727 78.1172 271.306 78.778 271.723 79.6309C272.139 80.4772 272.348 81.4701 272.348 82.6094C272.348 83.7292 272.139 84.7122 271.723 85.5586C271.306 86.4049 270.727 87.0625 269.984 87.5312C269.242 88 268.376 88.2344 267.387 88.2344ZM267.387 86.7305C268.142 86.7305 268.76 86.5384 269.242 86.1543C269.724 85.7702 270.082 85.2656 270.316 84.6406C270.551 84.0091 270.668 83.332 270.668 82.6094C270.668 81.8737 270.551 81.1901 270.316 80.5586C270.082 79.9271 269.724 79.4193 269.242 79.0352C268.76 78.6445 268.142 78.4492 267.387 78.4492C266.645 78.4492 266.033 78.6445 265.551 79.0352C265.069 79.4193 264.711 79.9271 264.477 80.5586C264.242 81.1901 264.125 81.8737 264.125 82.6094C264.125 83.332 264.242 84.0091 264.477 84.6406C264.711 85.2656 265.069 85.7702 265.551 86.1543C266.033 86.5384 266.645 86.7305 267.387 86.7305ZM278.383 88.2344C277.4 88.2344 276.537 88 275.795 87.5312C275.053 87.0625 274.473 86.4049 274.057 85.5586C273.646 84.7122 273.441 83.7292 273.441 82.6094C273.441 81.4701 273.646 80.4772 274.057 79.6309C274.473 78.778 275.053 78.1172 275.795 77.6484C276.537 77.1797 277.4 76.9453 278.383 76.9453C279.372 76.9453 280.238 77.1797 280.98 77.6484C281.723 78.1172 282.302 78.778 282.719 79.6309C283.135 80.4772 283.344 81.4701 283.344 82.6094C283.344 83.7292 283.135 84.7122 282.719 85.5586C282.302 86.4049 281.723 87.0625 280.98 87.5312C280.238 88 279.372 88.2344 278.383 88.2344ZM278.383 86.7305C279.138 86.7305 279.757 86.5384 280.238 86.1543C280.72 85.7702 281.078 85.2656 281.312 84.6406C281.547 84.0091 281.664 83.332 281.664 82.6094C281.664 81.8737 281.547 81.1901 281.312 80.5586C281.078 79.9271 280.72 79.4193 280.238 79.0352C279.757 78.6445 279.138 78.4492 278.383 78.4492C277.641 78.4492 277.029 78.6445 276.547 79.0352C276.065 79.4193 275.707 79.9271 275.473 80.5586C275.238 81.1901 275.121 81.8737 275.121 82.6094C275.121 83.332 275.238 84.0091 275.473 84.6406C275.707 85.2656 276.065 85.7702 276.547 86.1543C277.029 86.5384 277.641 86.7305 278.383 86.7305ZM286.527 84.0156L286.488 81.9453H286.84L291.605 77.082H293.676L288.598 82.2383H288.441L286.527 84.0156ZM284.965 88V73.4492H286.625V88H284.965ZM291.879 88L287.621 82.6094L288.812 81.4375L294.027 88H291.879ZM294.906 88V77.082H296.566V88H294.906ZM295.746 75.2656C295.421 75.2656 295.141 75.1549 294.906 74.9336C294.672 74.7122 294.555 74.4453 294.555 74.1328C294.555 73.8203 294.672 73.5534 294.906 73.332C295.141 73.1107 295.421 73 295.746 73C296.072 73 296.352 73.1107 296.586 73.332C296.82 73.5534 296.938 73.8203 296.938 74.1328C296.938 74.4453 296.82 74.7122 296.586 74.9336C296.352 75.1549 296.072 75.2656 295.746 75.2656ZM303.285 88.2344C302.237 88.2344 301.329 88 300.561 87.5312C299.799 87.0625 299.213 86.4082 298.803 85.5684C298.393 84.722 298.188 83.7422 298.188 82.6289C298.188 81.5091 298.389 80.5228 298.793 79.6699C299.197 78.8171 299.763 78.1497 300.492 77.668C301.228 77.1862 302.087 76.9453 303.07 76.9453C303.637 76.9453 304.2 77.0397 304.76 77.2285C305.32 77.4173 305.827 77.7233 306.283 78.1465C306.745 78.5697 307.113 79.1296 307.387 79.8262C307.66 80.5228 307.797 81.3789 307.797 82.3945V83.1172H299.379V81.6719H306.889L306.117 82.2188C306.117 81.4896 306.003 80.8418 305.775 80.2754C305.548 79.709 305.206 79.263 304.75 78.9375C304.301 78.612 303.741 78.4492 303.07 78.4492C302.4 78.4492 301.824 78.6152 301.342 78.9473C300.867 79.2728 300.502 79.6992 300.248 80.2266C299.994 80.7539 299.867 81.3203 299.867 81.9258V82.8828C299.867 83.7096 300.01 84.4095 300.297 84.9824C300.583 85.5553 300.984 85.9915 301.498 86.291C302.012 86.584 302.608 86.7305 303.285 86.7305C303.721 86.7305 304.118 86.6686 304.477 86.5449C304.835 86.4147 305.144 86.2227 305.404 85.9688C305.665 85.7083 305.863 85.3893 306 85.0117L307.621 85.4805C307.452 86.0273 307.165 86.5091 306.762 86.9258C306.365 87.3359 305.87 87.6582 305.277 87.8926C304.685 88.1204 304.021 88.2344 303.285 88.2344ZM314.281 88V73.4492H319.203C320.342 73.4492 321.273 73.6543 321.996 74.0645C322.725 74.4746 323.266 75.028 323.617 75.7246C323.969 76.4212 324.145 77.1992 324.145 78.0586C324.145 78.9115 323.969 79.6895 323.617 80.3926C323.272 81.0957 322.735 81.6556 322.006 82.0723C321.283 82.4824 320.355 82.6875 319.223 82.6875H315.707V81.125H319.164C319.945 81.125 320.574 80.9915 321.049 80.7246C321.524 80.4577 321.869 80.0931 322.084 79.6309C322.299 79.1621 322.406 78.638 322.406 78.0586C322.406 77.4727 322.299 76.9518 322.084 76.4961C321.869 76.0339 321.521 75.6725 321.039 75.4121C320.564 75.1452 319.932 75.0117 319.145 75.0117H316.039V88H314.281ZM330.121 88.2344C329.138 88.2344 328.275 88 327.533 87.5312C326.791 87.0625 326.212 86.4049 325.795 85.5586C325.385 84.7122 325.18 83.7292 325.18 82.6094C325.18 81.4701 325.385 80.4772 325.795 79.6309C326.212 78.778 326.791 78.1172 327.533 77.6484C328.275 77.1797 329.138 76.9453 330.121 76.9453C331.111 76.9453 331.977 77.1797 332.719 77.6484C333.461 78.1172 334.04 78.778 334.457 79.6309C334.874 80.4772 335.082 81.4701 335.082 82.6094C335.082 83.7292 334.874 84.7122 334.457 85.5586C334.04 86.4049 333.461 87.0625 332.719 87.5312C331.977 88 331.111 88.2344 330.121 88.2344ZM330.121 86.7305C330.876 86.7305 331.495 86.5384 331.977 86.1543C332.458 85.7702 332.816 85.2656 333.051 84.6406C333.285 84.0091 333.402 83.332 333.402 82.6094C333.402 81.8737 333.285 81.1901 333.051 80.5586C332.816 79.9271 332.458 79.4193 331.977 79.0352C331.495 78.6445 330.876 78.4492 330.121 78.4492C329.379 78.4492 328.767 78.6445 328.285 79.0352C327.803 79.4193 327.445 79.9271 327.211 80.5586C326.977 81.1901 326.859 81.8737 326.859 82.6094C326.859 83.332 326.977 84.0091 327.211 84.6406C327.445 85.2656 327.803 85.7702 328.285 86.1543C328.767 86.5384 329.379 86.7305 330.121 86.7305ZM338.363 73.4492V88H336.703V73.4492H338.363ZM340.512 88V77.082H342.172V88H340.512ZM341.352 75.2656C341.026 75.2656 340.746 75.1549 340.512 74.9336C340.277 74.7122 340.16 74.4453 340.16 74.1328C340.16 73.8203 340.277 73.5534 340.512 73.332C340.746 73.1107 341.026 73 341.352 73C341.677 73 341.957 73.1107 342.191 73.332C342.426 73.5534 342.543 73.8203 342.543 74.1328C342.543 74.4453 342.426 74.7122 342.191 74.9336C341.957 75.1549 341.677 75.2656 341.352 75.2656ZM348.734 88.2344C347.719 88.2344 346.84 87.9935 346.098 87.5117C345.362 87.0234 344.792 86.3561 344.389 85.5098C343.992 84.6634 343.793 83.6966 343.793 82.6094C343.793 81.4961 343.998 80.5163 344.408 79.6699C344.818 78.8171 345.391 78.1497 346.127 77.668C346.869 77.1862 347.732 76.9453 348.715 76.9453C349.483 76.9453 350.173 77.0885 350.785 77.375C351.404 77.6549 351.908 78.0521 352.299 78.5664C352.696 79.0807 352.94 79.6797 353.031 80.3633H351.352C351.267 80.0312 351.114 79.7188 350.893 79.4258C350.671 79.1328 350.378 78.8984 350.014 78.7227C349.656 78.5404 349.229 78.4492 348.734 78.4492C348.083 78.4492 347.514 78.6185 347.025 78.957C346.537 79.2956 346.156 79.7741 345.883 80.3926C345.609 81.0046 345.473 81.724 345.473 82.5508C345.473 83.3906 345.606 84.1263 345.873 84.7578C346.14 85.3828 346.518 85.8678 347.006 86.2129C347.501 86.5579 348.077 86.7305 348.734 86.7305C349.392 86.7305 349.955 86.5612 350.424 86.2227C350.893 85.8776 351.202 85.4089 351.352 84.8164H353.031C352.94 85.4609 352.706 86.0404 352.328 86.5547C351.957 87.069 351.465 87.4792 350.854 87.7852C350.248 88.0846 349.542 88.2344 348.734 88.2344ZM355.297 92.082C355.01 92.0885 354.757 92.069 354.535 92.0234C354.314 91.9779 354.158 91.9323 354.066 91.8867L354.496 90.4219L354.662 90.4609C355.222 90.5911 355.691 90.5618 356.068 90.373C356.452 90.1908 356.788 89.7057 357.074 88.918L357.387 88.0586L353.363 77.082H355.18L358.188 85.793H358.305L361.312 77.082H363.129L358.5 89.582C358.292 90.1484 358.035 90.6172 357.729 90.9883C357.423 91.3594 357.068 91.6328 356.664 91.8086C356.26 91.9909 355.805 92.082 355.297 92.082Z" fill="#BE80F5"/>
<path d="M248.285 91.9746H363.344V93.3418H248.285V91.9746Z" fill="#BE80F5"/>
<g filter="url(#filter0_d_1_700)">
<rect x="36" y="120" width="150" height="50" rx="25" fill="white" fill-opacity="0.01" shape-rendering="crispEdges"/>
<rect x="36.5" y="120.5" width="149" height="49" rx="24.5" stroke="#565656" shape-rendering="crispEdges"/>
<path d="M93.7553 149.8L91.0993 145.24H89.3393V149.8H87.8833V138.648H91.4833C92.326 138.648 93.0353 138.792 93.6113 139.08C94.198 139.368 94.6353 139.757 94.9233 140.248C95.2113 140.739 95.3553 141.299 95.3553 141.928C95.3553 142.696 95.1313 143.373 94.6833 143.96C94.246 144.547 93.5847 144.936 92.6993 145.128L95.4993 149.8H93.7553ZM89.3393 144.072H91.4833C92.2727 144.072 92.8647 143.88 93.2593 143.496C93.654 143.101 93.8513 142.579 93.8513 141.928C93.8513 141.267 93.654 140.755 93.2593 140.392C92.8753 140.029 92.2833 139.848 91.4833 139.848H89.3393V144.072ZM105.618 145.08C105.618 145.357 105.602 145.651 105.57 145.96H98.5617C98.6151 146.824 98.9084 147.501 99.4417 147.992C99.9857 148.472 100.642 148.712 101.41 148.712C102.039 148.712 102.562 148.568 102.978 148.28C103.404 147.981 103.703 147.587 103.874 147.096H105.442C105.207 147.939 104.738 148.627 104.034 149.16C103.33 149.683 102.455 149.944 101.41 149.944C100.578 149.944 99.8311 149.757 99.1697 149.384C98.5191 149.011 98.0071 148.483 97.6337 147.8C97.2604 147.107 97.0737 146.307 97.0737 145.4C97.0737 144.493 97.2551 143.699 97.6177 143.016C97.9804 142.333 98.4871 141.811 99.1377 141.448C99.7991 141.075 100.556 140.888 101.41 140.888C102.242 140.888 102.978 141.069 103.618 141.432C104.258 141.795 104.748 142.296 105.09 142.936C105.442 143.565 105.618 144.28 105.618 145.08ZM104.114 144.776C104.114 144.221 103.991 143.747 103.746 143.352C103.5 142.947 103.164 142.643 102.738 142.44C102.322 142.227 101.858 142.12 101.346 142.12C100.61 142.12 99.9804 142.355 99.4577 142.824C98.9457 143.293 98.6524 143.944 98.5777 144.776H104.114ZM108.324 139.608C108.046 139.608 107.812 139.512 107.62 139.32C107.438 139.128 107.348 138.893 107.348 138.616C107.348 138.339 107.438 138.104 107.62 137.912C107.812 137.72 108.046 137.624 108.324 137.624C108.601 137.624 108.83 137.72 109.012 137.912C109.204 138.104 109.3 138.339 109.3 138.616C109.3 138.893 109.204 139.128 109.012 139.32C108.83 139.512 108.601 139.608 108.324 139.608ZM109.044 151.704C109.044 152.483 108.846 153.053 108.452 153.416C108.057 153.779 107.481 153.96 106.724 153.96H105.876V152.728H106.484C106.889 152.728 107.172 152.648 107.332 152.488C107.502 152.328 107.588 152.056 107.588 151.672V141.032H109.044V151.704ZM119.508 145.08C119.508 145.357 119.492 145.651 119.46 145.96H112.452C112.506 146.824 112.799 147.501 113.332 147.992C113.876 148.472 114.532 148.712 115.3 148.712C115.93 148.712 116.452 148.568 116.868 148.28C117.295 147.981 117.594 147.587 117.764 147.096H119.332C119.098 147.939 118.628 148.627 117.924 149.16C117.22 149.683 116.346 149.944 115.3 149.944C114.468 149.944 113.722 149.757 113.06 149.384C112.41 149.011 111.898 148.483 111.524 147.8C111.151 147.107 110.964 146.307 110.964 145.4C110.964 144.493 111.146 143.699 111.508 143.016C111.871 142.333 112.378 141.811 113.028 141.448C113.69 141.075 114.447 140.888 115.3 140.888C116.132 140.888 116.868 141.069 117.508 141.432C118.148 141.795 118.639 142.296 118.98 142.936C119.332 143.565 119.508 144.28 119.508 145.08ZM118.004 144.776C118.004 144.221 117.882 143.747 117.636 143.352C117.391 142.947 117.055 142.643 116.628 142.44C116.212 142.227 115.748 142.12 115.236 142.12C114.5 142.12 113.871 142.355 113.348 142.824C112.836 143.293 112.543 143.944 112.468 144.776H118.004ZM120.886 145.4C120.886 144.493 121.068 143.704 121.43 143.032C121.793 142.349 122.294 141.821 122.934 141.448C123.585 141.075 124.326 140.888 125.158 140.888C126.236 140.888 127.121 141.149 127.814 141.672C128.518 142.195 128.982 142.92 129.206 143.848H127.638C127.489 143.315 127.196 142.893 126.758 142.584C126.332 142.275 125.798 142.12 125.158 142.12C124.326 142.12 123.654 142.408 123.142 142.984C122.63 143.549 122.374 144.355 122.374 145.4C122.374 146.456 122.63 147.272 123.142 147.848C123.654 148.424 124.326 148.712 125.158 148.712C125.798 148.712 126.332 148.563 126.758 148.264C127.185 147.965 127.478 147.539 127.638 146.984H129.206C128.972 147.88 128.502 148.6 127.798 149.144C127.094 149.677 126.214 149.944 125.158 149.944C124.326 149.944 123.585 149.757 122.934 149.384C122.294 149.011 121.793 148.483 121.43 147.8C121.068 147.117 120.886 146.317 120.886 145.4ZM132.925 142.232V147.4C132.925 147.827 133.016 148.131 133.197 148.312C133.378 148.483 133.693 148.568 134.141 148.568H135.213V149.8H133.901C133.09 149.8 132.482 149.613 132.077 149.24C131.672 148.867 131.469 148.253 131.469 147.4V142.232H130.333V141.032H131.469V138.824H132.925V141.032H135.213V142.232H132.925Z" fill="white"/>
</g>
<g filter="url(#filter1_d_1_700)">
<rect x="210" y="120" width="150" height="50" rx="25" fill="white" shape-rendering="crispEdges"/>
<rect x="210.5" y="120.5" width="149" height="49" rx="24.5" stroke="#565656" shape-rendering="crispEdges"/>
<path d="M261.909 149.8H260.042L264.229 138.159H266.261L270.44 149.8H268.581L265.284 140.277H265.19L261.909 149.8ZM262.222 145.245H268.261V146.714H262.222V145.245ZM274.831 149.98C273.992 149.98 273.269 149.787 272.659 149.402C272.05 149.016 271.581 148.485 271.253 147.808C270.925 147.131 270.761 146.355 270.761 145.48C270.761 144.589 270.927 143.805 271.261 143.128C271.599 142.446 272.071 141.915 272.675 141.534C273.284 141.149 273.998 140.956 274.815 140.956C275.482 140.956 276.073 141.079 276.589 141.323C277.11 141.563 277.529 141.904 277.847 142.347C278.17 142.79 278.36 143.305 278.417 143.894H276.761C276.703 143.618 276.591 143.365 276.425 143.136C276.263 142.907 276.05 142.725 275.784 142.589C275.519 142.454 275.203 142.386 274.839 142.386C274.365 142.386 273.951 142.511 273.597 142.761C273.248 143.006 272.974 143.357 272.776 143.816C272.578 144.274 272.479 144.816 272.479 145.441C272.479 146.071 272.576 146.62 272.769 147.089C272.961 147.558 273.235 147.92 273.589 148.175C273.948 148.425 274.365 148.55 274.839 148.55C275.328 148.55 275.745 148.415 276.089 148.144C276.438 147.873 276.662 147.503 276.761 147.034H278.417C278.36 147.602 278.177 148.107 277.87 148.55C277.563 148.993 277.151 149.342 276.636 149.597C276.12 149.852 275.519 149.98 274.831 149.98ZM283.284 149.98C282.446 149.98 281.722 149.787 281.112 149.402C280.503 149.016 280.034 148.485 279.706 147.808C279.378 147.131 279.214 146.355 279.214 145.48C279.214 144.589 279.381 143.805 279.714 143.128C280.052 142.446 280.524 141.915 281.128 141.534C281.737 141.149 282.451 140.956 283.269 140.956C283.935 140.956 284.526 141.079 285.042 141.323C285.563 141.563 285.982 141.904 286.3 142.347C286.623 142.79 286.813 143.305 286.87 143.894H285.214C285.157 143.618 285.045 143.365 284.878 143.136C284.716 142.907 284.503 142.725 284.237 142.589C283.972 142.454 283.657 142.386 283.292 142.386C282.818 142.386 282.404 142.511 282.05 142.761C281.701 143.006 281.427 143.357 281.229 143.816C281.032 144.274 280.933 144.816 280.933 145.441C280.933 146.071 281.029 146.62 281.222 147.089C281.414 147.558 281.688 147.92 282.042 148.175C282.401 148.425 282.818 148.55 283.292 148.55C283.782 148.55 284.198 148.415 284.542 148.144C284.891 147.873 285.115 147.503 285.214 147.034H286.87C286.813 147.602 286.631 148.107 286.323 148.55C286.016 148.993 285.604 149.342 285.089 149.597C284.573 149.852 283.972 149.98 283.284 149.98ZM291.831 149.98C290.977 149.98 290.237 149.795 289.612 149.425C288.987 149.055 288.506 148.534 288.167 147.863C287.834 147.185 287.667 146.396 287.667 145.495C287.667 144.6 287.831 143.81 288.159 143.128C288.492 142.446 288.959 141.915 289.558 141.534C290.162 141.149 290.87 140.956 291.683 140.956C292.177 140.956 292.657 141.037 293.12 141.198C293.584 141.36 294 141.615 294.37 141.964C294.74 142.313 295.032 142.766 295.245 143.323C295.464 143.881 295.573 144.553 295.573 145.339V145.948H288.628V144.675H294.698L293.909 145.097C293.909 144.56 293.826 144.087 293.659 143.675C293.492 143.264 293.242 142.943 292.909 142.714C292.581 142.48 292.172 142.363 291.683 142.363C291.193 142.363 290.774 142.48 290.425 142.714C290.081 142.948 289.818 143.258 289.636 143.644C289.453 144.029 289.362 144.451 289.362 144.909V145.777C289.362 146.376 289.466 146.883 289.675 147.3C289.883 147.717 290.172 148.034 290.542 148.253C290.917 148.472 291.352 148.581 291.847 148.581C292.17 148.581 292.461 148.534 292.722 148.441C292.987 148.347 293.216 148.206 293.409 148.019C293.602 147.831 293.748 147.6 293.847 147.323L295.456 147.628C295.326 148.097 295.097 148.508 294.769 148.863C294.44 149.217 294.026 149.493 293.526 149.691C293.032 149.883 292.466 149.98 291.831 149.98ZM296.761 153.066V141.066H298.401V142.488H298.542C298.646 142.305 298.789 142.094 298.972 141.855C299.159 141.615 299.42 141.407 299.753 141.23C300.086 141.047 300.521 140.956 301.058 140.956C301.761 140.956 302.386 141.133 302.933 141.488C303.485 141.842 303.92 142.355 304.237 143.027C304.555 143.698 304.714 144.508 304.714 145.456C304.714 146.394 304.558 147.201 304.245 147.878C303.933 148.55 303.5 149.068 302.948 149.433C302.401 149.792 301.774 149.972 301.065 149.972C300.539 149.972 300.107 149.883 299.769 149.706C299.435 149.524 299.172 149.313 298.979 149.073C298.792 148.834 298.646 148.623 298.542 148.441H298.448V153.066H296.761ZM300.698 148.527C301.203 148.527 301.625 148.391 301.964 148.12C302.302 147.85 302.558 147.482 302.729 147.019C302.907 146.55 302.995 146.024 302.995 145.441C302.995 144.863 302.909 144.344 302.737 143.886C302.565 143.428 302.31 143.066 301.972 142.8C301.633 142.534 301.209 142.402 300.698 142.402C300.203 142.402 299.787 142.529 299.448 142.784C299.11 143.034 298.852 143.389 298.675 143.847C298.503 144.3 298.417 144.831 298.417 145.441C298.417 146.05 298.506 146.587 298.683 147.05C298.86 147.514 299.117 147.876 299.456 148.136C299.8 148.396 300.214 148.527 300.698 148.527ZM310.011 141.066V142.433H305.245V141.066H310.011ZM306.519 138.988H308.214V147.238C308.214 147.639 308.297 147.933 308.464 148.12C308.631 148.303 308.899 148.394 309.269 148.394C309.357 148.394 309.451 148.389 309.55 148.378C309.654 148.368 309.758 148.352 309.862 148.331L310.183 149.738C310.011 149.795 309.823 149.839 309.62 149.87C309.417 149.902 309.214 149.917 309.011 149.917C308.256 149.917 307.651 149.706 307.198 149.284C306.745 148.857 306.519 148.29 306.519 147.581V138.988Z" fill="black"/>
</g>
<defs>
<filter id="filter0_d_1_700" x="16" y="110" width="190" height="90" filterUnits="userSpaceOnUse" color-interpolation-filters="sRGB">
<feFlood flood-opacity="0" result="BackgroundImageFix"/>
<feColorMatrix in="SourceAlpha" type="matrix" values="0 0 0 0 0 0 0 0 0 0 0 0 0 0 0 0 0 0 127 0" result="hardAlpha"/>
<feOffset dy="10"/>
<feGaussianBlur stdDeviation="10"/>
<feComposite in2="hardAlpha" operator="out"/>
<feColorMatrix type="matrix" values="0 0 0 0 0 0 0 0 0 0 0 0 0 0 0 0 0 0 0.16 0"/>
<feBlend mode="normal" in2="BackgroundImageFix" result="effect1_dropShadow_1_700"/>
<feBlend mode="normal" in="SourceGraphic" in2="effect1_dropShadow_1_700" result="shape"/>
</filter>
<filter id="filter1_d_1_700" x="190" y="110" width="190" height="90" filterUnits="userSpaceOnUse" color-interpolation-filters="sRGB">
<feFlood flood-opacity="0" result="BackgroundImageFix"/>
<feColorMatrix in="SourceAlpha" type="matrix" values="0 0 0 0 0 0 0 0 0 0 0 0 0 0 0 0 0 0 127 0" result="hardAlpha"/>
<feOffset dy="10"/>
<feGaussianBlur stdDeviation="10"/>
<feComposite in2="hardAlpha" operator="out"/>
<feColorMatrix type="matrix" values="0 0 0 0 0 0 0 0 0 0 0 0 0 0 0 0 0 0 0.16 0"/>
<feBlend mode="normal" in2="BackgroundImageFix" result="effect1_dropShadow_1_700"/>
<feBlend mode="normal" in="SourceGraphic" in2="effect1_dropShadow_1_700" result="shape"/>
</filter>
</defs>
</svg>
