<svg width="33" height="32" viewBox="0 0 33 32" fill="none" xmlns="http://www.w3.org/2000/svg">
<g clip-path="url(#clip0_1_694)">
<path d="M16.7788 31.999C13.6143 31.999 10.5208 31.0606 7.88966 29.3025C5.25847 27.5444 3.20772 25.0456 1.99671 22.122C0.785711 19.1983 0.468857 15.9813 1.08622 12.8776C1.70358 9.77389 3.22744 6.92296 5.46508 4.68532C7.70272 2.44768 10.5536 0.92383 13.6573 0.306466C16.761 -0.310897 19.9781 0.00595605 22.9017 1.21696C25.8253 2.42796 28.3242 4.47872 30.0823 7.10991C31.8404 9.74109 32.7788 12.8345 32.7788 15.999C32.7743 20.2411 31.0871 24.3082 28.0875 27.3078C25.0879 30.3074 21.0209 31.9945 16.7788 31.999ZM21.8278 20.734C21.8413 20.7334 21.8546 20.738 21.8648 20.747C21.9648 20.835 22.0698 20.914 22.1738 20.99C22.1823 20.9964 22.1892 21.0047 22.1939 21.0143C22.1986 21.0238 22.201 21.0344 22.2008 21.045C22.2003 21.0564 22.197 21.0674 22.1913 21.0772C22.1855 21.0869 22.1775 21.0951 22.1678 21.101C21.6681 21.3888 21.1461 21.6359 20.6068 21.84C20.5918 21.8486 20.5802 21.862 20.5738 21.878C20.569 21.8855 20.5664 21.8942 20.5664 21.903C20.5664 21.9119 20.569 21.9206 20.5738 21.928C20.8721 22.5061 21.2134 23.061 21.5948 23.588C21.6014 23.597 21.6099 23.6043 21.6198 23.6093C21.6297 23.6143 21.6407 23.617 21.6518 23.617H21.6658C23.4663 23.0666 25.1593 22.2123 26.6718 21.091C26.6838 21.0794 26.6913 21.0637 26.6928 21.047C27.1262 17.0202 26.074 12.9736 23.7338 9.66803C23.7258 9.65203 23.7218 9.64503 23.7128 9.64103C22.4144 9.04686 21.0442 8.62399 19.6368 8.38303C19.6256 8.38165 19.6142 8.38356 19.6041 8.38854C19.594 8.39351 19.5855 8.40133 19.5798 8.41103C19.3926 8.74938 19.2231 9.09718 19.0718 9.45303C17.5566 9.22128 16.015 9.22128 14.4998 9.45303C14.3474 9.09599 14.1744 8.74807 13.9818 8.41103C13.9764 8.40187 13.9686 8.39434 13.9593 8.38923C13.9499 8.38413 13.9394 8.38164 13.9288 8.38203H13.9148C12.5088 8.62092 11.1404 9.04388 9.84478 9.64003C9.83336 9.64622 9.82398 9.6556 9.81779 9.66703C7.50609 12.9856 6.45923 17.0223 6.86679 21.046C6.86773 21.0549 6.87064 21.0635 6.87531 21.0711C6.87998 21.0787 6.88629 21.0852 6.89378 21.09C8.40082 22.2117 10.0894 23.0662 11.8858 23.616H11.9018C11.923 23.6157 11.9433 23.6075 11.9588 23.593C12.344 23.0674 12.6852 22.5108 12.9788 21.929C12.9847 21.9129 12.9847 21.8952 12.9788 21.879C12.9731 21.8626 12.9612 21.849 12.9458 21.841C12.4065 21.6369 11.8845 21.3898 11.3848 21.102C11.3747 21.0966 11.3663 21.0885 11.3605 21.0786C11.3547 21.0687 11.3517 21.0575 11.3518 21.046C11.3507 21.0353 11.3527 21.0244 11.3574 21.0147C11.3622 21.005 11.3696 20.9968 11.3788 20.991C11.4628 20.929 11.5408 20.865 11.6148 20.804L11.6868 20.747C11.6986 20.74 11.712 20.7358 11.7258 20.735C11.7352 20.7353 11.7444 20.7377 11.7528 20.742C13.3319 21.475 15.0509 21.8574 16.7918 21.863C18.5236 21.8595 20.2336 21.4768 21.8018 20.742C21.8098 20.7389 21.8182 20.7372 21.8268 20.737L21.8278 20.734ZM20.1108 18.772C19.6149 18.7167 19.1569 18.4806 18.8242 18.1087C18.4915 17.7369 18.3076 17.2555 18.3076 16.7565C18.3076 16.2576 18.4915 15.7762 18.8242 15.4043C19.1569 15.0325 19.6149 14.7963 20.1108 14.741C20.3369 14.7424 20.5605 14.7892 20.7682 14.8787C20.9759 14.9682 21.1635 15.0986 21.3198 15.262C21.511 15.4614 21.661 15.6965 21.7612 15.9539C21.8614 16.2112 21.9099 16.4859 21.9038 16.762C21.9306 17.2663 21.7571 17.7608 21.4211 18.1378C21.0851 18.5148 20.6138 18.7438 20.1098 18.775L20.1108 18.772ZM13.4648 18.772C12.9704 18.7147 12.5144 18.4777 12.1834 18.1061C11.8524 17.7345 11.6695 17.2542 11.6695 16.7565C11.6695 16.2589 11.8524 15.7786 12.1834 15.407C12.5144 15.0353 12.9704 14.7983 13.4648 14.741C13.6916 14.7422 13.9158 14.7889 14.1242 14.8784C14.3325 14.9679 14.5208 15.0984 14.6778 15.262C14.8689 15.4613 15.0185 15.6964 15.1181 15.9539C15.2176 16.2114 15.2651 16.4861 15.2578 16.762C15.2846 17.2663 15.1111 17.7608 14.7751 18.1378C14.4391 18.5148 13.9678 18.7438 13.4638 18.775L13.4648 18.772Z" fill="white"/>
</g>
<defs>
<clipPath id="clip0_1_694">
<rect width="32" height="32" fill="white" transform="translate(0.779297)"/>
</clipPath>
</defs>
</svg>
