<svg width="149" height="64" viewBox="0 0 149 64" fill="none" xmlns="http://www.w3.org/2000/svg">
<g clip-path="url(#clip0_1_99)">
<path d="M16.197 43.297V6.18994L0 33.5662L16.197 43.297Z" fill="#FFE644"/>
<path d="M16.1972 6.18994L32.3942 33.5662L16.1972 43.2244V6.18994Z" fill="#EC7463"/>
<path d="M0.000198364 35.6724L16.1972 45.3305V57.8208" fill="#009ECB"/>
<path d="M32.3942 35.6724L16.1972 45.3305V57.8208" fill="#4D68AE"/>
<path d="M16.1972 23.9092L0.000198364 33.5673L16.1972 43.2254V23.9092Z" fill="#57A759"/>
<path d="M16.1972 23.9092L32.3942 33.5673L16.1972 43.2254V23.9092Z" fill="#8E5298"/>
<path d="M57.5667 39.6752H60.4919V40.7612H60.5755C61.0051 40.3074 61.5238 39.9471 62.099 39.7028C62.6742 39.4584 63.2936 39.3353 63.9185 39.3411C64.8496 39.3236 65.7598 39.6176 66.5046 40.1764C67.267 40.7901 67.798 41.6447 68.0105 42.5999L65.0853 43.5188C64.9652 43.071 64.6883 42.6813 64.3049 42.4206C63.9214 42.1599 63.4571 42.0457 62.9965 42.0987C62.6713 42.055 62.3404 42.0932 62.0338 42.2099C61.7272 42.3267 61.4547 42.5181 61.2409 42.767C61.0238 43.0178 60.8601 43.3102 60.7595 43.6263C60.659 43.9423 60.6238 44.2756 60.6561 44.6057V51.0398H57.5667V39.6752ZM111.041 45.6012C111.042 44.4987 111.299 43.4115 111.793 42.4259C112.262 41.5126 112.988 40.757 113.882 40.253C114.808 39.7592 115.841 39.5009 116.891 39.5009C117.94 39.5009 118.974 39.7592 119.9 40.253C120.771 40.7607 121.469 41.5175 121.906 42.4259C122.4 43.4115 122.658 44.4987 122.658 45.6012V46.52H114.133C114.139 46.8552 114.217 47.1853 114.361 47.488C114.505 47.7907 114.712 48.0591 114.968 48.2752C115.53 48.7409 116.246 48.9793 116.975 48.9435C117.536 48.9751 118.093 48.8289 118.566 48.5258C119.187 48.2005 119.73 47.7445 120.157 47.1893L122.08 49.1951C121.447 49.9195 120.681 50.5154 119.823 50.9503C118.944 51.3906 117.964 51.5923 116.981 51.5351C115.904 51.5442 114.842 51.2859 113.889 50.7832C113.018 50.2878 112.296 49.5663 111.8 48.6949C111.2 47.7813 110.932 46.6889 111.041 45.6012ZM119.483 44.3481C119.413 43.732 119.115 43.1643 118.648 42.757C118.137 42.3505 117.503 42.1291 116.851 42.1291C116.198 42.1291 115.564 42.3505 115.054 42.757C114.593 43.1817 114.272 43.7367 114.135 44.3481H119.483Z" fill="white"/>
<path d="M125.542 45.6012C125.542 44.4987 125.8 43.4116 126.294 42.4259C126.762 41.5126 127.488 40.7571 128.383 40.253C129.309 39.7593 130.342 39.501 131.391 39.501C132.441 39.501 133.474 39.7593 134.4 40.253C135.271 40.7608 135.97 41.5176 136.406 42.4259C136.9 43.4116 137.158 44.4987 137.158 45.6012V46.5201H128.633C128.639 46.8553 128.717 47.1853 128.861 47.488C129.005 47.7908 129.212 48.0592 129.469 48.2753C130.03 48.741 130.746 48.9794 131.475 48.9436C132.036 48.9751 132.593 48.829 133.066 48.5259C133.687 48.2005 134.23 47.7445 134.658 47.1894L136.58 49.1952C135.948 49.9195 135.182 50.5154 134.324 50.9504C133.444 51.3907 132.464 51.5923 131.482 51.5351C130.405 51.5443 129.342 51.286 128.389 50.7833C127.518 50.2878 126.796 49.5663 126.301 48.695C125.7 47.7814 125.432 46.689 125.542 45.6012ZM133.983 44.3482C133.914 43.7321 133.616 43.1644 133.148 42.7571C132.637 42.3505 132.004 42.1292 131.351 42.1292C130.698 42.1292 130.065 42.3505 129.554 42.7571C129.093 43.1817 128.773 43.7368 128.635 44.3482H133.983Z" fill="white"/>
<path d="M49.6144 57.2602H44.3994V54.251H49.2732C49.599 54.2564 49.9195 54.1688 50.1972 53.9984C50.3652 53.7528 50.4512 53.4604 50.4429 53.163V50.4522H50.3783C49.5366 51.1527 48.4622 51.5112 47.3684 51.4566C46.3977 51.4667 45.4433 51.2064 44.6122 50.7048C43.8096 50.1659 43.1726 49.4146 42.7721 48.5349C42.3336 47.5615 42.1052 46.5067 42.1017 45.4391C42.1222 44.3218 42.3495 43.2179 42.7721 42.1833C43.1716 41.3246 43.8106 40.5994 44.6122 40.0949C45.4135 39.597 46.3394 39.336 47.2829 39.3421C47.9027 39.3213 48.5202 39.4291 49.0962 39.6588C49.6723 39.8885 50.1945 40.2351 50.6299 40.6767H50.7105V39.6743H53.5522V51.6624H53.5403V53.7508C53.5927 54.2314 53.529 54.7175 53.3543 55.1683C53.1797 55.6192 52.8992 56.0214 52.5367 56.3413C51.8015 56.9447 50.8798 57.2747 49.9287 57.2751C49.8252 57.2711 49.7198 57.2691 49.6144 57.2602ZM45.8605 43.1002C45.4116 43.7986 45.1729 44.6114 45.1729 45.4416C45.1729 46.2719 45.4116 47.0846 45.8605 47.7831C46.3669 48.3054 47.0597 48.6058 47.7872 48.6184C48.2544 48.6272 48.7156 48.5112 49.123 48.2823C49.5309 48.0681 49.8766 47.7523 50.1266 47.3654C50.3124 47.1017 50.4224 46.7922 50.4449 46.4704V44.4208C50.4245 44.1288 50.341 43.8447 50.2 43.5882C50.059 43.3317 49.8639 43.1088 49.6283 42.9351C49.3739 42.6871 49.0723 42.4928 48.7413 42.3637C48.4103 42.2345 48.0568 42.1732 47.7016 42.1833C47.3452 42.1861 46.9942 42.2702 46.6751 42.4291C46.3561 42.588 46.0775 42.8175 45.8605 43.1002Z" fill="white"/>
<path d="M69.7495 48.2026C69.7217 47.7289 69.8055 47.2553 69.9941 46.8199C70.1828 46.3845 70.471 45.9994 70.8357 45.6956C71.9356 44.9577 73.1987 44.499 74.5159 44.3591C75.1497 44.2826 75.7691 44.1151 76.355 43.8618C76.4931 43.7868 76.6106 43.679 76.6973 43.5479C76.7841 43.4168 76.8373 43.2665 76.8523 43.11C76.8559 42.9382 76.8111 42.7689 76.7232 42.6212C76.6353 42.4736 76.5077 42.3535 76.355 42.2747C75.9505 42.0379 75.4866 41.9219 75.0182 41.9406C74.7275 41.9283 74.4372 41.9736 74.164 42.074C73.8909 42.1743 73.6403 42.3277 73.4267 42.5253C72.9925 42.9226 72.6992 43.4504 72.5912 44.0289L69.7495 43.3606C69.9105 42.5939 70.2544 41.8774 70.7521 41.2723C71.281 40.6636 71.9374 40.1788 72.6748 39.8522C73.4686 39.5194 74.3215 39.3503 75.1823 39.355C75.8226 39.3059 76.466 39.3921 77.0708 39.6079C77.6756 39.8238 78.2281 40.1646 78.6925 40.608C79.127 41.0304 79.47 41.5377 79.7 42.0984C79.9299 42.659 80.042 43.261 80.0293 43.8668V51.1363H77.2691V49.9628H77.1856C76.834 50.4807 76.341 50.8867 75.7652 51.1323C75.1269 51.3906 74.4473 51.5321 73.759 51.55C73.0696 51.5406 72.3885 51.3988 71.7527 51.1323C71.1769 50.8867 70.6839 50.4807 70.3324 49.9628C69.9535 49.4542 69.7491 48.8368 69.7495 48.2026ZM76.9369 47.0332V45.7006H76.8533C76.6911 45.9352 76.4563 46.1099 76.1849 46.1978C75.7236 46.3752 75.2485 46.5149 74.7646 46.6155C74.1706 46.6832 73.5992 46.883 73.0925 47.2002C72.9488 47.2833 72.8326 47.4068 72.7583 47.5552C72.6841 47.7037 72.655 47.8707 72.6748 48.0356C72.674 48.1862 72.712 48.3345 72.7852 48.4662C72.8583 48.5979 72.9642 48.7085 73.0925 48.7874C73.4585 48.9583 73.8584 49.044 74.2623 49.038C74.7193 49.0358 75.1723 48.9509 75.5991 48.7874C75.9969 48.6352 76.3442 48.3748 76.6017 48.0356C76.787 47.7308 76.9022 47.3881 76.9369 47.0332ZM103.64 42.3403V46.9367C103.634 47.2346 103.721 47.527 103.891 47.772C104.167 47.9422 104.486 48.0292 104.81 48.0226H107.396V51.0309H104.471C103.414 51.1142 102.365 50.7848 101.546 50.112C101.185 49.7921 100.905 49.3905 100.731 48.9407C100.556 48.491 100.492 48.0061 100.543 47.5264V42.2548H97.7063V39.4972H100.548V36.5725H103.64V39.4972H108.15V42.2548H103.636L103.64 42.3403ZM84.0407 39.6742H87.1331V40.7602H87.2167C87.6672 40.3326 88.173 39.9674 88.7206 39.6742C89.351 39.4278 90.0259 39.3154 90.7021 39.3442C91.3784 39.373 92.0413 39.5423 92.6485 39.8413C93.3158 40.2145 93.8666 40.7653 94.2399 41.4324C94.6791 42.2523 94.8816 43.1781 94.8248 44.1065V51.0418H91.7324V44.5212C91.7571 43.8845 91.5492 43.2606 91.1476 42.766C90.9501 42.5415 90.7043 42.3647 90.4287 42.2489C90.153 42.1332 89.8547 42.0815 89.5561 42.0977C89.2331 42.0809 88.9101 42.1316 88.6078 42.2467C88.3055 42.3618 88.0306 42.5386 87.8005 42.766C87.3746 43.2521 87.1374 43.8749 87.1321 44.5212V51.0388H84.0407V39.6742Z" fill="white"/>
<g filter="url(#filter0_d_1_99)">
<path d="M45.6808 19.3679V22.4752H50.6919V25.3637H45.6808V28.7335H51.3484V31.7314H41.9389V16.37H51.3484V19.3679H45.6808ZM61.6116 31.7314L58.4167 25.9326H57.5195V31.7314H53.7776V16.37H60.0579C61.2687 16.37 62.2972 16.5815 63.1433 17.0046C64.004 17.4276 64.6459 18.0111 65.069 18.7551C65.4921 19.4846 65.7036 20.3015 65.7036 21.206C65.7036 22.2272 65.4118 23.1389 64.8283 23.9413C64.2593 24.7436 63.4132 25.3126 62.2899 25.6481L65.8349 31.7314H61.6116ZM57.5195 23.2848H59.8391C60.5247 23.2848 61.0353 23.1171 61.3709 22.7815C61.721 22.446 61.896 21.9719 61.896 21.3592C61.896 20.7756 61.721 20.3161 61.3709 19.9806C61.0353 19.645 60.5247 19.4773 59.8391 19.4773H57.5195V23.2848ZM67.4179 24.0288C67.4179 22.5116 67.7462 21.1622 68.4026 19.9806C69.0591 18.7843 69.9709 17.858 71.138 17.2015C72.3196 16.5304 73.6544 16.1949 75.1424 16.1949C76.966 16.1949 78.5269 16.6763 79.8253 17.6391C81.1236 18.602 81.9917 19.9149 82.4293 21.578H78.3154C78.009 20.9361 77.5714 20.4474 77.0025 20.1119C76.4481 19.7763 75.8135 19.6086 75.0987 19.6086C73.9462 19.6086 73.0126 20.0097 72.2977 20.8121C71.5829 21.6145 71.2255 22.6867 71.2255 24.0288C71.2255 25.3709 71.5829 26.4432 72.2977 27.2455C73.0126 28.0479 73.9462 28.4491 75.0987 28.4491C75.8135 28.4491 76.4481 28.2813 77.0025 27.9458C77.5714 27.6102 78.009 27.1215 78.3154 26.4797H82.4293C81.9917 28.1427 81.1236 29.4557 79.8253 30.4185C78.5269 31.3667 76.966 31.8409 75.1424 31.8409C73.6544 31.8409 72.3196 31.5126 71.138 30.8561C69.9709 30.1851 69.0591 29.2587 68.4026 28.0771C67.7462 26.8954 67.4179 25.546 67.4179 24.0288ZM94.1303 22.497V25.6044H84.502V22.497H94.1303ZM97.1299 28.8867V25.8669L104.045 15.9761H108.224V25.6481H110.019V28.8867H108.224V31.7314H104.482V28.8867H97.1299ZM104.745 20.09L101.069 25.6481H104.745V20.09ZM111.983 20.265C112.041 18.7041 112.552 17.5006 113.515 16.6544C114.477 15.8083 115.783 15.3853 117.431 15.3853C118.526 15.3853 119.459 15.5749 120.232 15.9542C121.02 16.3335 121.611 16.8514 122.005 17.5078C122.413 18.1643 122.618 18.901 122.618 19.718C122.618 20.6808 122.377 21.4686 121.896 22.0813C121.414 22.6794 120.852 23.0879 120.211 23.3067V23.3942C121.042 23.6714 121.699 24.1309 122.18 24.7728C122.661 25.4147 122.902 26.2389 122.902 27.2455C122.902 28.15 122.691 28.9524 122.268 29.6526C121.859 30.3383 121.254 30.878 120.451 31.2719C119.663 31.6658 118.723 31.8627 117.628 31.8627C115.878 31.8627 114.477 31.4324 113.427 30.5717C112.391 29.711 111.844 28.4126 111.786 26.6766H115.418C115.433 27.3185 115.615 27.8291 115.965 28.2084C116.315 28.5731 116.826 28.7554 117.497 28.7554C118.066 28.7554 118.504 28.595 118.81 28.274C119.131 27.9385 119.291 27.5008 119.291 26.9611C119.291 26.2608 119.065 25.7575 118.613 25.4512C118.175 25.1302 117.468 24.9698 116.491 24.9698H115.79V21.9281H116.491C117.235 21.9281 117.833 21.8041 118.285 21.5561C118.752 21.2935 118.985 20.834 118.985 20.1775C118.985 19.6523 118.839 19.2439 118.547 18.9521C118.256 18.6603 117.855 18.5144 117.344 18.5144C116.79 18.5144 116.374 18.6822 116.097 19.0177C115.834 19.3533 115.681 19.769 115.637 20.265H111.983ZM125.232 20.265C125.29 18.7041 125.801 17.5006 126.764 16.6544C127.726 15.8083 129.032 15.3853 130.681 15.3853C131.775 15.3853 132.708 15.5749 133.482 15.9542C134.269 16.3335 134.86 16.8514 135.254 17.5078C135.663 18.1643 135.867 18.901 135.867 19.718C135.867 20.6808 135.626 21.4686 135.145 22.0813C134.663 22.6794 134.102 23.0879 133.46 23.3067V23.3942C134.291 23.6714 134.948 24.1309 135.429 24.7728C135.911 25.4147 136.151 26.2389 136.151 27.2455C136.151 28.15 135.94 28.9524 135.517 29.6526C135.108 30.3383 134.503 30.878 133.7 31.2719C132.913 31.6658 131.972 31.8627 130.878 31.8627C129.127 31.8627 127.726 31.4324 126.676 30.5717C125.64 29.711 125.093 28.4126 125.035 26.6766H128.667C128.682 27.3185 128.864 27.8291 129.215 28.2084C129.565 28.5731 130.075 28.7554 130.746 28.7554C131.315 28.7554 131.753 28.595 132.059 28.274C132.38 27.9385 132.541 27.5008 132.541 26.9611C132.541 26.2608 132.315 25.7575 131.862 25.4512C131.425 25.1302 130.717 24.9698 129.74 24.9698H129.039V21.9281H129.74C130.484 21.9281 131.082 21.8041 131.534 21.5561C132.001 21.2935 132.234 20.834 132.234 20.1775C132.234 19.6523 132.088 19.2439 131.797 18.9521C131.505 18.6603 131.104 18.5144 130.593 18.5144C130.039 18.5144 129.623 18.6822 129.346 19.0177C129.083 19.3533 128.93 19.769 128.886 20.265H125.232ZM148.547 18.5582L143.054 31.7314H139.225L144.783 18.974H137.978V15.7791H148.547V18.5582Z" fill="white"/>
</g>
</g>
<defs>
<filter id="filter0_d_1_99" x="37.9389" y="15.3853" width="114.608" height="24.4775" filterUnits="userSpaceOnUse" color-interpolation-filters="sRGB">
<feFlood flood-opacity="0" result="BackgroundImageFix"/>
<feColorMatrix in="SourceAlpha" type="matrix" values="0 0 0 0 0 0 0 0 0 0 0 0 0 0 0 0 0 0 127 0" result="hardAlpha"/>
<feOffset dy="4"/>
<feGaussianBlur stdDeviation="2"/>
<feComposite in2="hardAlpha" operator="out"/>
<feColorMatrix type="matrix" values="0 0 0 0 0 0 0 0 0 0 0 0 0 0 0 0 0 0 0.25 0"/>
<feBlend mode="normal" in2="BackgroundImageFix" result="effect1_dropShadow_1_99"/>
<feBlend mode="normal" in="SourceGraphic" in2="effect1_dropShadow_1_99" result="shape"/>
</filter>
<clipPath id="clip0_1_99">
<rect width="149" height="51.63" fill="white" transform="translate(0 6.18994)"/>
</clipPath>
</defs>
</svg>
