<svg width="33" height="32" viewBox="0 0 33 32" fill="none" xmlns="http://www.w3.org/2000/svg">
<g clip-path="url(#clip0_1_698)">
<path d="M16.9707 0.000976563C13.8062 0.000976563 10.7128 0.93936 8.08159 2.69746C5.4504 4.45557 3.39964 6.95442 2.18864 9.87804C0.977636 12.8017 0.660782 16.0187 1.27815 19.1224C1.89551 22.2261 3.41936 25.077 5.657 27.3147C7.89464 29.5523 10.7456 31.0762 13.8493 31.6935C16.953 32.3109 20.17 31.9941 23.0936 30.783C26.0173 29.572 28.5161 27.5213 30.2742 24.8901C32.0323 22.2589 32.9707 19.1655 32.9707 16.001C32.9707 11.7575 31.285 7.68785 28.2844 4.68727C25.2838 1.68669 21.2142 0.000976563 16.9707 0.000976563ZM21.2047 15.934H18.4347V25.815H14.3277V15.934H12.3747V12.444H14.3277V10.184C14.284 9.62875 14.3612 9.07064 14.5542 8.54817C14.7471 8.0257 15.0511 7.55131 15.4451 7.15772C15.8392 6.76414 16.3139 6.46074 16.8366 6.26845C17.3593 6.07617 17.9175 5.99958 18.4727 6.04398L21.5137 6.05598V9.44398H19.3057C19.1828 9.43749 19.06 9.45827 18.946 9.50481C18.832 9.55136 18.7298 9.62252 18.6466 9.71321C18.5633 9.80389 18.5012 9.91186 18.4645 10.0294C18.4279 10.1469 18.4177 10.2711 18.4347 10.393V12.444H21.5647L21.2047 15.934Z" fill="white"/>
</g>
<defs>
<clipPath id="clip0_1_698">
<rect width="32" height="32" fill="white" transform="translate(0.970703)"/>
</clipPath>
</defs>
</svg>
