<svg width="423" height="423" viewBox="0 0 423 423" fill="none" xmlns="http://www.w3.org/2000/svg">
<g filter="url(#filter0_d_2259_116)">
<g clip-path="url(#clip0_2259_116)">
<rect width="423" height="423" rx="13.8973" fill="#080B18"/>
<path fill-rule="evenodd" clip-rule="evenodd" d="M188.104 69.1454L187.261 67.3848H183.448L182.605 69.1454H180.721L184.571 61.2769H186.176L190.037 69.1454H188.104ZM185.354 63.4127L184.21 65.7874H186.49L185.354 63.4127ZM190.997 69.1454V61.2769H192.734L195.79 65.9829L198.819 61.2769H200.543V69.1454H198.872V64.0911L196.459 67.8929H195.09L192.667 64.1345V69.1471H190.997V69.1454ZM207.756 69.1454H202.66V61.2769H207.614C208.239 61.2429 208.858 61.4364 209.373 61.8276C209.591 62.0112 209.766 62.2494 209.883 62.5224C210.001 62.7954 210.057 63.0953 210.048 63.3971C210.054 63.7242 209.984 64.0476 209.845 64.3365C209.705 64.6254 209.501 64.8702 209.251 65.0474C209.503 65.1738 209.728 65.3563 209.913 65.5833C210.2 65.947 210.354 66.4151 210.344 66.8966C210.356 67.2175 210.297 67.5367 210.174 67.8277C210.05 68.1186 209.865 68.3727 209.634 68.5686C209.081 68.9826 208.42 69.185 207.752 69.1445L207.756 69.1454ZM208.097 63.0358C207.883 62.882 207.628 62.81 207.373 62.8308H204.385V64.3873H207.384C207.634 64.4032 207.882 64.3241 208.085 64.1632C208.16 64.0926 208.22 64.0041 208.259 63.9044C208.298 63.8048 208.316 63.6966 208.311 63.5882C208.318 63.4842 208.302 63.38 208.265 63.284C208.228 63.188 208.171 63.1029 208.099 63.0358H208.097ZM208.306 66.1818C208.067 66.0109 207.783 65.9301 207.498 65.9516H204.385V67.5923H207.525C207.804 67.616 208.082 67.5411 208.32 67.3787C208.398 67.3083 208.459 67.2184 208.499 67.1165C208.539 67.0147 208.556 66.9038 208.549 66.7932C208.555 66.678 208.536 66.5627 208.494 66.457C208.451 66.3513 208.387 66.2582 208.306 66.1852L208.306 66.1818ZM211.963 69.1462V61.2777H213.719V69.1462H211.963ZM215.836 69.1462V61.2777H220.474C221.175 61.2344 221.866 61.4713 222.421 61.9448C222.661 62.1828 222.849 62.4764 222.974 62.8045C223.098 63.1325 223.154 63.4869 223.138 63.8418C223.15 64.1681 223.099 64.4934 222.989 64.7969C222.88 65.1004 222.714 65.3753 222.502 65.6042C222.143 65.9624 221.696 66.1975 221.217 66.2808L223.635 69.1471H221.39L219.12 66.438H217.59V69.1471H215.834L215.836 69.1462ZM221.124 63.1382C220.869 62.9475 220.563 62.858 220.255 62.8846H217.591V64.8311H220.252C220.56 64.8568 220.866 64.7664 221.12 64.5749C221.211 64.4866 221.282 64.3765 221.328 64.2531C221.374 64.1298 221.393 63.9965 221.385 63.8635C221.394 63.7288 221.376 63.5934 221.331 63.4677C221.286 63.342 221.215 63.2293 221.124 63.1382H221.124ZM224.845 69.1462V61.2777H231.688V62.8846H226.572V64.3352H231.084V65.9316H226.572V67.5402H231.687V69.1462H224.845Z" fill="#EBECFF"/>
<path d="M213.948 29.796L218.971 41.5644C218.995 41.6254 219.002 41.693 218.991 41.7584C218.98 41.8239 218.952 41.8843 218.91 41.9318L205.696 55.9829C205.675 56.0051 205.649 56.0199 205.62 56.0253C205.591 56.0308 205.562 56.0267 205.535 56.0135C205.509 56.0003 205.486 55.9787 205.471 55.9514C205.456 55.9241 205.448 55.8925 205.449 55.8604V42.9498L213.776 34.1033C213.805 34.0739 213.827 34.0381 213.842 33.9982C213.857 33.9583 213.864 33.9154 213.863 33.8722L213.887 29.7951C213.887 29.7682 213.937 29.7682 213.949 29.7951L213.948 29.796Z" fill="#6000FF"/>
<path fill-rule="evenodd" clip-rule="evenodd" d="M205.451 42.9508V55.8606C205.45 55.8925 205.458 55.9239 205.473 55.9509C205.489 55.9779 205.511 55.9993 205.537 56.0124C205.564 56.0255 205.593 56.0297 205.622 56.0245C205.65 56.0193 205.677 56.0049 205.698 55.9831L218.911 41.932C218.954 41.8846 218.982 41.8243 218.993 41.7588C219.005 41.6933 218.998 41.6257 218.973 41.5646L213.815 34.0601L205.449 42.9508H205.451Z" fill="url(#paint0_linear_2259_116)"/>
<path fill-rule="evenodd" clip-rule="evenodd" d="M213.917 29.7613C213.913 29.7611 213.909 29.7618 213.905 29.7633C213.902 29.7648 213.898 29.7672 213.896 29.7702C213.893 29.7732 213.891 29.7768 213.889 29.7809C213.888 29.7849 213.887 29.7892 213.887 29.7935L213.866 33.8698C213.868 33.9367 213.851 34.0027 213.818 34.0591L218.998 41.7522C219.008 41.683 218.999 41.6119 218.973 41.548L213.95 29.7796C213.947 29.7738 213.943 29.769 213.937 29.7656C213.932 29.7623 213.926 29.7605 213.92 29.7605L213.917 29.7613Z" fill="url(#paint1_linear_2259_116)"/>
<path fill-rule="evenodd" clip-rule="evenodd" d="M218.992 41.7521C219.002 41.6829 218.994 41.6118 218.968 41.5479L218.707 40.9399L214.031 34.3865L218.992 41.7521Z" fill="#BE80F5"/>
<path d="M202.072 19.9166L199.709 27.2821C199.682 27.3674 199.686 27.4611 199.722 27.5427L201.923 32.3121L195.861 36.0896C195.825 36.1103 195.783 36.1148 195.744 36.1022C195.704 36.0896 195.671 36.0608 195.651 36.0218L194.339 33.0183C194.316 32.9691 194.305 32.9134 194.31 32.8579C194.314 32.8024 194.333 32.7495 194.364 32.7056L202.009 19.8775C202.015 19.8711 202.023 19.8671 202.031 19.866C202.039 19.8649 202.048 19.8669 202.055 19.8716C202.062 19.8763 202.067 19.8834 202.07 19.8918C202.073 19.9003 202.073 19.9096 202.071 19.9183L202.072 19.9166Z" fill="#6000FF"/>
<path fill-rule="evenodd" clip-rule="evenodd" d="M202.036 19.8647C202.027 19.8649 202.019 19.869 202.012 19.876L194.693 32.1561L194.686 32.1726L199.712 27.2825L199.728 27.2329L202.074 19.9212C202.076 19.9151 202.076 19.9085 202.075 19.9022C202.074 19.8958 202.072 19.8898 202.068 19.8847C202.065 19.8796 202.06 19.8755 202.055 19.8728C202.049 19.87 202.043 19.8688 202.038 19.8691L202.036 19.8647Z" fill="url(#paint2_linear_2259_116)"/>
<path fill-rule="evenodd" clip-rule="evenodd" d="M194.364 32.7039C194.333 32.748 194.314 32.8009 194.31 32.8563C194.305 32.9118 194.315 32.9674 194.339 33.0166L195.651 36.0202C195.671 36.0594 195.704 36.0883 195.744 36.101C195.783 36.1136 195.825 36.1089 195.861 36.0879L201.924 32.3105L199.722 27.5411C199.687 27.4595 199.682 27.3658 199.709 27.2805L194.364 32.7039Z" fill="url(#paint3_linear_2259_116)"/>
<path fill-rule="evenodd" clip-rule="evenodd" d="M205.45 13.9635V25.4201C205.448 25.4891 205.426 25.5557 205.388 25.6103L193.572 43.2356C193.53 43.2983 193.51 43.3762 193.517 43.4541C193.524 43.532 193.557 43.6043 193.61 43.6569L201.896 52.4626C201.913 52.4819 201.934 52.4963 201.957 52.5042C201.98 52.5122 202.004 52.5135 202.028 52.508C202.052 52.5025 202.074 52.4904 202.092 52.4729C202.111 52.4553 202.124 52.433 202.133 52.4078L211.14 29.2115C211.164 29.1321 211.164 29.0459 211.14 28.9665L205.56 13.94C205.557 13.9281 205.55 13.9175 205.542 13.9099C205.533 13.9022 205.522 13.8979 205.51 13.8975C205.494 13.8975 205.479 13.9045 205.467 13.917C205.456 13.9296 205.45 13.9466 205.45 13.9643V13.9635Z" fill="url(#paint4_linear_2259_116)"/>
<path fill-rule="evenodd" clip-rule="evenodd" d="M205.508 13.8975C205.492 13.8975 205.477 13.9045 205.465 13.917C205.454 13.9296 205.447 13.9466 205.447 13.9643V25.4201C205.446 25.4526 205.441 25.4848 205.432 25.5156L211.065 28.7798L205.557 13.9374C205.553 13.9259 205.547 13.916 205.538 13.9088C205.529 13.9017 205.518 13.8977 205.507 13.8975H205.508Z" fill="url(#paint5_linear_2259_116)"/>
<path fill-rule="evenodd" clip-rule="evenodd" d="M211.161 29.0944C211.161 29.054 211.155 29.0138 211.144 28.9754L211.073 28.7817L205.436 25.5176L206.515 26.1968L211.162 29.0961L211.161 29.0944Z" fill="url(#paint6_linear_2259_116)"/>
<path d="M194.678 32.176L194.367 32.6971L199.708 27.2815L194.678 32.176Z" fill="#BE80F5"/>
<path d="M190.295 77.3864H189.285L187.324 71.771H188.666L189.902 75.5424L191.265 71.771H192.395L193.771 75.5302L195.008 71.771H196.333L194.365 77.3864H193.228L191.817 73.5585L190.406 77.3864H190.299H190.295ZM202.053 77.3864H200.94L200.338 76.1295H197.615L197.014 77.3864H195.672C196.588 75.5143 197.504 73.6425 198.42 71.771H199.565C200.483 73.6431 201.401 75.5149 202.32 77.3864H202.053ZM198.976 73.2954L198.158 74.9917H199.787L198.976 73.2954ZM207.326 77.3864H203.004V71.771H204.258V76.2181H207.485V77.3864H207.327H207.326ZM212.756 77.3864H208.435V71.771H209.688V76.2181H212.915V77.3864H212.757H212.756ZM218.59 77.3864H213.865V71.771H218.7V72.9167H215.098V73.9529H218.318V75.0916H215.098V76.2407H218.749V77.3864H218.591H218.59ZM222.558 77.3864H221.463V72.9392H219.288V71.771H224.903V72.9392H222.716V77.3864H222.558Z" fill="#EBECFF"/>
<path d="M47.6168 115.361V106.514H53.1684V107.66H48.9528V110.326H52.8716V111.466H48.9528V114.215H53.21V115.361H47.6168ZM54.3381 115.361V108.723H55.5672V109.816H55.6563C55.7948 109.447 56.0205 109.161 56.3332 108.955C56.6498 108.745 57.0259 108.64 57.4613 108.64C57.9047 108.64 58.2748 108.745 58.5716 108.955C58.8725 109.161 59.0961 109.447 59.2426 109.816H59.3138C59.4722 109.455 59.7235 109.17 60.0679 108.961C60.4123 108.747 60.822 108.64 61.297 108.64C61.8987 108.64 62.3915 108.83 62.7754 109.21C63.1594 109.586 63.3514 110.154 63.3514 110.914V115.361H62.057V111.033C62.057 110.582 61.9343 110.257 61.6889 110.059C61.4435 109.857 61.1505 109.756 60.8101 109.756C60.3905 109.756 60.064 109.887 59.8304 110.148C59.6008 110.405 59.486 110.732 59.486 111.128V115.361H58.1916V110.95C58.1916 110.589 58.0808 110.301 57.8591 110.083C57.6375 109.865 57.3465 109.756 56.9863 109.756C56.7409 109.756 56.5133 109.822 56.3035 109.952C56.0977 110.079 55.9314 110.257 55.8047 110.487C55.682 110.712 55.6207 110.973 55.6207 111.27V115.361H54.3381ZM66.5102 115.504C66.0906 115.504 65.7106 115.427 65.3702 115.272C65.0298 115.114 64.7606 114.884 64.5627 114.584C64.3647 114.283 64.2658 113.917 64.2658 113.485C64.2658 113.109 64.337 112.802 64.4795 112.565C64.626 112.323 64.8219 112.131 65.0674 111.989C65.3128 111.846 65.5859 111.739 65.8867 111.668C66.1876 111.597 66.4963 111.541 66.813 111.502C67.2128 111.458 67.5354 111.421 67.7808 111.389C68.0262 111.357 68.2044 111.308 68.3152 111.241C68.43 111.169 68.4874 111.057 68.4874 110.902V110.873C68.4874 110.496 68.3805 110.206 68.1668 110C67.957 109.794 67.6443 109.691 67.2286 109.691C66.7972 109.691 66.4548 109.786 66.2014 109.976C65.9521 110.162 65.7799 110.374 65.6849 110.611L64.4677 110.332C64.6141 109.928 64.8259 109.604 65.103 109.358C65.384 109.109 65.7047 108.927 66.0649 108.812C66.429 108.697 66.809 108.64 67.2049 108.64C67.4701 108.64 67.7511 108.672 68.048 108.735C68.3449 108.794 68.624 108.907 68.8852 109.073C69.1504 109.236 69.3662 109.469 69.5324 109.774C69.6987 110.079 69.7818 110.473 69.7818 110.956V115.361H68.5171V114.453H68.4696C68.3904 114.615 68.2657 114.777 68.0955 114.94C67.9293 115.102 67.7155 115.237 67.4543 115.344C67.193 115.45 66.8783 115.504 66.5102 115.504ZM66.7893 114.471C67.1495 114.471 67.4562 114.401 67.7096 114.263C67.9629 114.12 68.1569 113.934 68.2915 113.705C68.426 113.475 68.4933 113.232 68.4933 112.974V112.113C68.4458 112.157 68.3568 112.199 68.2261 112.238C68.0955 112.278 67.9471 112.311 67.7808 112.339C67.6146 112.367 67.4523 112.393 67.2939 112.416C67.1356 112.436 67.003 112.452 66.8961 112.464C66.6468 112.499 66.4191 112.555 66.2133 112.63C66.0075 112.701 65.8412 112.808 65.7146 112.951C65.5918 113.089 65.5305 113.273 65.5305 113.503C65.5305 113.823 65.6492 114.065 65.8867 114.227C66.1242 114.39 66.4251 114.471 66.7893 114.471ZM71.0227 115.361V108.723H72.3053V115.361H71.0227ZM71.6699 107.702C71.4443 107.702 71.2523 107.627 71.094 107.476C70.9357 107.326 70.8565 107.146 70.8565 106.936C70.8565 106.722 70.9357 106.54 71.094 106.39C71.2523 106.239 71.4443 106.164 71.6699 106.164C71.8916 106.164 72.0816 106.239 72.24 106.39C72.4022 106.54 72.4834 106.722 72.4834 106.936C72.4834 107.146 72.4022 107.326 72.24 107.476C72.0816 107.627 71.8916 107.702 71.6699 107.702ZM74.8228 106.514V115.361H73.5403V106.514H74.8228ZM80.6891 115.504C80.2695 115.504 79.8895 115.427 79.5491 115.272C79.2087 115.114 78.9395 114.884 78.7416 114.584C78.5437 114.283 78.4447 113.917 78.4447 113.485C78.4447 113.109 78.516 112.802 78.6585 112.565C78.8049 112.323 79.0009 112.131 79.2463 111.989C79.4917 111.846 79.7648 111.739 80.0657 111.668C80.3665 111.597 80.6753 111.541 80.9919 111.502C81.3917 111.458 81.7144 111.421 81.9598 111.389C82.2052 111.357 82.3833 111.308 82.4942 111.241C82.6089 111.169 82.6663 111.057 82.6663 110.902V110.873C82.6663 110.496 82.5595 110.206 82.3457 110C82.1359 109.794 81.8232 109.691 81.4076 109.691C80.9761 109.691 80.6337 109.786 80.3804 109.976C80.131 110.162 79.9588 110.374 79.8638 110.611L78.6466 110.332C78.7931 109.928 79.0048 109.604 79.2819 109.358C79.563 109.109 79.8836 108.927 80.2438 108.812C80.608 108.697 80.988 108.64 81.3838 108.64C81.649 108.64 81.9301 108.672 82.227 108.735C82.5238 108.794 82.8029 108.907 83.0642 109.073C83.3294 109.236 83.5451 109.469 83.7114 109.774C83.8776 110.079 83.9607 110.473 83.9607 110.956V115.361H82.696V114.453H82.6485C82.5694 114.615 82.4447 114.777 82.2745 114.94C82.1082 115.102 81.8945 115.237 81.6332 115.344C81.372 115.45 81.0573 115.504 80.6891 115.504ZM80.9682 114.471C81.3284 114.471 81.6352 114.401 81.8885 114.263C82.1419 114.12 82.3358 113.934 82.4704 113.705C82.605 113.475 82.6723 113.232 82.6723 112.974V112.113C82.6248 112.157 82.5357 112.199 82.4051 112.238C82.2745 112.278 82.126 112.311 81.9598 112.339C81.7935 112.367 81.6312 112.393 81.4729 112.416C81.3146 112.436 81.1819 112.452 81.0751 112.464C80.8257 112.499 80.5981 112.555 80.3923 112.63C80.1864 112.701 80.0202 112.808 79.8935 112.951C79.7708 113.089 79.7094 113.273 79.7094 113.503C79.7094 113.823 79.8282 114.065 80.0657 114.227C80.3032 114.39 80.604 114.471 80.9682 114.471ZM87.6717 115.492C87.1334 115.492 86.6544 115.355 86.2348 115.082C85.8152 114.805 85.4867 114.411 85.2492 113.901C85.0117 113.386 84.8929 112.773 84.8929 112.06C84.8929 111.34 85.0137 110.724 85.2551 110.213C85.4966 109.703 85.8271 109.313 86.2467 109.044C86.6663 108.775 87.1413 108.64 87.6717 108.64C88.0874 108.64 88.4199 108.709 88.6692 108.848C88.9226 108.982 89.1185 109.141 89.2571 109.323C89.3996 109.505 89.5084 109.665 89.5836 109.804H89.6608V106.514H90.9433V115.361H89.6905V114.328H89.5836C89.5084 114.467 89.3976 114.627 89.2511 114.809C89.1047 114.991 88.9048 115.152 88.6514 115.29C88.402 115.425 88.0755 115.492 87.6717 115.492ZM87.9508 114.394C88.3229 114.394 88.6376 114.295 88.8949 114.097C89.1522 113.899 89.3461 113.624 89.4767 113.271C89.6113 112.919 89.6786 112.511 89.6786 112.048C89.6786 111.585 89.6133 111.181 89.4827 110.837C89.3521 110.489 89.1581 110.219 88.9008 110.029C88.6435 109.835 88.3268 109.738 87.9508 109.738C87.5629 109.738 87.2403 109.839 86.983 110.041C86.7257 110.243 86.5317 110.518 86.4011 110.867C86.2705 111.215 86.2051 111.609 86.2051 112.048C86.2051 112.491 86.2705 112.891 86.4011 113.248C86.5317 113.6 86.7257 113.879 86.983 114.085C87.2442 114.291 87.5668 114.394 87.9508 114.394ZM94.6543 115.492C94.116 115.492 93.637 115.355 93.2174 115.082C92.7978 114.805 92.4693 114.411 92.2318 113.901C91.9943 113.386 91.8755 112.773 91.8755 112.06C91.8755 111.34 91.9963 110.724 92.2377 110.213C92.4792 109.703 92.8097 109.313 93.2293 109.044C93.6489 108.775 94.1239 108.64 94.6543 108.64C95.0699 108.64 95.4025 108.709 95.6518 108.848C95.9052 108.982 96.1011 109.141 96.2397 109.323C96.3822 109.505 96.491 109.665 96.5662 109.804H96.6434V106.514H97.9259V115.361H96.6731V114.328H96.5662C96.491 114.467 96.3802 114.627 96.2337 114.809C96.0873 114.991 95.8874 115.152 95.634 115.29C95.3846 115.425 95.0581 115.492 94.6543 115.492ZM94.9334 114.394C95.3055 114.394 95.6202 114.295 95.8775 114.097C96.1348 113.899 96.3287 113.624 96.4593 113.271C96.5939 112.919 96.6612 112.511 96.6612 112.048C96.6612 111.585 96.5959 111.181 96.4653 110.837C96.3347 110.489 96.1407 110.219 95.8834 110.029C95.6261 109.835 95.3094 109.738 94.9334 109.738C94.5455 109.738 94.2229 109.839 93.9656 110.041C93.7083 110.243 93.5143 110.518 93.3837 110.867C93.253 111.215 93.1877 111.609 93.1877 112.048C93.1877 112.491 93.253 112.891 93.3837 113.248C93.5143 113.6 93.7083 113.879 93.9656 114.085C94.2268 114.291 94.5494 114.394 94.9334 114.394ZM99.1669 115.361V108.723H100.408V109.786H100.479C100.602 109.43 100.816 109.149 101.12 108.943C101.429 108.733 101.777 108.628 102.165 108.628C102.245 108.628 102.338 108.632 102.444 108.64C102.555 108.644 102.644 108.65 102.712 108.658V109.893C102.66 109.877 102.567 109.861 102.433 109.845C102.302 109.829 102.169 109.822 102.035 109.822C101.73 109.822 101.457 109.887 101.215 110.018C100.978 110.144 100.79 110.32 100.651 110.546C100.517 110.768 100.449 111.025 100.449 111.318V115.361H99.1669ZM105.954 115.498C105.304 115.498 104.742 115.357 104.267 115.076C103.792 114.795 103.426 114.399 103.169 113.889C102.915 113.374 102.789 112.775 102.789 112.09C102.789 111.409 102.913 110.809 103.163 110.291C103.416 109.772 103.77 109.368 104.226 109.079C104.685 108.786 105.223 108.64 105.841 108.64C106.217 108.64 106.581 108.701 106.933 108.824C107.286 108.947 107.602 109.141 107.883 109.406C108.164 109.671 108.386 110.016 108.548 110.439C108.715 110.863 108.798 111.373 108.798 111.971V112.434H103.519V111.466H108.133L107.533 111.787C107.533 111.379 107.47 111.019 107.343 110.706C107.216 110.394 107.026 110.15 106.773 109.976C106.524 109.798 106.213 109.709 105.841 109.709C105.469 109.709 105.15 109.798 104.885 109.976C104.624 110.154 104.424 110.39 104.285 110.683C104.147 110.975 104.077 111.296 104.077 111.644V112.303C104.077 112.759 104.156 113.145 104.315 113.461C104.473 113.778 104.693 114.019 104.974 114.186C105.259 114.352 105.589 114.435 105.965 114.435C106.211 114.435 106.432 114.399 106.63 114.328C106.832 114.257 107.006 114.15 107.153 114.008C107.299 113.865 107.41 113.689 107.485 113.479L108.709 113.711C108.61 114.067 108.435 114.38 108.186 114.649C107.937 114.918 107.622 115.128 107.242 115.278C106.866 115.425 106.436 115.498 105.954 115.498ZM114.664 110.35L113.494 110.552C113.419 110.33 113.279 110.126 113.073 109.94C112.871 109.754 112.568 109.661 112.164 109.661C111.8 109.661 111.495 109.744 111.25 109.911C111.008 110.073 110.888 110.281 110.888 110.534C110.888 110.756 110.969 110.936 111.131 111.074C111.297 111.213 111.561 111.324 111.921 111.407L112.984 111.644C113.589 111.783 114.043 112.001 114.343 112.298C114.644 112.594 114.795 112.974 114.795 113.438C114.795 113.837 114.68 114.194 114.45 114.506C114.221 114.815 113.902 115.059 113.494 115.237C113.087 115.411 112.616 115.498 112.081 115.498C111.337 115.498 110.731 115.338 110.264 115.017C109.797 114.696 109.51 114.245 109.403 113.663L110.644 113.473C110.723 113.798 110.884 114.043 111.125 114.209C111.371 114.376 111.687 114.459 112.075 114.459C112.495 114.459 112.831 114.37 113.085 114.192C113.342 114.013 113.471 113.798 113.471 113.544C113.471 113.125 113.158 112.842 112.532 112.695L111.41 112.446C110.789 112.303 110.33 112.08 110.033 111.775C109.74 111.466 109.593 111.078 109.593 110.611C109.593 110.219 109.702 109.875 109.92 109.578C110.142 109.281 110.444 109.052 110.828 108.889C111.216 108.723 111.658 108.64 112.152 108.64C112.873 108.64 113.437 108.796 113.845 109.109C114.256 109.422 114.529 109.835 114.664 110.35ZM120.661 110.35L119.491 110.552C119.416 110.33 119.275 110.126 119.07 109.94C118.868 109.754 118.565 109.661 118.161 109.661C117.797 109.661 117.492 109.744 117.247 109.911C117.005 110.073 116.885 110.281 116.885 110.534C116.885 110.756 116.966 110.936 117.128 111.074C117.294 111.213 117.558 111.324 117.918 111.407L118.981 111.644C119.586 111.783 120.039 112.001 120.34 112.298C120.641 112.594 120.792 112.974 120.792 113.438C120.792 113.837 120.677 114.194 120.447 114.506C120.218 114.815 119.899 115.059 119.491 115.237C119.084 115.411 118.612 115.498 118.078 115.498C117.334 115.498 116.728 115.338 116.261 115.017C115.794 114.696 115.507 114.245 115.4 113.663L116.641 113.473C116.72 113.798 116.881 114.043 117.122 114.209C117.368 114.376 117.684 114.459 118.072 114.459C118.492 114.459 118.828 114.37 119.082 114.192C119.339 114.013 119.467 113.798 119.467 113.544C119.467 113.125 119.155 112.842 118.529 112.695L117.407 112.446C116.786 112.303 116.326 112.08 116.03 111.775C115.737 111.466 115.59 111.078 115.59 110.611C115.59 110.219 115.699 109.875 115.917 109.578C116.138 109.281 116.441 109.052 116.825 108.889C117.213 108.723 117.655 108.64 118.149 108.64C118.87 108.64 119.434 108.796 119.842 109.109C120.253 109.422 120.526 109.835 120.661 110.35Z" fill="white"/>
<rect x="47.3386" y="132.693" width="328.324" height="42.5606" rx="9.98871" fill="#080B18" stroke="#2F354C" stroke-width="0.868583"/>
<path d="M71.9843 152.569V153.757H67.845V152.569H71.9843ZM68.9511 150.764H70.4236V157.93C70.4236 158.278 70.496 158.534 70.6408 158.697C70.7855 158.855 71.0185 158.934 71.3397 158.934C71.4166 158.934 71.498 158.93 71.584 158.921C71.6745 158.912 71.7649 158.898 71.8554 158.88L72.1336 160.101C71.9843 160.151 71.8215 160.19 71.6451 160.217C71.4686 160.244 71.2922 160.258 71.1158 160.258C70.4598 160.258 69.935 160.074 69.5415 159.708C69.1479 159.337 68.9511 158.844 68.9511 158.229V150.764ZM76.144 160.312C75.4338 160.312 74.8118 160.149 74.2779 159.823C73.7487 159.498 73.337 159.041 73.0429 158.453C72.7534 157.864 72.6086 157.181 72.6086 156.403C72.6086 155.616 72.7534 154.928 73.0429 154.34C73.337 153.748 73.7487 153.289 74.2779 152.963C74.8118 152.637 75.4338 152.474 76.144 152.474C76.8588 152.474 77.4808 152.637 78.0101 152.963C78.5394 153.289 78.9511 153.748 79.2452 154.34C79.5392 154.928 79.6862 155.616 79.6862 156.403C79.6862 157.181 79.5392 157.864 79.2452 158.453C78.9511 159.041 78.5394 159.498 78.0101 159.823C77.4808 160.149 76.8588 160.312 76.144 160.312ZM76.144 159.07C76.61 159.07 76.9945 158.948 77.2976 158.704C77.6007 158.459 77.8247 158.136 77.9694 157.733C78.1187 157.326 78.1934 156.883 78.1934 156.403C78.1934 155.915 78.1187 155.467 77.9694 155.06C77.8247 154.652 77.6007 154.327 77.2976 154.082C76.9945 153.838 76.61 153.716 76.144 153.716C75.6826 153.716 75.3003 153.838 74.9972 154.082C74.6987 154.327 74.4747 154.652 74.3254 155.06C74.1762 155.467 74.1015 155.915 74.1015 156.403C74.1015 156.883 74.1762 157.326 74.3254 157.733C74.4747 158.136 74.6987 158.459 74.9972 158.704C75.3003 158.948 75.6826 159.07 76.144 159.07ZM82.2173 150.045V160.156H80.7516V150.045H82.2173ZM88.4331 157.021V152.569H89.8989V160.156H88.4603V158.839H88.3789C88.1979 159.242 87.9174 159.579 87.5374 159.85C87.1574 160.122 86.6824 160.255 86.1124 160.251C85.6238 160.251 85.1918 160.144 84.8163 159.932C84.4453 159.719 84.1536 159.4 83.9409 158.975C83.7328 158.55 83.6288 158.023 83.6288 157.394V152.569H85.0945V157.224C85.0945 157.735 85.2393 158.145 85.5288 158.453C85.8183 158.76 86.1916 158.912 86.6485 158.907C86.9244 158.907 87.1981 158.839 87.4696 158.704C87.7455 158.568 87.974 158.36 88.1549 158.079C88.3404 157.799 88.4331 157.446 88.4331 157.021ZM92.9457 160.156L90.72 152.569H92.24L93.7261 158.14H93.8075L95.2936 152.569H96.8204L98.2929 158.12H98.3676L99.8469 152.569H101.367L99.1411 160.156H97.6415L96.0943 154.686H95.9925L94.4454 160.156H92.9457ZM104.393 160.319C103.914 160.319 103.48 160.23 103.09 160.054C102.701 159.873 102.394 159.611 102.168 159.267C101.941 158.923 101.828 158.505 101.828 158.011C101.828 157.582 101.91 157.231 102.073 156.96C102.24 156.684 102.464 156.464 102.744 156.301C103.025 156.139 103.337 156.016 103.681 155.935C104.025 155.854 104.378 155.79 104.739 155.745C105.196 155.695 105.565 155.652 105.846 155.616C106.126 155.58 106.33 155.523 106.456 155.446C106.587 155.365 106.653 155.236 106.653 155.06V155.026C106.653 154.596 106.531 154.263 106.287 154.028C106.047 153.793 105.689 153.675 105.214 153.675C104.721 153.675 104.33 153.784 104.04 154.001C103.755 154.214 103.559 154.456 103.45 154.727L102.059 154.408C102.226 153.947 102.468 153.576 102.785 153.295C103.106 153.01 103.473 152.802 103.884 152.671C104.301 152.54 104.735 152.474 105.187 152.474C105.49 152.474 105.812 152.51 106.151 152.583C106.49 152.651 106.809 152.78 107.108 152.97C107.411 153.155 107.657 153.422 107.847 153.77C108.037 154.119 108.132 154.569 108.132 155.121V160.156H106.687V159.118H106.633C106.542 159.303 106.4 159.488 106.205 159.674C106.015 159.859 105.771 160.013 105.472 160.135C105.174 160.258 104.814 160.319 104.393 160.319ZM104.712 159.138C105.124 159.138 105.475 159.059 105.764 158.9C106.054 158.738 106.275 158.525 106.429 158.263C106.583 158 106.66 157.722 106.66 157.428V156.444C106.606 156.494 106.504 156.541 106.354 156.586C106.205 156.632 106.036 156.67 105.846 156.702C105.656 156.733 105.47 156.763 105.289 156.79C105.108 156.813 104.957 156.831 104.834 156.844C104.549 156.885 104.289 156.948 104.054 157.034C103.819 157.116 103.629 157.238 103.484 157.401C103.344 157.559 103.274 157.769 103.274 158.032C103.274 158.398 103.409 158.674 103.681 158.86C103.952 159.045 104.296 159.138 104.712 159.138ZM111.016 155.657V160.156H109.551V152.569H110.976V153.818H111.077C111.249 153.406 111.518 153.08 111.885 152.841C112.251 152.596 112.722 152.474 113.296 152.474C113.812 152.474 114.262 152.583 114.647 152.8C115.036 153.013 115.337 153.332 115.549 153.757C115.766 154.182 115.875 154.709 115.875 155.338V160.156H114.409V155.514C114.409 154.967 114.264 154.537 113.975 154.225C113.685 153.908 113.292 153.75 112.794 153.75C112.455 153.75 112.15 153.827 111.878 153.981C111.611 154.13 111.401 154.345 111.247 154.625C111.093 154.906 111.016 155.25 111.016 155.657ZM117.286 160.156V152.569H118.752V160.156H117.286ZM118.026 151.402C117.768 151.402 117.549 151.316 117.368 151.144C117.187 150.972 117.096 150.766 117.096 150.527C117.096 150.282 117.187 150.074 117.368 149.902C117.549 149.731 117.768 149.645 118.026 149.645C118.279 149.645 118.497 149.731 118.677 149.902C118.863 150.074 118.956 150.282 118.956 150.527C118.956 150.766 118.863 150.972 118.677 151.144C118.497 151.316 118.279 151.402 118.026 151.402ZM126.203 162.897C125.181 162.897 124.274 162.759 123.482 162.483C122.695 162.207 122.03 161.8 121.487 161.262C120.948 160.724 120.539 160.065 120.259 159.287C119.978 158.509 119.838 157.62 119.838 156.62C119.838 155.648 119.98 154.775 120.265 154.001C120.55 153.223 120.962 152.56 121.5 152.013C122.043 151.461 122.701 151.04 123.475 150.751C124.253 150.461 125.135 150.316 126.122 150.316C127.062 150.316 127.895 150.466 128.619 150.764C129.343 151.058 129.949 151.463 130.437 151.979C130.93 152.495 131.301 153.087 131.55 153.757C131.803 154.426 131.93 155.134 131.93 155.881C131.93 156.396 131.896 156.903 131.828 157.401C131.761 157.898 131.634 158.348 131.448 158.751C131.267 159.154 131.005 159.475 130.661 159.715C130.322 159.95 129.881 160.068 129.338 160.068C129.089 160.068 128.836 160.029 128.578 159.952C128.325 159.875 128.107 159.753 127.927 159.586C127.75 159.418 127.642 159.206 127.601 158.948H127.547C127.47 159.138 127.345 159.314 127.173 159.477C127.001 159.636 126.782 159.764 126.515 159.864C126.253 159.963 125.947 160.013 125.599 160.013C124.993 160.013 124.477 159.864 124.052 159.565C123.627 159.262 123.303 158.851 123.081 158.33C122.864 157.81 122.756 157.218 122.756 156.552C122.756 155.901 122.885 155.327 123.143 154.829C123.405 154.331 123.756 153.944 124.194 153.669C124.638 153.388 125.135 153.248 125.687 153.248C126.14 153.248 126.517 153.327 126.82 153.485C127.128 153.644 127.334 153.804 127.438 153.967H127.513V153.411H128.72V157.991C128.72 158.253 128.788 158.475 128.924 158.656C129.06 158.837 129.257 158.928 129.514 158.928C129.813 158.928 130.046 158.817 130.213 158.595C130.385 158.373 130.505 158.034 130.573 157.577C130.645 157.12 130.682 156.534 130.682 155.82C130.682 155.317 130.614 154.847 130.478 154.408C130.342 153.965 130.145 153.564 129.888 153.207C129.634 152.845 129.32 152.535 128.944 152.277C128.569 152.015 128.141 151.814 127.662 151.674C127.182 151.529 126.655 151.456 126.081 151.456C125.289 151.456 124.588 151.579 123.977 151.823C123.366 152.067 122.851 152.415 122.43 152.868C122.014 153.32 121.697 153.863 121.48 154.496C121.263 155.13 121.154 155.84 121.154 156.627C121.154 157.446 121.263 158.174 121.48 158.812C121.702 159.446 122.027 159.979 122.457 160.414C122.891 160.848 123.425 161.178 124.059 161.404C124.696 161.631 125.432 161.744 126.264 161.744C126.635 161.744 126.997 161.71 127.35 161.642C127.703 161.579 128.017 161.504 128.293 161.418C128.573 161.336 128.782 161.273 128.917 161.228L129.257 162.314C129.057 162.404 128.791 162.495 128.456 162.585C128.121 162.676 127.757 162.75 127.363 162.809C126.97 162.868 126.583 162.897 126.203 162.897ZM125.735 158.799C126.164 158.799 126.511 158.713 126.773 158.541C127.035 158.369 127.223 158.113 127.336 157.774C127.454 157.435 127.513 157.009 127.513 156.498C127.513 155.996 127.449 155.596 127.323 155.297C127.2 154.999 127.01 154.784 126.753 154.652C126.495 154.521 126.164 154.456 125.762 154.456C125.391 154.456 125.074 154.548 124.812 154.734C124.549 154.915 124.348 155.159 124.208 155.467C124.072 155.774 124.004 156.118 124.004 156.498C124.004 156.896 124.059 157.27 124.167 157.618C124.28 157.966 124.464 158.251 124.717 158.473C124.97 158.69 125.309 158.799 125.735 158.799ZM136.192 163.155C135.287 163.155 134.574 162.985 134.054 162.646C133.534 162.307 133.174 161.904 132.975 161.438L134.237 160.916C134.328 161.061 134.448 161.214 134.597 161.377C134.751 161.54 134.957 161.678 135.214 161.791C135.472 161.904 135.805 161.961 136.212 161.961C136.768 161.961 137.23 161.825 137.596 161.554C137.963 161.287 138.146 160.857 138.146 160.264V158.778H138.044C137.963 158.937 137.838 159.115 137.671 159.314C137.504 159.509 137.275 159.678 136.986 159.823C136.696 159.968 136.318 160.04 135.852 160.04C135.255 160.04 134.717 159.9 134.237 159.62C133.762 159.335 133.382 158.918 133.097 158.371C132.817 157.819 132.677 157.141 132.677 156.335C132.677 155.53 132.815 154.84 133.091 154.266C133.371 153.687 133.751 153.243 134.231 152.936C134.71 152.628 135.255 152.474 135.866 152.474C136.336 152.474 136.716 152.553 137.006 152.712C137.3 152.866 137.528 153.046 137.691 153.255C137.854 153.463 137.981 153.646 138.071 153.804H138.18V152.569H139.612V160.325C139.612 160.977 139.46 161.511 139.157 161.927C138.858 162.343 138.451 162.651 137.936 162.85C137.42 163.053 136.839 163.155 136.192 163.155ZM136.178 158.812C136.816 158.812 137.305 158.593 137.644 158.154C137.988 157.711 138.16 157.098 138.16 156.315C138.16 155.804 138.085 155.356 137.936 154.971C137.786 154.582 137.565 154.279 137.271 154.062C136.977 153.84 136.612 153.73 136.178 153.73C135.735 153.73 135.364 153.845 135.065 154.076C134.771 154.302 134.549 154.612 134.4 155.005C134.251 155.394 134.176 155.831 134.176 156.315C134.176 156.808 134.251 157.245 134.4 157.625C134.549 158 134.773 158.292 135.072 158.5C135.375 158.708 135.744 158.812 136.178 158.812ZM141.023 160.156V152.569H142.428V153.818H142.53C142.688 153.397 142.946 153.069 143.303 152.834C143.665 152.594 144.095 152.474 144.592 152.474C145.099 152.474 145.522 152.594 145.861 152.834C146.205 153.069 146.461 153.397 146.628 153.818H146.71C146.891 153.406 147.178 153.08 147.571 152.841C147.965 152.596 148.433 152.474 148.976 152.474C149.664 152.474 150.227 152.691 150.666 153.126C151.105 153.555 151.324 154.205 151.324 155.073V160.156H149.845V155.209C149.845 154.693 149.704 154.322 149.424 154.096C149.143 153.865 148.809 153.75 148.42 153.75C147.94 153.75 147.567 153.899 147.3 154.198C147.038 154.492 146.906 154.865 146.906 155.317V160.156H145.427V155.114C145.427 154.702 145.3 154.372 145.047 154.123C144.794 153.874 144.461 153.75 144.05 153.75C143.769 153.75 143.509 153.825 143.269 153.974C143.034 154.119 142.844 154.322 142.699 154.585C142.559 154.842 142.489 155.141 142.489 155.48V160.156H141.023ZM154.934 160.319C154.455 160.319 154.02 160.23 153.631 160.054C153.242 159.873 152.934 159.611 152.708 159.267C152.482 158.923 152.369 158.505 152.369 158.011C152.369 157.582 152.45 157.231 152.613 156.96C152.781 156.684 153.005 156.464 153.285 156.301C153.566 156.139 153.878 156.016 154.222 155.935C154.565 155.854 154.918 155.79 155.28 155.745C155.737 155.695 156.106 155.652 156.386 155.616C156.667 155.58 156.87 155.523 156.997 155.446C157.128 155.365 157.194 155.236 157.194 155.06V155.026C157.194 154.596 157.072 154.263 156.827 154.028C156.588 153.793 156.23 153.675 155.755 153.675C155.262 153.675 154.871 153.784 154.581 154.001C154.296 154.214 154.099 154.456 153.991 154.727L152.6 154.408C152.767 153.947 153.009 153.576 153.326 153.295C153.647 153.01 154.013 152.802 154.425 152.671C154.841 152.54 155.276 152.474 155.728 152.474C156.031 152.474 156.352 152.51 156.692 152.583C157.031 152.651 157.35 152.78 157.648 152.97C157.951 153.155 158.198 153.422 158.388 153.77C158.578 154.119 158.673 154.569 158.673 155.121V160.156H157.228V159.118H157.173C157.083 159.303 156.94 159.488 156.746 159.674C156.556 159.859 156.312 160.013 156.013 160.135C155.714 160.258 155.355 160.319 154.934 160.319ZM155.253 159.138C155.665 159.138 156.015 159.059 156.305 158.9C156.594 158.738 156.816 158.525 156.97 158.263C157.124 158 157.201 157.722 157.201 157.428V156.444C157.146 156.494 157.044 156.541 156.895 156.586C156.746 156.632 156.576 156.67 156.386 156.702C156.196 156.733 156.011 156.763 155.83 156.79C155.649 156.813 155.497 156.831 155.375 156.844C155.09 156.885 154.83 156.948 154.595 157.034C154.36 157.116 154.17 157.238 154.025 157.401C153.885 157.559 153.814 157.769 153.814 158.032C153.814 158.398 153.95 158.674 154.222 158.86C154.493 159.045 154.837 159.138 155.253 159.138ZM160.091 160.156V152.569H161.557V160.156H160.091ZM160.831 151.402C160.573 151.402 160.354 151.316 160.173 151.144C159.992 150.972 159.901 150.766 159.901 150.527C159.901 150.282 159.992 150.074 160.173 149.902C160.354 149.731 160.573 149.645 160.831 149.645C161.084 149.645 161.301 149.731 161.482 149.902C161.668 150.074 161.761 150.282 161.761 150.527C161.761 150.766 161.668 150.972 161.482 151.144C161.301 151.316 161.084 151.402 160.831 151.402ZM164.434 150.045V160.156H162.968V150.045H164.434ZM166.945 160.251C166.669 160.251 166.434 160.156 166.239 159.966C166.049 159.776 165.954 159.543 165.954 159.267C165.954 158.991 166.049 158.758 166.239 158.568C166.434 158.378 166.669 158.283 166.945 158.283C167.221 158.283 167.454 158.378 167.644 158.568C167.838 158.758 167.936 158.991 167.936 159.267C167.936 159.543 167.838 159.776 167.644 159.966C167.454 160.156 167.221 160.251 166.945 160.251ZM172.638 160.312C171.91 160.312 171.281 160.144 170.752 159.81C170.222 159.475 169.815 159.013 169.53 158.425C169.245 157.837 169.103 157.163 169.103 156.403C169.103 155.63 169.248 154.949 169.537 154.361C169.831 153.768 170.241 153.307 170.765 152.976C171.295 152.642 171.914 152.474 172.625 152.474C173.204 152.474 173.717 152.581 174.165 152.793C174.617 153.001 174.982 153.298 175.258 153.682C175.538 154.067 175.703 154.514 175.753 155.026H174.314C174.265 154.786 174.167 154.567 174.023 154.367C173.882 154.168 173.697 154.01 173.466 153.892C173.235 153.775 172.962 153.716 172.645 153.716C172.233 153.716 171.874 153.825 171.566 154.042C171.263 154.254 171.025 154.56 170.854 154.958C170.682 155.356 170.596 155.826 170.596 156.369C170.596 156.917 170.679 157.394 170.847 157.801C171.014 158.208 171.252 158.523 171.559 158.744C171.871 158.961 172.233 159.07 172.645 159.07C173.07 159.07 173.432 158.952 173.731 158.717C174.034 158.482 174.228 158.161 174.314 157.754H175.753C175.703 158.247 175.545 158.686 175.278 159.07C175.011 159.455 174.654 159.758 174.206 159.979C173.758 160.201 173.235 160.312 172.638 160.312ZM179.98 160.312C179.27 160.312 178.648 160.149 178.114 159.823C177.585 159.498 177.173 159.041 176.879 158.453C176.59 157.864 176.445 157.181 176.445 156.403C176.445 155.616 176.59 154.928 176.879 154.34C177.173 153.748 177.585 153.289 178.114 152.963C178.648 152.637 179.27 152.474 179.98 152.474C180.695 152.474 181.317 152.637 181.847 152.963C182.376 153.289 182.788 153.748 183.082 154.34C183.376 154.928 183.523 155.616 183.523 156.403C183.523 157.181 183.376 157.864 183.082 158.453C182.788 159.041 182.376 159.498 181.847 159.823C181.317 160.149 180.695 160.312 179.98 160.312ZM179.98 159.07C180.446 159.07 180.831 158.948 181.134 158.704C181.437 158.459 181.661 158.136 181.806 157.733C181.955 157.326 182.03 156.883 182.03 156.403C182.03 155.915 181.955 155.467 181.806 155.06C181.661 154.652 181.437 154.327 181.134 154.082C180.831 153.838 180.446 153.716 179.98 153.716C179.519 153.716 179.137 153.838 178.834 154.082C178.535 154.327 178.311 154.652 178.162 155.06C178.013 155.467 177.938 155.915 177.938 156.403C177.938 156.883 178.013 157.326 178.162 157.733C178.311 158.136 178.535 158.459 178.834 158.704C179.137 158.948 179.519 159.07 179.98 159.07ZM184.588 160.156V152.569H185.993V153.818H186.094C186.253 153.397 186.511 153.069 186.868 152.834C187.23 152.594 187.66 152.474 188.157 152.474C188.664 152.474 189.087 152.594 189.426 152.834C189.77 153.069 190.026 153.397 190.193 153.818H190.275C190.455 153.406 190.743 153.08 191.136 152.841C191.53 152.596 191.998 152.474 192.541 152.474C193.229 152.474 193.792 152.691 194.231 153.126C194.669 153.555 194.889 154.205 194.889 155.073V160.156H193.41V155.209C193.41 154.693 193.269 154.322 192.989 154.096C192.708 153.865 192.374 153.75 191.985 153.75C191.505 153.75 191.132 153.899 190.865 154.198C190.602 154.492 190.471 154.865 190.471 155.317V160.156H188.992V155.114C188.992 154.702 188.865 154.372 188.612 154.123C188.359 153.874 188.026 153.75 187.614 153.75C187.334 153.75 187.074 153.825 186.834 153.974C186.599 154.119 186.409 154.322 186.264 154.585C186.124 154.842 186.054 155.141 186.054 155.48V160.156H184.588Z" fill="#4F5362"/>
<path d="M47.6168 208.534V199.687H50.7756C51.4604 199.687 52.0284 199.813 52.4797 200.067C52.9309 200.316 53.2694 200.658 53.495 201.094C53.7206 201.525 53.8335 202.012 53.8335 202.555C53.8335 203.097 53.7206 203.586 53.495 204.021C53.2694 204.453 52.929 204.795 52.4737 205.048C52.0225 205.298 51.4525 205.422 50.7637 205.422H48.6024V204.294H50.639C51.0784 204.294 51.4327 204.219 51.7019 204.069C51.975 203.918 52.1729 203.712 52.2956 203.451C52.4223 203.186 52.4856 202.887 52.4856 202.555C52.4856 202.218 52.4223 201.921 52.2956 201.664C52.1729 201.403 51.975 201.199 51.7019 201.052C51.4287 200.906 51.0725 200.833 50.6331 200.833H48.9528V208.534H47.6168ZM56.6419 208.676C56.2223 208.676 55.8423 208.599 55.5019 208.445C55.1615 208.286 54.8923 208.057 54.6944 207.756C54.4965 207.455 54.3975 207.089 54.3975 206.657C54.3975 206.281 54.4688 205.975 54.6113 205.737C54.7577 205.496 54.9537 205.304 55.1991 205.161C55.4445 205.019 55.7176 204.912 56.0185 204.841C56.3193 204.769 56.6281 204.714 56.9447 204.674C57.3445 204.631 57.6672 204.593 57.9126 204.561C58.158 204.53 58.3361 204.48 58.447 204.413C58.5617 204.342 58.6191 204.229 58.6191 204.075V204.045C58.6191 203.669 58.5123 203.378 58.2985 203.172C58.0887 202.966 57.776 202.863 57.3604 202.863C56.9289 202.863 56.5865 202.958 56.3332 203.148C56.0838 203.334 55.9116 203.546 55.8166 203.784L54.5994 203.505C54.7459 203.101 54.9576 202.776 55.2347 202.531C55.5158 202.281 55.8364 202.099 56.1966 201.985C56.5608 201.87 56.9408 201.812 57.3366 201.812C57.6018 201.812 57.8829 201.844 58.1798 201.907C58.4766 201.967 58.7557 202.08 59.017 202.246C59.2822 202.408 59.4979 202.642 59.6642 202.946C59.8304 203.251 59.9135 203.645 59.9135 204.128V208.534H58.6488V207.625H58.6013C58.5222 207.788 58.3975 207.95 58.2273 208.112C58.061 208.274 57.8473 208.409 57.586 208.516C57.3248 208.623 57.0101 208.676 56.6419 208.676ZM56.921 207.643C57.2812 207.643 57.588 207.574 57.8413 207.435C58.0947 207.293 58.2886 207.107 58.4232 206.877C58.5578 206.648 58.6251 206.404 58.6251 206.147V205.286C58.5776 205.329 58.4885 205.371 58.3579 205.411C58.2273 205.45 58.0788 205.484 57.9126 205.511C57.7463 205.539 57.584 205.565 57.4257 205.589C57.2674 205.608 57.1347 205.624 57.0279 205.636C56.7785 205.672 56.5509 205.727 56.3451 205.802C56.1392 205.874 55.973 205.981 55.8463 206.123C55.7236 206.262 55.6622 206.446 55.6622 206.675C55.6622 206.996 55.781 207.237 56.0185 207.4C56.256 207.562 56.5568 207.643 56.921 207.643ZM66.1183 203.522L64.9486 203.724C64.8734 203.503 64.7329 203.299 64.527 203.113C64.3252 202.927 64.0223 202.834 63.6186 202.834C63.2544 202.834 62.9496 202.917 62.7042 203.083C62.4627 203.245 62.342 203.453 62.342 203.706C62.342 203.928 62.4232 204.108 62.5854 204.247C62.7517 204.385 63.0149 204.496 63.3751 204.579L64.438 204.817C65.0436 204.955 65.4968 205.173 65.7977 205.47C66.0985 205.767 66.2489 206.147 66.2489 206.61C66.2489 207.01 66.1341 207.366 65.9046 207.679C65.675 207.987 65.3563 208.231 64.9486 208.409C64.5409 208.583 64.0698 208.67 63.5355 208.67C62.7913 208.67 62.1856 208.51 61.7186 208.189C61.2515 207.869 60.9645 207.417 60.8576 206.836L62.0986 206.646C62.1777 206.97 62.338 207.216 62.5795 207.382C62.8249 207.548 63.1416 207.631 63.5295 207.631C63.9491 207.631 64.2856 207.542 64.5389 207.364C64.7962 207.186 64.9249 206.97 64.9249 206.717C64.9249 206.297 64.6121 206.014 63.9867 205.868L62.8645 205.618C62.243 205.476 61.7839 205.252 61.487 204.947C61.1941 204.639 61.0476 204.251 61.0476 203.784C61.0476 203.392 61.1565 203.047 61.3742 202.75C61.5959 202.454 61.8987 202.224 62.2826 202.062C62.6706 201.895 63.1119 201.812 63.6067 201.812C64.3271 201.812 64.8912 201.969 65.2989 202.281C65.7106 202.594 65.9837 203.008 66.1183 203.522ZM72.1153 203.522L70.9456 203.724C70.8704 203.503 70.7298 203.299 70.524 203.113C70.3221 202.927 70.0193 202.834 69.6155 202.834C69.2514 202.834 68.9466 202.917 68.7012 203.083C68.4597 203.245 68.339 203.453 68.339 203.706C68.339 203.928 68.4201 204.108 68.5824 204.247C68.7487 204.385 69.0119 204.496 69.3721 204.579L70.4349 204.817C71.0406 204.955 71.4938 205.173 71.7946 205.47C72.0955 205.767 72.2459 206.147 72.2459 206.61C72.2459 207.01 72.1311 207.366 71.9015 207.679C71.6719 207.987 71.3533 208.231 70.9456 208.409C70.5378 208.583 70.0668 208.67 69.5324 208.67C68.7882 208.67 68.1826 208.51 67.7155 208.189C67.2484 207.869 66.9614 207.417 66.8546 206.836L68.0955 206.646C68.1747 206.97 68.335 207.216 68.5765 207.382C68.8219 207.548 69.1386 207.631 69.5265 207.631C69.9461 207.631 70.2825 207.542 70.5359 207.364C70.7932 207.186 70.9218 206.97 70.9218 206.717C70.9218 206.297 70.6091 206.014 69.9837 205.868L68.8615 205.618C68.24 205.476 67.7808 205.252 67.484 204.947C67.191 204.639 67.0446 204.251 67.0446 203.784C67.0446 203.392 67.1534 203.047 67.3711 202.75C67.5928 202.454 67.8956 202.224 68.2796 202.062C68.6675 201.895 69.1089 201.812 69.6037 201.812C70.3241 201.812 70.8882 201.969 71.2959 202.281C71.7076 202.594 71.9807 203.008 72.1153 203.522ZM74.5794 208.534L72.6318 201.895H73.9619L75.2622 206.77H75.3334L76.6338 201.895H77.9697L79.2582 206.752H79.3235L80.6179 201.895H81.9479L80.0004 208.534H78.6882L77.3344 203.748H77.2453L75.8916 208.534H74.5794ZM85.2551 208.67C84.6337 208.67 84.0894 208.528 83.6223 208.243C83.1592 207.958 82.799 207.558 82.5417 207.043C82.2883 206.529 82.1617 205.931 82.1617 205.25C82.1617 204.561 82.2883 203.96 82.5417 203.445C82.799 202.927 83.1592 202.525 83.6223 202.24C84.0894 201.955 84.6337 201.812 85.2551 201.812C85.8806 201.812 86.4248 201.955 86.888 202.24C87.3511 202.525 87.7113 202.927 87.9686 203.445C88.2259 203.96 88.3545 204.561 88.3545 205.25C88.3545 205.931 88.2259 206.529 87.9686 207.043C87.7113 207.558 87.3511 207.958 86.888 208.243C86.4248 208.528 85.8806 208.67 85.2551 208.67ZM85.2551 207.584C85.6628 207.584 85.9993 207.477 86.2645 207.263C86.5297 207.049 86.7257 206.766 86.8523 206.414C86.983 206.058 87.0483 205.67 87.0483 205.25C87.0483 204.823 86.983 204.431 86.8523 204.075C86.7257 203.718 86.5297 203.433 86.2645 203.22C85.9993 203.006 85.6628 202.899 85.2551 202.899C84.8514 202.899 84.5169 203.006 84.2517 203.22C83.9904 203.433 83.7945 203.718 83.6639 204.075C83.5332 204.431 83.4679 204.823 83.4679 205.25C83.4679 205.67 83.5332 206.058 83.6639 206.414C83.7945 206.766 83.9904 207.049 84.2517 207.263C84.5169 207.477 84.8514 207.584 85.2551 207.584ZM89.2867 208.534V201.895H90.5277V202.958H90.599C90.7217 202.602 90.9354 202.321 91.2402 202.115C91.549 201.905 91.8973 201.8 92.2852 201.8C92.3644 201.8 92.4574 201.804 92.5643 201.812C92.6751 201.816 92.7642 201.822 92.8315 201.83V203.065C92.78 203.049 92.687 203.034 92.5524 203.018C92.4218 203.002 92.2892 202.994 92.1546 202.994C91.8498 202.994 91.5767 203.059 91.3352 203.19C91.0977 203.317 90.9097 203.493 90.7711 203.718C90.6366 203.94 90.5693 204.197 90.5693 204.49V208.534H89.2867ZM95.6875 208.664C95.1491 208.664 94.6702 208.528 94.2506 208.255C93.831 207.978 93.5024 207.584 93.2649 207.073C93.0274 206.558 92.9087 205.945 92.9087 205.232C92.9087 204.512 93.0294 203.896 93.2709 203.386C93.5123 202.875 93.8429 202.485 94.2624 202.216C94.682 201.947 95.157 201.812 95.6875 201.812C96.1031 201.812 96.4356 201.882 96.685 202.02C96.9383 202.155 97.1343 202.313 97.2728 202.495C97.4153 202.677 97.5242 202.838 97.5994 202.976H97.6765V199.687H98.9591V208.534H97.7062V207.501H97.5994C97.5242 207.639 97.4133 207.799 97.2669 207.981C97.1204 208.164 96.9205 208.324 96.6672 208.462C96.4178 208.597 96.0912 208.664 95.6875 208.664ZM95.9665 207.566C96.3386 207.566 96.6533 207.467 96.9106 207.269C97.1679 207.071 97.3619 206.796 97.4925 206.444C97.6271 206.091 97.6944 205.684 97.6944 205.221C97.6944 204.757 97.629 204.354 97.4984 204.009C97.3678 203.661 97.1738 203.392 96.9165 203.202C96.6592 203.008 96.3426 202.911 95.9665 202.911C95.5786 202.911 95.256 203.012 94.9987 203.214C94.7414 203.415 94.5474 203.691 94.4168 204.039C94.2862 204.387 94.2209 204.781 94.2209 205.221C94.2209 205.664 94.2862 206.064 94.4168 206.42C94.5474 206.772 94.7414 207.051 94.9987 207.257C95.26 207.463 95.5826 207.566 95.9665 207.566Z" fill="white"/>
<rect x="47.3386" y="225.865" width="328.324" height="42.5606" rx="9.98871" fill="#080B18" stroke="#2F354C" stroke-width="0.868583"/>
<path d="M73.1651 251.527C72.3372 251.527 71.6315 251.242 71.0479 250.672C70.4779 250.102 70.1929 249.403 70.1929 248.575C70.1929 247.747 70.4779 247.049 71.0479 246.479C71.6315 245.909 72.3372 245.624 73.1651 245.624C73.9929 245.624 74.6919 245.909 75.2619 246.479C75.8455 247.049 76.1373 247.747 76.1373 248.575C76.1373 249.403 75.8455 250.102 75.2619 250.672C74.6919 251.242 73.9929 251.527 73.1651 251.527ZM83.9952 251.527C83.1674 251.527 82.4616 251.242 81.878 250.672C81.308 250.102 81.023 249.403 81.023 248.575C81.023 247.747 81.308 247.049 81.878 246.479C82.4616 245.909 83.1674 245.624 83.9952 245.624C84.8231 245.624 85.522 245.909 86.092 246.479C86.6756 247.049 86.9674 247.747 86.9674 248.575C86.9674 249.403 86.6756 250.102 86.092 250.672C85.522 251.242 84.8231 251.527 83.9952 251.527ZM94.8254 251.527C93.9975 251.527 93.2918 251.242 92.7082 250.672C92.1382 250.102 91.8532 249.403 91.8532 248.575C91.8532 247.747 92.1382 247.049 92.7082 246.479C93.2918 245.909 93.9975 245.624 94.8254 245.624C95.6532 245.624 96.3522 245.909 96.9222 246.479C97.5058 247.049 97.7976 247.747 97.7976 248.575C97.7976 249.403 97.5058 250.102 96.9222 250.672C96.3522 251.242 95.6532 251.527 94.8254 251.527ZM105.656 251.527C104.828 251.527 104.122 251.242 103.538 250.672C102.968 250.102 102.683 249.403 102.683 248.575C102.683 247.747 102.968 247.049 103.538 246.479C104.122 245.909 104.828 245.624 105.656 245.624C106.483 245.624 107.182 245.909 107.752 246.479C108.336 247.049 108.628 247.747 108.628 248.575C108.628 249.403 108.336 250.102 107.752 250.672C107.182 251.242 106.483 251.527 105.656 251.527ZM116.486 251.527C115.658 251.527 114.952 251.242 114.368 250.672C113.798 250.102 113.513 249.403 113.513 248.575C113.513 247.747 113.798 247.049 114.368 246.479C114.952 245.909 115.658 245.624 116.486 245.624C117.314 245.624 118.012 245.909 118.582 246.479C119.166 247.049 119.458 247.747 119.458 248.575C119.458 249.403 119.166 250.102 118.582 250.672C118.012 251.242 117.314 251.527 116.486 251.527ZM127.316 251.527C126.488 251.527 125.782 251.242 125.199 250.672C124.629 250.102 124.344 249.403 124.344 248.575C124.344 247.747 124.629 247.049 125.199 246.479C125.782 245.909 126.488 245.624 127.316 245.624C128.144 245.624 128.843 245.909 129.413 246.479C129.996 247.049 130.288 247.747 130.288 248.575C130.288 249.403 129.996 250.102 129.413 250.672C128.843 251.242 128.144 251.527 127.316 251.527ZM138.146 251.527C137.318 251.527 136.612 251.242 136.029 250.672C135.459 250.102 135.174 249.403 135.174 248.575C135.174 247.747 135.459 247.049 136.029 246.479C136.612 245.909 137.318 245.624 138.146 245.624C138.974 245.624 139.673 245.909 140.243 246.479C140.826 247.049 141.118 247.747 141.118 248.575C141.118 249.403 140.826 250.102 140.243 250.672C139.673 251.242 138.974 251.527 138.146 251.527ZM148.976 251.527C148.148 251.527 147.443 251.242 146.859 250.672C146.289 250.102 146.004 249.403 146.004 248.575C146.004 247.747 146.289 247.049 146.859 246.479C147.443 245.909 148.148 245.624 148.976 245.624C149.804 245.624 150.503 245.909 151.073 246.479C151.656 247.049 151.948 247.747 151.948 248.575C151.948 249.403 151.656 250.102 151.073 250.672C150.503 251.242 149.804 251.527 148.976 251.527ZM159.806 251.527C158.978 251.527 158.273 251.242 157.689 250.672C157.119 250.102 156.834 249.403 156.834 248.575C156.834 247.747 157.119 247.049 157.689 246.479C158.273 245.909 158.978 245.624 159.806 245.624C160.634 245.624 161.333 245.909 161.903 246.479C162.487 247.049 162.778 247.747 162.778 248.575C162.778 249.403 162.487 250.102 161.903 250.672C161.333 251.242 160.634 251.527 159.806 251.527ZM170.636 251.527C169.809 251.527 169.103 251.242 168.519 250.672C167.949 250.102 167.664 249.403 167.664 248.575C167.664 247.747 167.949 247.049 168.519 246.479C169.103 245.909 169.809 245.624 170.636 245.624C171.464 245.624 172.163 245.909 172.733 246.479C173.317 247.049 173.609 247.747 173.609 248.575C173.609 249.403 173.317 250.102 172.733 250.672C172.163 251.242 171.464 251.527 170.636 251.527ZM181.467 251.527C180.639 251.527 179.933 251.242 179.349 250.672C178.779 250.102 178.494 249.403 178.494 248.575C178.494 247.747 178.779 247.049 179.349 246.479C179.933 245.909 180.639 245.624 181.467 245.624C182.294 245.624 182.993 245.909 183.563 246.479C184.147 247.049 184.439 247.747 184.439 248.575C184.439 249.403 184.147 250.102 183.563 250.672C182.993 251.242 182.294 251.527 181.467 251.527ZM192.297 251.527C191.469 251.527 190.763 251.242 190.18 250.672C189.61 250.102 189.325 249.403 189.325 248.575C189.325 247.747 189.61 247.049 190.18 246.479C190.763 245.909 191.469 245.624 192.297 245.624C193.125 245.624 193.823 245.909 194.394 246.479C194.977 247.049 195.269 247.747 195.269 248.575C195.269 249.403 194.977 250.102 194.394 250.672C193.823 251.242 193.125 251.527 192.297 251.527ZM203.127 251.527C202.299 251.527 201.593 251.242 201.01 250.672C200.44 250.102 200.155 249.403 200.155 248.575C200.155 247.747 200.44 247.049 201.01 246.479C201.593 245.909 202.299 245.624 203.127 245.624C203.955 245.624 204.654 245.909 205.224 246.479C205.807 247.049 206.099 247.747 206.099 248.575C206.099 249.403 205.807 250.102 205.224 250.672C204.654 251.242 203.955 251.527 203.127 251.527ZM213.957 251.527C213.129 251.527 212.423 251.242 211.84 250.672C211.27 250.102 210.985 249.403 210.985 248.575C210.985 247.747 211.27 247.049 211.84 246.479C212.423 245.909 213.129 245.624 213.957 245.624C214.785 245.624 215.484 245.909 216.054 246.479C216.637 247.049 216.929 247.747 216.929 248.575C216.929 249.403 216.637 250.102 216.054 250.672C215.484 251.242 214.785 251.527 213.957 251.527ZM224.787 251.527C223.959 251.527 223.254 251.242 222.67 250.672C222.1 250.102 221.815 249.403 221.815 248.575C221.815 247.747 222.1 247.049 222.67 246.479C223.254 245.909 223.959 245.624 224.787 245.624C225.615 245.624 226.314 245.909 226.884 246.479C227.468 247.049 227.759 247.747 227.759 248.575C227.759 249.403 227.468 250.102 226.884 250.672C226.314 251.242 225.615 251.527 224.787 251.527ZM235.617 251.527C234.789 251.527 234.084 251.242 233.5 250.672C232.93 250.102 232.645 249.403 232.645 248.575C232.645 247.747 232.93 247.049 233.5 246.479C234.084 245.909 234.789 245.624 235.617 245.624C236.445 245.624 237.144 245.909 237.714 246.479C238.298 247.049 238.589 247.747 238.589 248.575C238.589 249.403 238.298 250.102 237.714 250.672C237.144 251.242 236.445 251.527 235.617 251.527ZM246.447 251.527C245.62 251.527 244.914 251.242 244.33 250.672C243.76 250.102 243.475 249.403 243.475 248.575C243.475 247.747 243.76 247.049 244.33 246.479C244.914 245.909 245.62 245.624 246.447 245.624C247.275 245.624 247.974 245.909 248.544 246.479C249.128 247.049 249.42 247.747 249.42 248.575C249.42 249.403 249.128 250.102 248.544 250.672C247.974 251.242 247.275 251.527 246.447 251.527ZM257.278 251.527C256.45 251.527 255.744 251.242 255.16 250.672C254.59 250.102 254.305 249.403 254.305 248.575C254.305 247.747 254.59 247.049 255.16 246.479C255.744 245.909 256.45 245.624 257.278 245.624C258.105 245.624 258.804 245.909 259.374 246.479C259.958 247.049 260.25 247.747 260.25 248.575C260.25 249.403 259.958 250.102 259.374 250.672C258.804 251.242 258.105 251.527 257.278 251.527ZM268.108 251.527C267.28 251.527 266.574 251.242 265.991 250.672C265.421 250.102 265.136 249.403 265.136 248.575C265.136 247.747 265.421 247.049 265.991 246.479C266.574 245.909 267.28 245.624 268.108 245.624C268.936 245.624 269.635 245.909 270.205 246.479C270.788 247.049 271.08 247.747 271.08 248.575C271.08 249.403 270.788 250.102 270.205 250.672C269.635 251.242 268.936 251.527 268.108 251.527ZM278.938 251.527C278.11 251.527 277.404 251.242 276.821 250.672C276.251 250.102 275.966 249.403 275.966 248.575C275.966 247.747 276.251 247.049 276.821 246.479C277.404 245.909 278.11 245.624 278.938 245.624C279.766 245.624 280.465 245.909 281.035 246.479C281.618 247.049 281.91 247.747 281.91 248.575C281.91 249.403 281.618 250.102 281.035 250.672C280.465 251.242 279.766 251.527 278.938 251.527Z" fill="#4F5362"/>
<path d="M48.3709 298.232H46.9518L50.1343 289.385H51.6781L54.8547 298.232H53.4416L50.9359 290.994H50.8647L48.3709 298.232ZM48.6084 294.77H53.1981V295.887H48.6084V294.77ZM56.7963 289.385V298.232H55.5138V289.385H56.7963ZM58.0313 298.232V291.594H59.2723V292.657H59.3435C59.4662 292.3 59.68 292.019 59.9848 291.813C60.2935 291.604 60.6419 291.499 61.0298 291.499C61.109 291.499 61.202 291.503 61.3089 291.511C61.4197 291.515 61.5088 291.52 61.5761 291.528V292.763C61.5246 292.748 61.4316 292.732 61.297 292.716C61.1664 292.7 61.0338 292.692 60.8992 292.692C60.5944 292.692 60.3212 292.757 60.0798 292.888C59.8423 293.015 59.6543 293.191 59.5157 293.417C59.3811 293.638 59.3138 293.896 59.3138 294.188V298.232H58.0313ZM64.818 298.368C64.1688 298.368 63.6067 298.228 63.1317 297.947C62.6567 297.666 62.2905 297.27 62.0333 296.759C61.7799 296.245 61.6532 295.645 61.6532 294.96C61.6532 294.279 61.7779 293.68 62.0273 293.161C62.2807 292.643 62.6349 292.239 63.0901 291.95C63.5493 291.657 64.0877 291.511 64.7052 291.511C65.0812 291.511 65.4454 291.572 65.7977 291.695C66.15 291.817 66.4666 292.011 66.7477 292.277C67.0287 292.542 67.2504 292.886 67.4127 293.31C67.579 293.733 67.6621 294.244 67.6621 294.842V295.305H62.3836V294.337H66.9971L66.3974 294.658C66.3974 294.25 66.334 293.89 66.2074 293.577C66.0807 293.264 65.8907 293.021 65.6374 292.847C65.388 292.668 65.0773 292.579 64.7052 292.579C64.3331 292.579 64.0144 292.668 63.7492 292.847C63.488 293.025 63.2881 293.26 63.1495 293.553C63.011 293.846 62.9417 294.167 62.9417 294.515V295.174C62.9417 295.629 63.0209 296.015 63.1792 296.332C63.3375 296.649 63.5572 296.89 63.8383 297.056C64.1233 297.223 64.4538 297.306 64.8299 297.306C65.0753 297.306 65.2969 297.27 65.4949 297.199C65.6967 297.128 65.8709 297.021 66.0174 296.878C66.1638 296.736 66.2747 296.56 66.3499 296.35L67.573 296.581C67.4741 296.938 67.2999 297.25 67.0505 297.519C66.8011 297.789 66.4864 297.998 66.1064 298.149C65.7304 298.295 65.3009 298.368 64.818 298.368ZM70.4884 298.374C70.0688 298.374 69.6888 298.297 69.3484 298.143C69.0079 297.985 68.7388 297.755 68.5408 297.454C68.3429 297.153 68.244 296.787 68.244 296.356C68.244 295.98 68.3152 295.673 68.4577 295.435C68.6042 295.194 68.8001 295.002 69.0455 294.859C69.291 294.717 69.5641 294.61 69.8649 294.539C70.1658 294.468 70.4745 294.412 70.7912 294.373C71.191 294.329 71.5136 294.291 71.759 294.26C72.0044 294.228 72.1826 294.179 72.2934 294.111C72.4082 294.04 72.4656 293.927 72.4656 293.773V293.743C72.4656 293.367 72.3587 293.076 72.145 292.87C71.9352 292.664 71.6224 292.562 71.2068 292.562C70.7754 292.562 70.4329 292.657 70.1796 292.847C69.9302 293.033 69.758 293.244 69.663 293.482L68.4458 293.203C68.5923 292.799 68.8041 292.474 69.0812 292.229C69.3622 291.98 69.6828 291.798 70.043 291.683C70.4072 291.568 70.7872 291.511 71.1831 291.511C71.4483 291.511 71.7293 291.542 72.0262 291.606C72.3231 291.665 72.6021 291.778 72.8634 291.944C73.1286 292.106 73.3443 292.34 73.5106 292.645C73.6768 292.949 73.76 293.343 73.76 293.826V298.232H72.4953V297.323H72.4478C72.3686 297.486 72.2439 297.648 72.0737 297.81C71.9074 297.973 71.6937 298.107 71.4324 298.214C71.1712 298.321 70.8565 298.374 70.4884 298.374ZM70.7674 297.341C71.1276 297.341 71.4344 297.272 71.6878 297.133C71.9411 296.991 72.1351 296.805 72.2696 296.575C72.4042 296.346 72.4715 296.102 72.4715 295.845V294.984C72.424 295.028 72.335 295.069 72.2043 295.109C72.0737 295.148 71.9253 295.182 71.759 295.21C71.5928 295.237 71.4305 295.263 71.2721 295.287C71.1138 295.307 70.9812 295.323 70.8743 295.334C70.6249 295.37 70.3973 295.425 70.1915 295.501C69.9857 295.572 69.8194 295.679 69.6927 295.821C69.57 295.96 69.5087 296.144 69.5087 296.373C69.5087 296.694 69.6274 296.936 69.8649 297.098C70.1024 297.26 70.4033 297.341 70.7674 297.341ZM77.471 298.363C76.9326 298.363 76.4537 298.226 76.0341 297.953C75.6145 297.676 75.2859 297.282 75.0484 296.771C74.8109 296.257 74.6922 295.643 74.6922 294.931C74.6922 294.21 74.8129 293.595 75.0544 293.084C75.2958 292.573 75.6264 292.184 76.0459 291.914C76.4655 291.645 76.9405 291.511 77.471 291.511C77.8866 291.511 78.2191 291.58 78.4685 291.718C78.7218 291.853 78.9178 292.011 79.0563 292.193C79.1988 292.376 79.3077 292.536 79.3829 292.674H79.4601V289.385H80.7426V298.232H79.4897V297.199H79.3829C79.3077 297.337 79.1968 297.498 79.0504 297.68C78.9039 297.862 78.704 298.022 78.4507 298.161C78.2013 298.295 77.8747 298.363 77.471 298.363ZM77.75 297.264C78.1221 297.264 78.4368 297.165 78.6941 296.967C78.9514 296.769 79.1454 296.494 79.276 296.142C79.4106 295.79 79.4779 295.382 79.4779 294.919C79.4779 294.456 79.4125 294.052 79.2819 293.707C79.1513 293.359 78.9573 293.09 78.7 292.9C78.4427 292.706 78.1261 292.609 77.75 292.609C77.3621 292.609 77.0395 292.71 76.7822 292.912C76.5249 293.114 76.3309 293.389 76.2003 293.737C76.0697 294.086 76.0044 294.479 76.0044 294.919C76.0044 295.362 76.0697 295.762 76.2003 296.118C76.3309 296.47 76.5249 296.75 76.7822 296.955C77.0435 297.161 77.3661 297.264 77.75 297.264ZM82.791 300.714C82.5971 300.718 82.4209 300.704 82.2626 300.672C82.1082 300.645 81.9895 300.611 81.9063 300.571L82.221 299.52L82.3101 299.544C82.6386 299.627 82.9157 299.621 83.1413 299.526C83.3709 299.435 83.5629 299.18 83.7173 298.76L83.8776 298.321L81.4551 291.594H82.8385L84.5129 296.748H84.5842L86.2645 291.594H87.648L84.9167 299.111C84.79 299.459 84.6297 299.752 84.4357 299.989C84.2418 300.231 84.0082 300.411 83.7351 300.53C83.4659 300.652 83.1512 300.714 82.791 300.714ZM92.3505 294.295V298.232H91.068V289.385H92.3327V292.686H92.4218C92.5762 292.326 92.8117 292.041 93.1284 291.831C93.449 291.617 93.8666 291.511 94.3812 291.511C94.8364 291.511 95.2342 291.604 95.5746 291.79C95.9151 291.976 96.1803 292.255 96.3703 292.627C96.5642 292.999 96.6612 293.462 96.6612 294.016V298.232H95.3668V294.171C95.3668 293.68 95.2402 293.3 94.9868 293.031C94.7374 292.761 94.3891 292.627 93.9418 292.627C93.6331 292.627 93.3599 292.694 93.1224 292.829C92.8849 292.959 92.6969 293.147 92.5584 293.393C92.4198 293.638 92.3505 293.939 92.3505 294.295ZM99.82 298.374C99.4004 298.374 99.0204 298.297 98.68 298.143C98.3396 297.985 98.0704 297.755 97.8725 297.454C97.6746 297.153 97.5756 296.787 97.5756 296.356C97.5756 295.98 97.6469 295.673 97.7894 295.435C97.9358 295.194 98.1318 295.002 98.3772 294.859C98.6226 294.717 98.8957 294.61 99.1966 294.539C99.4974 294.468 99.8062 294.412 100.123 294.373C100.523 294.329 100.845 294.291 101.091 294.26C101.336 294.228 101.514 294.179 101.625 294.111C101.74 294.04 101.797 293.927 101.797 293.773V293.743C101.797 293.367 101.69 293.076 101.477 292.87C101.267 292.664 100.954 292.562 100.538 292.562C100.107 292.562 99.7646 292.657 99.5113 292.847C99.2619 293.033 99.0897 293.244 98.9947 293.482L97.7775 293.203C97.9239 292.799 98.1357 292.474 98.4128 292.229C98.6939 291.98 99.0145 291.798 99.3747 291.683C99.7389 291.568 100.119 291.511 100.515 291.511C100.78 291.511 101.061 291.542 101.358 291.606C101.655 291.665 101.934 291.778 102.195 291.944C102.46 292.106 102.676 292.34 102.842 292.645C103.008 292.949 103.092 293.343 103.092 293.826V298.232H101.827V297.323H101.779C101.7 297.486 101.576 297.648 101.405 297.81C101.239 297.973 101.025 298.107 100.764 298.214C100.503 298.321 100.188 298.374 99.82 298.374ZM100.099 297.341C100.459 297.341 100.766 297.272 101.019 297.133C101.273 296.991 101.467 296.805 101.601 296.575C101.736 296.346 101.803 296.102 101.803 295.845V294.984C101.756 295.028 101.667 295.069 101.536 295.109C101.405 295.148 101.257 295.182 101.091 295.21C100.924 295.237 100.762 295.263 100.604 295.287C100.445 295.307 100.313 295.323 100.206 295.334C99.9566 295.37 99.729 295.425 99.5231 295.501C99.3173 295.572 99.151 295.679 99.0244 295.821C98.9017 295.96 98.8403 296.144 98.8403 296.373C98.8403 296.694 98.9591 296.936 99.1966 297.098C99.4341 297.26 99.7349 297.341 100.099 297.341ZM109.76 291.594L107.361 298.232H105.971L103.567 291.594H104.95L106.636 296.712H106.708L108.382 291.594H109.76ZM113.102 298.368C112.453 298.368 111.891 298.228 111.416 297.947C110.941 297.666 110.575 297.27 110.318 296.759C110.064 296.245 109.938 295.645 109.938 294.96C109.938 294.279 110.062 293.68 110.312 293.161C110.565 292.643 110.919 292.239 111.375 291.95C111.834 291.657 112.372 291.511 112.99 291.511C113.366 291.511 113.73 291.572 114.082 291.695C114.434 291.817 114.751 292.011 115.032 292.277C115.313 292.542 115.535 292.886 115.697 293.31C115.863 293.733 115.946 294.244 115.946 294.842V295.305H110.668V294.337H115.281L114.682 294.658C114.682 294.25 114.618 293.89 114.492 293.577C114.365 293.264 114.175 293.021 113.922 292.847C113.672 292.668 113.362 292.579 112.99 292.579C112.617 292.579 112.299 292.668 112.034 292.847C111.772 293.025 111.572 293.26 111.434 293.553C111.295 293.846 111.226 294.167 111.226 294.515V295.174C111.226 295.629 111.305 296.015 111.464 296.332C111.622 296.649 111.842 296.89 112.123 297.056C112.408 297.223 112.738 297.306 113.114 297.306C113.36 297.306 113.581 297.27 113.779 297.199C113.981 297.128 114.155 297.021 114.302 296.878C114.448 296.736 114.559 296.56 114.634 296.35L115.857 296.581C115.758 296.938 115.584 297.25 115.335 297.519C115.086 297.789 114.771 297.998 114.391 298.149C114.015 298.295 113.585 298.368 113.102 298.368ZM121.48 298.374C121.061 298.374 120.681 298.297 120.34 298.143C120 297.985 119.731 297.755 119.533 297.454C119.335 297.153 119.236 296.787 119.236 296.356C119.236 295.98 119.307 295.673 119.45 295.435C119.596 295.194 119.792 295.002 120.037 294.859C120.283 294.717 120.556 294.61 120.857 294.539C121.158 294.468 121.466 294.412 121.783 294.373C122.183 294.329 122.506 294.291 122.751 294.26C122.996 294.228 123.174 294.179 123.285 294.111C123.4 294.04 123.458 293.927 123.458 293.773V293.743C123.458 293.367 123.351 293.076 123.137 292.87C122.927 292.664 122.614 292.562 122.199 292.562C121.767 292.562 121.425 292.657 121.172 292.847C120.922 293.033 120.75 293.244 120.655 293.482L119.438 293.203C119.584 292.799 119.796 292.474 120.073 292.229C120.354 291.98 120.675 291.798 121.035 291.683C121.399 291.568 121.779 291.511 122.175 291.511C122.44 291.511 122.721 291.542 123.018 291.606C123.315 291.665 123.594 291.778 123.855 291.944C124.121 292.106 124.336 292.34 124.503 292.645C124.669 292.949 124.752 293.343 124.752 293.826V298.232H123.487V297.323H123.44C123.361 297.486 123.236 297.648 123.066 297.81C122.899 297.973 122.686 298.107 122.424 298.214C122.163 298.321 121.848 298.374 121.48 298.374ZM121.759 297.341C122.12 297.341 122.426 297.272 122.68 297.133C122.933 296.991 123.127 296.805 123.262 296.575C123.396 296.346 123.463 296.102 123.463 295.845V294.984C123.416 295.028 123.327 295.069 123.196 295.109C123.066 295.148 122.917 295.182 122.751 295.21C122.585 295.237 122.422 295.263 122.264 295.287C122.106 295.307 121.973 295.323 121.866 295.334C121.617 295.37 121.389 295.425 121.183 295.501C120.978 295.572 120.811 295.679 120.685 295.821C120.562 295.96 120.501 296.144 120.501 296.373C120.501 296.694 120.619 296.936 120.857 297.098C121.094 297.26 121.395 297.341 121.759 297.341ZM127.275 294.295V298.232H125.993V291.594H127.24V292.686H127.329C127.479 292.326 127.715 292.041 128.035 291.831C128.356 291.617 128.768 291.511 129.27 291.511C129.722 291.511 130.116 291.606 130.452 291.796C130.792 291.982 131.056 292.261 131.242 292.633C131.432 293.005 131.527 293.466 131.527 294.016V298.232H130.244V294.171C130.244 293.692 130.118 293.316 129.864 293.042C129.611 292.765 129.266 292.627 128.831 292.627C128.534 292.627 128.267 292.694 128.029 292.829C127.796 292.959 127.612 293.147 127.477 293.393C127.343 293.638 127.275 293.939 127.275 294.295ZM137.393 298.374C136.973 298.374 136.593 298.297 136.253 298.143C135.913 297.985 135.643 297.755 135.445 297.454C135.248 297.153 135.149 296.787 135.149 296.356C135.149 295.98 135.22 295.673 135.362 295.435C135.509 295.194 135.705 295.002 135.95 294.859C136.196 294.717 136.469 294.61 136.77 294.539C137.07 294.468 137.379 294.412 137.696 294.373C138.096 294.329 138.418 294.291 138.664 294.26C138.909 294.228 139.087 294.179 139.198 294.111C139.313 294.04 139.37 293.927 139.37 293.773V293.743C139.37 293.367 139.263 293.076 139.05 292.87C138.84 292.664 138.527 292.562 138.111 292.562C137.68 292.562 137.338 292.657 137.084 292.847C136.835 293.033 136.663 293.244 136.568 293.482L135.35 293.203C135.497 292.799 135.709 292.474 135.986 292.229C136.267 291.98 136.587 291.798 136.948 291.683C137.312 291.568 137.692 291.511 138.088 291.511C138.353 291.511 138.634 291.542 138.931 291.606C139.228 291.665 139.507 291.778 139.768 291.944C140.033 292.106 140.249 292.34 140.415 292.645C140.582 292.949 140.665 293.343 140.665 293.826V298.232H139.4V297.323H139.352C139.273 297.486 139.149 297.648 138.978 297.81C138.812 297.973 138.598 298.107 138.337 298.214C138.076 298.321 137.761 298.374 137.393 298.374ZM137.672 297.341C138.032 297.341 138.339 297.272 138.592 297.133C138.846 296.991 139.04 296.805 139.174 296.575C139.309 296.346 139.376 296.102 139.376 295.845V294.984C139.329 295.028 139.24 295.069 139.109 295.109C138.978 295.148 138.83 295.182 138.664 295.21C138.497 295.237 138.335 295.263 138.177 295.287C138.018 295.307 137.886 295.323 137.779 295.334C137.53 295.37 137.302 295.425 137.096 295.501C136.89 295.572 136.724 295.679 136.597 295.821C136.475 295.96 136.413 296.144 136.413 296.373C136.413 296.694 136.532 296.936 136.77 297.098C137.007 297.26 137.308 297.341 137.672 297.341ZM144.69 298.368C144.053 298.368 143.503 298.222 143.04 297.929C142.577 297.636 142.22 297.232 141.971 296.718C141.722 296.203 141.597 295.613 141.597 294.948C141.597 294.272 141.724 293.676 141.977 293.161C142.234 292.643 142.592 292.239 143.052 291.95C143.515 291.657 144.057 291.511 144.678 291.511C145.185 291.511 145.634 291.604 146.026 291.79C146.422 291.972 146.741 292.231 146.982 292.567C147.228 292.904 147.372 293.296 147.416 293.743H146.157C146.113 293.533 146.028 293.341 145.902 293.167C145.779 292.993 145.617 292.854 145.415 292.752C145.213 292.649 144.973 292.597 144.696 292.597C144.336 292.597 144.021 292.692 143.752 292.882C143.487 293.068 143.279 293.335 143.129 293.684C142.978 294.032 142.903 294.444 142.903 294.919C142.903 295.398 142.976 295.815 143.123 296.172C143.269 296.528 143.477 296.803 143.746 296.997C144.019 297.187 144.336 297.282 144.696 297.282C145.068 297.282 145.385 297.179 145.646 296.973C145.911 296.767 146.082 296.486 146.157 296.13H147.416C147.372 296.561 147.234 296.945 147 297.282C146.766 297.618 146.454 297.884 146.062 298.078C145.67 298.272 145.213 298.368 144.69 298.368ZM151.115 298.368C150.477 298.368 149.927 298.222 149.464 297.929C149.001 297.636 148.645 297.232 148.395 296.718C148.146 296.203 148.021 295.613 148.021 294.948C148.021 294.272 148.148 293.676 148.401 293.161C148.659 292.643 149.017 292.239 149.476 291.95C149.939 291.657 150.481 291.511 151.103 291.511C151.61 291.511 152.059 291.604 152.451 291.79C152.847 291.972 153.165 292.231 153.407 292.567C153.652 292.904 153.797 293.296 153.84 293.743H152.581C152.538 293.533 152.453 293.341 152.326 293.167C152.203 292.993 152.041 292.854 151.839 292.752C151.637 292.649 151.398 292.597 151.121 292.597C150.76 292.597 150.446 292.692 150.177 292.882C149.911 293.068 149.704 293.335 149.553 293.684C149.403 294.032 149.328 294.444 149.328 294.919C149.328 295.398 149.401 295.815 149.547 296.172C149.694 296.528 149.902 296.803 150.171 296.997C150.444 297.187 150.76 297.282 151.121 297.282C151.493 297.282 151.809 297.179 152.071 296.973C152.336 296.767 152.506 296.486 152.581 296.13H153.84C153.797 296.561 153.658 296.945 153.424 297.282C153.191 297.618 152.878 297.884 152.486 298.078C152.094 298.272 151.637 298.368 151.115 298.368ZM157.539 298.368C156.918 298.368 156.373 298.226 155.906 297.941C155.443 297.656 155.083 297.256 154.826 296.742C154.572 296.227 154.446 295.629 154.446 294.948C154.446 294.26 154.572 293.658 154.826 293.143C155.083 292.625 155.443 292.223 155.906 291.938C156.373 291.653 156.918 291.511 157.539 291.511C158.165 291.511 158.709 291.653 159.172 291.938C159.635 292.223 159.995 292.625 160.253 293.143C160.51 293.658 160.639 294.26 160.639 294.948C160.639 295.629 160.51 296.227 160.253 296.742C159.995 297.256 159.635 297.656 159.172 297.941C158.709 298.226 158.165 298.368 157.539 298.368ZM157.539 297.282C157.947 297.282 158.283 297.175 158.549 296.961C158.814 296.748 159.01 296.465 159.136 296.112C159.267 295.756 159.332 295.368 159.332 294.948C159.332 294.521 159.267 294.129 159.136 293.773C159.01 293.417 158.814 293.132 158.549 292.918C158.283 292.704 157.947 292.597 157.539 292.597C157.135 292.597 156.801 292.704 156.536 292.918C156.275 293.132 156.079 293.417 155.948 293.773C155.817 294.129 155.752 294.521 155.752 294.948C155.752 295.368 155.817 295.756 155.948 296.112C156.079 296.465 156.275 296.748 156.536 296.961C156.801 297.175 157.135 297.282 157.539 297.282ZM165.775 295.489V291.594H167.057V298.232H165.798V297.08H165.727C165.569 297.432 165.323 297.727 164.991 297.965C164.658 298.202 164.243 298.319 163.744 298.315C163.317 298.315 162.938 298.222 162.61 298.036C162.285 297.85 162.03 297.571 161.844 297.199C161.662 296.827 161.571 296.366 161.571 295.815V291.594H162.853V295.667C162.853 296.114 162.98 296.472 163.233 296.742C163.487 297.011 163.813 297.143 164.213 297.139C164.455 297.139 164.694 297.08 164.932 296.961C165.173 296.843 165.373 296.66 165.531 296.415C165.694 296.17 165.775 295.861 165.775 295.489ZM169.575 294.295V298.232H168.292V291.594H169.539V292.686H169.628C169.779 292.326 170.014 292.041 170.335 291.831C170.655 291.617 171.067 291.511 171.57 291.511C172.021 291.511 172.415 291.606 172.751 291.796C173.092 291.982 173.355 292.261 173.541 292.633C173.731 293.005 173.826 293.466 173.826 294.016V298.232H172.543V294.171C172.543 293.692 172.417 293.316 172.163 293.042C171.91 292.765 171.566 292.627 171.13 292.627C170.833 292.627 170.566 292.694 170.329 292.829C170.095 292.959 169.911 293.147 169.777 293.393C169.642 293.638 169.575 293.939 169.575 294.295ZM178.149 291.594V292.633H174.527V291.594H178.149ZM175.494 290.014H176.783V296.284C176.783 296.589 176.846 296.813 176.973 296.955C177.1 297.094 177.303 297.163 177.585 297.163C177.652 297.163 177.723 297.159 177.798 297.151C177.877 297.143 177.957 297.132 178.036 297.116L178.279 298.184C178.149 298.228 178.006 298.262 177.852 298.285C177.697 298.309 177.543 298.321 177.389 298.321C176.815 298.321 176.355 298.161 176.011 297.84C175.667 297.515 175.494 297.084 175.494 296.546V290.014ZM183.196 295.548V295.465C183.196 294.927 183.245 294.513 183.344 294.224C183.447 293.931 183.593 293.7 183.783 293.529C183.977 293.355 184.207 293.185 184.472 293.019C184.733 292.864 184.951 292.672 185.125 292.443C185.299 292.209 185.386 291.93 185.386 291.606C185.386 291.352 185.327 291.133 185.208 290.947C185.09 290.76 184.929 290.616 184.727 290.513C184.526 290.41 184.302 290.359 184.056 290.359C183.839 290.359 183.629 290.404 183.427 290.495C183.225 290.586 183.057 290.729 182.922 290.923C182.788 291.113 182.713 291.36 182.697 291.665H181.39C181.406 291.15 181.535 290.715 181.776 290.359C182.018 289.998 182.337 289.727 182.732 289.545C183.132 289.359 183.574 289.266 184.056 289.266C184.591 289.266 185.056 289.365 185.452 289.563C185.848 289.761 186.154 290.036 186.372 290.388C186.594 290.741 186.705 291.15 186.705 291.617C186.705 292.104 186.594 292.518 186.372 292.858C186.15 293.195 185.848 293.482 185.464 293.719C185.218 293.866 185.018 294.01 184.864 294.153C184.71 294.295 184.597 294.468 184.526 294.669C184.458 294.867 184.425 295.133 184.425 295.465V295.548H183.196ZM183.819 298.315C183.57 298.315 183.36 298.234 183.19 298.072C183.023 297.905 182.94 297.702 182.94 297.46C182.94 297.215 183.023 297.011 183.19 296.848C183.36 296.682 183.57 296.599 183.819 296.599C184.068 296.599 184.276 296.682 184.442 296.848C184.613 297.011 184.698 297.215 184.698 297.46C184.698 297.702 184.613 297.905 184.442 298.072C184.276 298.234 184.068 298.315 183.819 298.315Z" fill="white" fill-opacity="0.5"/>
<path d="M193.598 298.357C192.886 298.357 192.264 298.248 191.734 298.03C191.207 297.812 190.796 297.488 190.499 297.056C190.206 296.625 190.051 296.09 190.036 295.453H191.841C191.864 295.746 191.951 295.993 192.102 296.195C192.252 296.393 192.454 296.542 192.708 296.641C192.961 296.74 193.252 296.789 193.58 296.789C193.897 296.789 194.172 296.744 194.406 296.653C194.643 296.561 194.825 296.435 194.952 296.273C195.083 296.106 195.148 295.914 195.148 295.697C195.148 295.499 195.088 295.332 194.97 295.198C194.855 295.063 194.685 294.948 194.459 294.853C194.237 294.758 193.966 294.673 193.646 294.598L192.678 294.361C191.934 294.183 191.346 293.899 190.914 293.512C190.483 293.12 190.267 292.597 190.267 291.944C190.267 291.41 190.412 290.943 190.701 290.543C190.994 290.139 191.391 289.826 191.894 289.605C192.401 289.379 192.977 289.266 193.622 289.266C194.279 289.266 194.851 289.379 195.338 289.605C195.829 289.83 196.211 290.143 196.484 290.543C196.761 290.943 196.903 291.404 196.911 291.926H195.112C195.081 291.582 194.932 291.313 194.667 291.119C194.406 290.925 194.051 290.828 193.604 290.828C193.303 290.828 193.046 290.871 192.832 290.958C192.622 291.042 192.462 291.158 192.351 291.309C192.24 291.459 192.185 291.631 192.185 291.825C192.185 292.031 192.248 292.205 192.375 292.348C192.502 292.486 192.67 292.601 192.88 292.692C193.093 292.779 193.327 292.852 193.58 292.912L194.37 293.108C194.754 293.195 195.108 293.312 195.433 293.458C195.757 293.601 196.039 293.777 196.276 293.987C196.517 294.196 196.704 294.444 196.834 294.729C196.965 295.01 197.03 295.334 197.03 295.703C197.03 296.245 196.894 296.716 196.62 297.116C196.351 297.512 195.961 297.818 195.451 298.036C194.94 298.25 194.323 298.357 193.598 298.357ZM197.855 298.232V291.594H199.69V298.232H197.855ZM198.77 290.745C198.497 290.745 198.263 290.654 198.069 290.472C197.875 290.289 197.778 290.07 197.778 289.812C197.778 289.555 197.875 289.337 198.069 289.159C198.263 288.977 198.497 288.886 198.77 288.886C199.047 288.886 199.282 288.977 199.476 289.159C199.67 289.337 199.767 289.555 199.767 289.812C199.767 290.07 199.67 290.289 199.476 290.472C199.282 290.654 199.047 290.745 198.77 290.745ZM203.745 300.856C202.851 300.856 202.15 300.678 201.644 300.322C201.137 299.97 200.828 299.53 200.717 299.004L202.415 298.778C202.467 298.913 202.548 299.037 202.659 299.152C202.77 299.267 202.918 299.358 203.104 299.425C203.29 299.497 203.518 299.532 203.787 299.532C204.187 299.532 204.517 299.435 204.779 299.241C205.04 299.051 205.171 298.729 205.171 298.273V297.056H205.093C205.014 297.238 204.893 297.413 204.731 297.579C204.569 297.745 204.361 297.88 204.108 297.983C203.854 298.085 203.552 298.137 203.199 298.137C202.7 298.137 202.247 298.022 201.84 297.793C201.436 297.559 201.111 297.203 200.866 296.724C200.624 296.245 200.504 295.639 200.504 294.907C200.504 294.151 200.626 293.521 200.872 293.019C201.121 292.516 201.45 292.14 201.857 291.891C202.265 291.637 202.712 291.511 203.199 291.511C203.571 291.511 203.882 291.574 204.131 291.701C204.385 291.823 204.591 291.978 204.749 292.164C204.907 292.35 205.026 292.534 205.105 292.716H205.176V291.594H206.987V298.303C206.987 298.865 206.849 299.336 206.572 299.716C206.295 300.096 205.913 300.381 205.426 300.571C204.939 300.761 204.379 300.856 203.745 300.856ZM203.781 296.753C204.224 296.753 204.567 296.589 204.808 296.261C205.054 295.932 205.176 295.477 205.176 294.895C205.176 294.507 205.121 294.171 205.01 293.886C204.903 293.597 204.747 293.373 204.541 293.215C204.335 293.052 204.082 292.971 203.781 292.971C203.48 292.971 203.225 293.054 203.015 293.221C202.809 293.383 202.653 293.609 202.546 293.897C202.439 294.186 202.386 294.519 202.386 294.895C202.386 295.275 202.439 295.606 202.546 295.887C202.653 296.164 202.809 296.377 203.015 296.528C203.225 296.678 203.48 296.753 203.781 296.753ZM209.903 294.396V298.232H208.068V291.594H209.873V292.775H209.938C210.089 292.383 210.328 292.075 210.657 291.849C210.985 291.623 211.397 291.511 211.892 291.511C212.351 291.511 212.751 291.612 213.091 291.813C213.436 292.015 213.703 292.302 213.893 292.674C214.083 293.046 214.178 293.492 214.178 294.01V298.232H212.343V294.337C212.343 293.933 212.238 293.616 212.028 293.387C211.819 293.153 211.53 293.037 211.162 293.037C210.916 293.037 210.698 293.092 210.508 293.203C210.318 293.31 210.17 293.464 210.063 293.666C209.956 293.868 209.903 294.111 209.903 294.396ZM219.581 289.385V298.232H217.717V289.385H219.581ZM222.526 294.396V298.232H220.691V291.594H222.496V292.775H222.562C222.712 292.383 222.952 292.075 223.28 291.849C223.609 291.623 224.02 291.511 224.515 291.511C224.974 291.511 225.374 291.612 225.715 291.813C226.059 292.015 226.326 292.302 226.516 292.674C226.706 293.046 226.801 293.492 226.801 294.01V298.232H224.966V294.337C224.966 293.933 224.861 293.616 224.652 293.387C224.442 293.153 224.153 293.037 223.785 293.037C223.539 293.037 223.322 293.092 223.132 293.203C222.942 293.31 222.793 293.464 222.686 293.666C222.579 293.868 222.526 294.111 222.526 294.396Z" fill="white"/>
<path d="M189.751 300.649H227.341V301.48H189.751V300.649Z" fill="white"/>
<rect x="46.9043" y="343.959" width="329.193" height="43.4292" rx="8" fill="url(#paint7_linear_2259_116)"/>
<path d="M173.765 370.31C173.077 370.31 172.479 370.203 171.972 369.99C171.465 369.776 171.07 369.465 170.785 369.057C170.5 368.646 170.345 368.147 170.321 367.561H171.901C171.925 367.87 172.02 368.127 172.186 368.333C172.352 368.535 172.57 368.687 172.839 368.79C173.112 368.893 173.415 368.945 173.747 368.945C174.096 368.945 174.403 368.891 174.668 368.784C174.933 368.677 175.141 368.529 175.291 368.339C175.442 368.149 175.517 367.927 175.517 367.674C175.517 367.444 175.45 367.256 175.315 367.11C175.18 366.959 174.994 366.833 174.757 366.73C174.519 366.627 174.24 366.536 173.92 366.457L172.916 366.195C172.188 366.009 171.614 365.726 171.194 365.346C170.775 364.962 170.565 364.452 170.565 363.814C170.565 363.292 170.705 362.837 170.986 362.449C171.268 362.057 171.652 361.752 172.138 361.534C172.629 361.317 173.183 361.208 173.801 361.208C174.43 361.208 174.982 361.317 175.457 361.534C175.932 361.752 176.305 362.053 176.574 362.437C176.843 362.821 176.983 363.262 176.995 363.761H175.446C175.406 363.381 175.238 363.088 174.941 362.882C174.648 362.672 174.262 362.568 173.783 362.568C173.451 362.568 173.164 362.617 172.922 362.716C172.685 362.815 172.503 362.952 172.376 363.126C172.249 363.3 172.186 363.498 172.186 363.719C172.186 363.965 172.259 364.167 172.406 364.325C172.556 364.479 172.746 364.604 172.976 364.699C173.209 364.794 173.447 364.873 173.688 364.937L174.513 365.144C174.846 365.224 175.167 365.33 175.475 365.465C175.784 365.596 176.061 365.762 176.307 365.964C176.556 366.162 176.752 366.403 176.894 366.688C177.041 366.973 177.114 367.308 177.114 367.692C177.114 368.206 176.981 368.661 176.716 369.057C176.451 369.449 176.069 369.756 175.57 369.978C175.072 370.199 174.47 370.31 173.765 370.31ZM178.011 370.174V363.535H179.572V370.174H178.011ZM178.794 362.603C178.545 362.603 178.331 362.52 178.153 362.354C177.975 362.188 177.886 361.988 177.886 361.754C177.886 361.517 177.975 361.315 178.153 361.148C178.331 360.982 178.545 360.899 178.794 360.899C179.04 360.899 179.252 360.982 179.43 361.148C179.608 361.315 179.697 361.515 179.697 361.748C179.697 361.986 179.608 362.188 179.43 362.354C179.252 362.52 179.04 362.603 178.794 362.603ZM183.604 372.798C182.761 372.798 182.098 372.634 181.615 372.305C181.132 371.981 180.821 371.587 180.683 371.124L182.084 370.779C182.147 370.91 182.24 371.038 182.363 371.165C182.486 371.296 182.65 371.403 182.856 371.486C183.062 371.573 183.321 371.616 183.634 371.616C184.077 371.616 184.443 371.508 184.732 371.29C185.025 371.076 185.171 370.726 185.171 370.239V368.986H185.082C185.007 369.144 184.892 369.309 184.738 369.479C184.584 369.645 184.38 369.788 184.126 369.906C183.877 370.021 183.56 370.079 183.176 370.079C182.67 370.079 182.209 369.958 181.793 369.716C181.381 369.475 181.053 369.115 180.807 368.636C180.566 368.157 180.445 367.557 180.445 366.837C180.445 366.108 180.566 365.493 180.807 364.99C181.053 364.487 181.383 364.105 181.799 363.844C182.214 363.583 182.678 363.452 183.188 363.452C183.576 363.452 183.897 363.518 184.15 363.648C184.403 363.779 184.605 363.937 184.756 364.123C184.906 364.305 185.023 364.475 185.106 364.634H185.189V363.535H186.715V370.28C186.715 370.847 186.581 371.316 186.311 371.688C186.042 372.06 185.672 372.337 185.201 372.519C184.734 372.705 184.202 372.798 183.604 372.798ZM183.616 368.85C184.114 368.85 184.498 368.671 184.768 368.315C185.041 367.955 185.177 367.458 185.177 366.825C185.177 366.405 185.118 366.039 184.999 365.726C184.88 365.414 184.704 365.17 184.471 364.996C184.237 364.822 183.952 364.735 183.616 364.735C183.267 364.735 182.976 364.826 182.743 365.008C182.509 365.19 182.333 365.439 182.214 365.756C182.1 366.069 182.042 366.425 182.042 366.825C182.042 367.229 182.102 367.583 182.22 367.888C182.339 368.192 182.515 368.43 182.749 368.6C182.986 368.766 183.275 368.85 183.616 368.85ZM189.429 366.29V370.174H187.867V363.535H189.399V364.669H189.476C189.627 364.297 189.862 364.002 190.183 363.785C190.507 363.563 190.919 363.452 191.418 363.452C191.877 363.452 192.277 363.549 192.617 363.743C192.958 363.937 193.221 364.222 193.407 364.598C193.597 364.97 193.692 365.422 193.692 365.952V370.174H192.13V366.195C192.13 365.752 192.015 365.406 191.786 365.156C191.556 364.903 191.24 364.776 190.836 364.776C190.563 364.776 190.319 364.836 190.106 364.954C189.896 365.073 189.729 365.245 189.607 365.471C189.488 365.693 189.429 365.966 189.429 366.29ZM201.642 367.389V363.535H203.204V370.174H201.69V368.992H201.618C201.468 369.364 201.223 369.669 200.882 369.906C200.542 370.144 200.122 370.261 199.623 370.257C199.188 370.257 198.804 370.162 198.472 369.972C198.143 369.778 197.884 369.495 197.694 369.123C197.508 368.747 197.415 368.293 197.415 367.763V363.535H198.976V367.525C198.976 367.941 199.091 368.274 199.321 368.523C199.554 368.772 199.859 368.895 200.235 368.891C200.465 368.891 200.686 368.836 200.9 368.725C201.118 368.614 201.296 368.448 201.434 368.226C201.573 368.004 201.642 367.725 201.642 367.389ZM204.362 372.655V363.535H205.894V364.634H205.989C206.068 364.475 206.181 364.305 206.327 364.123C206.473 363.937 206.671 363.779 206.921 363.648C207.174 363.518 207.497 363.452 207.889 363.452C208.399 363.452 208.86 363.583 209.272 363.844C209.684 364.105 210.01 364.489 210.252 364.996C210.497 365.503 210.62 366.126 210.62 366.866C210.62 367.595 210.501 368.214 210.264 368.725C210.026 369.235 209.7 369.625 209.284 369.895C208.872 370.16 208.405 370.292 207.883 370.292C207.507 370.292 207.192 370.229 206.939 370.102C206.689 369.972 206.487 369.817 206.333 369.639C206.182 369.457 206.068 369.285 205.989 369.123H205.923V372.655H204.362ZM207.455 369.01C207.799 369.01 208.086 368.917 208.316 368.731C208.55 368.545 208.726 368.289 208.845 367.965C208.963 367.64 209.023 367.272 209.023 366.86C209.023 366.449 208.963 366.083 208.845 365.762C208.726 365.441 208.552 365.19 208.322 365.008C208.092 364.826 207.803 364.735 207.455 364.735C207.119 364.735 206.834 364.822 206.6 364.996C206.371 365.17 206.194 365.418 206.072 365.738C205.953 366.055 205.894 366.429 205.894 366.86C205.894 367.288 205.953 367.664 206.072 367.989C206.194 368.309 206.372 368.561 206.606 368.743C206.84 368.921 207.123 369.01 207.455 369.01ZM217.424 363.535V364.747H213.511V363.535H217.424ZM214.485 370.174V362.912C214.485 362.465 214.578 362.093 214.764 361.796C214.95 361.499 215.2 361.277 215.512 361.131C215.829 360.984 216.177 360.911 216.557 360.911C216.831 360.911 217.072 360.933 217.282 360.976C217.496 361.02 217.652 361.059 217.751 361.095L217.43 362.306C217.367 362.283 217.286 362.261 217.187 362.241C217.088 362.217 216.975 362.205 216.848 362.205C216.559 362.205 216.352 362.277 216.225 362.419C216.102 362.562 216.041 362.763 216.041 363.025V370.174H214.485ZM220.85 370.304C220.201 370.304 219.639 370.162 219.164 369.877C218.689 369.592 218.321 369.192 218.06 368.677C217.802 368.163 217.674 367.565 217.674 366.884C217.674 366.199 217.802 365.6 218.06 365.085C218.321 364.567 218.689 364.165 219.164 363.88C219.639 363.595 220.201 363.452 220.85 363.452C221.499 363.452 222.062 363.595 222.537 363.88C223.012 364.165 223.38 364.567 223.641 365.085C223.902 365.6 224.033 366.199 224.033 366.884C224.033 367.565 223.902 368.163 223.641 368.677C223.38 369.192 223.012 369.592 222.537 369.877C222.062 370.162 221.499 370.304 220.85 370.304ZM220.85 369.045C221.211 369.045 221.507 368.95 221.741 368.76C221.974 368.566 222.149 368.305 222.263 367.977C222.382 367.648 222.442 367.284 222.442 366.884C222.442 366.476 222.382 366.108 222.263 365.78C222.149 365.451 221.974 365.192 221.741 365.002C221.507 364.808 221.211 364.711 220.85 364.711C220.498 364.711 220.203 364.808 219.966 365.002C219.728 365.192 219.55 365.451 219.431 365.78C219.316 366.108 219.259 366.476 219.259 366.884C219.259 367.284 219.316 367.648 219.431 367.977C219.55 368.305 219.728 368.566 219.966 368.76C220.203 368.95 220.498 369.045 220.85 369.045ZM224.894 370.174V363.535H226.408V364.652H226.479C226.598 364.264 226.806 363.967 227.103 363.761C227.399 363.551 227.738 363.446 228.118 363.446C228.201 363.446 228.296 363.45 228.403 363.458C228.514 363.466 228.605 363.476 228.676 363.488V364.925C228.609 364.901 228.504 364.881 228.361 364.865C228.219 364.85 228.082 364.842 227.952 364.842C227.663 364.842 227.405 364.903 227.18 365.026C226.954 365.148 226.776 365.317 226.645 365.53C226.519 365.744 226.455 365.994 226.455 366.279V370.174H224.894ZM235.201 363.535V364.747H231.289V363.535H235.201ZM232.262 370.174V362.912C232.262 362.465 232.355 362.093 232.541 361.796C232.727 361.499 232.977 361.277 233.29 361.131C233.606 360.984 233.955 360.911 234.335 360.911C234.608 360.911 234.849 360.933 235.059 360.976C235.273 361.02 235.429 361.059 235.528 361.095L235.207 362.306C235.144 362.283 235.063 362.261 234.964 362.241C234.865 362.217 234.752 362.205 234.625 362.205C234.337 362.205 234.129 362.277 234.002 362.419C233.879 362.562 233.818 362.763 233.818 363.025V370.174H232.262ZM235.985 370.174V363.535H237.499V364.652H237.571C237.689 364.264 237.897 363.967 238.194 363.761C238.491 363.551 238.829 363.446 239.209 363.446C239.292 363.446 239.387 363.45 239.494 363.458C239.605 363.466 239.696 363.476 239.767 363.488V364.925C239.7 364.901 239.595 364.881 239.453 364.865C239.31 364.85 239.174 364.842 239.043 364.842C238.754 364.842 238.497 364.903 238.271 365.026C238.046 365.148 237.867 365.317 237.737 365.53C237.61 365.744 237.547 365.994 237.547 366.279V370.174H235.985ZM243.021 370.304C242.356 370.304 241.782 370.166 241.299 369.889C240.816 369.608 240.444 369.212 240.183 368.701C239.926 368.19 239.797 367.589 239.797 366.896C239.797 366.211 239.926 365.612 240.183 365.097C240.44 364.578 240.803 364.175 241.27 363.886C241.737 363.597 242.287 363.452 242.92 363.452C243.328 363.452 243.714 363.518 244.078 363.648C244.446 363.779 244.771 363.981 245.052 364.254C245.337 364.527 245.561 364.875 245.723 365.299C245.885 365.718 245.966 366.219 245.966 366.801V367.288H240.527V366.237H245.188L244.458 366.546C244.458 366.17 244.401 365.843 244.286 365.566C244.171 365.285 244.001 365.065 243.775 364.907C243.55 364.749 243.269 364.669 242.932 364.669C242.596 364.669 242.309 364.749 242.071 364.907C241.834 365.065 241.654 365.279 241.531 365.548C241.408 365.813 241.347 366.11 241.347 366.439V367.169C241.347 367.573 241.416 367.919 241.555 368.208C241.697 368.493 241.895 368.711 242.148 368.861C242.406 369.012 242.705 369.087 243.045 369.087C243.267 369.087 243.469 369.055 243.651 368.992C243.837 368.929 243.995 368.834 244.126 368.707C244.26 368.576 244.363 368.416 244.434 368.226L245.895 368.398C245.8 368.782 245.624 369.119 245.367 369.408C245.113 369.693 244.787 369.914 244.387 370.073C243.991 370.227 243.536 370.304 243.021 370.304ZM249.754 370.304C249.089 370.304 248.515 370.166 248.033 369.889C247.55 369.608 247.178 369.212 246.916 368.701C246.659 368.19 246.53 367.589 246.53 366.896C246.53 366.211 246.659 365.612 246.916 365.097C247.174 364.578 247.536 364.175 248.003 363.886C248.47 363.597 249.02 363.452 249.653 363.452C250.061 363.452 250.447 363.518 250.811 363.648C251.179 363.779 251.504 363.981 251.785 364.254C252.07 364.527 252.294 364.875 252.456 365.299C252.618 365.718 252.699 366.219 252.699 366.801V367.288H247.261V366.237H251.922L251.191 366.546C251.191 366.17 251.134 365.843 251.019 365.566C250.904 365.285 250.734 365.065 250.509 364.907C250.283 364.749 250.002 364.669 249.665 364.669C249.329 364.669 249.042 364.749 248.804 364.907C248.567 365.065 248.387 365.279 248.264 365.548C248.141 365.813 248.08 366.11 248.08 366.439V367.169C248.08 367.573 248.149 367.919 248.288 368.208C248.43 368.493 248.628 368.711 248.882 368.861C249.139 369.012 249.438 369.087 249.778 369.087C250 369.087 250.202 369.055 250.384 368.992C250.57 368.929 250.728 368.834 250.859 368.707C250.993 368.576 251.096 368.416 251.168 368.226L252.628 368.398C252.533 368.782 252.357 369.119 252.1 369.408C251.846 369.693 251.52 369.914 251.12 370.073C250.724 370.227 250.269 370.304 249.754 370.304Z" fill="white"/>
</g>
</g>
<defs>
<filter id="filter0_d_2259_116" x="-160" y="-60" width="743" height="743" filterUnits="userSpaceOnUse" color-interpolation-filters="sRGB">
<feFlood flood-opacity="0" result="BackgroundImageFix"/>
<feColorMatrix in="SourceAlpha" type="matrix" values="0 0 0 0 0 0 0 0 0 0 0 0 0 0 0 0 0 0 127 0" result="hardAlpha"/>
<feMorphology radius="80" operator="erode" in="SourceAlpha" result="effect1_dropShadow_2259_116"/>
<feOffset dy="100"/>
<feGaussianBlur stdDeviation="120"/>
<feComposite in2="hardAlpha" operator="out"/>
<feColorMatrix type="matrix" values="0 0 0 0 0.682353 0 0 0 0 0.376471 0 0 0 0 1 0 0 0 0.34 0"/>
<feBlend mode="normal" in2="BackgroundImageFix" result="effect1_dropShadow_2259_116"/>
<feBlend mode="normal" in="SourceGraphic" in2="effect1_dropShadow_2259_116" result="shape"/>
</filter>
<linearGradient id="paint0_linear_2259_116" x1="212.956" y1="46.8007" x2="205.685" y2="45.2732" gradientUnits="userSpaceOnUse">
<stop stop-color="#6000FF"/>
<stop offset="0.651" stop-color="#4900C3"/>
<stop offset="1" stop-color="#320086"/>
</linearGradient>
<linearGradient id="paint1_linear_2259_116" x1="214.129" y1="28.7172" x2="219.802" y2="32.9769" gradientUnits="userSpaceOnUse">
<stop stop-color="#6A0AFF"/>
<stop offset="0.047" stop-color="#8C2DFF"/>
<stop offset="0.102" stop-color="#6A0AFF"/>
<stop offset="0.902" stop-color="#AF50FF"/>
<stop offset="1" stop-color="#AF50FF"/>
</linearGradient>
<linearGradient id="paint2_linear_2259_116" x1="202.6" y1="20.6155" x2="191.936" y2="27.0973" gradientUnits="userSpaceOnUse">
<stop stop-color="#6A0AFF"/>
<stop offset="0.51" stop-color="#8C2DFF"/>
<stop offset="0.969" stop-color="#AF50FF"/>
<stop offset="1" stop-color="#AF50FF"/>
</linearGradient>
<linearGradient id="paint3_linear_2259_116" x1="197.72" y1="29.9023" x2="198.631" y2="34.2956" gradientUnits="userSpaceOnUse">
<stop stop-color="#6000FF"/>
<stop offset="1" stop-color="#3E00A5"/>
</linearGradient>
<linearGradient id="paint4_linear_2259_116" x1="184.183" y1="55.1757" x2="213.156" y2="53.4689" gradientUnits="userSpaceOnUse">
<stop stop-color="#AE60FF"/>
<stop offset="0.322" stop-color="#AF50FF"/>
<stop offset="1" stop-color="#6000FF"/>
</linearGradient>
<linearGradient id="paint5_linear_2259_116" x1="204.806" y1="17.9752" x2="214.252" y2="21.4304" gradientUnits="userSpaceOnUse">
<stop stop-color="#6F0FFF"/>
<stop offset="0.702" stop-color="#AF50FF"/>
<stop offset="1" stop-color="#AF50FF"/>
</linearGradient>
<linearGradient id="paint6_linear_2259_116" x1="205.521" y1="25.5426" x2="208.685" y2="30.4593" gradientUnits="userSpaceOnUse">
<stop stop-color="#AE60FF"/>
<stop offset="0.031" stop-color="#B670FA"/>
<stop offset="1" stop-color="#BE80F5"/>
</linearGradient>
<linearGradient id="paint7_linear_2259_116" x1="46.9043" y1="365.674" x2="376.097" y2="365.674" gradientUnits="userSpaceOnUse">
<stop stop-color="#FFBE69"/>
<stop offset="0.58" stop-color="#D07494"/>
<stop offset="1" stop-color="#AE60FF"/>
</linearGradient>
<clipPath id="clip0_2259_116">
<rect width="423" height="423" rx="13.8973" fill="white"/>
</clipPath>
</defs>
</svg>
