<svg width="32" height="32" viewBox="0 0 32 32" fill="none" xmlns="http://www.w3.org/2000/svg">
<g clip-path="url(#clip0_1_688)">
<path d="M10.7 25.5229C10.7 25.6519 10.552 25.7549 10.365 25.7549C10.152 25.7739 10.004 25.6709 10.004 25.5229C10.004 25.3939 10.152 25.2909 10.339 25.2909C10.535 25.2709 10.7 25.3739 10.7 25.5229ZM8.70001 25.2319C8.65501 25.3609 8.78401 25.5089 8.97701 25.5479C9.04729 25.5831 9.12858 25.5893 9.20338 25.5652C9.27818 25.5411 9.34053 25.4885 9.37701 25.4189C9.41601 25.2899 9.29301 25.1419 9.10001 25.0839C9.02659 25.0575 8.94619 25.0578 8.873 25.0849C8.79981 25.112 8.73854 25.1641 8.70001 25.2319ZM11.552 25.1219C11.365 25.1669 11.236 25.2899 11.252 25.4379C11.271 25.5669 11.439 25.6509 11.633 25.6059C11.827 25.5609 11.949 25.4379 11.933 25.3059C11.917 25.1739 11.735 25.0999 11.548 25.1229L11.552 25.1219ZM15.794 0.399929C13.7123 0.35599 11.6431 0.732754 9.71042 1.50765C7.77777 2.28254 6.02144 3.43961 4.54667 4.90952C3.0719 6.37943 1.90904 8.13194 1.12778 10.062C0.346523 11.9921 -0.0370628 14.06 1.11384e-05 16.1419C-0.0270838 19.5363 1.01438 22.8531 2.97691 25.6227C4.93945 28.3924 7.72358 30.4744 10.935 31.5739C11.761 31.7219 12.051 31.2129 12.051 30.7929C12.051 30.3929 12.032 28.1869 12.032 26.8319C12.032 26.8319 7.51601 27.7999 6.56701 24.9089C6.56701 24.9089 5.83201 23.0319 4.77301 22.5479C4.77301 22.5479 3.29601 21.5349 4.87301 21.5539C5.3875 21.6233 5.87931 21.8094 6.31087 22.098C6.74242 22.3866 7.10231 22.77 7.36301 23.2189C7.57838 23.6207 7.87212 23.9752 8.22685 24.2615C8.58158 24.5477 8.99011 24.76 9.42829 24.8857C9.86646 25.0113 10.3254 25.0479 10.7779 24.9931C11.2305 24.9384 11.6674 24.7935 12.063 24.5669C12.1479 23.7447 12.5142 22.9771 13.1 22.3939C9.49401 21.9939 5.85501 21.4709 5.85501 15.2649C5.81919 14.5591 5.93679 13.8539 6.19971 13.1979C6.46263 12.5419 6.86463 11.9506 7.37801 11.4649C6.88915 10.0342 6.94902 8.47298 7.54601 7.08393C8.90001 6.66493 12 8.82593 12 8.82593C14.6506 8.09532 17.4494 8.09532 20.1 8.82593C20.1 8.82593 23.2 6.65793 24.552 7.08393C25.1497 8.47283 25.2095 10.0343 24.72 11.4649C25.2526 11.9429 25.6767 12.5293 25.9639 13.1847C26.2511 13.8401 26.3947 14.5494 26.385 15.2649C26.385 21.4909 22.585 21.9879 18.979 22.3939C19.3676 22.784 19.6671 23.2536 19.8569 23.7705C20.0468 24.2873 20.1226 24.8391 20.079 25.3879C20.079 27.5619 20.06 30.2529 20.06 30.7819C20.06 31.2009 20.36 31.7109 21.176 31.5629C24.3774 30.4648 27.149 28.3812 29.0934 25.611C31.0379 22.8407 32.0554 19.526 32 16.1419C32 7.19393 24.742 0.399929 15.794 0.399929ZM6.27101 22.6519C6.18701 22.7169 6.20601 22.8649 6.31601 22.9869C6.41601 23.0869 6.56801 23.1349 6.65101 23.0519C6.73501 22.9869 6.71601 22.8389 6.60601 22.7169C6.50001 22.6129 6.35501 22.5679 6.27101 22.6519ZM5.57101 22.1289C5.52601 22.2129 5.59001 22.3159 5.71901 22.3809C5.73999 22.3977 5.76424 22.4098 5.79019 22.4166C5.81615 22.4233 5.84324 22.4246 5.86972 22.4203C5.89619 22.4159 5.92147 22.4061 5.94391 22.3914C5.96635 22.3767 5.98546 22.3575 6.00001 22.3349C6.04501 22.2509 5.98101 22.1479 5.85201 22.0829C5.72301 22.0449 5.61901 22.0649 5.57401 22.1289H5.57101ZM7.66101 24.4289C7.56101 24.5129 7.59601 24.7059 7.74501 24.8289C7.89301 24.9769 8.08001 24.9969 8.16401 24.8939C8.24801 24.8099 8.20901 24.6169 8.08001 24.4939C7.94201 24.3419 7.74801 24.3229 7.66501 24.4259L7.66101 24.4289ZM6.92601 23.4809C6.82601 23.5459 6.82601 23.7129 6.92601 23.8619C7.02601 24.0109 7.20301 24.0749 7.28701 24.0099C7.33748 23.9556 7.36552 23.8841 7.36552 23.8099C7.36552 23.7357 7.33748 23.6643 7.28701 23.6099C7.19701 23.4619 7.02901 23.3969 6.92601 23.4809Z" fill="white"/>
</g>
<defs>
<clipPath id="clip0_1_688">
<rect width="32" height="32" fill="white"/>
</clipPath>
</defs>
</svg>
