<svg width="41" height="40" viewBox="0 0 41 40" fill="none" xmlns="http://www.w3.org/2000/svg">
<path d="M40.875 20C40.875 8.954 31.921 0 20.875 0C9.829 0 0.875 8.954 0.875 20C0.875 31.046 9.829 40 20.875 40C31.921 40 40.875 31.046 40.875 20Z" fill="#00D2FF"/>
<path d="M34.372 19.002C34.372 18.954 33.507 18.402 33.051 18.112C32.8542 17.9889 32.6715 17.8447 32.506 17.682C32.166 17.344 31.597 16.755 31.413 16.392C31.294 16.161 31.343 15.743 31.435 15.346C31.5953 14.6472 31.4742 13.9133 31.098 13.303L30.505 12.338C30.2324 11.8979 30.0132 11.4269 29.852 10.935C29.6473 10.3028 29.2913 9.73024 28.815 9.267C27.851 8.327 25.183 7.864 22.967 7.79C22.8298 7.74866 22.6902 7.7156 22.549 7.691C21.563 7.523 20.509 7.251 19.565 7.428C18.163 7.688 16.745 8.128 15.688 9.213C15.474 9.431 15.141 9.535 14.911 9.743C14.455 10.153 13.841 10.153 13.437 10.61C13.2 10.877 13.09 11.746 12.469 12.078C11.441 12.628 10.681 13.235 10.431 13.545C10.243 13.778 10.097 14.05 9.91399 14.288C9.72699 14.532 8.84199 14.945 8.58399 15.203C8.32699 15.462 7.98198 16.09 8.13698 16.833L8.17299 17.003C8.27299 17.38 8.54899 18.065 8.48599 18.378C8.41099 18.75 7.45599 21.519 9.59099 22.258C10.036 22.411 10.224 22.711 10.273 23.167C10.31 23.507 10.411 23.856 10.589 24.232C10.783 24.642 11.166 24.865 11.197 24.892C11.326 25.005 11.925 25.631 11.974 25.722C12.732 27.122 12.519 27.822 13.969 28.298C14.342 28.421 14.699 28.585 15.036 28.787C15.4628 29.0448 15.9213 29.2462 16.4 29.386C16.7077 28.6413 17.0325 27.9038 17.374 27.174C14.764 24.497 15.45 21.498 15.701 20.694C15.7084 20.6702 15.7217 20.6486 15.7396 20.6312C15.7576 20.6138 15.7795 20.6012 15.8036 20.5944C15.8276 20.5877 15.8529 20.587 15.8773 20.5925C15.9016 20.598 15.9242 20.6095 15.943 20.626C16.49 21.106 18.156 22.838 17.961 25.963C18.4746 24.9353 19.0243 23.926 19.609 22.937C17.725 19.745 19.129 16.947 19.571 16.209C19.5839 16.1871 19.6021 16.1689 19.624 16.156C19.6459 16.1431 19.6707 16.136 19.696 16.1353C19.7214 16.1346 19.7466 16.1403 19.7691 16.152C19.7917 16.1637 19.8109 16.1809 19.825 16.202C20.209 16.772 21.253 18.641 20.606 21.334C20.9558 20.7962 21.3219 20.2693 21.704 19.754C22.377 15.304 25.739 13.843 26.622 13.534C26.6456 13.5255 26.671 13.5231 26.6959 13.5271C26.7207 13.531 26.7441 13.541 26.764 13.5564C26.784 13.5717 26.7997 13.5918 26.8098 13.6148C26.8199 13.6378 26.8241 13.663 26.822 13.688C26.6838 15.0434 26.1903 16.3383 25.3914 17.4418C24.5925 18.5454 23.5164 19.4185 22.272 19.973C21.804 20.59 21.352 21.24 20.922 21.907C22.412 20.743 24.502 20.195 26.238 20.616C26.2749 20.6246 26.3073 20.6467 26.3288 20.678C26.3502 20.7093 26.3592 20.7474 26.354 20.785C26.3505 20.81 26.3409 20.8337 26.326 20.854C25.826 21.514 23.841 23.744 20.102 23.233C19.4879 24.2707 18.9118 25.3304 18.375 26.41C19.99 25.188 22.35 24.72 24.181 25.335C24.2177 25.347 24.2486 25.3724 24.2675 25.4061C24.2864 25.4398 24.2919 25.4794 24.283 25.517C24.2768 25.542 24.2644 25.5651 24.247 25.584C23.679 26.197 21.489 28.204 17.89 27.407C17.5142 28.2225 17.1522 29.0443 16.804 29.872C16.719 30.072 16.641 30.272 16.572 30.478C16.412 30.95 16.199 31.538 15.942 32.128C15.9059 32.212 15.8875 32.3026 15.8879 32.394C15.8883 32.4855 15.9075 32.5758 15.9444 32.6595C15.9813 32.7432 16.035 32.8184 16.1022 32.8804C16.1694 32.9424 16.2486 32.99 16.335 33.02C19.1754 34.0342 22.2594 34.1484 25.167 33.347C25.263 33.3198 25.3518 33.2714 25.4265 33.2053C25.5013 33.1391 25.5603 33.057 25.599 32.965C25.659 32.821 25.719 32.685 25.719 32.685C25.719 32.685 26.974 29.769 27.159 28.498C27.232 27.998 27.377 27.624 27.527 27.352C27.6251 27.1739 27.7669 27.0237 27.939 26.9154C28.1111 26.8071 28.308 26.7444 28.511 26.733C29.468 26.683 31.505 26.549 32.246 26.313C33.231 26.001 32.804 24.207 32.751 24.013C32.698 23.82 33.225 23.371 33.333 23.108C33.442 22.846 33.067 22.756 32.914 22.468C32.761 22.181 33.294 21.973 33.37 21.712C33.446 21.45 33.197 21.163 33.096 20.97C32.994 20.776 32.956 20.534 32.956 20.534C32.956 20.534 33.676 20.007 34.059 19.674C34.443 19.341 34.371 19.066 34.37 19.001" fill="black"/>
</svg>
