<svg width="45" height="46" viewBox="0 0 45 46" fill="none" xmlns="http://www.w3.org/2000/svg">
<path fill-rule="evenodd" clip-rule="evenodd" d="M35.984 31.625L22.375 45.234L8.76599 31.625L13.727 26.666L22.375 35.314L31.023 26.666L35.984 31.627V31.625ZM22.375 18.016L27.359 23L22.375 27.984L17.391 23L22.375 18.016ZM5.10199 27.961L0.140991 23L5.10199 18.039L10.063 23L5.10199 27.961ZM39.648 18.039L44.609 23L39.648 27.961L34.687 23L39.648 18.039ZM22.375 0.765999L35.984 14.375L31.023 19.336L22.375 10.688L13.727 19.336L8.76599 14.375L22.375 0.765999Z" fill="#FFBC00"/>
</svg>
