<svg width="43" height="42" viewBox="0 0 43 42" fill="none" xmlns="http://www.w3.org/2000/svg">
<path d="M21.5 42C33.098 42 42.5 32.598 42.5 21C42.5 9.40202 33.098 0 21.5 0C9.90202 0 0.5 9.40202 0.5 21C0.5 32.598 9.90202 42 21.5 42Z" fill="#2151F5"/>
<path d="M21.475 35.7C24.3285 35.6948 27.1188 34.8591 29.5054 33.295C31.8921 31.7309 33.7719 29.5059 34.9156 26.8916C36.0592 24.2773 36.4172 21.3867 35.946 18.5723C35.4747 15.758 34.1946 13.1417 32.2617 11.0426C30.3287 8.94342 27.8267 7.45224 25.0607 6.75093C22.2947 6.04962 19.3844 6.16851 16.6848 7.09309C13.9852 8.01768 11.6132 9.70797 9.85791 11.9578C8.10266 14.2076 7.04011 16.9196 6.79999 19.763H26.265V22.237H6.79999C7.11424 25.9117 8.79678 29.3345 11.5145 31.8277C14.2322 34.3209 17.7869 35.7029 21.475 35.7Z" fill="white"/>
</svg>
