<svg width="41" height="42" viewBox="0 0 41 42" fill="none" xmlns="http://www.w3.org/2000/svg">
<path d="M20.5 41.5C31.8218 41.5 41 32.3218 41 21C41 9.67816 31.8218 0.5 20.5 0.5C9.17816 0.5 0 9.67816 0 21C0 32.3218 9.17816 41.5 20.5 41.5Z" fill="#FF0420"/>
<path d="M14.611 26.586C13.539 26.6315 12.4813 26.3276 11.597 25.72C11.2155 25.4286 10.9106 25.0487 10.7087 24.6131C10.5068 24.1776 10.4139 23.6995 10.438 23.22C10.4427 22.9401 10.4684 22.661 10.515 22.385C10.6483 21.643 10.839 20.7517 11.087 19.711C11.2906 18.4497 11.9623 17.3115 12.968 16.5236C13.9738 15.7356 15.2396 15.3558 16.513 15.46C17.2438 15.4474 17.9694 15.5835 18.646 15.86C19.2465 16.0953 19.7632 16.5044 20.13 17.035C20.5001 17.5814 20.6893 18.2303 20.671 18.89C20.6658 19.1645 20.6401 19.4383 20.594 19.709C20.4393 20.6263 20.254 21.5177 20.038 22.383C19.837 23.6417 19.1641 24.7766 18.1562 25.5568C17.1482 26.337 15.8809 26.7039 14.612 26.583L14.611 26.586ZM14.827 24.36C15.3621 24.3742 15.884 24.1929 16.295 23.85C16.7491 23.4381 17.0581 22.8906 17.176 22.289C17.4127 21.3203 17.593 20.4753 17.717 19.754C17.7585 19.5348 17.7793 19.3121 17.779 19.089C17.779 18.151 17.2897 17.682 16.311 17.682C15.7713 17.669 15.2447 17.85 14.827 18.192C14.3814 18.6083 14.0784 19.1545 13.961 19.753C13.7757 20.4437 13.59 21.2887 13.404 22.288C13.362 22.5017 13.3412 22.7191 13.342 22.937C13.3427 23.8863 13.8377 24.36 14.827 24.36Z" fill="white"/>
<path d="M21.38 26.431C21.3309 26.434 21.2817 26.4258 21.2361 26.4071C21.1906 26.3884 21.1499 26.3596 21.117 26.323C21.0655 26.2401 21.0489 26.1401 21.071 26.045L23.204 15.998C23.2232 15.8871 23.284 15.7876 23.374 15.72C23.4568 15.6516 23.5606 15.6135 23.668 15.612H27.78C28.7479 15.5646 29.7073 15.8126 30.531 16.323C30.8697 16.5448 31.1448 16.8511 31.3291 17.2116C31.5134 17.5722 31.6006 17.9745 31.582 18.379C31.5802 18.6483 31.549 18.9165 31.489 19.179C31.3186 20.2205 30.7611 21.1591 29.928 21.807C28.9844 22.4224 27.8688 22.7202 26.744 22.657H24.657L23.946 26.042C23.9267 26.1529 23.8659 26.2523 23.776 26.32C23.6932 26.3885 23.5894 26.4266 23.482 26.428L21.38 26.431ZM26.852 20.531C27.2569 20.5396 27.6534 20.4144 27.98 20.175C28.3161 19.928 28.5476 19.5641 28.629 19.155C28.6577 19.0019 28.673 18.8467 28.675 18.691C28.6837 18.5653 28.6647 18.4392 28.6192 18.3217C28.5738 18.2042 28.503 18.0981 28.412 18.011C28.1529 17.8201 27.8322 17.7321 27.512 17.764H25.657L25.07 20.531H26.852Z" fill="white"/>
</svg>
