<svg width="43" height="38" viewBox="0 0 43 38" fill="none" xmlns="http://www.w3.org/2000/svg">
<path d="M0.808344 35.1133L19.9483 1.17533C20.1044 0.899532 20.3305 0.669809 20.6037 0.509384C20.877 0.348958 21.1878 0.263514 21.5046 0.261688C21.8215 0.259861 22.1332 0.341718 22.4083 0.498983C22.6834 0.656248 22.9121 0.883348 23.0713 1.15733L28.4643 10.4853C28.9173 11.269 29.1587 12.157 29.1649 13.0622C29.171 13.9674 28.9417 14.8586 28.4993 15.6483L17.7373 34.8573C17.2483 35.7304 16.5354 36.4574 15.672 36.9634C14.8087 37.4694 13.8261 37.7362 12.8253 37.7363H2.34234C2.03516 37.7361 1.7334 37.6554 1.46702 37.5025C1.20063 37.3495 0.978896 37.1295 0.823822 36.8643C0.668748 36.5992 0.585731 36.2981 0.583016 35.9909C0.580301 35.6837 0.657981 35.3812 0.808344 35.1133ZM32.5613 23.3233L25.8543 34.9383C25.6906 35.2221 25.6044 35.5441 25.6045 35.8717C25.6046 36.1994 25.6909 36.5213 25.8547 36.805C26.0186 37.0888 26.2543 37.3244 26.538 37.4882C26.8218 37.652 27.1437 37.7383 27.4713 37.7383H40.8843C41.2119 37.738 41.5336 37.6516 41.8172 37.4876C42.1008 37.3237 42.3363 37.0882 42.5001 36.8045C42.6639 36.5209 42.7502 36.1991 42.7505 35.8716C42.7507 35.544 42.6648 35.2222 42.5013 34.9383L35.7963 23.3233C35.6324 23.0395 35.3966 22.8038 35.1126 22.6399C34.8287 22.476 34.5067 22.3897 34.1788 22.3897C33.851 22.3897 33.529 22.476 33.245 22.6399C32.9611 22.8038 32.7253 23.0395 32.5613 23.3233Z" fill="#E84142"/>
</svg>
