<svg width="43" height="38" viewBox="0 0 43 38" fill="none" xmlns="http://www.w3.org/2000/svg">
<path d="M41.358 16.8825L32.586 11.7825C32.1338 11.5196 31.6201 11.3812 31.097 11.3812C30.574 11.3812 30.0602 11.5196 29.608 11.7825C24.068 15.0032 18.526 18.2198 12.982 21.4325C12.6534 21.6235 12.2801 21.7241 11.9 21.7241C11.5199 21.7241 11.1466 21.6235 10.818 21.4325L5.55202 18.3725C5.22712 18.1823 4.95772 17.9104 4.77069 17.5837C4.58365 17.257 4.4855 16.8869 4.48602 16.5105V10.3625C4.4854 9.98602 4.5835 9.61596 4.77055 9.28924C4.9576 8.96252 5.22705 8.69056 5.55202 8.50049L10.818 5.44349C11.1466 5.25248 11.5199 5.15186 11.9 5.15186C12.2801 5.15186 12.6534 5.25248 12.982 5.44349L18.248 8.50449C18.5739 8.69393 18.8444 8.96562 19.0323 9.29239C19.2203 9.61915 19.3191 9.98953 19.319 10.3665V14.3565L23.634 11.8565V8.32049C23.6339 7.80196 23.4977 7.29254 23.239 6.84314C22.9804 6.39373 22.6083 6.02007 22.16 5.75949L13.386 0.659491C12.9338 0.396639 12.4201 0.258179 11.897 0.258179C11.374 0.258179 10.8602 0.396639 10.408 0.659491L1.63602 5.75949C1.18839 6.02049 0.817072 6.39436 0.559124 6.84375C0.301176 7.29314 0.165629 7.80233 0.166016 8.32049V18.5535C0.166036 19.072 0.302188 19.5815 0.560858 20.0309C0.819527 20.4803 1.19165 20.854 1.64002 21.1145L10.412 26.2145C10.8642 26.4773 11.378 26.6158 11.901 26.6158C12.4241 26.6158 12.9378 26.4773 13.39 26.2145C18.9327 22.9992 24.4747 19.7825 30.016 16.5645C30.3448 16.3734 30.7183 16.2727 31.0985 16.2727C31.4788 16.2727 31.8523 16.3734 32.181 16.5645L37.447 19.6255C37.7729 19.8149 38.0434 20.0866 38.2313 20.4134C38.4193 20.7401 38.5181 21.1105 38.518 21.4875V27.6355C38.518 28.0124 38.4191 28.3828 38.2312 28.7095C38.0432 29.0363 37.7729 29.308 37.447 29.4975L32.181 32.5585C31.8523 32.7497 31.4788 32.8504 31.0985 32.8504C30.7182 32.8504 30.3447 32.7497 30.016 32.5585L24.75 29.4975C24.4242 29.308 24.1538 29.0363 23.9659 28.7095C23.7779 28.3828 23.679 28.0124 23.679 27.6355V23.6435L19.364 26.1435V29.6795C19.3641 30.198 19.5003 30.7074 19.759 31.1568C20.0177 31.6063 20.3897 31.9799 20.838 32.2405L29.61 37.3405C30.0622 37.6033 30.576 37.7418 31.099 37.7418C31.6221 37.7418 32.1358 37.6033 32.588 37.3405L41.36 32.2405C41.8083 31.9799 42.1804 31.6063 42.439 31.1568C42.6977 30.7074 42.8339 30.198 42.834 29.6795V19.4435C42.8339 18.925 42.6977 18.4155 42.439 17.9661C42.1804 17.5167 41.8083 17.1431 41.36 16.8825H41.358Z" fill="#904DFF"/>
</svg>
