<svg width="42" height="42" viewBox="0 0 42 42" fill="none" xmlns="http://www.w3.org/2000/svg">
<path d="M12.632 23.865C13.816 23.8647 14.9666 23.4722 15.904 22.749L8.39701 15.242C7.52868 16.3665 7.14226 17.7898 7.32264 19.1991C7.50302 20.6084 8.23544 21.8884 9.35901 22.758C10.3002 23.4732 11.4499 23.8618 12.632 23.865Z" fill="#00A6C4"/>
<path d="M34.96 18.505C34.9597 17.321 34.5672 16.1704 33.844 15.233L26.337 22.74C27.1286 23.3517 28.0758 23.7293 29.0711 23.8298C30.0664 23.9304 31.07 23.7499 31.9679 23.3089C32.8658 22.8679 33.6222 22.1841 34.151 21.3349C34.6799 20.4858 34.9602 19.5054 34.96 18.505Z" fill="#00A6C4"/>
<path d="M38.742 10.334L35.422 13.654C36.6323 15.1039 37.2564 16.9541 37.1717 18.8408C37.0869 20.7276 36.2993 22.5144 34.9638 23.8498C33.6284 25.1853 31.8416 25.9729 29.9548 26.0577C28.0681 26.1424 26.2179 25.5183 24.768 24.308L21.125 27.956L17.487 24.318C16.0385 25.5386 14.1847 26.1714 12.2922 26.0911C10.3997 26.0108 8.60615 25.2234 7.26623 23.8844C5.9263 22.5455 5.13751 20.7526 5.05581 18.8601C4.97411 16.9677 5.60545 15.1134 6.825 13.664L5.125 11.964L3.508 10.334C1.61824 13.4571 0.592703 17.0265 0.536443 20.6764C0.480182 24.3263 1.39522 27.9256 3.18782 31.1055C4.98042 34.2854 7.58613 36.9316 10.738 38.773C13.8899 40.6144 17.4746 41.5848 21.125 41.5848C24.7754 41.5848 28.3601 40.6144 31.512 38.773C34.6639 36.9316 37.2696 34.2854 39.0622 31.1055C40.8548 27.9256 41.7698 24.3263 41.7136 20.6764C41.6573 17.0265 40.6318 13.4571 38.742 10.334Z" fill="#00A6C4"/>
<path d="M36.019 6.793C32.2515 2.84301 27.0695 0.551036 21.6125 0.421079C16.1554 0.291123 10.8702 2.33383 6.91899 6.1C6.67833 6.33066 6.44733 6.56166 6.22599 6.793C5.71542 7.32943 5.23246 7.89149 4.77899 8.477L21.121 24.828L37.463 8.477C37.0133 7.88925 36.5313 7.32704 36.019 6.793ZM21.119 3.107C23.4731 3.09496 25.8059 3.55265 27.9809 4.45326C30.156 5.35387 32.1295 6.67931 33.786 8.352L21.121 21.017L8.45499 8.352C10.1114 6.67943 12.0847 5.35406 14.2596 4.45345C16.4344 3.55284 18.7671 3.09509 21.121 3.107H21.119Z" fill="#00A6C4"/>
</svg>
