<svg width="28" height="46" viewBox="0 0 28 46" fill="none" xmlns="http://www.w3.org/2000/svg">
<path d="M14.669 1.21648L27.25 8.47848V37.5205L13.999 45.1685C9.58367 42.6178 5.16733 40.0685 0.75 37.5205V8.47848C5.16733 5.92848 9.58433 3.37948 14.001 0.831482L14.669 1.21648ZM15.35 18.4495V27.5495C17.978 26.0322 20.6033 24.5155 23.226 22.9995C20.598 21.4821 17.9727 19.9655 15.35 18.4495ZM12.659 27.5495V18.4495C10.031 19.9668 7.40567 21.4835 4.783 22.9995C7.411 24.5168 10.0363 26.0335 12.659 27.5495ZM24.565 25.3255L14.005 31.4195C10.485 29.3868 6.965 27.3555 3.445 25.3255V35.9745C6.96767 38.0078 10.4877 40.0411 14.005 42.0745C17.5277 40.0411 21.0477 38.0078 24.565 35.9745V25.3255ZM16.684 16.1255C19.3113 17.6421 21.9383 19.1578 24.565 20.6725V11.5785C21.9377 13.0951 19.3107 14.6108 16.684 16.1255ZM3.441 20.6735C6.06833 19.1568 8.69534 17.6411 11.322 16.1265C8.69467 14.6098 6.06767 13.0941 3.441 11.5795V20.6745V20.6735ZM4.78 9.25248L14.002 14.5795C17.0787 12.8035 20.1527 11.0278 23.224 9.25248L14.002 3.92548C10.9253 5.70148 7.85133 7.47715 4.78 9.25248Z" fill="#13B5EC"/>
</svg>
