<svg width="356" height="1263" viewBox="0 0 356 1263" fill="none" xmlns="http://www.w3.org/2000/svg">
<path d="M45.5 0.5C169 28.3333 7.229 234.5 274 624.5C526.409 993.504 74.3333 1230 45.5 1262.5" stroke="url(#paint0_linear_1_23)" stroke-opacity="0.5"/>
<path d="M50.5 0C174 27.8333 12.229 234 279 624C531.409 993.004 79.3333 1229.5 50.5 1262" stroke="url(#paint1_linear_1_23)"/>
<path d="M27.5 0.5C151 28.3333 -10.771 234.5 256 624.5C508.409 993.504 56.3333 1230 27.5 1262.5" stroke="url(#paint2_linear_1_23)"/>
<path d="M37.5 0.5C161 28.3333 -0.770996 234.5 266 624.5C518.409 993.504 66.3333 1230 37.5 1262.5" stroke="url(#paint3_linear_1_23)"/>
<path d="M41.5 0.5C165 28.3333 3.229 234.5 270 624.5C522.409 993.504 70.3333 1230 41.5 1262.5" stroke="white" stroke-opacity="0.15"/>
<path d="M32.5 0.5C156 28.3333 -5.771 234.5 261 624.5C513.409 993.504 61.3333 1230 32.5 1262.5" stroke="url(#paint4_linear_1_23)"/>
<mask id="mask0_1_23" style="mask-type:alpha" maskUnits="userSpaceOnUse" x="-1" y="0" width="333" height="1263">
<path d="M255 624.5C-11.771 234.5 150 28.3333 26.5 0.5H0V1262.5H26.5C55.3333 1230 507.409 993.504 255 624.5Z" fill="#D9D9D9" stroke="url(#paint5_linear_1_23)"/>
</mask>
<g mask="url(#mask0_1_23)">
<g filter="url(#filter0_f_1_23)">
<path d="M-79.7736 445.085C-33.86 519.926 -62.4911 620.995 -143.723 670.829C-224.955 720.663 -328.026 700.392 -373.94 625.551C-419.854 550.71 -391.222 449.641 -309.991 399.806C-228.759 349.972 -125.687 370.244 -79.7736 445.085Z" fill="url(#paint6_linear_1_23)"/>
<path d="M-128.716 328.414C-82.8021 403.255 -111.433 504.325 -192.665 554.159C-273.897 603.993 -376.969 583.721 -422.882 508.88C-468.796 434.04 -440.165 332.97 -358.933 283.136C-277.701 233.302 -174.629 253.574 -128.716 328.414Z" fill="#762BF1"/>
<path d="M189.694 602.959C259.44 716.647 215.948 870.177 92.5517 945.879C-30.8443 1021.58 -187.416 990.786 -257.162 877.098C-326.908 763.41 -283.415 609.88 -160.019 534.179C-36.6232 458.477 119.949 489.271 189.694 602.959Z" fill="#533388"/>
</g>
</g>
<defs>
<filter id="filter0_f_1_23" x="-703.53" y="-2.92432" width="1185.24" height="1249.04" filterUnits="userSpaceOnUse" color-interpolation-filters="sRGB">
<feFlood flood-opacity="0" result="BackgroundImageFix"/>
<feBlend mode="normal" in="SourceGraphic" in2="BackgroundImageFix" result="shape"/>
<feGaussianBlur stdDeviation="129.375" result="effect1_foregroundBlur_1_23"/>
</filter>
<linearGradient id="paint0_linear_1_23" x1="197.911" y1="0.5" x2="197.911" y2="1262.5" gradientUnits="userSpaceOnUse">
<stop stop-color="white" stop-opacity="0.16"/>
<stop offset="0.223975" stop-color="white" stop-opacity="0.48"/>
<stop offset="0.398136" stop-color="#6209F4"/>
<stop offset="0.825" stop-color="#8B6AC1"/>
<stop offset="1" stop-color="#613D9D"/>
</linearGradient>
<linearGradient id="paint1_linear_1_23" x1="202.911" y1="0" x2="202.911" y2="1262" gradientUnits="userSpaceOnUse">
<stop stop-color="#090B19"/>
<stop offset="0.28" stop-color="#DFBDFB"/>
<stop offset="0.54" stop-color="#2B0072"/>
<stop offset="0.795" stop-color="white"/>
<stop offset="1" stop-color="#F6F3FC" stop-opacity="0.04"/>
</linearGradient>
<linearGradient id="paint2_linear_1_23" x1="10.5" y1="13" x2="272.5" y2="1194.5" gradientUnits="userSpaceOnUse">
<stop stop-color="white" stop-opacity="0.02"/>
<stop offset="0.2" stop-color="#7E5DB4"/>
<stop offset="0.409914" stop-color="#CFB8F4"/>
<stop offset="0.715" stop-color="#080B18"/>
<stop offset="1" stop-color="#230850"/>
</linearGradient>
<linearGradient id="paint3_linear_1_23" x1="189.911" y1="0.5" x2="189.911" y2="1262.5" gradientUnits="userSpaceOnUse">
<stop stop-color="#E9ECF2" stop-opacity="0.2"/>
<stop offset="0.15" stop-color="#5921D0"/>
<stop offset="0.5" stop-color="#D9ACFF"/>
<stop offset="0.75" stop-color="#0C162C"/>
<stop offset="1" stop-color="#AF50FF"/>
</linearGradient>
<linearGradient id="paint4_linear_1_23" x1="233.5" y1="1206.5" x2="51.5" y2="54.5" gradientUnits="userSpaceOnUse">
<stop stop-color="white" stop-opacity="0.02"/>
<stop offset="0.2" stop-color="#B080FF"/>
<stop offset="0.409914" stop-color="#CFB8F4"/>
<stop offset="0.715" stop-color="#7540DA"/>
<stop offset="1" stop-color="#230850"/>
</linearGradient>
<linearGradient id="paint5_linear_1_23" x1="9.5" y1="13" x2="271.5" y2="1194.5" gradientUnits="userSpaceOnUse">
<stop stop-color="white" stop-opacity="0.02"/>
<stop offset="0.2" stop-color="#7E5DB4"/>
<stop offset="0.409914" stop-color="#CFB8F4"/>
<stop offset="0.715" stop-color="#080B18"/>
<stop offset="1" stop-color="#230850"/>
</linearGradient>
<linearGradient id="paint6_linear_1_23" x1="-340.306" y1="741.569" x2="106.55" y2="467.431" gradientUnits="userSpaceOnUse">
<stop stop-color="#A27CC3"/>
<stop offset="0.465" stop-color="#D5AEF6"/>
<stop offset="1" stop-color="#A265D5"/>
</linearGradient>
</defs>
</svg>
