<svg width="33" height="32" viewBox="0 0 33 32" fill="none" xmlns="http://www.w3.org/2000/svg">
<g clip-path="url(#clip0_1_696)">
<path fill-rule="evenodd" clip-rule="evenodd" d="M16.3691 0C19.5336 0 22.6271 0.938384 25.2583 2.69649C27.8895 4.45459 29.9402 6.95345 31.1512 9.87706C32.3622 12.8007 32.6791 16.0177 32.0617 19.1214C31.4443 22.2251 29.9205 25.0761 27.6828 27.3137C25.4452 29.5513 22.5943 31.0752 19.4906 31.6926C16.3869 32.3099 13.1698 31.9931 10.2462 30.7821C7.32259 29.5711 4.82373 27.5203 3.06563 24.8891C1.30752 22.2579 0.369141 19.1645 0.369141 16C0.37126 11.7572 2.05765 7.68876 5.05777 4.68863C8.0579 1.68851 12.1263 0.00211982 16.3691 0ZM27.0361 16C27.0359 15.3797 26.7894 14.785 26.3508 14.3464C25.9122 13.9078 25.3174 13.6613 24.6971 13.661C24.3989 13.6579 24.103 13.7142 23.8267 13.8266C23.5505 13.9391 23.2994 14.1055 23.0881 14.316C21.2449 13.069 19.0811 12.3802 16.8561 12.332L17.9231 7.332L21.3851 8.062C21.3996 8.38796 21.5095 8.70249 21.7012 8.96656C21.8928 9.23062 22.1578 9.4326 22.4632 9.54743C22.7686 9.66225 23.101 9.68487 23.4192 9.61247C23.7373 9.54007 24.0272 9.37585 24.2528 9.14017C24.4785 8.9045 24.63 8.60775 24.6885 8.28676C24.747 7.96577 24.71 7.63466 24.582 7.33453C24.454 7.03439 24.2407 6.77844 23.9686 6.59844C23.6964 6.41845 23.3774 6.32232 23.0511 6.322C22.741 6.32006 22.4368 6.40725 22.1748 6.57318C21.9128 6.73911 21.704 6.97681 21.5731 7.258L17.6991 6.435C17.5899 6.41517 17.4771 6.43503 17.3811 6.491C17.289 6.55263 17.2225 6.6458 17.1941 6.753L16.0151 12.33C13.7562 12.3463 11.5537 13.0372 9.69014 14.314C9.36077 13.9947 8.94446 13.7798 8.49341 13.6962C8.04237 13.6127 7.5767 13.6642 7.1548 13.8442C6.73291 14.0243 6.37359 14.325 6.12192 14.7085C5.87025 15.092 5.73744 15.5413 5.74014 16C5.73964 16.4515 5.87025 16.8934 6.11612 17.272C6.36199 17.6507 6.71252 17.9498 7.12514 18.133C7.08717 18.3681 7.06844 18.6059 7.06914 18.844C7.06914 22.437 11.2421 25.338 16.4071 25.338C21.5721 25.338 25.7451 22.438 25.7451 18.844C25.7458 18.6122 25.7271 18.3807 25.6891 18.152C26.0909 17.9532 26.4295 17.6467 26.6674 17.2667C26.9052 16.8868 27.0329 16.4482 27.0361 16ZM20.3361 22.063C19.1951 23.205 17.0241 23.279 16.3871 23.279C15.7501 23.279 13.5611 23.185 12.4391 22.063C12.358 21.9809 12.3127 21.87 12.313 21.7545C12.3134 21.6391 12.3594 21.5285 12.441 21.4469C12.5226 21.3652 12.6332 21.3192 12.7487 21.3189C12.8641 21.3185 12.975 21.3639 13.0571 21.445C14.0306 22.141 15.2123 22.4843 16.4071 22.418C17.6017 22.4815 18.7825 22.1386 19.7571 21.445C19.8396 21.364 19.9506 21.3186 20.0661 21.3186C20.1817 21.3186 20.2927 21.364 20.3751 21.445C20.4425 21.536 20.4757 21.6477 20.469 21.7607C20.4622 21.8737 20.4159 21.9807 20.3381 22.063H20.3361ZM11.0361 17.663C11.0359 17.3334 11.1335 17.0112 11.3165 16.737C11.4995 16.4629 11.7597 16.2492 12.0641 16.123C12.3686 15.9968 12.7037 15.9637 13.0269 16.028C13.3502 16.0922 13.6471 16.2509 13.8802 16.484C14.1132 16.717 14.2719 17.014 14.3362 17.3372C14.4004 17.6605 14.3674 17.9956 14.2411 18.3C14.1149 18.6045 13.9012 18.8647 13.6271 19.0476C13.353 19.2306 13.0307 19.3282 12.7011 19.328C12.2604 19.3269 11.838 19.1516 11.526 18.8402C11.2141 18.5289 11.038 18.1067 11.0361 17.666V17.663ZM20.0361 19.328C19.7066 19.328 19.3845 19.2303 19.1105 19.0472C18.8365 18.8641 18.6229 18.6038 18.4969 18.2993C18.3708 17.9948 18.3379 17.6598 18.4022 17.3366C18.4666 17.0134 18.6254 16.7166 18.8585 16.4836C19.0916 16.2507 19.3885 16.0921 19.7117 16.0279C20.035 15.9637 20.37 15.9969 20.6744 16.1231C20.9788 16.2494 21.2389 16.463 21.4219 16.7371C21.6048 17.0113 21.7023 17.3335 21.7021 17.663C21.7019 18.1048 21.5265 18.5284 21.2144 18.8411C20.9023 19.1538 20.4789 19.3299 20.0371 19.331L20.0361 19.328Z" fill="white"/>
</g>
<defs>
<clipPath id="clip0_1_696">
<rect width="32" height="32" fill="white" transform="translate(0.369141)"/>
</clipPath>
</defs>
</svg>
