<svg width="33" height="32" viewBox="0 0 33 32" fill="none" xmlns="http://www.w3.org/2000/svg">
<g clip-path="url(#clip0_1_692)">
<path d="M16.1895 0C13.025 0 9.93152 0.938384 7.30034 2.69649C4.66915 4.45459 2.61839 6.95345 1.40739 9.87706C0.196386 12.8007 -0.120468 16.0177 0.496896 19.1214C1.11426 22.2251 2.63811 25.0761 4.87575 27.3137C7.11339 29.5513 9.96432 31.0752 13.068 31.6926C16.1717 32.3099 19.3888 31.9931 22.3124 30.7821C25.236 29.5711 27.7349 27.5203 29.493 24.8891C31.2511 22.2579 32.1895 19.1645 32.1895 16C32.1895 11.7565 30.5038 7.68687 27.5032 4.68629C24.5026 1.68571 20.4329 0 16.1895 0ZM24.0475 10.961L21.4215 23.335C21.2275 24.212 20.7055 24.425 19.9765 24.012L15.9765 21.064L14.0475 22.922C13.9525 23.0453 13.8304 23.1451 13.6906 23.2134C13.5508 23.2817 13.3971 23.3169 13.2415 23.316L13.5255 19.245L20.9385 12.545C21.2615 12.261 20.8675 12.1 20.4385 12.384L11.2795 18.155L7.33146 16.923C6.47346 16.652 6.45446 16.065 7.51246 15.652L22.9375 9.7C23.6545 9.445 24.2795 9.877 24.0475 10.961Z" fill="white"/>
</g>
<defs>
<clipPath id="clip0_1_692">
<rect width="32" height="32" fill="white" transform="translate(0.189453)"/>
</clipPath>
</defs>
</svg>
