<svg width="33" height="32" viewBox="0 0 33 32" fill="none" xmlns="http://www.w3.org/2000/svg">
<g clip-path="url(#clip0_1_690)">
<path d="M16.5933 32C13.429 32 10.3358 31.0616 7.70477 29.3036C5.07375 27.5456 3.02311 25.0469 1.81219 22.1235C0.601262 19.2001 0.284428 15.9832 0.901753 12.8797C1.51908 9.77621 3.04284 6.92546 5.28034 4.68796C7.51784 2.45046 10.3686 0.926702 13.4721 0.309377C16.5756 -0.307948 19.7925 0.00888519 22.7159 1.21981C25.6393 2.43074 28.138 4.48137 29.896 7.11239C31.654 9.74341 32.5923 12.8367 32.5923 16.001C32.5868 20.2425 30.8994 24.3086 27.9002 27.3078C24.901 30.307 20.8348 31.9944 16.5933 32ZM15.4104 18.0008L19.7101 23.7365H25.0928L18.3932 14.784L24.4318 8.26344H22.348L17.4663 13.5361L13.5245 8.26344H8.13487L14.4885 16.7529L8.02487 23.7365H10.1087L15.4134 18.0008H15.4104ZM22.034 22.2076H20.4711L11.1847 9.79635H12.7476L22.033 22.2056L22.034 22.2076Z" fill="white"/>
</g>
<defs>
<clipPath id="clip0_1_690">
<rect width="32" height="32" fill="white" transform="translate(0.589844)"/>
</clipPath>
</defs>
</svg>
