<svg width="24" height="25" viewBox="0 0 24 25" fill="none" xmlns="http://www.w3.org/2000/svg">
<path d="M21.6358 7.63338C21.7701 10.1923 21.1979 12.7389 19.982 14.9946C18.766 17.2502 16.9531 19.1279 14.7416 20.4223C12.53 21.7166 10.0051 22.3778 7.44297 22.3334C4.88087 22.2891 2.38032 21.5409 0.214928 20.1707C2.71706 20.3352 5.19181 19.5698 7.16418 18.0214C6.22442 17.9095 5.33554 17.5338 4.60025 16.938C3.86495 16.3422 3.31327 15.5504 3.00896 14.6543C3.75064 14.7735 4.50963 14.7245 5.22985 14.511C4.11462 14.3011 3.10352 13.7193 2.36179 12.8604C1.62006 12.0016 1.19155 10.9165 1.14627 9.78263C1.78337 10.0381 2.46612 10.16 3.15224 10.1408C2.19673 9.40166 1.54017 8.3424 1.30325 7.1578C1.06633 5.97321 1.26499 4.74291 1.86269 3.69308C3.09216 5.21141 4.62642 6.45498 6.36639 7.34347C8.10636 8.23197 10.0133 8.74563 11.9642 8.85129C11.6366 7.78673 11.6894 6.64138 12.1136 5.61149C12.5378 4.5816 13.3069 3.73129 14.2893 3.20626C15.2716 2.68123 16.4059 2.51416 17.4979 2.73368C18.5899 2.9532 19.5715 3.54565 20.2746 4.4095C21.3723 4.2125 22.4196 3.79845 23.3552 3.19159C22.9988 4.35422 22.2017 5.3313 21.1343 5.91398C22.1044 5.8158 23.0499 5.54911 23.9284 5.12592C23.5072 6.22063 22.6885 7.11611 21.6358 7.63338Z" fill="#3BA9EE"/>
</svg>
