<svg width="195" height="36" viewBox="0 0 195 36" fill="none" xmlns="http://www.w3.org/2000/svg">
<g clip-path="url(#clip0_1_95)">
<path d="M69.1458 11.7228L64.0222 29.0088H60.8137L57.1824 15.9261L53.3273 29.0088L50.1437 29.0337L45.2439 11.7228H48.2534L51.835 25.8003L55.715 11.7228H58.8986L62.505 25.7257L66.1115 11.7228H69.1458ZM78.5729 15.0805C79.6175 15.0805 80.546 15.3044 81.3585 15.752C82.1876 16.1997 82.8343 16.863 83.2985 17.7418C83.7794 18.6206 84.0198 19.6818 84.0198 20.9254V29.0088H81.2093V21.3482C81.2093 20.1212 80.9025 19.1844 80.289 18.5377C79.6755 17.8745 78.8382 17.5428 77.777 17.5428C76.7158 17.5428 75.8701 17.8745 75.24 18.5377C74.6265 19.1844 74.3198 20.1212 74.3198 21.3482V29.0088H71.4844V10.6036H74.3198V16.8962C74.8006 16.3158 75.4058 15.8681 76.1354 15.5531C76.8816 15.238 77.6941 15.0805 78.5729 15.0805ZM89.0791 13.4887C88.5651 13.4887 88.134 13.3146 87.7858 12.9664C87.4376 12.6182 87.2635 12.1871 87.2635 11.673C87.2635 11.159 87.4376 10.7279 87.7858 10.3797C88.134 10.0315 88.5651 9.8574 89.0791 9.8574C89.5766 9.8574 89.9994 10.0315 90.3476 10.3797C90.6958 10.7279 90.8699 11.159 90.8699 11.673C90.8699 12.1871 90.6958 12.6182 90.3476 12.9664C89.9994 13.3146 89.5766 13.4887 89.0791 13.4887ZM90.472 15.3044V29.0088H87.6366V15.3044H90.472ZM97.5026 17.6174V25.2034C97.5026 25.7174 97.6186 26.0905 97.8508 26.3226C98.0995 26.5382 98.514 26.646 99.0944 26.646H100.835V29.0088H98.5969C97.3202 29.0088 96.3419 28.7103 95.662 28.1134C94.9822 27.5165 94.6423 26.5465 94.6423 25.2034V17.6174H93.0256V15.3044H94.6423V11.8969H97.5026V15.3044H100.835V17.6174H97.5026ZM116.009 21.8208C116.009 22.3348 115.976 22.7991 115.91 23.2136H105.438C105.521 24.308 105.928 25.1868 106.657 25.8501C107.387 26.5133 108.282 26.8449 109.343 26.8449C110.869 26.8449 111.947 26.2066 112.577 24.9298H115.636C115.221 26.19 114.467 27.2263 113.373 28.0388C112.295 28.8347 110.952 29.2326 109.343 29.2326C108.033 29.2326 106.856 28.9425 105.812 28.3621C104.783 27.7652 103.971 26.9361 103.374 25.8749C102.794 24.7971 102.504 23.5535 102.504 22.1441C102.504 20.7347 102.785 19.4994 103.349 18.4382C103.93 17.3604 104.734 16.5314 105.762 15.951C106.806 15.3707 108 15.0805 109.343 15.0805C110.637 15.0805 111.789 15.3624 112.801 15.9261C113.812 16.4899 114.6 17.2858 115.163 18.3139C115.727 19.3253 116.009 20.4943 116.009 21.8208ZM113.049 20.9254C113.033 19.8808 112.66 19.0434 111.93 18.4133C111.2 17.7833 110.297 17.4682 109.219 17.4682C108.241 17.4682 107.403 17.7833 106.707 18.4133C106.011 19.0269 105.596 19.8642 105.463 20.9254H113.049ZM121.635 17.319C122.116 16.6889 122.771 16.1583 123.6 15.7272C124.429 15.2961 125.366 15.0805 126.41 15.0805C127.604 15.0805 128.69 15.379 129.668 15.9759C130.663 16.5562 131.443 17.377 132.006 18.4382C132.57 19.4994 132.852 20.7181 132.852 22.0944C132.852 23.4706 132.57 24.7059 132.006 25.8003C131.443 26.8781 130.663 27.7237 129.668 28.3372C128.69 28.9342 127.604 29.2326 126.41 29.2326C125.366 29.2326 124.437 29.0254 123.625 28.6108C122.812 28.1797 122.149 27.6491 121.635 27.019V35.5252H118.799V15.3044H121.635V17.319ZM129.967 22.0944C129.967 21.1493 129.768 20.3368 129.37 19.6569C128.989 18.9605 128.475 18.4382 127.828 18.09C127.198 17.7252 126.518 17.5428 125.788 17.5428C125.075 17.5428 124.396 17.7252 123.749 18.09C123.119 18.4548 122.605 18.9854 122.207 19.6818C121.825 20.3782 121.635 21.199 121.635 22.1441C121.635 23.0893 121.825 23.9183 122.207 24.6313C122.605 25.3277 123.119 25.8583 123.749 26.2231C124.396 26.5879 125.075 26.7703 125.788 26.7703C126.518 26.7703 127.198 26.5879 127.828 26.2231C128.475 25.8418 128.989 25.2946 129.37 24.5816C129.768 23.8686 129.967 23.0395 129.967 22.0944ZM134.711 22.0944C134.711 20.7181 134.993 19.4994 135.556 18.4382C136.137 17.377 136.916 16.5562 137.894 15.9759C138.889 15.379 139.984 15.0805 141.177 15.0805C142.255 15.0805 143.192 15.2961 143.988 15.7272C144.8 16.1417 145.447 16.664 145.928 17.2941V15.3044H148.788V29.0088H145.928V26.9693C145.447 27.616 144.792 28.1549 143.963 28.586C143.134 29.0171 142.189 29.2326 141.128 29.2326C139.95 29.2326 138.873 28.9342 137.894 28.3372C136.916 27.7237 136.137 26.8781 135.556 25.8003C134.993 24.7059 134.711 23.4706 134.711 22.0944ZM145.928 22.1441C145.928 21.199 145.729 20.3782 145.331 19.6818C144.95 18.9854 144.444 18.4548 143.814 18.09C143.184 17.7252 142.504 17.5428 141.774 17.5428C141.045 17.5428 140.365 17.7252 139.735 18.09C139.105 18.4382 138.591 18.9605 138.193 19.6569C137.811 20.3368 137.621 21.1493 137.621 22.0944C137.621 23.0395 137.811 23.8686 138.193 24.5816C138.591 25.2946 139.105 25.8418 139.735 26.2231C140.382 26.5879 141.061 26.7703 141.774 26.7703C142.504 26.7703 143.184 26.5879 143.814 26.2231C144.444 25.8583 144.95 25.3277 145.331 24.6313C145.729 23.9183 145.928 23.0893 145.928 22.1441ZM155.348 17.319C155.829 16.6889 156.484 16.1583 157.313 15.7272C158.142 15.2961 159.079 15.0805 160.123 15.0805C161.317 15.0805 162.403 15.379 163.382 15.9759C164.376 16.5562 165.156 17.377 165.719 18.4382C166.283 19.4994 166.565 20.7181 166.565 22.0944C166.565 23.4706 166.283 24.7059 165.719 25.8003C165.156 26.8781 164.376 27.7237 163.382 28.3372C162.403 28.9342 161.317 29.2326 160.123 29.2326C159.079 29.2326 158.15 29.0254 157.338 28.6108C156.525 28.1797 155.862 27.6491 155.348 27.019V35.5252H152.512V15.3044H155.348V17.319ZM163.68 22.0944C163.68 21.1493 163.481 20.3368 163.083 19.6569C162.702 18.9605 162.188 18.4382 161.541 18.09C160.911 17.7252 160.231 17.5428 159.501 17.5428C158.788 17.5428 158.109 17.7252 157.462 18.09C156.832 18.4548 156.318 18.9854 155.92 19.6818C155.539 20.3782 155.348 21.199 155.348 22.1441C155.348 23.0893 155.539 23.9183 155.92 24.6313C156.318 25.3277 156.832 25.8583 157.462 26.2231C158.109 26.5879 158.788 26.7703 159.501 26.7703C160.231 26.7703 160.911 26.5879 161.541 26.2231C162.188 25.8418 162.702 25.2946 163.083 24.5816C163.481 23.8686 163.68 23.0395 163.68 22.0944ZM181.929 21.8208C181.929 22.3348 181.896 22.7991 181.83 23.2136H171.359C171.442 24.308 171.848 25.1868 172.578 25.8501C173.307 26.5133 174.202 26.8449 175.264 26.8449C176.789 26.8449 177.867 26.2066 178.497 24.9298H181.556C181.142 26.19 180.387 27.2263 179.293 28.0388C178.215 28.8347 176.872 29.2326 175.264 29.2326C173.954 29.2326 172.777 28.9425 171.732 28.3621C170.704 27.7652 169.891 26.9361 169.294 25.8749C168.714 24.7971 168.424 23.5535 168.424 22.1441C168.424 20.7347 168.706 19.4994 169.27 18.4382C169.85 17.3604 170.654 16.5314 171.682 15.951C172.727 15.3707 173.921 15.0805 175.264 15.0805C176.557 15.0805 177.709 15.3624 178.721 15.9261C179.732 16.4899 180.52 17.2858 181.084 18.3139C181.647 19.3253 181.929 20.4943 181.929 21.8208ZM178.97 20.9254C178.953 19.8808 178.58 19.0434 177.85 18.4133C177.121 17.7833 176.217 17.4682 175.139 17.4682C174.161 17.4682 173.324 17.7833 172.627 18.4133C171.931 19.0269 171.516 19.8642 171.384 20.9254H178.97ZM187.555 17.2941C187.97 16.5977 188.517 16.0588 189.197 15.6774C189.893 15.2795 190.714 15.0805 191.659 15.0805V18.0154H190.938C189.827 18.0154 188.981 18.2973 188.401 18.861C187.837 19.4248 187.555 20.4031 187.555 21.7959V29.0088H184.72V15.3044H187.555V17.2941Z" fill="white"/>
<path d="M20.1003 35.6081C22.4791 34.6132 30.8052 31.0126 35.2324 28.7333C39.6596 26.454 38.0091 20.0099 38.0091 20.0099L23.8391 25.6879L21.146 26.7703L21.1012 26.7882C21.0881 27.9727 20.9267 29.1509 20.6207 30.2953C20.5261 30.7535 20.3353 31.1863 20.0609 31.5652C19.7865 31.9441 19.4347 32.2603 19.0289 32.4931C18.3638 32.8203 17.634 32.995 16.8929 33.0044C16.2838 33.0002 15.6819 32.8733 15.123 32.6314C12.7134 31.6136 10.3844 28.4527 8.89405 24.1667C7.28633 19.5493 4.58822 11.5452 3.12376 7.18751L22.2692 2.96312L28.3379 19.4C28.4341 19.6614 28.6078 19.8871 28.8357 20.0471C29.0636 20.2071 29.3349 20.2938 29.6134 20.2955C29.774 20.2941 29.9331 20.2652 30.0839 20.2099C30.4222 20.0848 30.6969 19.8305 30.8479 19.5029C30.9988 19.1753 31.0135 18.8013 30.8888 18.4628L24.4112 0.913602C24.2968 0.606154 24.0753 0.350274 23.7875 0.192923C23.4997 0.035572 23.1648 -0.0126938 22.8442 0.0569837L1.06536 4.8624C0.879368 4.90333 0.704073 4.98296 0.550876 5.09609C0.397679 5.20923 0.27001 5.35335 0.176171 5.51907C0.0823328 5.6848 0.0244262 5.86842 0.00621728 6.05799C-0.0119917 6.24757 0.00990482 6.43886 0.0704828 6.61941C0.109283 6.73781 4.14948 18.8031 6.32926 25.0621C8.02055 29.9322 10.6918 33.5109 13.6913 34.9684C15.0097 35.6298 16.4616 35.9813 17.9365 35.9961C18.6761 36.0079 19.4109 35.8761 20.1003 35.6081Z" fill="white"/>
</g>
<defs>
<clipPath id="clip0_1_95">
<rect width="195" height="35.97" fill="white" transform="translate(0 0.0200195)"/>
</clipPath>
</defs>
</svg>
